G04 #@! TF.FileFunction,Copper,L1,Top,Signal*
%FSLAX46Y46*%
G04 Gerber Fmt 4.6, Leading zero omitted, Abs format (unit mm)*
G04 Created by KiCad (PCBNEW 4.0.5) date 04/21/17 16:16:47*
%MOMM*%
%LPD*%
G01*
G04 APERTURE LIST*
%ADD10C,0.100000*%
%ADD11C,1.524000*%
%ADD12C,1.500000*%
%ADD13C,2.300000*%
%ADD14C,17.800000*%
%ADD15C,2.500000*%
%ADD16C,2.200000*%
%ADD17C,1.700000*%
%ADD18C,2.000000*%
%ADD19R,3.500000X3.500000*%
%ADD20C,1.520000*%
%ADD21C,2.700000*%
%ADD22R,1.600000X1.600000*%
%ADD23C,1.600000*%
%ADD24O,1.750000X2.750000*%
%ADD25C,1.750000*%
%ADD26O,2.750000X1.750000*%
%ADD27O,1.998980X1.998980*%
%ADD28R,1.998980X1.998980*%
%ADD29C,1.962000*%
%ADD30C,1.762000*%
%ADD31C,0.600000*%
%ADD32C,0.700000*%
%ADD33C,0.250000*%
%ADD34C,0.350000*%
%ADD35C,0.500000*%
%ADD36C,0.254000*%
G04 APERTURE END LIST*
D10*
D11*
X70000000Y-86350000D03*
X70000000Y-93650000D03*
D12*
X33020000Y-69215000D03*
X37900000Y-69215000D03*
D13*
X65850800Y-138250800D03*
X65850800Y-141350800D03*
X86650800Y-138250800D03*
X86650800Y-141350800D03*
D14*
X76250800Y-139750800D03*
D15*
X164000000Y-82000000D03*
X165750000Y-85500000D03*
X165750000Y-90000000D03*
X165750000Y-94500000D03*
X164000000Y-98000000D03*
X160000000Y-99000000D03*
X156000000Y-98000000D03*
X154250000Y-94500000D03*
X154250000Y-90000000D03*
X154250000Y-85500000D03*
X156000000Y-82000000D03*
X160000000Y-81000000D03*
X124000000Y-82000000D03*
X125750000Y-85500000D03*
X125750000Y-90000000D03*
X125750000Y-94500000D03*
X124000000Y-98000000D03*
X120000000Y-99000000D03*
X116000000Y-98000000D03*
X114250000Y-94500000D03*
X114250000Y-90000000D03*
X114250000Y-85500000D03*
X116000000Y-82000000D03*
X120000000Y-81000000D03*
X94000000Y-82000000D03*
X95750000Y-85500000D03*
X95750000Y-90000000D03*
X95750000Y-94500000D03*
X94000000Y-98000000D03*
X90000000Y-99000000D03*
X86000000Y-98000000D03*
X84250000Y-94500000D03*
X84250000Y-90000000D03*
X84250000Y-85500000D03*
X86000000Y-82000000D03*
X90000000Y-81000000D03*
D16*
X81250000Y-56000000D03*
X74250000Y-56000000D03*
D17*
X80000000Y-53500000D03*
X75500000Y-53500000D03*
D18*
X161925000Y-122610000D03*
X161925000Y-118110000D03*
X168425000Y-122610000D03*
X168425000Y-118110000D03*
D11*
X140000000Y-96350000D03*
X140000000Y-103650000D03*
X140000000Y-76350000D03*
X140000000Y-83650000D03*
X210000000Y-116350000D03*
X210000000Y-123650000D03*
X180000000Y-116350000D03*
X180000000Y-123650000D03*
X70000000Y-106350000D03*
X70000000Y-113650000D03*
X70000000Y-96350000D03*
X70000000Y-103650000D03*
X70000000Y-76350000D03*
X70000000Y-83650000D03*
X215000000Y-136350000D03*
X215000000Y-143650000D03*
X205000000Y-136350000D03*
X205000000Y-143650000D03*
X195000000Y-136350000D03*
X195000000Y-143650000D03*
X185000000Y-136350000D03*
X185000000Y-143650000D03*
X175000000Y-136350000D03*
X175000000Y-143650000D03*
X165000000Y-136350000D03*
X165000000Y-143650000D03*
X155000000Y-136350000D03*
X155000000Y-143650000D03*
D19*
X39370000Y-123190000D03*
X33370000Y-123190000D03*
X36370000Y-127890000D03*
D20*
X139903200Y-133705600D03*
X142443200Y-133705600D03*
X142443200Y-135705600D03*
X139903200Y-135705600D03*
D21*
X135173200Y-138405600D03*
X147173200Y-138405600D03*
D22*
X57785000Y-125730000D03*
D23*
X57785000Y-123230000D03*
D22*
X44450000Y-121920000D03*
D23*
X44450000Y-119420000D03*
D22*
X39370000Y-113665000D03*
D23*
X36870000Y-113665000D03*
D22*
X36195000Y-97790000D03*
D23*
X38695000Y-97790000D03*
D22*
X52705000Y-88900000D03*
D23*
X55205000Y-88900000D03*
D12*
X135255000Y-128016000D03*
X130375000Y-128016000D03*
D24*
X235000000Y-87750000D03*
D25*
X237125000Y-86680587D02*
X237625000Y-87546613D01*
X238680587Y-85125000D02*
X239546613Y-85625000D01*
D26*
X239750000Y-83000000D03*
D25*
X238680587Y-80875000D02*
X239546613Y-80375000D01*
X237125000Y-79319413D02*
X237625000Y-78453387D01*
D24*
X235000000Y-78250000D03*
D25*
X232875000Y-79319413D02*
X232375000Y-78453387D01*
X231319413Y-80875000D02*
X230453387Y-80375000D01*
D26*
X230250000Y-83000000D03*
D25*
X231319413Y-85125000D02*
X230453387Y-85625000D01*
D24*
X215000000Y-87750000D03*
D25*
X217125000Y-86680587D02*
X217625000Y-87546613D01*
X218680587Y-85125000D02*
X219546613Y-85625000D01*
D26*
X219750000Y-83000000D03*
D25*
X218680587Y-80875000D02*
X219546613Y-80375000D01*
X217125000Y-79319413D02*
X217625000Y-78453387D01*
D24*
X215000000Y-78250000D03*
D25*
X212875000Y-79319413D02*
X212375000Y-78453387D01*
X211319413Y-80875000D02*
X210453387Y-80375000D01*
D26*
X210250000Y-83000000D03*
D25*
X211319413Y-85125000D02*
X210453387Y-85625000D01*
D15*
X194000000Y-82000000D03*
X195750000Y-85500000D03*
X195750000Y-90000000D03*
X195750000Y-94500000D03*
X194000000Y-98000000D03*
X190000000Y-99000000D03*
X186000000Y-98000000D03*
X184250000Y-94500000D03*
X184250000Y-90000000D03*
X184250000Y-85500000D03*
X186000000Y-82000000D03*
X190000000Y-81000000D03*
D22*
X88900000Y-63500000D03*
D23*
X88900000Y-66000000D03*
D27*
X112395000Y-63500000D03*
D28*
X104775000Y-63500000D03*
D27*
X107315000Y-63500000D03*
X109855000Y-63500000D03*
D11*
X57785000Y-134580000D03*
X57785000Y-129580000D03*
X41235000Y-88900000D03*
X36235000Y-88900000D03*
D29*
X235515000Y-121845000D03*
D30*
X235515000Y-125545000D03*
D29*
X235515000Y-128345000D03*
X245815000Y-128345000D03*
D30*
X245815000Y-125545000D03*
D29*
X245815000Y-121845000D03*
D18*
X191770000Y-122610000D03*
X191770000Y-118110000D03*
X198270000Y-122610000D03*
X198270000Y-118110000D03*
D16*
X220960000Y-55840000D03*
X213960000Y-55840000D03*
D17*
X219710000Y-53340000D03*
X215210000Y-53340000D03*
D31*
X65405000Y-73660000D03*
X62865000Y-71120000D03*
X76250800Y-139750800D03*
X86360000Y-146050000D03*
X93980000Y-140970000D03*
X118745000Y-124460000D03*
X139700000Y-113030000D03*
X111760000Y-117475000D03*
X104140000Y-118110000D03*
X121920000Y-136525000D03*
X123190000Y-130175000D03*
X140335000Y-125730000D03*
X142240000Y-119380000D03*
X124460000Y-138430000D03*
X97155000Y-111760000D03*
X105410000Y-108585000D03*
X52070000Y-84455000D03*
X57150000Y-72390000D03*
X142240000Y-64770000D03*
X97155000Y-71120000D03*
X111125000Y-112395000D03*
X89535000Y-55245000D03*
X42545000Y-69850000D03*
X96520000Y-70485000D03*
X58420000Y-72390000D03*
X42545000Y-65405000D03*
X42545000Y-67945000D03*
X41275000Y-82550000D03*
X81915000Y-66675000D03*
X226695000Y-128270000D03*
X227965000Y-114935000D03*
X233045000Y-132715000D03*
X250825000Y-119380000D03*
X254000000Y-124460000D03*
X242570000Y-130175000D03*
X156210000Y-114935000D03*
X186055000Y-114935000D03*
X224790000Y-144780000D03*
X231775000Y-138430000D03*
X47625000Y-146685000D03*
X182880000Y-56388000D03*
X122428000Y-63500000D03*
X136144000Y-65024000D03*
X34290000Y-78105000D03*
X58420000Y-62230000D03*
D32*
X64135000Y-95250000D03*
X64135000Y-99060000D03*
X64135000Y-84455000D03*
X64135000Y-88900000D03*
X215265000Y-103505000D03*
X64135000Y-111760000D03*
X86360000Y-112395000D03*
X81280000Y-116205000D03*
X227330000Y-130810000D03*
X201295000Y-103505000D03*
X175260000Y-103505000D03*
X105410000Y-103505000D03*
X135890000Y-103505000D03*
X204470000Y-103505000D03*
X208280000Y-99695000D03*
X214630000Y-94615000D03*
X234950000Y-94615000D03*
X235585000Y-103505000D03*
D31*
X137160000Y-124968000D03*
X210185000Y-59055000D03*
X200025000Y-59690000D03*
X212725000Y-65405000D03*
X226060000Y-92710000D03*
X208915000Y-100965000D03*
X212090000Y-100965000D03*
X177800000Y-60960000D03*
X213995000Y-59690000D03*
X216535000Y-66040000D03*
X186055000Y-101600000D03*
X156210000Y-101600000D03*
X116205000Y-101600000D03*
X206375000Y-58420000D03*
X200025000Y-57785000D03*
X154305000Y-102235000D03*
X184785000Y-102235000D03*
X243205000Y-93345000D03*
X224790000Y-94615000D03*
X208915000Y-64770000D03*
X114300000Y-102235000D03*
X217805000Y-60325000D03*
X176530000Y-59055000D03*
X220345000Y-66675000D03*
X170180000Y-71755000D03*
X139700000Y-71755000D03*
X204470000Y-64135000D03*
X240665000Y-64135000D03*
X242570000Y-72390000D03*
X184785000Y-72390000D03*
X154305000Y-72390000D03*
X114300000Y-72390000D03*
X243205000Y-70485000D03*
X222885000Y-72390000D03*
X203835000Y-63500000D03*
X236855000Y-63500000D03*
X186055000Y-73025000D03*
X156210000Y-73025000D03*
X116205000Y-73025000D03*
X239395000Y-69850000D03*
X241935000Y-73025000D03*
X221615000Y-73025000D03*
X200660000Y-71120000D03*
X140970000Y-71120000D03*
X233045000Y-62865000D03*
X200660000Y-65405000D03*
X190500000Y-73660000D03*
X160020000Y-73660000D03*
X120015000Y-73660000D03*
X235585000Y-69215000D03*
X240665000Y-73660000D03*
X219710000Y-73660000D03*
X199390000Y-107315000D03*
X200660000Y-106045000D03*
X203835000Y-62230000D03*
X229235000Y-62230000D03*
X194310000Y-74295000D03*
X164465000Y-74295000D03*
X124460000Y-74295000D03*
X231775000Y-68580000D03*
X235585000Y-74295000D03*
X215265000Y-74295000D03*
X202565000Y-62230000D03*
X200025000Y-62230000D03*
X225425000Y-61595000D03*
X177165000Y-66675000D03*
X210820000Y-74930000D03*
X230505000Y-74930000D03*
X227965000Y-67945000D03*
X221615000Y-60960000D03*
X200025000Y-63500000D03*
X224155000Y-67310000D03*
X227965000Y-75565000D03*
X206375000Y-79375000D03*
X222250000Y-123825000D03*
X114935000Y-137160000D03*
X94615000Y-67945000D03*
X94615000Y-71755000D03*
X92075000Y-111125000D03*
X95250000Y-127000000D03*
X114935000Y-144145000D03*
X96520000Y-145415000D03*
X146685000Y-111760000D03*
X125095000Y-67945000D03*
X135255000Y-71120000D03*
X93980000Y-114935000D03*
X66040000Y-67310000D03*
X225425000Y-113665000D03*
X210820000Y-111760000D03*
X199390000Y-111760000D03*
X172085000Y-111760000D03*
X168910000Y-111760000D03*
X114300000Y-117475000D03*
X146050000Y-111125000D03*
X123825000Y-67945000D03*
X133985000Y-71120000D03*
X113030000Y-113030000D03*
X111760000Y-111125000D03*
X93345000Y-114300000D03*
X67310000Y-66040000D03*
X226695000Y-113665000D03*
X210185000Y-111125000D03*
X198755000Y-111125000D03*
X171450000Y-111125000D03*
X168275000Y-111125000D03*
X113030000Y-117475000D03*
X100330000Y-130175000D03*
X97536000Y-143764000D03*
X118872000Y-119380000D03*
X99568000Y-138684000D03*
X118872000Y-121412000D03*
X113030000Y-107315000D03*
X167640000Y-110490000D03*
X170815000Y-110490000D03*
X204470000Y-115570000D03*
X114300000Y-107315000D03*
X173990000Y-114935000D03*
X152400000Y-146685000D03*
X228600000Y-144780000D03*
X228600000Y-140335000D03*
X161925000Y-146050000D03*
X231140000Y-144780000D03*
X227965000Y-147955000D03*
X229870000Y-147320000D03*
X232410000Y-144780000D03*
X233680000Y-144780000D03*
X231775000Y-146685000D03*
X93345000Y-116840000D03*
X52705000Y-66675000D03*
X93345000Y-115570000D03*
X64770000Y-68580000D03*
X63500000Y-69850000D03*
X93980000Y-116205000D03*
X96520000Y-116205000D03*
X109855000Y-116840000D03*
X60325000Y-73660000D03*
X64135000Y-73660000D03*
X59055000Y-74930000D03*
X62230000Y-74930000D03*
X57150000Y-76200000D03*
X60325000Y-76200000D03*
X156210000Y-59055000D03*
X124460000Y-59055000D03*
X122555000Y-108585000D03*
X226060000Y-134620000D03*
X123825000Y-107950000D03*
X227330000Y-134620000D03*
X121285000Y-109220000D03*
X198755000Y-109220000D03*
X207010000Y-109220000D03*
X228600000Y-134620000D03*
X83185000Y-60960000D03*
X81280000Y-62865000D03*
X97790000Y-58420000D03*
X95885000Y-119380000D03*
X125730000Y-104775000D03*
X116840000Y-135255000D03*
X133985000Y-113665000D03*
D33*
X62865000Y-71120000D02*
X65405000Y-73660000D01*
D34*
X93980000Y-132080000D02*
X104140000Y-121920000D01*
X104140000Y-121920000D02*
X104140000Y-120650000D01*
X93980000Y-135255000D02*
X93980000Y-132080000D01*
X104140000Y-120650000D02*
X104140000Y-118110000D01*
X93980000Y-140970000D02*
X93980000Y-144145000D01*
X92075000Y-146050000D02*
X86360000Y-146050000D01*
X93980000Y-144145000D02*
X92075000Y-146050000D01*
X93980000Y-135255000D02*
X93980000Y-140970000D01*
X130175000Y-113030000D02*
X118745000Y-124460000D01*
X139700000Y-113030000D02*
X130175000Y-113030000D01*
X104775000Y-117475000D02*
X111760000Y-117475000D01*
X104140000Y-118110000D02*
X104775000Y-117475000D01*
X121920000Y-136525000D02*
X123190000Y-135255000D01*
X123190000Y-135255000D02*
X123190000Y-130175000D01*
X141605000Y-125730000D02*
X140335000Y-125730000D01*
X142240000Y-125095000D02*
X141605000Y-125730000D01*
X142240000Y-119380000D02*
X142240000Y-125095000D01*
D35*
X64135000Y-99060000D02*
X64135000Y-95250000D01*
X64135000Y-88900000D02*
X64135000Y-84455000D01*
X86360000Y-112395000D02*
X95250000Y-103505000D01*
X105410000Y-103505000D02*
X95250000Y-103505000D01*
X68580000Y-116205000D02*
X81280000Y-116205000D01*
X64135000Y-111760000D02*
X68580000Y-116205000D01*
X235585000Y-103505000D02*
X240665000Y-108585000D01*
X235585000Y-130810000D02*
X227330000Y-130810000D01*
X240665000Y-125730000D02*
X235585000Y-130810000D01*
X240665000Y-108585000D02*
X240665000Y-125730000D01*
X209550000Y-99695000D02*
X208280000Y-99695000D01*
X214630000Y-94615000D02*
X209550000Y-99695000D01*
X234950000Y-94615000D02*
X226060000Y-103505000D01*
X105410000Y-103505000D02*
X135890000Y-103505000D01*
X142875000Y-103505000D02*
X175260000Y-103505000D01*
X140970000Y-105410000D02*
X142875000Y-103505000D01*
X139065000Y-105410000D02*
X140970000Y-105410000D01*
X137160000Y-103505000D02*
X139065000Y-105410000D01*
X135890000Y-103505000D02*
X137160000Y-103505000D01*
X175260000Y-103505000D02*
X201295000Y-103505000D01*
X201295000Y-103505000D02*
X204470000Y-103505000D01*
X204470000Y-103505000D02*
X215265000Y-103505000D01*
X215265000Y-103505000D02*
X226060000Y-103505000D01*
X226060000Y-103505000D02*
X235585000Y-103505000D01*
D33*
X137668000Y-133470400D02*
X139903200Y-135705600D01*
X137668000Y-125476000D02*
X137668000Y-133470400D01*
X137160000Y-124968000D02*
X137668000Y-125476000D01*
X203835000Y-59055000D02*
X200660000Y-59055000D01*
X210185000Y-59055000D02*
X203835000Y-59055000D01*
X200660000Y-59055000D02*
X200025000Y-59690000D01*
D34*
X251460000Y-71120000D02*
X251460000Y-66040000D01*
X250825000Y-92710000D02*
X251460000Y-92075000D01*
X251460000Y-92075000D02*
X251460000Y-71120000D01*
X226060000Y-92710000D02*
X243840000Y-92710000D01*
X243840000Y-92710000D02*
X250825000Y-92710000D01*
X250825000Y-65405000D02*
X212725000Y-65405000D01*
X251460000Y-66040000D02*
X250825000Y-65405000D01*
X205105000Y-100965000D02*
X208915000Y-100965000D01*
X225425000Y-92710000D02*
X226060000Y-92710000D01*
X224155000Y-93980000D02*
X225425000Y-92710000D01*
X224155000Y-99060000D02*
X224155000Y-93980000D01*
X222250000Y-100965000D02*
X224155000Y-99060000D01*
X212090000Y-100965000D02*
X222250000Y-100965000D01*
X210250000Y-83000000D02*
X208465000Y-83000000D01*
X207645000Y-98425000D02*
X205105000Y-100965000D01*
X207645000Y-83820000D02*
X207645000Y-98425000D01*
X208465000Y-83000000D02*
X207645000Y-83820000D01*
X195750000Y-94500000D02*
X195750000Y-98595000D01*
X195750000Y-98595000D02*
X198120000Y-100965000D01*
X165750000Y-94500000D02*
X165750000Y-99075000D01*
X165750000Y-99075000D02*
X167640000Y-100965000D01*
X125750000Y-94500000D02*
X125750000Y-99715000D01*
X125750000Y-99715000D02*
X127000000Y-100965000D01*
X95750000Y-94500000D02*
X95750000Y-99560000D01*
X97155000Y-100965000D02*
X127000000Y-100965000D01*
X127000000Y-100965000D02*
X167640000Y-100965000D01*
X167640000Y-100965000D02*
X198120000Y-100965000D01*
X198120000Y-100965000D02*
X205105000Y-100965000D01*
X95750000Y-99560000D02*
X97155000Y-100965000D01*
D33*
X201295000Y-59690000D02*
X200025000Y-60960000D01*
X200025000Y-60960000D02*
X177800000Y-60960000D01*
X213995000Y-59690000D02*
X203835000Y-59690000D01*
X203835000Y-59690000D02*
X201295000Y-59690000D01*
D34*
X250825000Y-71120000D02*
X250825000Y-66675000D01*
X250190000Y-92075000D02*
X250825000Y-91440000D01*
X250825000Y-91440000D02*
X250825000Y-71120000D01*
X236855000Y-92075000D02*
X243840000Y-92075000D01*
X243840000Y-92075000D02*
X250190000Y-92075000D01*
X250190000Y-66040000D02*
X216535000Y-66040000D01*
X250825000Y-66675000D02*
X250190000Y-66040000D01*
X157480000Y-101600000D02*
X186055000Y-101600000D01*
X186055000Y-101600000D02*
X187325000Y-101600000D01*
X187325000Y-101600000D02*
X209800000Y-101600000D01*
X209800000Y-101600000D02*
X219325000Y-92075000D01*
X236855000Y-92075000D02*
X219325000Y-92075000D01*
X219325000Y-92075000D02*
X215000000Y-87750000D01*
X235000000Y-87750000D02*
X235000000Y-90220000D01*
X235000000Y-90220000D02*
X236855000Y-92075000D01*
X86000000Y-98000000D02*
X86000000Y-100605000D01*
X86995000Y-101600000D02*
X116205000Y-101600000D01*
X116205000Y-101600000D02*
X117475000Y-101600000D01*
X86000000Y-100605000D02*
X86995000Y-101600000D01*
X117475000Y-101600000D02*
X156210000Y-101600000D01*
X156210000Y-101600000D02*
X157480000Y-101600000D01*
X235000000Y-87750000D02*
X235000000Y-88950000D01*
D33*
X203835000Y-58420000D02*
X202565000Y-58420000D01*
X206375000Y-58420000D02*
X203835000Y-58420000D01*
X201930000Y-57785000D02*
X200025000Y-57785000D01*
X202565000Y-58420000D02*
X201930000Y-57785000D01*
D34*
X252095000Y-71120000D02*
X252095000Y-65405000D01*
X251460000Y-93345000D02*
X252095000Y-92710000D01*
X252095000Y-92710000D02*
X252095000Y-71120000D01*
X226060000Y-93345000D02*
X243205000Y-93345000D01*
X243205000Y-93345000D02*
X243840000Y-93345000D01*
X224790000Y-94615000D02*
X226060000Y-93345000D01*
X243840000Y-93345000D02*
X251460000Y-93345000D01*
X251460000Y-64770000D02*
X208915000Y-64770000D01*
X252095000Y-65405000D02*
X251460000Y-64770000D01*
X209550000Y-102235000D02*
X222250000Y-102235000D01*
X184785000Y-102235000D02*
X209550000Y-102235000D01*
X224790000Y-99695000D02*
X224790000Y-94615000D01*
X222250000Y-102235000D02*
X224790000Y-99695000D01*
X84250000Y-94500000D02*
X84250000Y-100125000D01*
X86360000Y-102235000D02*
X114300000Y-102235000D01*
X114300000Y-102235000D02*
X154305000Y-102235000D01*
X154305000Y-102235000D02*
X184785000Y-102235000D01*
X84250000Y-100125000D02*
X86360000Y-102235000D01*
D33*
X177800000Y-61595000D02*
X177165000Y-61595000D01*
X201930000Y-60325000D02*
X200660000Y-61595000D01*
X200660000Y-61595000D02*
X177800000Y-61595000D01*
X217805000Y-60325000D02*
X203835000Y-60325000D01*
X203835000Y-60325000D02*
X201930000Y-60325000D01*
X176530000Y-60960000D02*
X176530000Y-59055000D01*
X177165000Y-61595000D02*
X176530000Y-60960000D01*
D34*
X250190000Y-71120000D02*
X250190000Y-67310000D01*
X249555000Y-76200000D02*
X250190000Y-75565000D01*
X250190000Y-75565000D02*
X250190000Y-71120000D01*
X245745000Y-76200000D02*
X249555000Y-76200000D01*
X249555000Y-66675000D02*
X220345000Y-66675000D01*
X250190000Y-67310000D02*
X249555000Y-66675000D01*
X219113600Y-85375000D02*
X222600000Y-85375000D01*
X224155000Y-78105000D02*
X226060000Y-76200000D01*
X224155000Y-83820000D02*
X224155000Y-78105000D01*
X222600000Y-85375000D02*
X224155000Y-83820000D01*
X239113600Y-85375000D02*
X242285000Y-85375000D01*
X242285000Y-85375000D02*
X243840000Y-83820000D01*
X243840000Y-83820000D02*
X243840000Y-78105000D01*
X243840000Y-78105000D02*
X245745000Y-76200000D01*
X245745000Y-76200000D02*
X226060000Y-76200000D01*
X202565000Y-92710000D02*
X204470000Y-92710000D01*
X226060000Y-76200000D02*
X208915000Y-76200000D01*
X204470000Y-92710000D02*
X207010000Y-90170000D01*
X207010000Y-90170000D02*
X207010000Y-78105000D01*
X207010000Y-78105000D02*
X208915000Y-76200000D01*
X202565000Y-92710000D02*
X186055000Y-92710000D01*
X184250000Y-90000000D02*
X184250000Y-90905000D01*
X184250000Y-90905000D02*
X186055000Y-92710000D01*
X154250000Y-90000000D02*
X154250000Y-90115000D01*
X154250000Y-90115000D02*
X156845000Y-92710000D01*
X114250000Y-90000000D02*
X114250000Y-90120000D01*
X114250000Y-90120000D02*
X116840000Y-92710000D01*
X84250000Y-90000000D02*
X84250000Y-91235000D01*
X84250000Y-91235000D02*
X85725000Y-92710000D01*
X85725000Y-92710000D02*
X116840000Y-92710000D01*
X116840000Y-92710000D02*
X156845000Y-92710000D01*
X156845000Y-92710000D02*
X186055000Y-92710000D01*
X219113600Y-85375000D02*
X219360000Y-85375000D01*
X239113600Y-85375000D02*
X239680000Y-85375000D01*
D33*
X139700000Y-71755000D02*
X170180000Y-71755000D01*
X240665000Y-64135000D02*
X204470000Y-64135000D01*
D34*
X245745000Y-70485000D02*
X243205000Y-70485000D01*
X245745000Y-72390000D02*
X246380000Y-71755000D01*
X222885000Y-72390000D02*
X242570000Y-72390000D01*
X242570000Y-72390000D02*
X245745000Y-72390000D01*
X246380000Y-71755000D02*
X246380000Y-71120000D01*
X246380000Y-71120000D02*
X245745000Y-70485000D01*
X222885000Y-72390000D02*
X200025000Y-72390000D01*
X184785000Y-72390000D02*
X200025000Y-72390000D01*
X84250000Y-74500000D02*
X86360000Y-72390000D01*
X86360000Y-72390000D02*
X114300000Y-72390000D01*
X114300000Y-72390000D02*
X154305000Y-72390000D01*
X154305000Y-72390000D02*
X184785000Y-72390000D01*
X84250000Y-74500000D02*
X84250000Y-85500000D01*
D33*
X236855000Y-63500000D02*
X203835000Y-63500000D01*
D34*
X243205000Y-69850000D02*
X239395000Y-69850000D01*
X247015000Y-70485000D02*
X246380000Y-69850000D01*
X246380000Y-69850000D02*
X243205000Y-69850000D01*
X245745000Y-73025000D02*
X246380000Y-73025000D01*
X241935000Y-73025000D02*
X245745000Y-73025000D01*
X247015000Y-72390000D02*
X247015000Y-71120000D01*
X246380000Y-73025000D02*
X247015000Y-72390000D01*
X247015000Y-71120000D02*
X247015000Y-70485000D01*
X241935000Y-73025000D02*
X221615000Y-73025000D01*
X221615000Y-73025000D02*
X200025000Y-73025000D01*
X86000000Y-75925000D02*
X88900000Y-73025000D01*
X88900000Y-73025000D02*
X116205000Y-73025000D01*
X116205000Y-73025000D02*
X156210000Y-73025000D01*
X156210000Y-73025000D02*
X186055000Y-73025000D01*
X186055000Y-73025000D02*
X200025000Y-73025000D01*
X86000000Y-75925000D02*
X86000000Y-82000000D01*
D33*
X140970000Y-71120000D02*
X200660000Y-71120000D01*
X203835000Y-62865000D02*
X203200000Y-62865000D01*
X233045000Y-62865000D02*
X203835000Y-62865000D01*
X203200000Y-62865000D02*
X200660000Y-65405000D01*
D34*
X247650000Y-71120000D02*
X247650000Y-69850000D01*
X247015000Y-73660000D02*
X247650000Y-73025000D01*
X247650000Y-73025000D02*
X247650000Y-71120000D01*
X240665000Y-73660000D02*
X245745000Y-73660000D01*
X245745000Y-73660000D02*
X247015000Y-73660000D01*
X247015000Y-69215000D02*
X235585000Y-69215000D01*
X247650000Y-69850000D02*
X247015000Y-69215000D01*
X240665000Y-73660000D02*
X219710000Y-73660000D01*
X219710000Y-73660000D02*
X200025000Y-73660000D01*
X90000000Y-76370000D02*
X92710000Y-73660000D01*
X92710000Y-73660000D02*
X120015000Y-73660000D01*
X120015000Y-73660000D02*
X160020000Y-73660000D01*
X160020000Y-73660000D02*
X190500000Y-73660000D01*
X190500000Y-73660000D02*
X200025000Y-73660000D01*
X90000000Y-76370000D02*
X90000000Y-81000000D01*
D33*
X200660000Y-106045000D02*
X199390000Y-107315000D01*
X229235000Y-62230000D02*
X203835000Y-62230000D01*
D34*
X248285000Y-71120000D02*
X248285000Y-69215000D01*
X247650000Y-74295000D02*
X248285000Y-73660000D01*
X248285000Y-73660000D02*
X248285000Y-71120000D01*
X235585000Y-74295000D02*
X245745000Y-74295000D01*
X245745000Y-74295000D02*
X247650000Y-74295000D01*
X247650000Y-68580000D02*
X231775000Y-68580000D01*
X248285000Y-69215000D02*
X247650000Y-68580000D01*
X235585000Y-74295000D02*
X215265000Y-74295000D01*
X215265000Y-74295000D02*
X200025000Y-74295000D01*
X94000000Y-76815000D02*
X96520000Y-74295000D01*
X96520000Y-74295000D02*
X124460000Y-74295000D01*
X124460000Y-74295000D02*
X164465000Y-74295000D01*
X164465000Y-74295000D02*
X194310000Y-74295000D01*
X194310000Y-74295000D02*
X200025000Y-74295000D01*
X94000000Y-76815000D02*
X94000000Y-82000000D01*
D33*
X177800000Y-62230000D02*
X177165000Y-62865000D01*
X203200000Y-61595000D02*
X202565000Y-62230000D01*
X200025000Y-62230000D02*
X177800000Y-62230000D01*
X225425000Y-61595000D02*
X203835000Y-61595000D01*
X203835000Y-61595000D02*
X203200000Y-61595000D01*
X177165000Y-62865000D02*
X177165000Y-66675000D01*
D34*
X195750000Y-85500000D02*
X195750000Y-77300000D01*
X195750000Y-77300000D02*
X198120000Y-74930000D01*
X165750000Y-85500000D02*
X165750000Y-77455000D01*
X165750000Y-77455000D02*
X168275000Y-74930000D01*
X125750000Y-85500000D02*
X125750000Y-77450000D01*
X125750000Y-77450000D02*
X128270000Y-74930000D01*
X248920000Y-71120000D02*
X248920000Y-68580000D01*
X248285000Y-74930000D02*
X248920000Y-74295000D01*
X248920000Y-74295000D02*
X248920000Y-71120000D01*
X245745000Y-74930000D02*
X230505000Y-74930000D01*
X230505000Y-74930000D02*
X210820000Y-74930000D01*
X210820000Y-74930000D02*
X200025000Y-74930000D01*
X95750000Y-76335000D02*
X97155000Y-74930000D01*
X97155000Y-74930000D02*
X128270000Y-74930000D01*
X128270000Y-74930000D02*
X168275000Y-74930000D01*
X168275000Y-74930000D02*
X198120000Y-74930000D01*
X198120000Y-74930000D02*
X200025000Y-74930000D01*
X95750000Y-85500000D02*
X95750000Y-76335000D01*
X245745000Y-74930000D02*
X248285000Y-74930000D01*
X248285000Y-67945000D02*
X227965000Y-67945000D01*
X248920000Y-68580000D02*
X248285000Y-67945000D01*
D33*
X203835000Y-60960000D02*
X202565000Y-60960000D01*
X221615000Y-60960000D02*
X203835000Y-60960000D01*
X202565000Y-60960000D02*
X200025000Y-63500000D01*
D34*
X249555000Y-71120000D02*
X249555000Y-67945000D01*
X248920000Y-75565000D02*
X249555000Y-74930000D01*
X249555000Y-74930000D02*
X249555000Y-71120000D01*
X227965000Y-75565000D02*
X245745000Y-75565000D01*
X245745000Y-75565000D02*
X248920000Y-75565000D01*
X248920000Y-67310000D02*
X224155000Y-67310000D01*
X249555000Y-67945000D02*
X248920000Y-67310000D01*
X227965000Y-75565000D02*
X208280000Y-75565000D01*
X206375000Y-77470000D02*
X208280000Y-75565000D01*
X206375000Y-79375000D02*
X206375000Y-77470000D01*
X203835000Y-87630000D02*
X206375000Y-85090000D01*
X202565000Y-87630000D02*
X203835000Y-87630000D01*
X202565000Y-87630000D02*
X198120000Y-87630000D01*
X206375000Y-85090000D02*
X206375000Y-79375000D01*
X195750000Y-90000000D02*
X198120000Y-87630000D01*
X165750000Y-90000000D02*
X165750000Y-89520000D01*
X165750000Y-89520000D02*
X167640000Y-87630000D01*
X125750000Y-90000000D02*
X125750000Y-89515000D01*
X125750000Y-89515000D02*
X127635000Y-87630000D01*
X95750000Y-90000000D02*
X95750000Y-89670000D01*
X95750000Y-89670000D02*
X97790000Y-87630000D01*
X97790000Y-87630000D02*
X127635000Y-87630000D01*
X127635000Y-87630000D02*
X167640000Y-87630000D01*
X167640000Y-87630000D02*
X198120000Y-87630000D01*
X210886400Y-80625000D02*
X210800000Y-80625000D01*
D33*
X210025000Y-53500000D02*
X213200000Y-53500000D01*
X80000000Y-53500000D02*
X210025000Y-53500000D01*
X218570000Y-52070000D02*
X220000000Y-53500000D01*
X214630000Y-52070000D02*
X218570000Y-52070000D01*
X213200000Y-53500000D02*
X214630000Y-52070000D01*
X234850000Y-125450000D02*
X225780000Y-125450000D01*
X224155000Y-123825000D02*
X222250000Y-123825000D01*
X225780000Y-125450000D02*
X224155000Y-123825000D01*
X94615000Y-67945000D02*
X94615000Y-71755000D01*
X92075000Y-111125000D02*
X95250000Y-114300000D01*
X95250000Y-114300000D02*
X95250000Y-127000000D01*
X114935000Y-137160000D02*
X114935000Y-144145000D01*
X96520000Y-145415000D02*
X96520000Y-135255000D01*
X96520000Y-135255000D02*
X114300000Y-117475000D01*
X127635000Y-70485000D02*
X125095000Y-67945000D01*
X134620000Y-70485000D02*
X127635000Y-70485000D01*
X135255000Y-71120000D02*
X134620000Y-70485000D01*
X85725000Y-114935000D02*
X93980000Y-114935000D01*
X81915000Y-111125000D02*
X85725000Y-114935000D01*
X81915000Y-83185000D02*
X81915000Y-111125000D01*
X66040000Y-67310000D02*
X81915000Y-83185000D01*
X114300000Y-117475000D02*
X120015000Y-111760000D01*
X223520000Y-111760000D02*
X225425000Y-113665000D01*
X210820000Y-111760000D02*
X223520000Y-111760000D01*
X172085000Y-111760000D02*
X199390000Y-111760000D01*
X120015000Y-111760000D02*
X146685000Y-111760000D01*
X146685000Y-111760000D02*
X168910000Y-111760000D01*
X127000000Y-71120000D02*
X123825000Y-67945000D01*
X133985000Y-71120000D02*
X127000000Y-71120000D01*
X113030000Y-112395000D02*
X113030000Y-113030000D01*
X111760000Y-111125000D02*
X113030000Y-112395000D01*
X86360000Y-114300000D02*
X93345000Y-114300000D01*
X82550000Y-110490000D02*
X86360000Y-114300000D01*
X82550000Y-81280000D02*
X82550000Y-110490000D01*
X67310000Y-66040000D02*
X82550000Y-81280000D01*
X113030000Y-117475000D02*
X119380000Y-111125000D01*
X224155000Y-111125000D02*
X226695000Y-113665000D01*
X210185000Y-111125000D02*
X224155000Y-111125000D01*
X171450000Y-111125000D02*
X198755000Y-111125000D01*
X119380000Y-111125000D02*
X146050000Y-111125000D01*
X146050000Y-111125000D02*
X168275000Y-111125000D01*
X100330000Y-130175000D02*
X113030000Y-117475000D01*
X97536000Y-138684000D02*
X97536000Y-143764000D01*
X99568000Y-136652000D02*
X97536000Y-138684000D01*
X101600000Y-136652000D02*
X99568000Y-136652000D01*
X118872000Y-119380000D02*
X101600000Y-136652000D01*
X100076000Y-138176000D02*
X99568000Y-138684000D01*
X102108000Y-138176000D02*
X100076000Y-138176000D01*
X118872000Y-121412000D02*
X102108000Y-138176000D01*
X113030000Y-107950000D02*
X113030000Y-107315000D01*
X115570000Y-110490000D02*
X113030000Y-107950000D01*
X167640000Y-110490000D02*
X115570000Y-110490000D01*
X199390000Y-110490000D02*
X170815000Y-110490000D01*
X204470000Y-115570000D02*
X199390000Y-110490000D01*
X114300000Y-107950000D02*
X114300000Y-107315000D01*
X116205000Y-109855000D02*
X114300000Y-107950000D01*
X168910000Y-109855000D02*
X116205000Y-109855000D01*
X173990000Y-114935000D02*
X168910000Y-109855000D01*
X226695000Y-146685000D02*
X152400000Y-146685000D01*
X228600000Y-144780000D02*
X226695000Y-146685000D01*
X222885000Y-140335000D02*
X228600000Y-140335000D01*
X217170000Y-146050000D02*
X222885000Y-140335000D01*
X161925000Y-146050000D02*
X217170000Y-146050000D01*
X227965000Y-147955000D02*
X231140000Y-144780000D01*
X232410000Y-144780000D02*
X229870000Y-147320000D01*
X231775000Y-146685000D02*
X233680000Y-144780000D01*
X52705000Y-81915000D02*
X52705000Y-66675000D01*
X83820000Y-116840000D02*
X93345000Y-116840000D01*
X80010000Y-113030000D02*
X83820000Y-116840000D01*
X80010000Y-109220000D02*
X80010000Y-113030000D01*
X52705000Y-81915000D02*
X80010000Y-109220000D01*
X85090000Y-115570000D02*
X93345000Y-115570000D01*
X81280000Y-111760000D02*
X85090000Y-115570000D01*
X81280000Y-85090000D02*
X81280000Y-111760000D01*
X64770000Y-68580000D02*
X81280000Y-85090000D01*
X63500000Y-69850000D02*
X67945000Y-74295000D01*
X67945000Y-74295000D02*
X67945000Y-76835000D01*
X67945000Y-76835000D02*
X80645000Y-89535000D01*
X80645000Y-89535000D02*
X80645000Y-112395000D01*
X80645000Y-112395000D02*
X84455000Y-116205000D01*
X84455000Y-116205000D02*
X93980000Y-116205000D01*
X96520000Y-116205000D02*
X107950000Y-116205000D01*
X107950000Y-116205000D02*
X109220000Y-116205000D01*
X109220000Y-116205000D02*
X109855000Y-116840000D01*
X64135000Y-73660000D02*
X60325000Y-73660000D01*
X62230000Y-74930000D02*
X59055000Y-74930000D01*
X60325000Y-76200000D02*
X57150000Y-76200000D01*
X124460000Y-59055000D02*
X156210000Y-59055000D01*
X200025000Y-108585000D02*
X122555000Y-108585000D01*
X226060000Y-134620000D02*
X200025000Y-108585000D01*
X204470000Y-107950000D02*
X123825000Y-107950000D01*
X212090000Y-115570000D02*
X204470000Y-107950000D01*
X212090000Y-119380000D02*
X212090000Y-115570000D01*
X227330000Y-134620000D02*
X212090000Y-119380000D01*
X198755000Y-109220000D02*
X121285000Y-109220000D01*
X212725000Y-114935000D02*
X207010000Y-109220000D01*
X212725000Y-118745000D02*
X212725000Y-114935000D01*
X228600000Y-134620000D02*
X212725000Y-118745000D01*
X81280000Y-62865000D02*
X83185000Y-60960000D01*
X112395000Y-60960000D02*
X112395000Y-63500000D01*
X109855000Y-58420000D02*
X112395000Y-60960000D01*
X97790000Y-58420000D02*
X109855000Y-58420000D01*
X95885000Y-110490000D02*
X95885000Y-119380000D01*
X101600000Y-104775000D02*
X95885000Y-110490000D01*
X125730000Y-104775000D02*
X101600000Y-104775000D01*
X116840000Y-127635000D02*
X116840000Y-135255000D01*
X130810000Y-113665000D02*
X116840000Y-127635000D01*
X133985000Y-113665000D02*
X130810000Y-113665000D01*
D36*
G36*
X268549805Y-51430010D02*
X271559187Y-53440814D01*
X273569989Y-56450193D01*
X274290000Y-60069931D01*
X274290000Y-139930069D01*
X273569989Y-143549807D01*
X271559187Y-146559186D01*
X268549805Y-148569990D01*
X264930069Y-149290000D01*
X35069931Y-149290000D01*
X31450193Y-148569989D01*
X28440814Y-146559187D01*
X26430010Y-143549805D01*
X25837558Y-140571344D01*
X32114501Y-140571344D01*
X32552790Y-141632086D01*
X33363645Y-142444357D01*
X34423620Y-142884498D01*
X35571344Y-142885499D01*
X36632086Y-142447210D01*
X37444357Y-141636355D01*
X37884498Y-140576380D01*
X37885499Y-139428656D01*
X37544883Y-138604301D01*
X64065491Y-138604301D01*
X64336668Y-139260600D01*
X64838359Y-139763167D01*
X64928400Y-139800555D01*
X64841000Y-139836668D01*
X64338433Y-140338359D01*
X64066111Y-140994184D01*
X64065491Y-141704301D01*
X64336668Y-142360600D01*
X64838359Y-142863167D01*
X65494184Y-143135489D01*
X66204301Y-143136109D01*
X66860600Y-142864932D01*
X67115507Y-142610470D01*
X68162707Y-145144888D01*
X70842604Y-147829466D01*
X74345850Y-149284142D01*
X78139108Y-149287452D01*
X80915749Y-148140167D01*
X227029838Y-148140167D01*
X227171883Y-148483943D01*
X227434673Y-148747192D01*
X227778201Y-148889838D01*
X228150167Y-148890162D01*
X228493943Y-148748117D01*
X228757192Y-148485327D01*
X228899838Y-148141799D01*
X228899879Y-148094923D01*
X229111341Y-147883461D01*
X229339673Y-148112192D01*
X229683201Y-148254838D01*
X230055167Y-148255162D01*
X230398943Y-148113117D01*
X230662192Y-147850327D01*
X230804838Y-147506799D01*
X230804879Y-147459923D01*
X231016341Y-147248461D01*
X231244673Y-147477192D01*
X231588201Y-147619838D01*
X231960167Y-147620162D01*
X232303943Y-147478117D01*
X232567192Y-147215327D01*
X232709838Y-146871799D01*
X232709879Y-146824923D01*
X233819680Y-145715122D01*
X233865167Y-145715162D01*
X234208943Y-145573117D01*
X234472192Y-145310327D01*
X234614838Y-144966799D01*
X234615162Y-144594833D01*
X234473117Y-144251057D01*
X234210327Y-143987808D01*
X233866799Y-143845162D01*
X233494833Y-143844838D01*
X233151057Y-143986883D01*
X233045046Y-144092710D01*
X232940327Y-143987808D01*
X232596799Y-143845162D01*
X232224833Y-143844838D01*
X231881057Y-143986883D01*
X231775046Y-144092710D01*
X231670327Y-143987808D01*
X231326799Y-143845162D01*
X230954833Y-143844838D01*
X230611057Y-143986883D01*
X230347808Y-144249673D01*
X230205162Y-144593201D01*
X230205121Y-144640077D01*
X227825320Y-147019878D01*
X227779833Y-147019838D01*
X227436057Y-147161883D01*
X227172808Y-147424673D01*
X227030162Y-147768201D01*
X227029838Y-148140167D01*
X80915749Y-148140167D01*
X81644888Y-147838893D01*
X84329466Y-145158996D01*
X85387236Y-142611605D01*
X85638359Y-142863167D01*
X86294184Y-143135489D01*
X87004301Y-143136109D01*
X87660600Y-142864932D01*
X88163167Y-142363241D01*
X88435489Y-141707416D01*
X88436109Y-140997299D01*
X88164932Y-140341000D01*
X87663241Y-139838433D01*
X87573200Y-139801045D01*
X87660600Y-139764932D01*
X88163167Y-139263241D01*
X88435489Y-138607416D01*
X88436109Y-137897299D01*
X88164932Y-137241000D01*
X87663241Y-136738433D01*
X87007416Y-136466111D01*
X86297299Y-136465491D01*
X85641000Y-136736668D01*
X85415347Y-136961928D01*
X84338893Y-134356712D01*
X81658996Y-131672134D01*
X78155750Y-130217458D01*
X74362492Y-130214148D01*
X70856712Y-131662707D01*
X68172134Y-134342604D01*
X67085039Y-136960618D01*
X66863241Y-136738433D01*
X66207416Y-136466111D01*
X65497299Y-136465491D01*
X64841000Y-136736668D01*
X64338433Y-137238359D01*
X64066111Y-137894184D01*
X64065491Y-138604301D01*
X37544883Y-138604301D01*
X37447210Y-138367914D01*
X36636355Y-137555643D01*
X35576380Y-137115502D01*
X34428656Y-137114501D01*
X33367914Y-137552790D01*
X32555643Y-138363645D01*
X32115502Y-139423620D01*
X32114501Y-140571344D01*
X25837558Y-140571344D01*
X25710000Y-139930069D01*
X25710000Y-134856661D01*
X56387758Y-134856661D01*
X56599990Y-135370303D01*
X56992630Y-135763629D01*
X57505900Y-135976757D01*
X58061661Y-135977242D01*
X58575303Y-135765010D01*
X58968629Y-135372370D01*
X59181757Y-134859100D01*
X59182242Y-134303339D01*
X58970010Y-133789697D01*
X58577370Y-133396371D01*
X58064100Y-133183243D01*
X57508339Y-133182758D01*
X56994697Y-133394990D01*
X56601371Y-133787630D01*
X56388243Y-134300900D01*
X56387758Y-134856661D01*
X25710000Y-134856661D01*
X25710000Y-130560213D01*
X56984392Y-130560213D01*
X57053857Y-130802397D01*
X57577302Y-130989144D01*
X58132368Y-130961362D01*
X58516143Y-130802397D01*
X58585608Y-130560213D01*
X57785000Y-129759605D01*
X56984392Y-130560213D01*
X25710000Y-130560213D01*
X25710000Y-121440000D01*
X30972560Y-121440000D01*
X30972560Y-124940000D01*
X31016838Y-125175317D01*
X31155910Y-125391441D01*
X31368110Y-125536431D01*
X31620000Y-125587440D01*
X34306045Y-125587440D01*
X34168559Y-125675910D01*
X34023569Y-125888110D01*
X33972560Y-126140000D01*
X33972560Y-129640000D01*
X34016838Y-129875317D01*
X34155910Y-130091441D01*
X34368110Y-130236431D01*
X34620000Y-130287440D01*
X38120000Y-130287440D01*
X38355317Y-130243162D01*
X38571441Y-130104090D01*
X38716431Y-129891890D01*
X38767440Y-129640000D01*
X38767440Y-129372302D01*
X56375856Y-129372302D01*
X56403638Y-129927368D01*
X56562603Y-130311143D01*
X56804787Y-130380608D01*
X57605395Y-129580000D01*
X57964605Y-129580000D01*
X58765213Y-130380608D01*
X59007397Y-130311143D01*
X59194144Y-129787698D01*
X59166362Y-129232632D01*
X59007397Y-128848857D01*
X58765213Y-128779392D01*
X57964605Y-129580000D01*
X57605395Y-129580000D01*
X56804787Y-128779392D01*
X56562603Y-128848857D01*
X56375856Y-129372302D01*
X38767440Y-129372302D01*
X38767440Y-128599787D01*
X56984392Y-128599787D01*
X57785000Y-129400395D01*
X58585608Y-128599787D01*
X58516143Y-128357603D01*
X57992698Y-128170856D01*
X57437632Y-128198638D01*
X57053857Y-128357603D01*
X56984392Y-128599787D01*
X38767440Y-128599787D01*
X38767440Y-126140000D01*
X38744061Y-126015750D01*
X56350000Y-126015750D01*
X56350000Y-126656309D01*
X56446673Y-126889698D01*
X56625301Y-127068327D01*
X56858690Y-127165000D01*
X57499250Y-127165000D01*
X57658000Y-127006250D01*
X57658000Y-125857000D01*
X57912000Y-125857000D01*
X57912000Y-127006250D01*
X58070750Y-127165000D01*
X58711310Y-127165000D01*
X58944699Y-127068327D01*
X59123327Y-126889698D01*
X59220000Y-126656309D01*
X59220000Y-126015750D01*
X59061250Y-125857000D01*
X57912000Y-125857000D01*
X57658000Y-125857000D01*
X56508750Y-125857000D01*
X56350000Y-126015750D01*
X38744061Y-126015750D01*
X38723162Y-125904683D01*
X38584090Y-125688559D01*
X38436097Y-125587440D01*
X41120000Y-125587440D01*
X41355317Y-125543162D01*
X41571441Y-125404090D01*
X41716431Y-125191890D01*
X41767440Y-124940000D01*
X41767440Y-123514187D01*
X56349752Y-123514187D01*
X56567757Y-124041800D01*
X56831683Y-124306187D01*
X56625301Y-124391673D01*
X56446673Y-124570302D01*
X56350000Y-124803691D01*
X56350000Y-125444250D01*
X56508750Y-125603000D01*
X57658000Y-125603000D01*
X57658000Y-125583000D01*
X57912000Y-125583000D01*
X57912000Y-125603000D01*
X59061250Y-125603000D01*
X59220000Y-125444250D01*
X59220000Y-124803691D01*
X59123327Y-124570302D01*
X58944699Y-124391673D01*
X58738165Y-124306124D01*
X59000824Y-124043923D01*
X59219750Y-123516691D01*
X59220248Y-122945813D01*
X59002243Y-122418200D01*
X58598923Y-122014176D01*
X58071691Y-121795250D01*
X57500813Y-121794752D01*
X56973200Y-122012757D01*
X56569176Y-122416077D01*
X56350250Y-122943309D01*
X56349752Y-123514187D01*
X41767440Y-123514187D01*
X41767440Y-121440000D01*
X41723162Y-121204683D01*
X41668670Y-121120000D01*
X43002560Y-121120000D01*
X43002560Y-122720000D01*
X43046838Y-122955317D01*
X43185910Y-123171441D01*
X43398110Y-123316431D01*
X43650000Y-123367440D01*
X45250000Y-123367440D01*
X45485317Y-123323162D01*
X45701441Y-123184090D01*
X45846431Y-122971890D01*
X45897440Y-122720000D01*
X45897440Y-121120000D01*
X45853162Y-120884683D01*
X45714090Y-120668559D01*
X45501890Y-120523569D01*
X45396959Y-120502320D01*
X45665824Y-120233923D01*
X45884750Y-119706691D01*
X45885248Y-119135813D01*
X45667243Y-118608200D01*
X45263923Y-118204176D01*
X44736691Y-117985250D01*
X44165813Y-117984752D01*
X43638200Y-118202757D01*
X43234176Y-118606077D01*
X43015250Y-119133309D01*
X43014752Y-119704187D01*
X43232757Y-120231800D01*
X43501072Y-120500583D01*
X43414683Y-120516838D01*
X43198559Y-120655910D01*
X43053569Y-120868110D01*
X43002560Y-121120000D01*
X41668670Y-121120000D01*
X41584090Y-120988559D01*
X41371890Y-120843569D01*
X41120000Y-120792560D01*
X37620000Y-120792560D01*
X37384683Y-120836838D01*
X37168559Y-120975910D01*
X37023569Y-121188110D01*
X36972560Y-121440000D01*
X36972560Y-124940000D01*
X37016838Y-125175317D01*
X37155910Y-125391441D01*
X37303903Y-125492560D01*
X35433955Y-125492560D01*
X35571441Y-125404090D01*
X35716431Y-125191890D01*
X35767440Y-124940000D01*
X35767440Y-121440000D01*
X35723162Y-121204683D01*
X35584090Y-120988559D01*
X35371890Y-120843569D01*
X35120000Y-120792560D01*
X31620000Y-120792560D01*
X31384683Y-120836838D01*
X31168559Y-120975910D01*
X31023569Y-121188110D01*
X30972560Y-121440000D01*
X25710000Y-121440000D01*
X25710000Y-113949187D01*
X35434752Y-113949187D01*
X35652757Y-114476800D01*
X36056077Y-114880824D01*
X36583309Y-115099750D01*
X37154187Y-115100248D01*
X37681800Y-114882243D01*
X37950583Y-114613928D01*
X37966838Y-114700317D01*
X38105910Y-114916441D01*
X38318110Y-115061431D01*
X38570000Y-115112440D01*
X40170000Y-115112440D01*
X40405317Y-115068162D01*
X40621441Y-114929090D01*
X40766431Y-114716890D01*
X40817440Y-114465000D01*
X40817440Y-112865000D01*
X40773162Y-112629683D01*
X40634090Y-112413559D01*
X40421890Y-112268569D01*
X40170000Y-112217560D01*
X38570000Y-112217560D01*
X38334683Y-112261838D01*
X38118559Y-112400910D01*
X37973569Y-112613110D01*
X37952320Y-112718041D01*
X37683923Y-112449176D01*
X37156691Y-112230250D01*
X36585813Y-112229752D01*
X36058200Y-112447757D01*
X35654176Y-112851077D01*
X35435250Y-113378309D01*
X35434752Y-113949187D01*
X25710000Y-113949187D01*
X25710000Y-103926661D01*
X68602758Y-103926661D01*
X68814990Y-104440303D01*
X69207630Y-104833629D01*
X69608650Y-105000147D01*
X69209697Y-105164990D01*
X68816371Y-105557630D01*
X68603243Y-106070900D01*
X68602758Y-106626661D01*
X68814990Y-107140303D01*
X69207630Y-107533629D01*
X69720900Y-107746757D01*
X70276661Y-107747242D01*
X70790303Y-107535010D01*
X71183629Y-107142370D01*
X71396757Y-106629100D01*
X71397242Y-106073339D01*
X71185010Y-105559697D01*
X70792370Y-105166371D01*
X70391350Y-104999853D01*
X70790303Y-104835010D01*
X71183629Y-104442370D01*
X71396757Y-103929100D01*
X71397242Y-103373339D01*
X71185010Y-102859697D01*
X70792370Y-102466371D01*
X70279100Y-102253243D01*
X69723339Y-102252758D01*
X69209697Y-102464990D01*
X68816371Y-102857630D01*
X68603243Y-103370900D01*
X68602758Y-103926661D01*
X25710000Y-103926661D01*
X25710000Y-96990000D01*
X34747560Y-96990000D01*
X34747560Y-98590000D01*
X34791838Y-98825317D01*
X34930910Y-99041441D01*
X35143110Y-99186431D01*
X35395000Y-99237440D01*
X36995000Y-99237440D01*
X37230317Y-99193162D01*
X37446441Y-99054090D01*
X37591431Y-98841890D01*
X37612680Y-98736959D01*
X37881077Y-99005824D01*
X38408309Y-99224750D01*
X38979187Y-99225248D01*
X39506800Y-99007243D01*
X39910824Y-98603923D01*
X40129750Y-98076691D01*
X40130248Y-97505813D01*
X39912243Y-96978200D01*
X39508923Y-96574176D01*
X38981691Y-96355250D01*
X38410813Y-96354752D01*
X37883200Y-96572757D01*
X37614417Y-96841072D01*
X37598162Y-96754683D01*
X37459090Y-96538559D01*
X37246890Y-96393569D01*
X36995000Y-96342560D01*
X35395000Y-96342560D01*
X35159683Y-96386838D01*
X34943559Y-96525910D01*
X34798569Y-96738110D01*
X34747560Y-96990000D01*
X25710000Y-96990000D01*
X25710000Y-89176661D01*
X34837758Y-89176661D01*
X35049990Y-89690303D01*
X35442630Y-90083629D01*
X35955900Y-90296757D01*
X36511661Y-90297242D01*
X37025303Y-90085010D01*
X37418629Y-89692370D01*
X37631757Y-89179100D01*
X37631759Y-89176661D01*
X39837758Y-89176661D01*
X40049990Y-89690303D01*
X40442630Y-90083629D01*
X40955900Y-90296757D01*
X41511661Y-90297242D01*
X42025303Y-90085010D01*
X42418629Y-89692370D01*
X42631757Y-89179100D01*
X42632242Y-88623339D01*
X42420010Y-88109697D01*
X42410330Y-88100000D01*
X51257560Y-88100000D01*
X51257560Y-89700000D01*
X51301838Y-89935317D01*
X51440910Y-90151441D01*
X51653110Y-90296431D01*
X51905000Y-90347440D01*
X53505000Y-90347440D01*
X53740317Y-90303162D01*
X53956441Y-90164090D01*
X54101431Y-89951890D01*
X54122680Y-89846959D01*
X54391077Y-90115824D01*
X54918309Y-90334750D01*
X55489187Y-90335248D01*
X56016800Y-90117243D01*
X56420824Y-89713923D01*
X56639750Y-89186691D01*
X56640248Y-88615813D01*
X56422243Y-88088200D01*
X56018923Y-87684176D01*
X55491691Y-87465250D01*
X54920813Y-87464752D01*
X54393200Y-87682757D01*
X54124417Y-87951072D01*
X54108162Y-87864683D01*
X53969090Y-87648559D01*
X53756890Y-87503569D01*
X53505000Y-87452560D01*
X51905000Y-87452560D01*
X51669683Y-87496838D01*
X51453559Y-87635910D01*
X51308569Y-87848110D01*
X51257560Y-88100000D01*
X42410330Y-88100000D01*
X42027370Y-87716371D01*
X41514100Y-87503243D01*
X40958339Y-87502758D01*
X40444697Y-87714990D01*
X40051371Y-88107630D01*
X39838243Y-88620900D01*
X39837758Y-89176661D01*
X37631759Y-89176661D01*
X37632242Y-88623339D01*
X37420010Y-88109697D01*
X37027370Y-87716371D01*
X36514100Y-87503243D01*
X35958339Y-87502758D01*
X35444697Y-87714990D01*
X35051371Y-88107630D01*
X34838243Y-88620900D01*
X34837758Y-89176661D01*
X25710000Y-89176661D01*
X25710000Y-69489285D01*
X31634760Y-69489285D01*
X31845169Y-69998515D01*
X32234436Y-70388461D01*
X32743298Y-70599759D01*
X33294285Y-70600240D01*
X33803515Y-70389831D01*
X34193461Y-70000564D01*
X34404759Y-69491702D01*
X34404761Y-69489285D01*
X36514760Y-69489285D01*
X36725169Y-69998515D01*
X37114436Y-70388461D01*
X37623298Y-70599759D01*
X38174285Y-70600240D01*
X38683515Y-70389831D01*
X39073461Y-70000564D01*
X39284759Y-69491702D01*
X39285240Y-68940715D01*
X39074831Y-68431485D01*
X38685564Y-68041539D01*
X38176702Y-67830241D01*
X37625715Y-67829760D01*
X37116485Y-68040169D01*
X36726539Y-68429436D01*
X36515241Y-68938298D01*
X36514760Y-69489285D01*
X34404761Y-69489285D01*
X34405240Y-68940715D01*
X34194831Y-68431485D01*
X33805564Y-68041539D01*
X33296702Y-67830241D01*
X32745715Y-67829760D01*
X32236485Y-68040169D01*
X31846539Y-68429436D01*
X31635241Y-68938298D01*
X31634760Y-69489285D01*
X25710000Y-69489285D01*
X25710000Y-66860167D01*
X51769838Y-66860167D01*
X51911883Y-67203943D01*
X51945000Y-67237118D01*
X51945000Y-81915000D01*
X52002852Y-82205839D01*
X52167599Y-82452401D01*
X63980063Y-94264865D01*
X63939931Y-94264830D01*
X63577771Y-94414471D01*
X63300445Y-94691314D01*
X63150172Y-95053212D01*
X63149830Y-95445069D01*
X63250000Y-95687500D01*
X63250000Y-98622799D01*
X63150172Y-98863212D01*
X63149830Y-99255069D01*
X63299471Y-99617229D01*
X63576314Y-99894555D01*
X63938212Y-100044828D01*
X64330069Y-100045170D01*
X64692229Y-99895529D01*
X64969555Y-99618686D01*
X65119828Y-99256788D01*
X65120170Y-98864931D01*
X65020000Y-98622500D01*
X65020000Y-95687201D01*
X65119828Y-95446788D01*
X65119865Y-95404667D01*
X79250000Y-109534802D01*
X79250000Y-113030000D01*
X79307852Y-113320839D01*
X79472599Y-113567401D01*
X81125063Y-115219865D01*
X81084931Y-115219830D01*
X80842500Y-115320000D01*
X68946579Y-115320000D01*
X67553241Y-113926661D01*
X68602758Y-113926661D01*
X68814990Y-114440303D01*
X69207630Y-114833629D01*
X69720900Y-115046757D01*
X70276661Y-115047242D01*
X70790303Y-114835010D01*
X71183629Y-114442370D01*
X71396757Y-113929100D01*
X71397242Y-113373339D01*
X71185010Y-112859697D01*
X70792370Y-112466371D01*
X70279100Y-112253243D01*
X69723339Y-112252758D01*
X69209697Y-112464990D01*
X68816371Y-112857630D01*
X68603243Y-113370900D01*
X68602758Y-113926661D01*
X67553241Y-113926661D01*
X65069937Y-111443357D01*
X64970529Y-111202771D01*
X64693686Y-110925445D01*
X64331788Y-110775172D01*
X63939931Y-110774830D01*
X63577771Y-110924471D01*
X63300445Y-111201314D01*
X63150172Y-111563212D01*
X63149830Y-111955069D01*
X63299471Y-112317229D01*
X63576314Y-112594555D01*
X63818567Y-112695147D01*
X67954208Y-116830787D01*
X67954210Y-116830790D01*
X68155071Y-116965000D01*
X68241325Y-117022633D01*
X68580000Y-117090001D01*
X68580005Y-117090000D01*
X80842799Y-117090000D01*
X81083212Y-117189828D01*
X81475069Y-117190170D01*
X81837229Y-117040529D01*
X82114555Y-116763686D01*
X82264828Y-116401788D01*
X82264865Y-116359667D01*
X83282599Y-117377401D01*
X83529161Y-117542148D01*
X83820000Y-117600000D01*
X92782537Y-117600000D01*
X92814673Y-117632192D01*
X93158201Y-117774838D01*
X93530167Y-117775162D01*
X93873943Y-117633117D01*
X94137192Y-117370327D01*
X94246765Y-117106446D01*
X94490000Y-117005944D01*
X94490000Y-126437537D01*
X94457808Y-126469673D01*
X94315162Y-126813201D01*
X94314838Y-127185167D01*
X94456883Y-127528943D01*
X94719673Y-127792192D01*
X95063201Y-127934838D01*
X95435167Y-127935162D01*
X95778943Y-127793117D01*
X96042192Y-127530327D01*
X96184838Y-127186799D01*
X96185162Y-126814833D01*
X96043117Y-126471057D01*
X96010000Y-126437882D01*
X96010000Y-120315110D01*
X96070167Y-120315162D01*
X96413943Y-120173117D01*
X96677192Y-119910327D01*
X96819838Y-119566799D01*
X96820162Y-119194833D01*
X96678117Y-118851057D01*
X96645000Y-118817882D01*
X96645000Y-117140110D01*
X96705167Y-117140162D01*
X97048943Y-116998117D01*
X97082118Y-116965000D01*
X104139487Y-116965000D01*
X103911917Y-117192571D01*
X103611057Y-117316883D01*
X103347808Y-117579673D01*
X103205162Y-117923201D01*
X103204838Y-118295167D01*
X103330000Y-118598083D01*
X103330000Y-121584487D01*
X93407244Y-131507244D01*
X93231658Y-131770026D01*
X93170000Y-132080000D01*
X93170000Y-140482559D01*
X93045162Y-140783201D01*
X93044838Y-141155167D01*
X93170000Y-141458083D01*
X93170000Y-143809487D01*
X91739488Y-145240000D01*
X86847441Y-145240000D01*
X86546799Y-145115162D01*
X86174833Y-145114838D01*
X85831057Y-145256883D01*
X85567808Y-145519673D01*
X85425162Y-145863201D01*
X85424838Y-146235167D01*
X85566883Y-146578943D01*
X85829673Y-146842192D01*
X86173201Y-146984838D01*
X86545167Y-146985162D01*
X86823476Y-146870167D01*
X151464838Y-146870167D01*
X151606883Y-147213943D01*
X151869673Y-147477192D01*
X152213201Y-147619838D01*
X152585167Y-147620162D01*
X152928943Y-147478117D01*
X152962118Y-147445000D01*
X226695000Y-147445000D01*
X226985839Y-147387148D01*
X227232401Y-147222401D01*
X228739680Y-145715122D01*
X228785167Y-145715162D01*
X229128943Y-145573117D01*
X229392192Y-145310327D01*
X229534838Y-144966799D01*
X229535162Y-144594833D01*
X229393117Y-144251057D01*
X229130327Y-143987808D01*
X228786799Y-143845162D01*
X228414833Y-143844838D01*
X228071057Y-143986883D01*
X227807808Y-144249673D01*
X227665162Y-144593201D01*
X227665121Y-144640077D01*
X226380198Y-145925000D01*
X218369802Y-145925000D01*
X223199803Y-141095000D01*
X228037537Y-141095000D01*
X228069673Y-141127192D01*
X228413201Y-141269838D01*
X228785167Y-141270162D01*
X229128943Y-141128117D01*
X229392192Y-140865327D01*
X229514265Y-140571344D01*
X262114501Y-140571344D01*
X262552790Y-141632086D01*
X263363645Y-142444357D01*
X264423620Y-142884498D01*
X265571344Y-142885499D01*
X266632086Y-142447210D01*
X267444357Y-141636355D01*
X267884498Y-140576380D01*
X267885499Y-139428656D01*
X267447210Y-138367914D01*
X266636355Y-137555643D01*
X265576380Y-137115502D01*
X264428656Y-137114501D01*
X263367914Y-137552790D01*
X262555643Y-138363645D01*
X262115502Y-139423620D01*
X262114501Y-140571344D01*
X229514265Y-140571344D01*
X229534838Y-140521799D01*
X229535162Y-140149833D01*
X229393117Y-139806057D01*
X229130327Y-139542808D01*
X228786799Y-139400162D01*
X228414833Y-139399838D01*
X228071057Y-139541883D01*
X228037882Y-139575000D01*
X222885000Y-139575000D01*
X222594161Y-139632852D01*
X222347599Y-139797598D01*
X216855198Y-145290000D01*
X162487463Y-145290000D01*
X162455327Y-145257808D01*
X162111799Y-145115162D01*
X161739833Y-145114838D01*
X161396057Y-145256883D01*
X161132808Y-145519673D01*
X160990162Y-145863201D01*
X160990108Y-145925000D01*
X152962463Y-145925000D01*
X152930327Y-145892808D01*
X152586799Y-145750162D01*
X152214833Y-145749838D01*
X151871057Y-145891883D01*
X151607808Y-146154673D01*
X151465162Y-146498201D01*
X151464838Y-146870167D01*
X86823476Y-146870167D01*
X86848083Y-146860000D01*
X92075000Y-146860000D01*
X92384974Y-146798342D01*
X92647756Y-146622756D01*
X94552757Y-144717756D01*
X94728343Y-144454973D01*
X94760572Y-144292943D01*
X94790000Y-144145000D01*
X94790000Y-141457441D01*
X94914838Y-141156799D01*
X94915162Y-140784833D01*
X94790000Y-140481917D01*
X94790000Y-132415512D01*
X104712757Y-122492756D01*
X104888343Y-122229973D01*
X104931549Y-122012757D01*
X104950000Y-121920000D01*
X104950000Y-118597441D01*
X105057884Y-118337629D01*
X105110513Y-118285000D01*
X111145198Y-118285000D01*
X100190320Y-129239878D01*
X100144833Y-129239838D01*
X99801057Y-129381883D01*
X99537808Y-129644673D01*
X99395162Y-129988201D01*
X99394838Y-130360167D01*
X99536883Y-130703943D01*
X99766369Y-130933829D01*
X95982599Y-134717599D01*
X95817852Y-134964161D01*
X95760000Y-135255000D01*
X95760000Y-144852537D01*
X95727808Y-144884673D01*
X95585162Y-145228201D01*
X95584838Y-145600167D01*
X95726883Y-145943943D01*
X95989673Y-146207192D01*
X96333201Y-146349838D01*
X96705167Y-146350162D01*
X97048943Y-146208117D01*
X97312192Y-145945327D01*
X97454838Y-145601799D01*
X97455162Y-145229833D01*
X97313117Y-144886057D01*
X97280000Y-144852882D01*
X97280000Y-144670103D01*
X97349201Y-144698838D01*
X97721167Y-144699162D01*
X98064943Y-144557117D01*
X98328192Y-144294327D01*
X98470838Y-143950799D01*
X98471162Y-143578833D01*
X98329117Y-143235057D01*
X98296000Y-143201882D01*
X98296000Y-138998802D01*
X98633019Y-138661783D01*
X98632838Y-138869167D01*
X98774883Y-139212943D01*
X99037673Y-139476192D01*
X99381201Y-139618838D01*
X99753167Y-139619162D01*
X100096943Y-139477117D01*
X100360192Y-139214327D01*
X100475764Y-138936000D01*
X102108000Y-138936000D01*
X102398839Y-138878148D01*
X102645401Y-138713401D01*
X104013635Y-137345167D01*
X113999838Y-137345167D01*
X114141883Y-137688943D01*
X114175000Y-137722118D01*
X114175000Y-143582537D01*
X114142808Y-143614673D01*
X114000162Y-143958201D01*
X113999838Y-144330167D01*
X114141883Y-144673943D01*
X114404673Y-144937192D01*
X114748201Y-145079838D01*
X115120167Y-145080162D01*
X115463943Y-144938117D01*
X115727192Y-144675327D01*
X115869838Y-144331799D01*
X115870162Y-143959833D01*
X115856456Y-143926661D01*
X153602758Y-143926661D01*
X153814990Y-144440303D01*
X154207630Y-144833629D01*
X154720900Y-145046757D01*
X155276661Y-145047242D01*
X155790303Y-144835010D01*
X156183629Y-144442370D01*
X156396757Y-143929100D01*
X156396759Y-143926661D01*
X163602758Y-143926661D01*
X163814990Y-144440303D01*
X164207630Y-144833629D01*
X164720900Y-145046757D01*
X165276661Y-145047242D01*
X165790303Y-144835010D01*
X166183629Y-144442370D01*
X166396757Y-143929100D01*
X166396759Y-143926661D01*
X173602758Y-143926661D01*
X173814990Y-144440303D01*
X174207630Y-144833629D01*
X174720900Y-145046757D01*
X175276661Y-145047242D01*
X175790303Y-144835010D01*
X176183629Y-144442370D01*
X176396757Y-143929100D01*
X176396759Y-143926661D01*
X183602758Y-143926661D01*
X183814990Y-144440303D01*
X184207630Y-144833629D01*
X184720900Y-145046757D01*
X185276661Y-145047242D01*
X185790303Y-144835010D01*
X186183629Y-144442370D01*
X186396757Y-143929100D01*
X186396759Y-143926661D01*
X193602758Y-143926661D01*
X193814990Y-144440303D01*
X194207630Y-144833629D01*
X194720900Y-145046757D01*
X195276661Y-145047242D01*
X195790303Y-144835010D01*
X196183629Y-144442370D01*
X196396757Y-143929100D01*
X196396759Y-143926661D01*
X203602758Y-143926661D01*
X203814990Y-144440303D01*
X204207630Y-144833629D01*
X204720900Y-145046757D01*
X205276661Y-145047242D01*
X205790303Y-144835010D01*
X206183629Y-144442370D01*
X206396757Y-143929100D01*
X206396759Y-143926661D01*
X213602758Y-143926661D01*
X213814990Y-144440303D01*
X214207630Y-144833629D01*
X214720900Y-145046757D01*
X215276661Y-145047242D01*
X215790303Y-144835010D01*
X216183629Y-144442370D01*
X216396757Y-143929100D01*
X216397242Y-143373339D01*
X216185010Y-142859697D01*
X215792370Y-142466371D01*
X215279100Y-142253243D01*
X214723339Y-142252758D01*
X214209697Y-142464990D01*
X213816371Y-142857630D01*
X213603243Y-143370900D01*
X213602758Y-143926661D01*
X206396759Y-143926661D01*
X206397242Y-143373339D01*
X206185010Y-142859697D01*
X205792370Y-142466371D01*
X205279100Y-142253243D01*
X204723339Y-142252758D01*
X204209697Y-142464990D01*
X203816371Y-142857630D01*
X203603243Y-143370900D01*
X203602758Y-143926661D01*
X196396759Y-143926661D01*
X196397242Y-143373339D01*
X196185010Y-142859697D01*
X195792370Y-142466371D01*
X195279100Y-142253243D01*
X194723339Y-142252758D01*
X194209697Y-142464990D01*
X193816371Y-142857630D01*
X193603243Y-143370900D01*
X193602758Y-143926661D01*
X186396759Y-143926661D01*
X186397242Y-143373339D01*
X186185010Y-142859697D01*
X185792370Y-142466371D01*
X185279100Y-142253243D01*
X184723339Y-142252758D01*
X184209697Y-142464990D01*
X183816371Y-142857630D01*
X183603243Y-143370900D01*
X183602758Y-143926661D01*
X176396759Y-143926661D01*
X176397242Y-143373339D01*
X176185010Y-142859697D01*
X175792370Y-142466371D01*
X175279100Y-142253243D01*
X174723339Y-142252758D01*
X174209697Y-142464990D01*
X173816371Y-142857630D01*
X173603243Y-143370900D01*
X173602758Y-143926661D01*
X166396759Y-143926661D01*
X166397242Y-143373339D01*
X166185010Y-142859697D01*
X165792370Y-142466371D01*
X165279100Y-142253243D01*
X164723339Y-142252758D01*
X164209697Y-142464990D01*
X163816371Y-142857630D01*
X163603243Y-143370900D01*
X163602758Y-143926661D01*
X156396759Y-143926661D01*
X156397242Y-143373339D01*
X156185010Y-142859697D01*
X155792370Y-142466371D01*
X155279100Y-142253243D01*
X154723339Y-142252758D01*
X154209697Y-142464990D01*
X153816371Y-142857630D01*
X153603243Y-143370900D01*
X153602758Y-143926661D01*
X115856456Y-143926661D01*
X115728117Y-143616057D01*
X115695000Y-143582882D01*
X115695000Y-138798709D01*
X133187857Y-138798709D01*
X133489418Y-139528543D01*
X134047320Y-140087419D01*
X134776627Y-140390254D01*
X135566309Y-140390943D01*
X136296143Y-140089382D01*
X136855019Y-139531480D01*
X137157854Y-138802173D01*
X137157857Y-138798709D01*
X145187857Y-138798709D01*
X145489418Y-139528543D01*
X146047320Y-140087419D01*
X146776627Y-140390254D01*
X147566309Y-140390943D01*
X148296143Y-140089382D01*
X148855019Y-139531480D01*
X149157854Y-138802173D01*
X149158543Y-138012491D01*
X148856982Y-137282657D01*
X148299080Y-136723781D01*
X148065190Y-136626661D01*
X153602758Y-136626661D01*
X153814990Y-137140303D01*
X154207630Y-137533629D01*
X154720900Y-137746757D01*
X155276661Y-137747242D01*
X155790303Y-137535010D01*
X156183629Y-137142370D01*
X156396757Y-136629100D01*
X156396759Y-136626661D01*
X163602758Y-136626661D01*
X163814990Y-137140303D01*
X164207630Y-137533629D01*
X164720900Y-137746757D01*
X165276661Y-137747242D01*
X165790303Y-137535010D01*
X166183629Y-137142370D01*
X166396757Y-136629100D01*
X166396759Y-136626661D01*
X173602758Y-136626661D01*
X173814990Y-137140303D01*
X174207630Y-137533629D01*
X174720900Y-137746757D01*
X175276661Y-137747242D01*
X175790303Y-137535010D01*
X176183629Y-137142370D01*
X176396757Y-136629100D01*
X176396759Y-136626661D01*
X183602758Y-136626661D01*
X183814990Y-137140303D01*
X184207630Y-137533629D01*
X184720900Y-137746757D01*
X185276661Y-137747242D01*
X185790303Y-137535010D01*
X186183629Y-137142370D01*
X186396757Y-136629100D01*
X186396759Y-136626661D01*
X193602758Y-136626661D01*
X193814990Y-137140303D01*
X194207630Y-137533629D01*
X194720900Y-137746757D01*
X195276661Y-137747242D01*
X195790303Y-137535010D01*
X196183629Y-137142370D01*
X196396757Y-136629100D01*
X196396759Y-136626661D01*
X203602758Y-136626661D01*
X203814990Y-137140303D01*
X204207630Y-137533629D01*
X204720900Y-137746757D01*
X205276661Y-137747242D01*
X205790303Y-137535010D01*
X206183629Y-137142370D01*
X206396757Y-136629100D01*
X206396759Y-136626661D01*
X213602758Y-136626661D01*
X213814990Y-137140303D01*
X214207630Y-137533629D01*
X214720900Y-137746757D01*
X215276661Y-137747242D01*
X215790303Y-137535010D01*
X216183629Y-137142370D01*
X216396757Y-136629100D01*
X216397242Y-136073339D01*
X216185010Y-135559697D01*
X215792370Y-135166371D01*
X215279100Y-134953243D01*
X214723339Y-134952758D01*
X214209697Y-135164990D01*
X213816371Y-135557630D01*
X213603243Y-136070900D01*
X213602758Y-136626661D01*
X206396759Y-136626661D01*
X206397242Y-136073339D01*
X206185010Y-135559697D01*
X205792370Y-135166371D01*
X205279100Y-134953243D01*
X204723339Y-134952758D01*
X204209697Y-135164990D01*
X203816371Y-135557630D01*
X203603243Y-136070900D01*
X203602758Y-136626661D01*
X196396759Y-136626661D01*
X196397242Y-136073339D01*
X196185010Y-135559697D01*
X195792370Y-135166371D01*
X195279100Y-134953243D01*
X194723339Y-134952758D01*
X194209697Y-135164990D01*
X193816371Y-135557630D01*
X193603243Y-136070900D01*
X193602758Y-136626661D01*
X186396759Y-136626661D01*
X186397242Y-136073339D01*
X186185010Y-135559697D01*
X185792370Y-135166371D01*
X185279100Y-134953243D01*
X184723339Y-134952758D01*
X184209697Y-135164990D01*
X183816371Y-135557630D01*
X183603243Y-136070900D01*
X183602758Y-136626661D01*
X176396759Y-136626661D01*
X176397242Y-136073339D01*
X176185010Y-135559697D01*
X175792370Y-135166371D01*
X175279100Y-134953243D01*
X174723339Y-134952758D01*
X174209697Y-135164990D01*
X173816371Y-135557630D01*
X173603243Y-136070900D01*
X173602758Y-136626661D01*
X166396759Y-136626661D01*
X166397242Y-136073339D01*
X166185010Y-135559697D01*
X165792370Y-135166371D01*
X165279100Y-134953243D01*
X164723339Y-134952758D01*
X164209697Y-135164990D01*
X163816371Y-135557630D01*
X163603243Y-136070900D01*
X163602758Y-136626661D01*
X156396759Y-136626661D01*
X156397242Y-136073339D01*
X156185010Y-135559697D01*
X155792370Y-135166371D01*
X155279100Y-134953243D01*
X154723339Y-134952758D01*
X154209697Y-135164990D01*
X153816371Y-135557630D01*
X153603243Y-136070900D01*
X153602758Y-136626661D01*
X148065190Y-136626661D01*
X147569773Y-136420946D01*
X146780091Y-136420257D01*
X146050257Y-136721818D01*
X145491381Y-137279720D01*
X145188546Y-138009027D01*
X145187857Y-138798709D01*
X137157857Y-138798709D01*
X137158543Y-138012491D01*
X136856982Y-137282657D01*
X136299080Y-136723781D01*
X135569773Y-136420946D01*
X134780091Y-136420257D01*
X134050257Y-136721818D01*
X133491381Y-137279720D01*
X133188546Y-138009027D01*
X133187857Y-138798709D01*
X115695000Y-138798709D01*
X115695000Y-137722463D01*
X115727192Y-137690327D01*
X115869838Y-137346799D01*
X115870162Y-136974833D01*
X115760805Y-136710167D01*
X120984838Y-136710167D01*
X121126883Y-137053943D01*
X121389673Y-137317192D01*
X121733201Y-137459838D01*
X122105167Y-137460162D01*
X122448943Y-137318117D01*
X122712192Y-137055327D01*
X122837884Y-136752628D01*
X123762756Y-135827757D01*
X123850549Y-135696365D01*
X123938342Y-135564974D01*
X124000000Y-135255000D01*
X124000000Y-130662441D01*
X124124838Y-130361799D01*
X124125162Y-129989833D01*
X123983117Y-129646057D01*
X123720327Y-129382808D01*
X123376799Y-129240162D01*
X123004833Y-129239838D01*
X122661057Y-129381883D01*
X122397808Y-129644673D01*
X122255162Y-129988201D01*
X122254838Y-130360167D01*
X122380000Y-130663083D01*
X122380000Y-134919487D01*
X121691917Y-135607570D01*
X121391057Y-135731883D01*
X121127808Y-135994673D01*
X120985162Y-136338201D01*
X120984838Y-136710167D01*
X115760805Y-136710167D01*
X115728117Y-136631057D01*
X115465327Y-136367808D01*
X115121799Y-136225162D01*
X114749833Y-136224838D01*
X114406057Y-136366883D01*
X114142808Y-136629673D01*
X114000162Y-136973201D01*
X113999838Y-137345167D01*
X104013635Y-137345167D01*
X119011680Y-122347122D01*
X119057167Y-122347162D01*
X119400943Y-122205117D01*
X119664192Y-121942327D01*
X119806838Y-121598799D01*
X119807162Y-121226833D01*
X119665117Y-120883057D01*
X119402327Y-120619808D01*
X119058799Y-120477162D01*
X118849822Y-120476980D01*
X119011680Y-120315122D01*
X119057167Y-120315162D01*
X119400943Y-120173117D01*
X119664192Y-119910327D01*
X119806838Y-119566799D01*
X119807162Y-119194833D01*
X119665117Y-118851057D01*
X119402327Y-118587808D01*
X119058799Y-118445162D01*
X118686833Y-118444838D01*
X118343057Y-118586883D01*
X118079808Y-118849673D01*
X117937162Y-119193201D01*
X117937121Y-119240077D01*
X101285198Y-135892000D01*
X99568000Y-135892000D01*
X99277161Y-135949852D01*
X99030599Y-136114599D01*
X97280000Y-137865198D01*
X97280000Y-135569802D01*
X114439680Y-118410122D01*
X114485167Y-118410162D01*
X114828943Y-118268117D01*
X115092192Y-118005327D01*
X115234838Y-117661799D01*
X115234879Y-117614923D01*
X120329803Y-112520000D01*
X129539487Y-112520000D01*
X118516918Y-123542570D01*
X118216057Y-123666883D01*
X117952808Y-123929673D01*
X117810162Y-124273201D01*
X117809838Y-124645167D01*
X117951883Y-124988943D01*
X118181369Y-125218829D01*
X116302599Y-127097599D01*
X116137852Y-127344161D01*
X116080000Y-127635000D01*
X116080000Y-134692537D01*
X116047808Y-134724673D01*
X115905162Y-135068201D01*
X115904838Y-135440167D01*
X116046883Y-135783943D01*
X116309673Y-136047192D01*
X116653201Y-136189838D01*
X117025167Y-136190162D01*
X117368943Y-136048117D01*
X117632192Y-135785327D01*
X117774838Y-135441799D01*
X117775162Y-135069833D01*
X117633117Y-134726057D01*
X117600000Y-134692882D01*
X117600000Y-128290285D01*
X128989760Y-128290285D01*
X129200169Y-128799515D01*
X129589436Y-129189461D01*
X130098298Y-129400759D01*
X130649285Y-129401240D01*
X131158515Y-129190831D01*
X131548461Y-128801564D01*
X131759759Y-128292702D01*
X131759761Y-128290285D01*
X133869760Y-128290285D01*
X134080169Y-128799515D01*
X134469436Y-129189461D01*
X134978298Y-129400759D01*
X135529285Y-129401240D01*
X136038515Y-129190831D01*
X136428461Y-128801564D01*
X136639759Y-128292702D01*
X136640240Y-127741715D01*
X136429831Y-127232485D01*
X136040564Y-126842539D01*
X135531702Y-126631241D01*
X134980715Y-126630760D01*
X134471485Y-126841169D01*
X134081539Y-127230436D01*
X133870241Y-127739298D01*
X133869760Y-128290285D01*
X131759761Y-128290285D01*
X131760240Y-127741715D01*
X131549831Y-127232485D01*
X131160564Y-126842539D01*
X130651702Y-126631241D01*
X130100715Y-126630760D01*
X129591485Y-126841169D01*
X129201539Y-127230436D01*
X128990241Y-127739298D01*
X128989760Y-128290285D01*
X117600000Y-128290285D01*
X117600000Y-127949802D01*
X120396635Y-125153167D01*
X136224838Y-125153167D01*
X136366883Y-125496943D01*
X136629673Y-125760192D01*
X136908000Y-125875764D01*
X136908000Y-133470400D01*
X136965852Y-133761239D01*
X137130599Y-134007801D01*
X138520547Y-135397749D01*
X138508442Y-135426900D01*
X138507958Y-135981865D01*
X138719887Y-136494772D01*
X139111964Y-136887534D01*
X139624500Y-137100358D01*
X140179465Y-137100842D01*
X140692372Y-136888913D01*
X141085134Y-136496836D01*
X141173154Y-136284862D01*
X141259887Y-136494772D01*
X141651964Y-136887534D01*
X142164500Y-137100358D01*
X142719465Y-137100842D01*
X143232372Y-136888913D01*
X143625134Y-136496836D01*
X143837958Y-135984300D01*
X143838442Y-135429335D01*
X143626513Y-134916428D01*
X143416029Y-134705576D01*
X143625134Y-134496836D01*
X143837958Y-133984300D01*
X143838442Y-133429335D01*
X143626513Y-132916428D01*
X143234436Y-132523666D01*
X142721900Y-132310842D01*
X142166935Y-132310358D01*
X141654028Y-132522287D01*
X141261266Y-132914364D01*
X141173246Y-133126338D01*
X141086513Y-132916428D01*
X140694436Y-132523666D01*
X140181900Y-132310842D01*
X139626935Y-132310358D01*
X139114028Y-132522287D01*
X138721266Y-132914364D01*
X138564441Y-133292039D01*
X138428000Y-133155598D01*
X138428000Y-125915167D01*
X139399838Y-125915167D01*
X139541883Y-126258943D01*
X139804673Y-126522192D01*
X140148201Y-126664838D01*
X140520167Y-126665162D01*
X140823083Y-126540000D01*
X141605000Y-126540000D01*
X141914974Y-126478342D01*
X142177756Y-126302756D01*
X142812757Y-125667756D01*
X142988343Y-125404973D01*
X143050000Y-125095000D01*
X143050000Y-122933795D01*
X160289716Y-122933795D01*
X160538106Y-123534943D01*
X160997637Y-123995278D01*
X161598352Y-124244716D01*
X162248795Y-124245284D01*
X162849943Y-123996894D01*
X163310278Y-123537363D01*
X163559716Y-122936648D01*
X163559718Y-122933795D01*
X166789716Y-122933795D01*
X167038106Y-123534943D01*
X167497637Y-123995278D01*
X168098352Y-124244716D01*
X168748795Y-124245284D01*
X169349943Y-123996894D01*
X169420298Y-123926661D01*
X178602758Y-123926661D01*
X178814990Y-124440303D01*
X179207630Y-124833629D01*
X179720900Y-125046757D01*
X180276661Y-125047242D01*
X180790303Y-124835010D01*
X181183629Y-124442370D01*
X181396757Y-123929100D01*
X181397242Y-123373339D01*
X181215627Y-122933795D01*
X190134716Y-122933795D01*
X190383106Y-123534943D01*
X190842637Y-123995278D01*
X191443352Y-124244716D01*
X192093795Y-124245284D01*
X192694943Y-123996894D01*
X193155278Y-123537363D01*
X193404716Y-122936648D01*
X193404718Y-122933795D01*
X196634716Y-122933795D01*
X196883106Y-123534943D01*
X197342637Y-123995278D01*
X197943352Y-124244716D01*
X198593795Y-124245284D01*
X199194943Y-123996894D01*
X199265298Y-123926661D01*
X208602758Y-123926661D01*
X208814990Y-124440303D01*
X209207630Y-124833629D01*
X209720900Y-125046757D01*
X210276661Y-125047242D01*
X210790303Y-124835010D01*
X211183629Y-124442370D01*
X211396757Y-123929100D01*
X211397242Y-123373339D01*
X211185010Y-122859697D01*
X210792370Y-122466371D01*
X210279100Y-122253243D01*
X209723339Y-122252758D01*
X209209697Y-122464990D01*
X208816371Y-122857630D01*
X208603243Y-123370900D01*
X208602758Y-123926661D01*
X199265298Y-123926661D01*
X199655278Y-123537363D01*
X199904716Y-122936648D01*
X199905284Y-122286205D01*
X199656894Y-121685057D01*
X199197363Y-121224722D01*
X198596648Y-120975284D01*
X197946205Y-120974716D01*
X197345057Y-121223106D01*
X196884722Y-121682637D01*
X196635284Y-122283352D01*
X196634716Y-122933795D01*
X193404718Y-122933795D01*
X193405284Y-122286205D01*
X193156894Y-121685057D01*
X192697363Y-121224722D01*
X192096648Y-120975284D01*
X191446205Y-120974716D01*
X190845057Y-121223106D01*
X190384722Y-121682637D01*
X190135284Y-122283352D01*
X190134716Y-122933795D01*
X181215627Y-122933795D01*
X181185010Y-122859697D01*
X180792370Y-122466371D01*
X180279100Y-122253243D01*
X179723339Y-122252758D01*
X179209697Y-122464990D01*
X178816371Y-122857630D01*
X178603243Y-123370900D01*
X178602758Y-123926661D01*
X169420298Y-123926661D01*
X169810278Y-123537363D01*
X170059716Y-122936648D01*
X170060284Y-122286205D01*
X169811894Y-121685057D01*
X169352363Y-121224722D01*
X168751648Y-120975284D01*
X168101205Y-120974716D01*
X167500057Y-121223106D01*
X167039722Y-121682637D01*
X166790284Y-122283352D01*
X166789716Y-122933795D01*
X163559718Y-122933795D01*
X163560284Y-122286205D01*
X163311894Y-121685057D01*
X162852363Y-121224722D01*
X162251648Y-120975284D01*
X161601205Y-120974716D01*
X161000057Y-121223106D01*
X160539722Y-121682637D01*
X160290284Y-122283352D01*
X160289716Y-122933795D01*
X143050000Y-122933795D01*
X143050000Y-119867441D01*
X143174838Y-119566799D01*
X143175162Y-119194833D01*
X143033117Y-118851057D01*
X142770327Y-118587808D01*
X142426799Y-118445162D01*
X142054833Y-118444838D01*
X141711057Y-118586883D01*
X141447808Y-118849673D01*
X141305162Y-119193201D01*
X141304838Y-119565167D01*
X141430000Y-119868083D01*
X141430000Y-124759487D01*
X141269488Y-124920000D01*
X140822441Y-124920000D01*
X140521799Y-124795162D01*
X140149833Y-124794838D01*
X139806057Y-124936883D01*
X139542808Y-125199673D01*
X139400162Y-125543201D01*
X139399838Y-125915167D01*
X138428000Y-125915167D01*
X138428000Y-125476000D01*
X138370148Y-125185161D01*
X138205401Y-124938599D01*
X138095122Y-124828320D01*
X138095162Y-124782833D01*
X137953117Y-124439057D01*
X137690327Y-124175808D01*
X137346799Y-124033162D01*
X136974833Y-124032838D01*
X136631057Y-124174883D01*
X136367808Y-124437673D01*
X136225162Y-124781201D01*
X136224838Y-125153167D01*
X120396635Y-125153167D01*
X127116007Y-118433795D01*
X160289716Y-118433795D01*
X160538106Y-119034943D01*
X160997637Y-119495278D01*
X161598352Y-119744716D01*
X162248795Y-119745284D01*
X162849943Y-119496894D01*
X163310278Y-119037363D01*
X163559716Y-118436648D01*
X163559718Y-118433795D01*
X166789716Y-118433795D01*
X167038106Y-119034943D01*
X167497637Y-119495278D01*
X168098352Y-119744716D01*
X168748795Y-119745284D01*
X169349943Y-119496894D01*
X169810278Y-119037363D01*
X170059716Y-118436648D01*
X170059718Y-118433795D01*
X190134716Y-118433795D01*
X190383106Y-119034943D01*
X190842637Y-119495278D01*
X191443352Y-119744716D01*
X192093795Y-119745284D01*
X192694943Y-119496894D01*
X193155278Y-119037363D01*
X193404716Y-118436648D01*
X193404718Y-118433795D01*
X196634716Y-118433795D01*
X196883106Y-119034943D01*
X197342637Y-119495278D01*
X197943352Y-119744716D01*
X198593795Y-119745284D01*
X199194943Y-119496894D01*
X199655278Y-119037363D01*
X199904716Y-118436648D01*
X199905284Y-117786205D01*
X199656894Y-117185057D01*
X199197363Y-116724722D01*
X198596648Y-116475284D01*
X197946205Y-116474716D01*
X197345057Y-116723106D01*
X196884722Y-117182637D01*
X196635284Y-117783352D01*
X196634716Y-118433795D01*
X193404718Y-118433795D01*
X193405284Y-117786205D01*
X193156894Y-117185057D01*
X192697363Y-116724722D01*
X192096648Y-116475284D01*
X191446205Y-116474716D01*
X190845057Y-116723106D01*
X190384722Y-117182637D01*
X190135284Y-117783352D01*
X190134716Y-118433795D01*
X170059718Y-118433795D01*
X170060284Y-117786205D01*
X169811894Y-117185057D01*
X169352363Y-116724722D01*
X169116206Y-116626661D01*
X178602758Y-116626661D01*
X178814990Y-117140303D01*
X179207630Y-117533629D01*
X179720900Y-117746757D01*
X180276661Y-117747242D01*
X180790303Y-117535010D01*
X181183629Y-117142370D01*
X181396757Y-116629100D01*
X181397242Y-116073339D01*
X181185010Y-115559697D01*
X180792370Y-115166371D01*
X180279100Y-114953243D01*
X179723339Y-114952758D01*
X179209697Y-115164990D01*
X178816371Y-115557630D01*
X178603243Y-116070900D01*
X178602758Y-116626661D01*
X169116206Y-116626661D01*
X168751648Y-116475284D01*
X168101205Y-116474716D01*
X167500057Y-116723106D01*
X167039722Y-117182637D01*
X166790284Y-117783352D01*
X166789716Y-118433795D01*
X163559718Y-118433795D01*
X163560284Y-117786205D01*
X163311894Y-117185057D01*
X162852363Y-116724722D01*
X162251648Y-116475284D01*
X161601205Y-116474716D01*
X161000057Y-116723106D01*
X160539722Y-117182637D01*
X160290284Y-117783352D01*
X160289716Y-118433795D01*
X127116007Y-118433795D01*
X131124802Y-114425000D01*
X133422537Y-114425000D01*
X133454673Y-114457192D01*
X133798201Y-114599838D01*
X134170167Y-114600162D01*
X134513943Y-114458117D01*
X134777192Y-114195327D01*
X134919838Y-113851799D01*
X134919848Y-113840000D01*
X139212559Y-113840000D01*
X139513201Y-113964838D01*
X139885167Y-113965162D01*
X140228943Y-113823117D01*
X140492192Y-113560327D01*
X140634838Y-113216799D01*
X140635162Y-112844833D01*
X140500944Y-112520000D01*
X146122537Y-112520000D01*
X146154673Y-112552192D01*
X146498201Y-112694838D01*
X146870167Y-112695162D01*
X147213943Y-112553117D01*
X147247118Y-112520000D01*
X168347537Y-112520000D01*
X168379673Y-112552192D01*
X168723201Y-112694838D01*
X169095167Y-112695162D01*
X169438943Y-112553117D01*
X169702192Y-112290327D01*
X169844838Y-111946799D01*
X169844910Y-111864712D01*
X173054878Y-115074680D01*
X173054838Y-115120167D01*
X173196883Y-115463943D01*
X173459673Y-115727192D01*
X173803201Y-115869838D01*
X174175167Y-115870162D01*
X174518943Y-115728117D01*
X174782192Y-115465327D01*
X174924838Y-115121799D01*
X174925162Y-114749833D01*
X174783117Y-114406057D01*
X174520327Y-114142808D01*
X174176799Y-114000162D01*
X174129923Y-114000121D01*
X172649802Y-112520000D01*
X198827537Y-112520000D01*
X198859673Y-112552192D01*
X199203201Y-112694838D01*
X199575167Y-112695162D01*
X199918943Y-112553117D01*
X200148829Y-112323631D01*
X203534878Y-115709680D01*
X203534838Y-115755167D01*
X203676883Y-116098943D01*
X203939673Y-116362192D01*
X204283201Y-116504838D01*
X204655167Y-116505162D01*
X204998943Y-116363117D01*
X205262192Y-116100327D01*
X205404838Y-115756799D01*
X205405162Y-115384833D01*
X205263117Y-115041057D01*
X205000327Y-114777808D01*
X204656799Y-114635162D01*
X204609923Y-114635121D01*
X199927401Y-109952599D01*
X199680839Y-109787852D01*
X199538053Y-109759450D01*
X199547192Y-109750327D01*
X199689838Y-109406799D01*
X199689892Y-109345000D01*
X199710198Y-109345000D01*
X225124878Y-134759680D01*
X225124838Y-134805167D01*
X225266883Y-135148943D01*
X225529673Y-135412192D01*
X225873201Y-135554838D01*
X226245167Y-135555162D01*
X226588943Y-135413117D01*
X226694954Y-135307290D01*
X226799673Y-135412192D01*
X227143201Y-135554838D01*
X227515167Y-135555162D01*
X227858943Y-135413117D01*
X227964954Y-135307290D01*
X228069673Y-135412192D01*
X228413201Y-135554838D01*
X228785167Y-135555162D01*
X229128943Y-135413117D01*
X229392192Y-135150327D01*
X229534838Y-134806799D01*
X229535162Y-134434833D01*
X229393117Y-134091057D01*
X229130327Y-133827808D01*
X228786799Y-133685162D01*
X228739923Y-133685121D01*
X217219834Y-122165032D01*
X233898720Y-122165032D01*
X234144223Y-122759194D01*
X234598415Y-123214179D01*
X235192148Y-123460719D01*
X235835032Y-123461280D01*
X236429194Y-123215777D01*
X236884179Y-122761585D01*
X237130719Y-122167852D01*
X237131280Y-121524968D01*
X236885777Y-120930806D01*
X236431585Y-120475821D01*
X235837852Y-120229281D01*
X235194968Y-120228720D01*
X234600806Y-120474223D01*
X234145821Y-120928415D01*
X233899281Y-121522148D01*
X233898720Y-122165032D01*
X217219834Y-122165032D01*
X213485000Y-118430198D01*
X213485000Y-114935000D01*
X213427148Y-114644161D01*
X213397749Y-114600162D01*
X213262402Y-114397599D01*
X211384803Y-112520000D01*
X223205198Y-112520000D01*
X224489878Y-113804680D01*
X224489838Y-113850167D01*
X224631883Y-114193943D01*
X224894673Y-114457192D01*
X225238201Y-114599838D01*
X225610167Y-114600162D01*
X225953943Y-114458117D01*
X226059954Y-114352290D01*
X226164673Y-114457192D01*
X226508201Y-114599838D01*
X226880167Y-114600162D01*
X227223943Y-114458117D01*
X227487192Y-114195327D01*
X227629838Y-113851799D01*
X227630162Y-113479833D01*
X227488117Y-113136057D01*
X227225327Y-112872808D01*
X226881799Y-112730162D01*
X226834923Y-112730121D01*
X224692401Y-110587599D01*
X224445839Y-110422852D01*
X224155000Y-110365000D01*
X210747463Y-110365000D01*
X210715327Y-110332808D01*
X210371799Y-110190162D01*
X209999833Y-110189838D01*
X209656057Y-110331883D01*
X209426171Y-110561368D01*
X207945122Y-109080320D01*
X207945162Y-109034833D01*
X207803117Y-108691057D01*
X207540327Y-108427808D01*
X207196799Y-108285162D01*
X206824833Y-108284838D01*
X206481057Y-108426883D01*
X206251171Y-108656369D01*
X205007401Y-107412599D01*
X204760839Y-107247852D01*
X204470000Y-107190000D01*
X200589802Y-107190000D01*
X200799680Y-106980122D01*
X200845167Y-106980162D01*
X201188943Y-106838117D01*
X201452192Y-106575327D01*
X201594838Y-106231799D01*
X201595162Y-105859833D01*
X201453117Y-105516057D01*
X201190327Y-105252808D01*
X200846799Y-105110162D01*
X200474833Y-105109838D01*
X200131057Y-105251883D01*
X199867808Y-105514673D01*
X199725162Y-105858201D01*
X199725121Y-105905077D01*
X199250320Y-106379878D01*
X199204833Y-106379838D01*
X198861057Y-106521883D01*
X198597808Y-106784673D01*
X198455162Y-107128201D01*
X198455108Y-107190000D01*
X124387463Y-107190000D01*
X124355327Y-107157808D01*
X124011799Y-107015162D01*
X123639833Y-107014838D01*
X123296057Y-107156883D01*
X123032808Y-107419673D01*
X122908378Y-107719332D01*
X122741799Y-107650162D01*
X122369833Y-107649838D01*
X122026057Y-107791883D01*
X121762808Y-108054673D01*
X121638378Y-108354332D01*
X121471799Y-108285162D01*
X121099833Y-108284838D01*
X120756057Y-108426883D01*
X120492808Y-108689673D01*
X120350162Y-109033201D01*
X120350108Y-109095000D01*
X116519802Y-109095000D01*
X115144400Y-107719598D01*
X115234838Y-107501799D01*
X115235162Y-107129833D01*
X115093117Y-106786057D01*
X114830327Y-106522808D01*
X114486799Y-106380162D01*
X114114833Y-106379838D01*
X113771057Y-106521883D01*
X113665046Y-106627710D01*
X113560327Y-106522808D01*
X113216799Y-106380162D01*
X112844833Y-106379838D01*
X112501057Y-106521883D01*
X112237808Y-106784673D01*
X112095162Y-107128201D01*
X112094838Y-107500167D01*
X112236883Y-107843943D01*
X112270000Y-107877118D01*
X112270000Y-107950000D01*
X112327852Y-108240839D01*
X112492599Y-108487401D01*
X115032599Y-111027401D01*
X115279160Y-111192148D01*
X115325241Y-111201314D01*
X115570000Y-111250000D01*
X118180198Y-111250000D01*
X112890320Y-116539878D01*
X112844833Y-116539838D01*
X112501057Y-116681883D01*
X112395046Y-116787710D01*
X112290327Y-116682808D01*
X111946799Y-116540162D01*
X111574833Y-116539838D01*
X111271917Y-116665000D01*
X110790153Y-116665000D01*
X110790162Y-116654833D01*
X110648117Y-116311057D01*
X110385327Y-116047808D01*
X110041799Y-115905162D01*
X109994923Y-115905121D01*
X109757401Y-115667599D01*
X109510839Y-115502852D01*
X109220000Y-115445000D01*
X97082463Y-115445000D01*
X97050327Y-115412808D01*
X96706799Y-115270162D01*
X96645000Y-115270108D01*
X96645000Y-111310167D01*
X110824838Y-111310167D01*
X110966883Y-111653943D01*
X111229673Y-111917192D01*
X111573201Y-112059838D01*
X111620077Y-112059879D01*
X112185600Y-112625402D01*
X112095162Y-112843201D01*
X112094838Y-113215167D01*
X112236883Y-113558943D01*
X112499673Y-113822192D01*
X112843201Y-113964838D01*
X113215167Y-113965162D01*
X113558943Y-113823117D01*
X113822192Y-113560327D01*
X113964838Y-113216799D01*
X113965162Y-112844833D01*
X113823117Y-112501057D01*
X113790000Y-112467882D01*
X113790000Y-112395000D01*
X113732148Y-112104161D01*
X113732148Y-112104160D01*
X113567401Y-111857599D01*
X112695122Y-110985320D01*
X112695162Y-110939833D01*
X112553117Y-110596057D01*
X112290327Y-110332808D01*
X111946799Y-110190162D01*
X111574833Y-110189838D01*
X111231057Y-110331883D01*
X110967808Y-110594673D01*
X110825162Y-110938201D01*
X110824838Y-111310167D01*
X96645000Y-111310167D01*
X96645000Y-110804802D01*
X101914803Y-105535000D01*
X125167537Y-105535000D01*
X125199673Y-105567192D01*
X125543201Y-105709838D01*
X125915167Y-105710162D01*
X126258943Y-105568117D01*
X126522192Y-105305327D01*
X126664838Y-104961799D01*
X126665162Y-104589833D01*
X126582593Y-104390000D01*
X135452799Y-104390000D01*
X135693212Y-104489828D01*
X136085069Y-104490170D01*
X136327500Y-104390000D01*
X136793420Y-104390000D01*
X138439208Y-106035787D01*
X138439210Y-106035790D01*
X138726325Y-106227633D01*
X138747269Y-106231799D01*
X139065000Y-106295001D01*
X139065005Y-106295000D01*
X140969995Y-106295000D01*
X140970000Y-106295001D01*
X141287731Y-106231799D01*
X141308675Y-106227633D01*
X141595790Y-106035790D01*
X143241579Y-104390000D01*
X174822799Y-104390000D01*
X175063212Y-104489828D01*
X175455069Y-104490170D01*
X175697500Y-104390000D01*
X200857799Y-104390000D01*
X201098212Y-104489828D01*
X201490069Y-104490170D01*
X201732500Y-104390000D01*
X204032799Y-104390000D01*
X204273212Y-104489828D01*
X204665069Y-104490170D01*
X204907500Y-104390000D01*
X214827799Y-104390000D01*
X215068212Y-104489828D01*
X215460069Y-104490170D01*
X215702500Y-104390000D01*
X226059995Y-104390000D01*
X226060000Y-104390001D01*
X226060005Y-104390000D01*
X235147799Y-104390000D01*
X235268567Y-104440147D01*
X239780000Y-108951579D01*
X239780000Y-125363421D01*
X237127529Y-128015891D01*
X236885777Y-127430806D01*
X236431585Y-126975821D01*
X236227304Y-126890996D01*
X236372623Y-126830951D01*
X236799453Y-126404866D01*
X237030736Y-125847874D01*
X237031262Y-125244772D01*
X236800951Y-124687377D01*
X236374866Y-124260547D01*
X235817874Y-124029264D01*
X235214772Y-124028738D01*
X234657377Y-124259049D01*
X234230547Y-124685134D01*
X234228526Y-124690000D01*
X226094802Y-124690000D01*
X224692401Y-123287599D01*
X224445839Y-123122852D01*
X224155000Y-123065000D01*
X222812463Y-123065000D01*
X222780327Y-123032808D01*
X222436799Y-122890162D01*
X222064833Y-122889838D01*
X221721057Y-123031883D01*
X221457808Y-123294673D01*
X221315162Y-123638201D01*
X221314838Y-124010167D01*
X221456883Y-124353943D01*
X221719673Y-124617192D01*
X222063201Y-124759838D01*
X222435167Y-124760162D01*
X222778943Y-124618117D01*
X222812118Y-124585000D01*
X223840198Y-124585000D01*
X225242599Y-125987401D01*
X225489161Y-126152148D01*
X225780000Y-126210000D01*
X234149459Y-126210000D01*
X234229049Y-126402623D01*
X234655134Y-126829453D01*
X234802790Y-126890765D01*
X234600806Y-126974223D01*
X234145821Y-127428415D01*
X233899281Y-128022148D01*
X233898720Y-128665032D01*
X234144223Y-129259194D01*
X234598415Y-129714179D01*
X235106127Y-129925000D01*
X227767201Y-129925000D01*
X227526788Y-129825172D01*
X227134931Y-129824830D01*
X226772771Y-129974471D01*
X226495445Y-130251314D01*
X226345172Y-130613212D01*
X226344830Y-131005069D01*
X226494471Y-131367229D01*
X226771314Y-131644555D01*
X227133212Y-131794828D01*
X227525069Y-131795170D01*
X227767500Y-131695000D01*
X235584995Y-131695000D01*
X235585000Y-131695001D01*
X235867484Y-131638810D01*
X235923675Y-131627633D01*
X236210790Y-131435790D01*
X238981547Y-128665032D01*
X244198720Y-128665032D01*
X244444223Y-129259194D01*
X244898415Y-129714179D01*
X245492148Y-129960719D01*
X246135032Y-129961280D01*
X246729194Y-129715777D01*
X247184179Y-129261585D01*
X247430719Y-128667852D01*
X247431280Y-128024968D01*
X247185777Y-127430806D01*
X246731585Y-126975821D01*
X246527304Y-126890996D01*
X246672623Y-126830951D01*
X247099453Y-126404866D01*
X247330736Y-125847874D01*
X247331262Y-125244772D01*
X247100951Y-124687377D01*
X246674866Y-124260547D01*
X246117874Y-124029264D01*
X245514772Y-124028738D01*
X244957377Y-124259049D01*
X244530547Y-124685134D01*
X244299264Y-125242126D01*
X244298738Y-125845228D01*
X244529049Y-126402623D01*
X244955134Y-126829453D01*
X245102790Y-126890765D01*
X244900806Y-126974223D01*
X244445821Y-127428415D01*
X244199281Y-128022148D01*
X244198720Y-128665032D01*
X238981547Y-128665032D01*
X241290787Y-126355792D01*
X241290790Y-126355790D01*
X241482633Y-126068675D01*
X241493810Y-126012484D01*
X241550001Y-125730000D01*
X241550000Y-125729995D01*
X241550000Y-122165032D01*
X244198720Y-122165032D01*
X244444223Y-122759194D01*
X244898415Y-123214179D01*
X245492148Y-123460719D01*
X246135032Y-123461280D01*
X246729194Y-123215777D01*
X247184179Y-122761585D01*
X247430719Y-122167852D01*
X247431280Y-121524968D01*
X247185777Y-120930806D01*
X246731585Y-120475821D01*
X246137852Y-120229281D01*
X245494968Y-120228720D01*
X244900806Y-120474223D01*
X244445821Y-120928415D01*
X244199281Y-121522148D01*
X244198720Y-122165032D01*
X241550000Y-122165032D01*
X241550000Y-108585005D01*
X241550001Y-108585000D01*
X241482633Y-108246326D01*
X241482633Y-108246325D01*
X241290790Y-107959210D01*
X241290787Y-107959208D01*
X236519937Y-103188357D01*
X236420529Y-102947771D01*
X236143686Y-102670445D01*
X235781788Y-102520172D01*
X235389931Y-102519830D01*
X235147500Y-102620000D01*
X228196580Y-102620000D01*
X235266642Y-95549937D01*
X235507229Y-95450529D01*
X235784555Y-95173686D01*
X235934828Y-94811788D01*
X235935170Y-94419931D01*
X235825703Y-94155000D01*
X242717559Y-94155000D01*
X243018201Y-94279838D01*
X243390167Y-94280162D01*
X243693083Y-94155000D01*
X251460000Y-94155000D01*
X251769974Y-94093342D01*
X252032756Y-93917756D01*
X252667757Y-93282756D01*
X252843343Y-93019973D01*
X252905000Y-92710000D01*
X252905000Y-65405000D01*
X252892619Y-65342756D01*
X252843343Y-65095027D01*
X252667757Y-64832244D01*
X252032756Y-64197244D01*
X251769974Y-64021658D01*
X251460000Y-63960000D01*
X241600153Y-63960000D01*
X241600162Y-63949833D01*
X241458117Y-63606057D01*
X241195327Y-63342808D01*
X240851799Y-63200162D01*
X240479833Y-63199838D01*
X240136057Y-63341883D01*
X240102882Y-63375000D01*
X237790110Y-63375000D01*
X237790162Y-63314833D01*
X237648117Y-62971057D01*
X237385327Y-62707808D01*
X237041799Y-62565162D01*
X236669833Y-62564838D01*
X236326057Y-62706883D01*
X236292882Y-62740000D01*
X233980110Y-62740000D01*
X233980162Y-62679833D01*
X233838117Y-62336057D01*
X233575327Y-62072808D01*
X233231799Y-61930162D01*
X232859833Y-61929838D01*
X232516057Y-62071883D01*
X232482882Y-62105000D01*
X230170110Y-62105000D01*
X230170162Y-62044833D01*
X230028117Y-61701057D01*
X229765327Y-61437808D01*
X229421799Y-61295162D01*
X229049833Y-61294838D01*
X228706057Y-61436883D01*
X228672882Y-61470000D01*
X226360110Y-61470000D01*
X226360162Y-61409833D01*
X226218117Y-61066057D01*
X225955327Y-60802808D01*
X225611799Y-60660162D01*
X225239833Y-60659838D01*
X224896057Y-60801883D01*
X224862882Y-60835000D01*
X222550110Y-60835000D01*
X222550162Y-60774833D01*
X222466083Y-60571344D01*
X262114501Y-60571344D01*
X262552790Y-61632086D01*
X263363645Y-62444357D01*
X264423620Y-62884498D01*
X265571344Y-62885499D01*
X266632086Y-62447210D01*
X267444357Y-61636355D01*
X267884498Y-60576380D01*
X267885499Y-59428656D01*
X267447210Y-58367914D01*
X266636355Y-57555643D01*
X265576380Y-57115502D01*
X264428656Y-57114501D01*
X263367914Y-57552790D01*
X262555643Y-58363645D01*
X262115502Y-59423620D01*
X262114501Y-60571344D01*
X222466083Y-60571344D01*
X222408117Y-60431057D01*
X222145327Y-60167808D01*
X221801799Y-60025162D01*
X221429833Y-60024838D01*
X221086057Y-60166883D01*
X221052882Y-60200000D01*
X218740110Y-60200000D01*
X218740162Y-60139833D01*
X218598117Y-59796057D01*
X218335327Y-59532808D01*
X217991799Y-59390162D01*
X217619833Y-59389838D01*
X217276057Y-59531883D01*
X217242882Y-59565000D01*
X214930110Y-59565000D01*
X214930162Y-59504833D01*
X214788117Y-59161057D01*
X214525327Y-58897808D01*
X214181799Y-58755162D01*
X213809833Y-58754838D01*
X213466057Y-58896883D01*
X213432882Y-58930000D01*
X211120110Y-58930000D01*
X211120162Y-58869833D01*
X210978117Y-58526057D01*
X210715327Y-58262808D01*
X210371799Y-58120162D01*
X209999833Y-58119838D01*
X209656057Y-58261883D01*
X209622882Y-58295000D01*
X207310110Y-58295000D01*
X207310162Y-58234833D01*
X207168117Y-57891057D01*
X206905327Y-57627808D01*
X206561799Y-57485162D01*
X206189833Y-57484838D01*
X205846057Y-57626883D01*
X205812882Y-57660000D01*
X202879802Y-57660000D01*
X202467401Y-57247599D01*
X202220839Y-57082852D01*
X201930000Y-57025000D01*
X200587463Y-57025000D01*
X200555327Y-56992808D01*
X200211799Y-56850162D01*
X199839833Y-56849838D01*
X199496057Y-56991883D01*
X199232808Y-57254673D01*
X199090162Y-57598201D01*
X199089838Y-57970167D01*
X199231883Y-58313943D01*
X199494673Y-58577192D01*
X199838201Y-58719838D01*
X199920288Y-58719910D01*
X199885320Y-58754878D01*
X199839833Y-58754838D01*
X199496057Y-58896883D01*
X199232808Y-59159673D01*
X199090162Y-59503201D01*
X199089838Y-59875167D01*
X199224056Y-60200000D01*
X178362463Y-60200000D01*
X178330327Y-60167808D01*
X177986799Y-60025162D01*
X177614833Y-60024838D01*
X177290000Y-60159056D01*
X177290000Y-59617463D01*
X177322192Y-59585327D01*
X177464838Y-59241799D01*
X177465162Y-58869833D01*
X177323117Y-58526057D01*
X177060327Y-58262808D01*
X176716799Y-58120162D01*
X176344833Y-58119838D01*
X176001057Y-58261883D01*
X175737808Y-58524673D01*
X175595162Y-58868201D01*
X175594838Y-59240167D01*
X175736883Y-59583943D01*
X175770000Y-59617118D01*
X175770000Y-60960000D01*
X175827852Y-61250839D01*
X175992599Y-61497401D01*
X176627599Y-62132401D01*
X176744612Y-62210586D01*
X176627599Y-62327599D01*
X176462852Y-62574161D01*
X176405000Y-62865000D01*
X176405000Y-66112537D01*
X176372808Y-66144673D01*
X176230162Y-66488201D01*
X176229838Y-66860167D01*
X176371883Y-67203943D01*
X176634673Y-67467192D01*
X176978201Y-67609838D01*
X177350167Y-67610162D01*
X177693943Y-67468117D01*
X177957192Y-67205327D01*
X178099838Y-66861799D01*
X178100162Y-66489833D01*
X177958117Y-66146057D01*
X177925000Y-66112882D01*
X177925000Y-63179802D01*
X178114802Y-62990000D01*
X199224367Y-62990000D01*
X199090162Y-63313201D01*
X199089838Y-63685167D01*
X199231883Y-64028943D01*
X199494673Y-64292192D01*
X199838201Y-64434838D01*
X200210167Y-64435162D01*
X200553943Y-64293117D01*
X200817192Y-64030327D01*
X200959838Y-63686799D01*
X200959879Y-63639923D01*
X201806341Y-62793461D01*
X202001369Y-62988829D01*
X200520320Y-64469878D01*
X200474833Y-64469838D01*
X200131057Y-64611883D01*
X199867808Y-64874673D01*
X199725162Y-65218201D01*
X199724838Y-65590167D01*
X199866883Y-65933943D01*
X200129673Y-66197192D01*
X200473201Y-66339838D01*
X200845167Y-66340162D01*
X201188943Y-66198117D01*
X201452192Y-65935327D01*
X201594838Y-65591799D01*
X201594879Y-65544923D01*
X203076341Y-64063461D01*
X203304673Y-64292192D01*
X203568554Y-64401765D01*
X203676883Y-64663943D01*
X203939673Y-64927192D01*
X204283201Y-65069838D01*
X204655167Y-65070162D01*
X204998943Y-64928117D01*
X205032118Y-64895000D01*
X207979890Y-64895000D01*
X207979838Y-64955167D01*
X208121883Y-65298943D01*
X208384673Y-65562192D01*
X208728201Y-65704838D01*
X209100167Y-65705162D01*
X209403083Y-65580000D01*
X211789847Y-65580000D01*
X211789838Y-65590167D01*
X211931883Y-65933943D01*
X212194673Y-66197192D01*
X212538201Y-66339838D01*
X212910167Y-66340162D01*
X213213083Y-66215000D01*
X215599847Y-66215000D01*
X215599838Y-66225167D01*
X215741883Y-66568943D01*
X216004673Y-66832192D01*
X216348201Y-66974838D01*
X216720167Y-66975162D01*
X217023083Y-66850000D01*
X219409847Y-66850000D01*
X219409838Y-66860167D01*
X219551883Y-67203943D01*
X219814673Y-67467192D01*
X220158201Y-67609838D01*
X220530167Y-67610162D01*
X220833083Y-67485000D01*
X223219847Y-67485000D01*
X223219838Y-67495167D01*
X223361883Y-67838943D01*
X223624673Y-68102192D01*
X223968201Y-68244838D01*
X224340167Y-68245162D01*
X224643083Y-68120000D01*
X227029847Y-68120000D01*
X227029838Y-68130167D01*
X227171883Y-68473943D01*
X227434673Y-68737192D01*
X227778201Y-68879838D01*
X228150167Y-68880162D01*
X228453083Y-68755000D01*
X230839847Y-68755000D01*
X230839838Y-68765167D01*
X230981883Y-69108943D01*
X231244673Y-69372192D01*
X231588201Y-69514838D01*
X231960167Y-69515162D01*
X232263083Y-69390000D01*
X234649847Y-69390000D01*
X234649838Y-69400167D01*
X234791883Y-69743943D01*
X235054673Y-70007192D01*
X235398201Y-70149838D01*
X235770167Y-70150162D01*
X236073083Y-70025000D01*
X238459847Y-70025000D01*
X238459838Y-70035167D01*
X238601883Y-70378943D01*
X238864673Y-70642192D01*
X239208201Y-70784838D01*
X239580167Y-70785162D01*
X239883083Y-70660000D01*
X242269847Y-70660000D01*
X242269838Y-70670167D01*
X242411883Y-71013943D01*
X242674673Y-71277192D01*
X243018201Y-71419838D01*
X243390167Y-71420162D01*
X243693083Y-71295000D01*
X245409488Y-71295000D01*
X245551987Y-71437500D01*
X245409488Y-71580000D01*
X243057441Y-71580000D01*
X242756799Y-71455162D01*
X242384833Y-71454838D01*
X242081917Y-71580000D01*
X223372441Y-71580000D01*
X223071799Y-71455162D01*
X222699833Y-71454838D01*
X222396917Y-71580000D01*
X201481394Y-71580000D01*
X201594838Y-71306799D01*
X201595162Y-70934833D01*
X201453117Y-70591057D01*
X201190327Y-70327808D01*
X200846799Y-70185162D01*
X200474833Y-70184838D01*
X200131057Y-70326883D01*
X200097882Y-70360000D01*
X141532463Y-70360000D01*
X141500327Y-70327808D01*
X141156799Y-70185162D01*
X140784833Y-70184838D01*
X140441057Y-70326883D01*
X140177808Y-70589673D01*
X140053378Y-70889332D01*
X139886799Y-70820162D01*
X139514833Y-70819838D01*
X139171057Y-70961883D01*
X138907808Y-71224673D01*
X138765162Y-71568201D01*
X138765152Y-71580000D01*
X136076394Y-71580000D01*
X136189838Y-71306799D01*
X136190162Y-70934833D01*
X136048117Y-70591057D01*
X135785327Y-70327808D01*
X135441799Y-70185162D01*
X135394923Y-70185121D01*
X135157401Y-69947599D01*
X134910839Y-69782852D01*
X134620000Y-69725000D01*
X127949802Y-69725000D01*
X126030122Y-67805320D01*
X126030162Y-67759833D01*
X125888117Y-67416057D01*
X125625327Y-67152808D01*
X125281799Y-67010162D01*
X124909833Y-67009838D01*
X124566057Y-67151883D01*
X124460046Y-67257710D01*
X124355327Y-67152808D01*
X124011799Y-67010162D01*
X123639833Y-67009838D01*
X123296057Y-67151883D01*
X123032808Y-67414673D01*
X122890162Y-67758201D01*
X122889838Y-68130167D01*
X123031883Y-68473943D01*
X123294673Y-68737192D01*
X123638201Y-68879838D01*
X123685077Y-68879879D01*
X126385198Y-71580000D01*
X114787441Y-71580000D01*
X114486799Y-71455162D01*
X114114833Y-71454838D01*
X113811917Y-71580000D01*
X95550153Y-71580000D01*
X95550162Y-71569833D01*
X95408117Y-71226057D01*
X95375000Y-71192882D01*
X95375000Y-68507463D01*
X95407192Y-68475327D01*
X95549838Y-68131799D01*
X95550162Y-67759833D01*
X95408117Y-67416057D01*
X95145327Y-67152808D01*
X94801799Y-67010162D01*
X94429833Y-67009838D01*
X94086057Y-67151883D01*
X93822808Y-67414673D01*
X93680162Y-67758201D01*
X93679838Y-68130167D01*
X93821883Y-68473943D01*
X93855000Y-68507118D01*
X93855000Y-71192537D01*
X93822808Y-71224673D01*
X93680162Y-71568201D01*
X93680152Y-71580000D01*
X86360000Y-71580000D01*
X86050027Y-71641657D01*
X85787244Y-71817243D01*
X83677244Y-73927244D01*
X83501658Y-74190026D01*
X83440000Y-74500000D01*
X83440000Y-83795112D01*
X83310000Y-83848827D01*
X83310000Y-81280000D01*
X83252148Y-80989161D01*
X83087401Y-80742599D01*
X68628989Y-66284187D01*
X87464752Y-66284187D01*
X87682757Y-66811800D01*
X88086077Y-67215824D01*
X88613309Y-67434750D01*
X89184187Y-67435248D01*
X89711800Y-67217243D01*
X90115824Y-66813923D01*
X90334750Y-66286691D01*
X90335248Y-65715813D01*
X90117243Y-65188200D01*
X89853317Y-64923813D01*
X90059699Y-64838327D01*
X90238327Y-64659698D01*
X90335000Y-64426309D01*
X90335000Y-63785750D01*
X90176250Y-63627000D01*
X89027000Y-63627000D01*
X89027000Y-63647000D01*
X88773000Y-63647000D01*
X88773000Y-63627000D01*
X87623750Y-63627000D01*
X87465000Y-63785750D01*
X87465000Y-64426309D01*
X87561673Y-64659698D01*
X87740301Y-64838327D01*
X87946835Y-64923876D01*
X87684176Y-65186077D01*
X87465250Y-65713309D01*
X87464752Y-66284187D01*
X68628989Y-66284187D01*
X68245122Y-65900320D01*
X68245162Y-65854833D01*
X68103117Y-65511057D01*
X67840327Y-65247808D01*
X67496799Y-65105162D01*
X67124833Y-65104838D01*
X66781057Y-65246883D01*
X66517808Y-65509673D01*
X66375162Y-65853201D01*
X66374838Y-66225167D01*
X66480310Y-66480430D01*
X66226799Y-66375162D01*
X65854833Y-66374838D01*
X65511057Y-66516883D01*
X65247808Y-66779673D01*
X65105162Y-67123201D01*
X65104838Y-67495167D01*
X65210310Y-67750430D01*
X64956799Y-67645162D01*
X64584833Y-67644838D01*
X64241057Y-67786883D01*
X63977808Y-68049673D01*
X63835162Y-68393201D01*
X63834838Y-68765167D01*
X63940310Y-69020430D01*
X63686799Y-68915162D01*
X63314833Y-68914838D01*
X62971057Y-69056883D01*
X62707808Y-69319673D01*
X62565162Y-69663201D01*
X62564838Y-70035167D01*
X62634432Y-70203597D01*
X62336057Y-70326883D01*
X62072808Y-70589673D01*
X61930162Y-70933201D01*
X61929838Y-71305167D01*
X62071883Y-71648943D01*
X62334673Y-71912192D01*
X62678201Y-72054838D01*
X62725077Y-72054879D01*
X63570198Y-72900000D01*
X60887463Y-72900000D01*
X60855327Y-72867808D01*
X60511799Y-72725162D01*
X60139833Y-72724838D01*
X59796057Y-72866883D01*
X59532808Y-73129673D01*
X59390162Y-73473201D01*
X59389838Y-73845167D01*
X59495310Y-74100430D01*
X59241799Y-73995162D01*
X58869833Y-73994838D01*
X58526057Y-74136883D01*
X58262808Y-74399673D01*
X58120162Y-74743201D01*
X58119838Y-75115167D01*
X58254056Y-75440000D01*
X57712463Y-75440000D01*
X57680327Y-75407808D01*
X57336799Y-75265162D01*
X56964833Y-75264838D01*
X56621057Y-75406883D01*
X56357808Y-75669673D01*
X56215162Y-76013201D01*
X56214838Y-76385167D01*
X56356883Y-76728943D01*
X56619673Y-76992192D01*
X56963201Y-77134838D01*
X57335167Y-77135162D01*
X57678943Y-76993117D01*
X57712118Y-76960000D01*
X59762537Y-76960000D01*
X59794673Y-76992192D01*
X60138201Y-77134838D01*
X60510167Y-77135162D01*
X60853943Y-76993117D01*
X61117192Y-76730327D01*
X61259838Y-76386799D01*
X61260162Y-76014833D01*
X61125944Y-75690000D01*
X61667537Y-75690000D01*
X61699673Y-75722192D01*
X62043201Y-75864838D01*
X62415167Y-75865162D01*
X62758943Y-75723117D01*
X63022192Y-75460327D01*
X63164838Y-75116799D01*
X63165162Y-74744833D01*
X63030944Y-74420000D01*
X63572537Y-74420000D01*
X63604673Y-74452192D01*
X63948201Y-74594838D01*
X64320167Y-74595162D01*
X64663943Y-74453117D01*
X64769954Y-74347290D01*
X64874673Y-74452192D01*
X65218201Y-74594838D01*
X65590167Y-74595162D01*
X65933943Y-74453117D01*
X66197192Y-74190327D01*
X66339838Y-73846799D01*
X66339910Y-73764712D01*
X67185000Y-74609802D01*
X67185000Y-76835000D01*
X67242852Y-77125839D01*
X67407599Y-77372401D01*
X79885000Y-89849802D01*
X79885000Y-108020198D01*
X69533917Y-97669115D01*
X69720900Y-97746757D01*
X70276661Y-97747242D01*
X70790303Y-97535010D01*
X71183629Y-97142370D01*
X71396757Y-96629100D01*
X71397242Y-96073339D01*
X71185010Y-95559697D01*
X70792370Y-95166371D01*
X70391350Y-94999853D01*
X70790303Y-94835010D01*
X71183629Y-94442370D01*
X71396757Y-93929100D01*
X71397242Y-93373339D01*
X71185010Y-92859697D01*
X70792370Y-92466371D01*
X70279100Y-92253243D01*
X69723339Y-92252758D01*
X69209697Y-92464990D01*
X68816371Y-92857630D01*
X68603243Y-93370900D01*
X68602758Y-93926661D01*
X68814990Y-94440303D01*
X69207630Y-94833629D01*
X69608650Y-95000147D01*
X69209697Y-95164990D01*
X68816371Y-95557630D01*
X68603243Y-96070900D01*
X68602758Y-96626661D01*
X68681124Y-96816322D01*
X56514871Y-84650069D01*
X63149830Y-84650069D01*
X63250000Y-84892500D01*
X63250000Y-88462799D01*
X63150172Y-88703212D01*
X63149830Y-89095069D01*
X63299471Y-89457229D01*
X63576314Y-89734555D01*
X63938212Y-89884828D01*
X64330069Y-89885170D01*
X64692229Y-89735529D01*
X64969555Y-89458686D01*
X65119828Y-89096788D01*
X65120170Y-88704931D01*
X65020000Y-88462500D01*
X65020000Y-84892201D01*
X65119828Y-84651788D01*
X65120170Y-84259931D01*
X64982467Y-83926661D01*
X68602758Y-83926661D01*
X68814990Y-84440303D01*
X69207630Y-84833629D01*
X69608650Y-85000147D01*
X69209697Y-85164990D01*
X68816371Y-85557630D01*
X68603243Y-86070900D01*
X68602758Y-86626661D01*
X68814990Y-87140303D01*
X69207630Y-87533629D01*
X69720900Y-87746757D01*
X70276661Y-87747242D01*
X70790303Y-87535010D01*
X71183629Y-87142370D01*
X71396757Y-86629100D01*
X71397242Y-86073339D01*
X71185010Y-85559697D01*
X70792370Y-85166371D01*
X70391350Y-84999853D01*
X70790303Y-84835010D01*
X71183629Y-84442370D01*
X71396757Y-83929100D01*
X71397242Y-83373339D01*
X71185010Y-82859697D01*
X70792370Y-82466371D01*
X70279100Y-82253243D01*
X69723339Y-82252758D01*
X69209697Y-82464990D01*
X68816371Y-82857630D01*
X68603243Y-83370900D01*
X68602758Y-83926661D01*
X64982467Y-83926661D01*
X64970529Y-83897771D01*
X64693686Y-83620445D01*
X64331788Y-83470172D01*
X63939931Y-83469830D01*
X63577771Y-83619471D01*
X63300445Y-83896314D01*
X63150172Y-84258212D01*
X63149830Y-84650069D01*
X56514871Y-84650069D01*
X53465000Y-81600198D01*
X53465000Y-67237463D01*
X53497192Y-67205327D01*
X53639838Y-66861799D01*
X53640162Y-66489833D01*
X53498117Y-66146057D01*
X53235327Y-65882808D01*
X52891799Y-65740162D01*
X52519833Y-65739838D01*
X52176057Y-65881883D01*
X51912808Y-66144673D01*
X51770162Y-66488201D01*
X51769838Y-66860167D01*
X25710000Y-66860167D01*
X25710000Y-63050167D01*
X80344838Y-63050167D01*
X80486883Y-63393943D01*
X80749673Y-63657192D01*
X81093201Y-63799838D01*
X81465167Y-63800162D01*
X81808943Y-63658117D01*
X82072192Y-63395327D01*
X82214838Y-63051799D01*
X82214879Y-63004923D01*
X82646111Y-62573691D01*
X87465000Y-62573691D01*
X87465000Y-63214250D01*
X87623750Y-63373000D01*
X88773000Y-63373000D01*
X88773000Y-62223750D01*
X89027000Y-62223750D01*
X89027000Y-63373000D01*
X90176250Y-63373000D01*
X90335000Y-63214250D01*
X90335000Y-62573691D01*
X90238327Y-62340302D01*
X90059699Y-62161673D01*
X89826310Y-62065000D01*
X89185750Y-62065000D01*
X89027000Y-62223750D01*
X88773000Y-62223750D01*
X88614250Y-62065000D01*
X87973690Y-62065000D01*
X87740301Y-62161673D01*
X87561673Y-62340302D01*
X87465000Y-62573691D01*
X82646111Y-62573691D01*
X83324680Y-61895122D01*
X83370167Y-61895162D01*
X83713943Y-61753117D01*
X83977192Y-61490327D01*
X84119838Y-61146799D01*
X84120162Y-60774833D01*
X83978117Y-60431057D01*
X83715327Y-60167808D01*
X83371799Y-60025162D01*
X82999833Y-60024838D01*
X82656057Y-60166883D01*
X82392808Y-60429673D01*
X82250162Y-60773201D01*
X82250121Y-60820077D01*
X81140320Y-61929878D01*
X81094833Y-61929838D01*
X80751057Y-62071883D01*
X80487808Y-62334673D01*
X80345162Y-62678201D01*
X80344838Y-63050167D01*
X25710000Y-63050167D01*
X25710000Y-60571344D01*
X32114501Y-60571344D01*
X32552790Y-61632086D01*
X33363645Y-62444357D01*
X34423620Y-62884498D01*
X35571344Y-62885499D01*
X36632086Y-62447210D01*
X37444357Y-61636355D01*
X37884498Y-60576380D01*
X37885499Y-59428656D01*
X37545241Y-58605167D01*
X96854838Y-58605167D01*
X96996883Y-58948943D01*
X97259673Y-59212192D01*
X97603201Y-59354838D01*
X97975167Y-59355162D01*
X98318943Y-59213117D01*
X98352118Y-59180000D01*
X109540198Y-59180000D01*
X111635000Y-61274802D01*
X111635000Y-62058407D01*
X111207219Y-62344241D01*
X111125000Y-62467290D01*
X111042781Y-62344241D01*
X110512514Y-61989928D01*
X109887022Y-61865510D01*
X109822978Y-61865510D01*
X109197486Y-61989928D01*
X108667219Y-62344241D01*
X108585000Y-62467290D01*
X108502781Y-62344241D01*
X107972514Y-61989928D01*
X107347022Y-61865510D01*
X107282978Y-61865510D01*
X106657486Y-61989928D01*
X106337923Y-62203453D01*
X106238580Y-62049069D01*
X106026380Y-61904079D01*
X105774490Y-61853070D01*
X103775510Y-61853070D01*
X103540193Y-61897348D01*
X103324069Y-62036420D01*
X103179079Y-62248620D01*
X103128070Y-62500510D01*
X103128070Y-64499490D01*
X103172348Y-64734807D01*
X103311420Y-64950931D01*
X103523620Y-65095921D01*
X103775510Y-65146930D01*
X105774490Y-65146930D01*
X106009807Y-65102652D01*
X106225931Y-64963580D01*
X106339390Y-64797527D01*
X106657486Y-65010072D01*
X107282978Y-65134490D01*
X107347022Y-65134490D01*
X107972514Y-65010072D01*
X108502781Y-64655759D01*
X108585000Y-64532710D01*
X108667219Y-64655759D01*
X109197486Y-65010072D01*
X109822978Y-65134490D01*
X109887022Y-65134490D01*
X110512514Y-65010072D01*
X111042781Y-64655759D01*
X111125000Y-64532710D01*
X111207219Y-64655759D01*
X111737486Y-65010072D01*
X112362978Y-65134490D01*
X112427022Y-65134490D01*
X113052514Y-65010072D01*
X113582781Y-64655759D01*
X113937094Y-64125492D01*
X114061512Y-63500000D01*
X113937094Y-62874508D01*
X113582781Y-62344241D01*
X113155000Y-62058407D01*
X113155000Y-60960000D01*
X113097148Y-60669161D01*
X113097148Y-60669160D01*
X112932401Y-60422599D01*
X111749969Y-59240167D01*
X123524838Y-59240167D01*
X123666883Y-59583943D01*
X123929673Y-59847192D01*
X124273201Y-59989838D01*
X124645167Y-59990162D01*
X124988943Y-59848117D01*
X125022118Y-59815000D01*
X155647537Y-59815000D01*
X155679673Y-59847192D01*
X156023201Y-59989838D01*
X156395167Y-59990162D01*
X156738943Y-59848117D01*
X157002192Y-59585327D01*
X157144838Y-59241799D01*
X157145162Y-58869833D01*
X157003117Y-58526057D01*
X156740327Y-58262808D01*
X156396799Y-58120162D01*
X156024833Y-58119838D01*
X155681057Y-58261883D01*
X155647882Y-58295000D01*
X125022463Y-58295000D01*
X124990327Y-58262808D01*
X124646799Y-58120162D01*
X124274833Y-58119838D01*
X123931057Y-58261883D01*
X123667808Y-58524673D01*
X123525162Y-58868201D01*
X123524838Y-59240167D01*
X111749969Y-59240167D01*
X110392401Y-57882599D01*
X110145839Y-57717852D01*
X109855000Y-57660000D01*
X98352463Y-57660000D01*
X98320327Y-57627808D01*
X97976799Y-57485162D01*
X97604833Y-57484838D01*
X97261057Y-57626883D01*
X96997808Y-57889673D01*
X96855162Y-58233201D01*
X96854838Y-58605167D01*
X37545241Y-58605167D01*
X37447210Y-58367914D01*
X36636355Y-57555643D01*
X35576380Y-57115502D01*
X34428656Y-57114501D01*
X33367914Y-57552790D01*
X32555643Y-58363645D01*
X32115502Y-59423620D01*
X32114501Y-60571344D01*
X25710000Y-60571344D01*
X25710000Y-60069931D01*
X26430010Y-56450195D01*
X26501235Y-56343599D01*
X72514699Y-56343599D01*
X72778281Y-56981515D01*
X73265918Y-57470004D01*
X73903373Y-57734699D01*
X74593599Y-57735301D01*
X75231515Y-57471719D01*
X75720004Y-56984082D01*
X75984699Y-56346627D01*
X75985301Y-55656401D01*
X75721719Y-55018485D01*
X75688457Y-54985165D01*
X75794089Y-54985257D01*
X76340086Y-54759656D01*
X76758188Y-54342283D01*
X76984742Y-53796681D01*
X76984744Y-53794089D01*
X78514743Y-53794089D01*
X78740344Y-54340086D01*
X79157717Y-54758188D01*
X79703319Y-54984742D01*
X79811132Y-54984836D01*
X79779996Y-55015918D01*
X79515301Y-55653373D01*
X79514699Y-56343599D01*
X79778281Y-56981515D01*
X80265918Y-57470004D01*
X80903373Y-57734699D01*
X81593599Y-57735301D01*
X82231515Y-57471719D01*
X82720004Y-56984082D01*
X82984699Y-56346627D01*
X82985301Y-55656401D01*
X82721719Y-55018485D01*
X82234082Y-54529996D01*
X81596627Y-54265301D01*
X81290265Y-54265034D01*
X81292355Y-54260000D01*
X213200000Y-54260000D01*
X213278182Y-54244448D01*
X212978485Y-54368281D01*
X212489996Y-54855918D01*
X212225301Y-55493373D01*
X212224699Y-56183599D01*
X212488281Y-56821515D01*
X212975918Y-57310004D01*
X213613373Y-57574699D01*
X214303599Y-57575301D01*
X214941515Y-57311719D01*
X215430004Y-56824082D01*
X215694699Y-56186627D01*
X215695301Y-55496401D01*
X215431719Y-54858485D01*
X215398457Y-54825165D01*
X215504089Y-54825257D01*
X216050086Y-54599656D01*
X216468188Y-54182283D01*
X216694742Y-53636681D01*
X216695257Y-53045911D01*
X216606045Y-52830000D01*
X218255198Y-52830000D01*
X218296631Y-52871433D01*
X218225258Y-53043319D01*
X218224743Y-53634089D01*
X218450344Y-54180086D01*
X218867717Y-54598188D01*
X219413319Y-54824742D01*
X219521132Y-54824836D01*
X219489996Y-54855918D01*
X219225301Y-55493373D01*
X219224699Y-56183599D01*
X219488281Y-56821515D01*
X219975918Y-57310004D01*
X220613373Y-57574699D01*
X221303599Y-57575301D01*
X221941515Y-57311719D01*
X222430004Y-56824082D01*
X222694699Y-56186627D01*
X222695301Y-55496401D01*
X222431719Y-54858485D01*
X221944082Y-54369996D01*
X221306627Y-54105301D01*
X221000265Y-54105034D01*
X221194742Y-53636681D01*
X221195257Y-53045911D01*
X220969656Y-52499914D01*
X220552283Y-52081812D01*
X220006681Y-51855258D01*
X219429557Y-51854755D01*
X219107401Y-51532599D01*
X218860839Y-51367852D01*
X218570000Y-51310000D01*
X214630000Y-51310000D01*
X214339160Y-51367852D01*
X214092599Y-51532599D01*
X212885198Y-52740000D01*
X81292747Y-52740000D01*
X81259656Y-52659914D01*
X80842283Y-52241812D01*
X80296681Y-52015258D01*
X79705911Y-52014743D01*
X79159914Y-52240344D01*
X78741812Y-52657717D01*
X78515258Y-53203319D01*
X78514743Y-53794089D01*
X76984744Y-53794089D01*
X76985257Y-53205911D01*
X76759656Y-52659914D01*
X76342283Y-52241812D01*
X75796681Y-52015258D01*
X75205911Y-52014743D01*
X74659914Y-52240344D01*
X74241812Y-52657717D01*
X74015258Y-53203319D01*
X74014743Y-53794089D01*
X74209304Y-54264963D01*
X73906401Y-54264699D01*
X73268485Y-54528281D01*
X72779996Y-55015918D01*
X72515301Y-55653373D01*
X72514699Y-56343599D01*
X26501235Y-56343599D01*
X28440814Y-53440813D01*
X31450193Y-51430011D01*
X35069931Y-50710000D01*
X264930069Y-50710000D01*
X268549805Y-51430010D01*
X268549805Y-51430010D01*
G37*
X268549805Y-51430010D02*
X271559187Y-53440814D01*
X273569989Y-56450193D01*
X274290000Y-60069931D01*
X274290000Y-139930069D01*
X273569989Y-143549807D01*
X271559187Y-146559186D01*
X268549805Y-148569990D01*
X264930069Y-149290000D01*
X35069931Y-149290000D01*
X31450193Y-148569989D01*
X28440814Y-146559187D01*
X26430010Y-143549805D01*
X25837558Y-140571344D01*
X32114501Y-140571344D01*
X32552790Y-141632086D01*
X33363645Y-142444357D01*
X34423620Y-142884498D01*
X35571344Y-142885499D01*
X36632086Y-142447210D01*
X37444357Y-141636355D01*
X37884498Y-140576380D01*
X37885499Y-139428656D01*
X37544883Y-138604301D01*
X64065491Y-138604301D01*
X64336668Y-139260600D01*
X64838359Y-139763167D01*
X64928400Y-139800555D01*
X64841000Y-139836668D01*
X64338433Y-140338359D01*
X64066111Y-140994184D01*
X64065491Y-141704301D01*
X64336668Y-142360600D01*
X64838359Y-142863167D01*
X65494184Y-143135489D01*
X66204301Y-143136109D01*
X66860600Y-142864932D01*
X67115507Y-142610470D01*
X68162707Y-145144888D01*
X70842604Y-147829466D01*
X74345850Y-149284142D01*
X78139108Y-149287452D01*
X80915749Y-148140167D01*
X227029838Y-148140167D01*
X227171883Y-148483943D01*
X227434673Y-148747192D01*
X227778201Y-148889838D01*
X228150167Y-148890162D01*
X228493943Y-148748117D01*
X228757192Y-148485327D01*
X228899838Y-148141799D01*
X228899879Y-148094923D01*
X229111341Y-147883461D01*
X229339673Y-148112192D01*
X229683201Y-148254838D01*
X230055167Y-148255162D01*
X230398943Y-148113117D01*
X230662192Y-147850327D01*
X230804838Y-147506799D01*
X230804879Y-147459923D01*
X231016341Y-147248461D01*
X231244673Y-147477192D01*
X231588201Y-147619838D01*
X231960167Y-147620162D01*
X232303943Y-147478117D01*
X232567192Y-147215327D01*
X232709838Y-146871799D01*
X232709879Y-146824923D01*
X233819680Y-145715122D01*
X233865167Y-145715162D01*
X234208943Y-145573117D01*
X234472192Y-145310327D01*
X234614838Y-144966799D01*
X234615162Y-144594833D01*
X234473117Y-144251057D01*
X234210327Y-143987808D01*
X233866799Y-143845162D01*
X233494833Y-143844838D01*
X233151057Y-143986883D01*
X233045046Y-144092710D01*
X232940327Y-143987808D01*
X232596799Y-143845162D01*
X232224833Y-143844838D01*
X231881057Y-143986883D01*
X231775046Y-144092710D01*
X231670327Y-143987808D01*
X231326799Y-143845162D01*
X230954833Y-143844838D01*
X230611057Y-143986883D01*
X230347808Y-144249673D01*
X230205162Y-144593201D01*
X230205121Y-144640077D01*
X227825320Y-147019878D01*
X227779833Y-147019838D01*
X227436057Y-147161883D01*
X227172808Y-147424673D01*
X227030162Y-147768201D01*
X227029838Y-148140167D01*
X80915749Y-148140167D01*
X81644888Y-147838893D01*
X84329466Y-145158996D01*
X85387236Y-142611605D01*
X85638359Y-142863167D01*
X86294184Y-143135489D01*
X87004301Y-143136109D01*
X87660600Y-142864932D01*
X88163167Y-142363241D01*
X88435489Y-141707416D01*
X88436109Y-140997299D01*
X88164932Y-140341000D01*
X87663241Y-139838433D01*
X87573200Y-139801045D01*
X87660600Y-139764932D01*
X88163167Y-139263241D01*
X88435489Y-138607416D01*
X88436109Y-137897299D01*
X88164932Y-137241000D01*
X87663241Y-136738433D01*
X87007416Y-136466111D01*
X86297299Y-136465491D01*
X85641000Y-136736668D01*
X85415347Y-136961928D01*
X84338893Y-134356712D01*
X81658996Y-131672134D01*
X78155750Y-130217458D01*
X74362492Y-130214148D01*
X70856712Y-131662707D01*
X68172134Y-134342604D01*
X67085039Y-136960618D01*
X66863241Y-136738433D01*
X66207416Y-136466111D01*
X65497299Y-136465491D01*
X64841000Y-136736668D01*
X64338433Y-137238359D01*
X64066111Y-137894184D01*
X64065491Y-138604301D01*
X37544883Y-138604301D01*
X37447210Y-138367914D01*
X36636355Y-137555643D01*
X35576380Y-137115502D01*
X34428656Y-137114501D01*
X33367914Y-137552790D01*
X32555643Y-138363645D01*
X32115502Y-139423620D01*
X32114501Y-140571344D01*
X25837558Y-140571344D01*
X25710000Y-139930069D01*
X25710000Y-134856661D01*
X56387758Y-134856661D01*
X56599990Y-135370303D01*
X56992630Y-135763629D01*
X57505900Y-135976757D01*
X58061661Y-135977242D01*
X58575303Y-135765010D01*
X58968629Y-135372370D01*
X59181757Y-134859100D01*
X59182242Y-134303339D01*
X58970010Y-133789697D01*
X58577370Y-133396371D01*
X58064100Y-133183243D01*
X57508339Y-133182758D01*
X56994697Y-133394990D01*
X56601371Y-133787630D01*
X56388243Y-134300900D01*
X56387758Y-134856661D01*
X25710000Y-134856661D01*
X25710000Y-130560213D01*
X56984392Y-130560213D01*
X57053857Y-130802397D01*
X57577302Y-130989144D01*
X58132368Y-130961362D01*
X58516143Y-130802397D01*
X58585608Y-130560213D01*
X57785000Y-129759605D01*
X56984392Y-130560213D01*
X25710000Y-130560213D01*
X25710000Y-121440000D01*
X30972560Y-121440000D01*
X30972560Y-124940000D01*
X31016838Y-125175317D01*
X31155910Y-125391441D01*
X31368110Y-125536431D01*
X31620000Y-125587440D01*
X34306045Y-125587440D01*
X34168559Y-125675910D01*
X34023569Y-125888110D01*
X33972560Y-126140000D01*
X33972560Y-129640000D01*
X34016838Y-129875317D01*
X34155910Y-130091441D01*
X34368110Y-130236431D01*
X34620000Y-130287440D01*
X38120000Y-130287440D01*
X38355317Y-130243162D01*
X38571441Y-130104090D01*
X38716431Y-129891890D01*
X38767440Y-129640000D01*
X38767440Y-129372302D01*
X56375856Y-129372302D01*
X56403638Y-129927368D01*
X56562603Y-130311143D01*
X56804787Y-130380608D01*
X57605395Y-129580000D01*
X57964605Y-129580000D01*
X58765213Y-130380608D01*
X59007397Y-130311143D01*
X59194144Y-129787698D01*
X59166362Y-129232632D01*
X59007397Y-128848857D01*
X58765213Y-128779392D01*
X57964605Y-129580000D01*
X57605395Y-129580000D01*
X56804787Y-128779392D01*
X56562603Y-128848857D01*
X56375856Y-129372302D01*
X38767440Y-129372302D01*
X38767440Y-128599787D01*
X56984392Y-128599787D01*
X57785000Y-129400395D01*
X58585608Y-128599787D01*
X58516143Y-128357603D01*
X57992698Y-128170856D01*
X57437632Y-128198638D01*
X57053857Y-128357603D01*
X56984392Y-128599787D01*
X38767440Y-128599787D01*
X38767440Y-126140000D01*
X38744061Y-126015750D01*
X56350000Y-126015750D01*
X56350000Y-126656309D01*
X56446673Y-126889698D01*
X56625301Y-127068327D01*
X56858690Y-127165000D01*
X57499250Y-127165000D01*
X57658000Y-127006250D01*
X57658000Y-125857000D01*
X57912000Y-125857000D01*
X57912000Y-127006250D01*
X58070750Y-127165000D01*
X58711310Y-127165000D01*
X58944699Y-127068327D01*
X59123327Y-126889698D01*
X59220000Y-126656309D01*
X59220000Y-126015750D01*
X59061250Y-125857000D01*
X57912000Y-125857000D01*
X57658000Y-125857000D01*
X56508750Y-125857000D01*
X56350000Y-126015750D01*
X38744061Y-126015750D01*
X38723162Y-125904683D01*
X38584090Y-125688559D01*
X38436097Y-125587440D01*
X41120000Y-125587440D01*
X41355317Y-125543162D01*
X41571441Y-125404090D01*
X41716431Y-125191890D01*
X41767440Y-124940000D01*
X41767440Y-123514187D01*
X56349752Y-123514187D01*
X56567757Y-124041800D01*
X56831683Y-124306187D01*
X56625301Y-124391673D01*
X56446673Y-124570302D01*
X56350000Y-124803691D01*
X56350000Y-125444250D01*
X56508750Y-125603000D01*
X57658000Y-125603000D01*
X57658000Y-125583000D01*
X57912000Y-125583000D01*
X57912000Y-125603000D01*
X59061250Y-125603000D01*
X59220000Y-125444250D01*
X59220000Y-124803691D01*
X59123327Y-124570302D01*
X58944699Y-124391673D01*
X58738165Y-124306124D01*
X59000824Y-124043923D01*
X59219750Y-123516691D01*
X59220248Y-122945813D01*
X59002243Y-122418200D01*
X58598923Y-122014176D01*
X58071691Y-121795250D01*
X57500813Y-121794752D01*
X56973200Y-122012757D01*
X56569176Y-122416077D01*
X56350250Y-122943309D01*
X56349752Y-123514187D01*
X41767440Y-123514187D01*
X41767440Y-121440000D01*
X41723162Y-121204683D01*
X41668670Y-121120000D01*
X43002560Y-121120000D01*
X43002560Y-122720000D01*
X43046838Y-122955317D01*
X43185910Y-123171441D01*
X43398110Y-123316431D01*
X43650000Y-123367440D01*
X45250000Y-123367440D01*
X45485317Y-123323162D01*
X45701441Y-123184090D01*
X45846431Y-122971890D01*
X45897440Y-122720000D01*
X45897440Y-121120000D01*
X45853162Y-120884683D01*
X45714090Y-120668559D01*
X45501890Y-120523569D01*
X45396959Y-120502320D01*
X45665824Y-120233923D01*
X45884750Y-119706691D01*
X45885248Y-119135813D01*
X45667243Y-118608200D01*
X45263923Y-118204176D01*
X44736691Y-117985250D01*
X44165813Y-117984752D01*
X43638200Y-118202757D01*
X43234176Y-118606077D01*
X43015250Y-119133309D01*
X43014752Y-119704187D01*
X43232757Y-120231800D01*
X43501072Y-120500583D01*
X43414683Y-120516838D01*
X43198559Y-120655910D01*
X43053569Y-120868110D01*
X43002560Y-121120000D01*
X41668670Y-121120000D01*
X41584090Y-120988559D01*
X41371890Y-120843569D01*
X41120000Y-120792560D01*
X37620000Y-120792560D01*
X37384683Y-120836838D01*
X37168559Y-120975910D01*
X37023569Y-121188110D01*
X36972560Y-121440000D01*
X36972560Y-124940000D01*
X37016838Y-125175317D01*
X37155910Y-125391441D01*
X37303903Y-125492560D01*
X35433955Y-125492560D01*
X35571441Y-125404090D01*
X35716431Y-125191890D01*
X35767440Y-124940000D01*
X35767440Y-121440000D01*
X35723162Y-121204683D01*
X35584090Y-120988559D01*
X35371890Y-120843569D01*
X35120000Y-120792560D01*
X31620000Y-120792560D01*
X31384683Y-120836838D01*
X31168559Y-120975910D01*
X31023569Y-121188110D01*
X30972560Y-121440000D01*
X25710000Y-121440000D01*
X25710000Y-113949187D01*
X35434752Y-113949187D01*
X35652757Y-114476800D01*
X36056077Y-114880824D01*
X36583309Y-115099750D01*
X37154187Y-115100248D01*
X37681800Y-114882243D01*
X37950583Y-114613928D01*
X37966838Y-114700317D01*
X38105910Y-114916441D01*
X38318110Y-115061431D01*
X38570000Y-115112440D01*
X40170000Y-115112440D01*
X40405317Y-115068162D01*
X40621441Y-114929090D01*
X40766431Y-114716890D01*
X40817440Y-114465000D01*
X40817440Y-112865000D01*
X40773162Y-112629683D01*
X40634090Y-112413559D01*
X40421890Y-112268569D01*
X40170000Y-112217560D01*
X38570000Y-112217560D01*
X38334683Y-112261838D01*
X38118559Y-112400910D01*
X37973569Y-112613110D01*
X37952320Y-112718041D01*
X37683923Y-112449176D01*
X37156691Y-112230250D01*
X36585813Y-112229752D01*
X36058200Y-112447757D01*
X35654176Y-112851077D01*
X35435250Y-113378309D01*
X35434752Y-113949187D01*
X25710000Y-113949187D01*
X25710000Y-103926661D01*
X68602758Y-103926661D01*
X68814990Y-104440303D01*
X69207630Y-104833629D01*
X69608650Y-105000147D01*
X69209697Y-105164990D01*
X68816371Y-105557630D01*
X68603243Y-106070900D01*
X68602758Y-106626661D01*
X68814990Y-107140303D01*
X69207630Y-107533629D01*
X69720900Y-107746757D01*
X70276661Y-107747242D01*
X70790303Y-107535010D01*
X71183629Y-107142370D01*
X71396757Y-106629100D01*
X71397242Y-106073339D01*
X71185010Y-105559697D01*
X70792370Y-105166371D01*
X70391350Y-104999853D01*
X70790303Y-104835010D01*
X71183629Y-104442370D01*
X71396757Y-103929100D01*
X71397242Y-103373339D01*
X71185010Y-102859697D01*
X70792370Y-102466371D01*
X70279100Y-102253243D01*
X69723339Y-102252758D01*
X69209697Y-102464990D01*
X68816371Y-102857630D01*
X68603243Y-103370900D01*
X68602758Y-103926661D01*
X25710000Y-103926661D01*
X25710000Y-96990000D01*
X34747560Y-96990000D01*
X34747560Y-98590000D01*
X34791838Y-98825317D01*
X34930910Y-99041441D01*
X35143110Y-99186431D01*
X35395000Y-99237440D01*
X36995000Y-99237440D01*
X37230317Y-99193162D01*
X37446441Y-99054090D01*
X37591431Y-98841890D01*
X37612680Y-98736959D01*
X37881077Y-99005824D01*
X38408309Y-99224750D01*
X38979187Y-99225248D01*
X39506800Y-99007243D01*
X39910824Y-98603923D01*
X40129750Y-98076691D01*
X40130248Y-97505813D01*
X39912243Y-96978200D01*
X39508923Y-96574176D01*
X38981691Y-96355250D01*
X38410813Y-96354752D01*
X37883200Y-96572757D01*
X37614417Y-96841072D01*
X37598162Y-96754683D01*
X37459090Y-96538559D01*
X37246890Y-96393569D01*
X36995000Y-96342560D01*
X35395000Y-96342560D01*
X35159683Y-96386838D01*
X34943559Y-96525910D01*
X34798569Y-96738110D01*
X34747560Y-96990000D01*
X25710000Y-96990000D01*
X25710000Y-89176661D01*
X34837758Y-89176661D01*
X35049990Y-89690303D01*
X35442630Y-90083629D01*
X35955900Y-90296757D01*
X36511661Y-90297242D01*
X37025303Y-90085010D01*
X37418629Y-89692370D01*
X37631757Y-89179100D01*
X37631759Y-89176661D01*
X39837758Y-89176661D01*
X40049990Y-89690303D01*
X40442630Y-90083629D01*
X40955900Y-90296757D01*
X41511661Y-90297242D01*
X42025303Y-90085010D01*
X42418629Y-89692370D01*
X42631757Y-89179100D01*
X42632242Y-88623339D01*
X42420010Y-88109697D01*
X42410330Y-88100000D01*
X51257560Y-88100000D01*
X51257560Y-89700000D01*
X51301838Y-89935317D01*
X51440910Y-90151441D01*
X51653110Y-90296431D01*
X51905000Y-90347440D01*
X53505000Y-90347440D01*
X53740317Y-90303162D01*
X53956441Y-90164090D01*
X54101431Y-89951890D01*
X54122680Y-89846959D01*
X54391077Y-90115824D01*
X54918309Y-90334750D01*
X55489187Y-90335248D01*
X56016800Y-90117243D01*
X56420824Y-89713923D01*
X56639750Y-89186691D01*
X56640248Y-88615813D01*
X56422243Y-88088200D01*
X56018923Y-87684176D01*
X55491691Y-87465250D01*
X54920813Y-87464752D01*
X54393200Y-87682757D01*
X54124417Y-87951072D01*
X54108162Y-87864683D01*
X53969090Y-87648559D01*
X53756890Y-87503569D01*
X53505000Y-87452560D01*
X51905000Y-87452560D01*
X51669683Y-87496838D01*
X51453559Y-87635910D01*
X51308569Y-87848110D01*
X51257560Y-88100000D01*
X42410330Y-88100000D01*
X42027370Y-87716371D01*
X41514100Y-87503243D01*
X40958339Y-87502758D01*
X40444697Y-87714990D01*
X40051371Y-88107630D01*
X39838243Y-88620900D01*
X39837758Y-89176661D01*
X37631759Y-89176661D01*
X37632242Y-88623339D01*
X37420010Y-88109697D01*
X37027370Y-87716371D01*
X36514100Y-87503243D01*
X35958339Y-87502758D01*
X35444697Y-87714990D01*
X35051371Y-88107630D01*
X34838243Y-88620900D01*
X34837758Y-89176661D01*
X25710000Y-89176661D01*
X25710000Y-69489285D01*
X31634760Y-69489285D01*
X31845169Y-69998515D01*
X32234436Y-70388461D01*
X32743298Y-70599759D01*
X33294285Y-70600240D01*
X33803515Y-70389831D01*
X34193461Y-70000564D01*
X34404759Y-69491702D01*
X34404761Y-69489285D01*
X36514760Y-69489285D01*
X36725169Y-69998515D01*
X37114436Y-70388461D01*
X37623298Y-70599759D01*
X38174285Y-70600240D01*
X38683515Y-70389831D01*
X39073461Y-70000564D01*
X39284759Y-69491702D01*
X39285240Y-68940715D01*
X39074831Y-68431485D01*
X38685564Y-68041539D01*
X38176702Y-67830241D01*
X37625715Y-67829760D01*
X37116485Y-68040169D01*
X36726539Y-68429436D01*
X36515241Y-68938298D01*
X36514760Y-69489285D01*
X34404761Y-69489285D01*
X34405240Y-68940715D01*
X34194831Y-68431485D01*
X33805564Y-68041539D01*
X33296702Y-67830241D01*
X32745715Y-67829760D01*
X32236485Y-68040169D01*
X31846539Y-68429436D01*
X31635241Y-68938298D01*
X31634760Y-69489285D01*
X25710000Y-69489285D01*
X25710000Y-66860167D01*
X51769838Y-66860167D01*
X51911883Y-67203943D01*
X51945000Y-67237118D01*
X51945000Y-81915000D01*
X52002852Y-82205839D01*
X52167599Y-82452401D01*
X63980063Y-94264865D01*
X63939931Y-94264830D01*
X63577771Y-94414471D01*
X63300445Y-94691314D01*
X63150172Y-95053212D01*
X63149830Y-95445069D01*
X63250000Y-95687500D01*
X63250000Y-98622799D01*
X63150172Y-98863212D01*
X63149830Y-99255069D01*
X63299471Y-99617229D01*
X63576314Y-99894555D01*
X63938212Y-100044828D01*
X64330069Y-100045170D01*
X64692229Y-99895529D01*
X64969555Y-99618686D01*
X65119828Y-99256788D01*
X65120170Y-98864931D01*
X65020000Y-98622500D01*
X65020000Y-95687201D01*
X65119828Y-95446788D01*
X65119865Y-95404667D01*
X79250000Y-109534802D01*
X79250000Y-113030000D01*
X79307852Y-113320839D01*
X79472599Y-113567401D01*
X81125063Y-115219865D01*
X81084931Y-115219830D01*
X80842500Y-115320000D01*
X68946579Y-115320000D01*
X67553241Y-113926661D01*
X68602758Y-113926661D01*
X68814990Y-114440303D01*
X69207630Y-114833629D01*
X69720900Y-115046757D01*
X70276661Y-115047242D01*
X70790303Y-114835010D01*
X71183629Y-114442370D01*
X71396757Y-113929100D01*
X71397242Y-113373339D01*
X71185010Y-112859697D01*
X70792370Y-112466371D01*
X70279100Y-112253243D01*
X69723339Y-112252758D01*
X69209697Y-112464990D01*
X68816371Y-112857630D01*
X68603243Y-113370900D01*
X68602758Y-113926661D01*
X67553241Y-113926661D01*
X65069937Y-111443357D01*
X64970529Y-111202771D01*
X64693686Y-110925445D01*
X64331788Y-110775172D01*
X63939931Y-110774830D01*
X63577771Y-110924471D01*
X63300445Y-111201314D01*
X63150172Y-111563212D01*
X63149830Y-111955069D01*
X63299471Y-112317229D01*
X63576314Y-112594555D01*
X63818567Y-112695147D01*
X67954208Y-116830787D01*
X67954210Y-116830790D01*
X68155071Y-116965000D01*
X68241325Y-117022633D01*
X68580000Y-117090001D01*
X68580005Y-117090000D01*
X80842799Y-117090000D01*
X81083212Y-117189828D01*
X81475069Y-117190170D01*
X81837229Y-117040529D01*
X82114555Y-116763686D01*
X82264828Y-116401788D01*
X82264865Y-116359667D01*
X83282599Y-117377401D01*
X83529161Y-117542148D01*
X83820000Y-117600000D01*
X92782537Y-117600000D01*
X92814673Y-117632192D01*
X93158201Y-117774838D01*
X93530167Y-117775162D01*
X93873943Y-117633117D01*
X94137192Y-117370327D01*
X94246765Y-117106446D01*
X94490000Y-117005944D01*
X94490000Y-126437537D01*
X94457808Y-126469673D01*
X94315162Y-126813201D01*
X94314838Y-127185167D01*
X94456883Y-127528943D01*
X94719673Y-127792192D01*
X95063201Y-127934838D01*
X95435167Y-127935162D01*
X95778943Y-127793117D01*
X96042192Y-127530327D01*
X96184838Y-127186799D01*
X96185162Y-126814833D01*
X96043117Y-126471057D01*
X96010000Y-126437882D01*
X96010000Y-120315110D01*
X96070167Y-120315162D01*
X96413943Y-120173117D01*
X96677192Y-119910327D01*
X96819838Y-119566799D01*
X96820162Y-119194833D01*
X96678117Y-118851057D01*
X96645000Y-118817882D01*
X96645000Y-117140110D01*
X96705167Y-117140162D01*
X97048943Y-116998117D01*
X97082118Y-116965000D01*
X104139487Y-116965000D01*
X103911917Y-117192571D01*
X103611057Y-117316883D01*
X103347808Y-117579673D01*
X103205162Y-117923201D01*
X103204838Y-118295167D01*
X103330000Y-118598083D01*
X103330000Y-121584487D01*
X93407244Y-131507244D01*
X93231658Y-131770026D01*
X93170000Y-132080000D01*
X93170000Y-140482559D01*
X93045162Y-140783201D01*
X93044838Y-141155167D01*
X93170000Y-141458083D01*
X93170000Y-143809487D01*
X91739488Y-145240000D01*
X86847441Y-145240000D01*
X86546799Y-145115162D01*
X86174833Y-145114838D01*
X85831057Y-145256883D01*
X85567808Y-145519673D01*
X85425162Y-145863201D01*
X85424838Y-146235167D01*
X85566883Y-146578943D01*
X85829673Y-146842192D01*
X86173201Y-146984838D01*
X86545167Y-146985162D01*
X86823476Y-146870167D01*
X151464838Y-146870167D01*
X151606883Y-147213943D01*
X151869673Y-147477192D01*
X152213201Y-147619838D01*
X152585167Y-147620162D01*
X152928943Y-147478117D01*
X152962118Y-147445000D01*
X226695000Y-147445000D01*
X226985839Y-147387148D01*
X227232401Y-147222401D01*
X228739680Y-145715122D01*
X228785167Y-145715162D01*
X229128943Y-145573117D01*
X229392192Y-145310327D01*
X229534838Y-144966799D01*
X229535162Y-144594833D01*
X229393117Y-144251057D01*
X229130327Y-143987808D01*
X228786799Y-143845162D01*
X228414833Y-143844838D01*
X228071057Y-143986883D01*
X227807808Y-144249673D01*
X227665162Y-144593201D01*
X227665121Y-144640077D01*
X226380198Y-145925000D01*
X218369802Y-145925000D01*
X223199803Y-141095000D01*
X228037537Y-141095000D01*
X228069673Y-141127192D01*
X228413201Y-141269838D01*
X228785167Y-141270162D01*
X229128943Y-141128117D01*
X229392192Y-140865327D01*
X229514265Y-140571344D01*
X262114501Y-140571344D01*
X262552790Y-141632086D01*
X263363645Y-142444357D01*
X264423620Y-142884498D01*
X265571344Y-142885499D01*
X266632086Y-142447210D01*
X267444357Y-141636355D01*
X267884498Y-140576380D01*
X267885499Y-139428656D01*
X267447210Y-138367914D01*
X266636355Y-137555643D01*
X265576380Y-137115502D01*
X264428656Y-137114501D01*
X263367914Y-137552790D01*
X262555643Y-138363645D01*
X262115502Y-139423620D01*
X262114501Y-140571344D01*
X229514265Y-140571344D01*
X229534838Y-140521799D01*
X229535162Y-140149833D01*
X229393117Y-139806057D01*
X229130327Y-139542808D01*
X228786799Y-139400162D01*
X228414833Y-139399838D01*
X228071057Y-139541883D01*
X228037882Y-139575000D01*
X222885000Y-139575000D01*
X222594161Y-139632852D01*
X222347599Y-139797598D01*
X216855198Y-145290000D01*
X162487463Y-145290000D01*
X162455327Y-145257808D01*
X162111799Y-145115162D01*
X161739833Y-145114838D01*
X161396057Y-145256883D01*
X161132808Y-145519673D01*
X160990162Y-145863201D01*
X160990108Y-145925000D01*
X152962463Y-145925000D01*
X152930327Y-145892808D01*
X152586799Y-145750162D01*
X152214833Y-145749838D01*
X151871057Y-145891883D01*
X151607808Y-146154673D01*
X151465162Y-146498201D01*
X151464838Y-146870167D01*
X86823476Y-146870167D01*
X86848083Y-146860000D01*
X92075000Y-146860000D01*
X92384974Y-146798342D01*
X92647756Y-146622756D01*
X94552757Y-144717756D01*
X94728343Y-144454973D01*
X94760572Y-144292943D01*
X94790000Y-144145000D01*
X94790000Y-141457441D01*
X94914838Y-141156799D01*
X94915162Y-140784833D01*
X94790000Y-140481917D01*
X94790000Y-132415512D01*
X104712757Y-122492756D01*
X104888343Y-122229973D01*
X104931549Y-122012757D01*
X104950000Y-121920000D01*
X104950000Y-118597441D01*
X105057884Y-118337629D01*
X105110513Y-118285000D01*
X111145198Y-118285000D01*
X100190320Y-129239878D01*
X100144833Y-129239838D01*
X99801057Y-129381883D01*
X99537808Y-129644673D01*
X99395162Y-129988201D01*
X99394838Y-130360167D01*
X99536883Y-130703943D01*
X99766369Y-130933829D01*
X95982599Y-134717599D01*
X95817852Y-134964161D01*
X95760000Y-135255000D01*
X95760000Y-144852537D01*
X95727808Y-144884673D01*
X95585162Y-145228201D01*
X95584838Y-145600167D01*
X95726883Y-145943943D01*
X95989673Y-146207192D01*
X96333201Y-146349838D01*
X96705167Y-146350162D01*
X97048943Y-146208117D01*
X97312192Y-145945327D01*
X97454838Y-145601799D01*
X97455162Y-145229833D01*
X97313117Y-144886057D01*
X97280000Y-144852882D01*
X97280000Y-144670103D01*
X97349201Y-144698838D01*
X97721167Y-144699162D01*
X98064943Y-144557117D01*
X98328192Y-144294327D01*
X98470838Y-143950799D01*
X98471162Y-143578833D01*
X98329117Y-143235057D01*
X98296000Y-143201882D01*
X98296000Y-138998802D01*
X98633019Y-138661783D01*
X98632838Y-138869167D01*
X98774883Y-139212943D01*
X99037673Y-139476192D01*
X99381201Y-139618838D01*
X99753167Y-139619162D01*
X100096943Y-139477117D01*
X100360192Y-139214327D01*
X100475764Y-138936000D01*
X102108000Y-138936000D01*
X102398839Y-138878148D01*
X102645401Y-138713401D01*
X104013635Y-137345167D01*
X113999838Y-137345167D01*
X114141883Y-137688943D01*
X114175000Y-137722118D01*
X114175000Y-143582537D01*
X114142808Y-143614673D01*
X114000162Y-143958201D01*
X113999838Y-144330167D01*
X114141883Y-144673943D01*
X114404673Y-144937192D01*
X114748201Y-145079838D01*
X115120167Y-145080162D01*
X115463943Y-144938117D01*
X115727192Y-144675327D01*
X115869838Y-144331799D01*
X115870162Y-143959833D01*
X115856456Y-143926661D01*
X153602758Y-143926661D01*
X153814990Y-144440303D01*
X154207630Y-144833629D01*
X154720900Y-145046757D01*
X155276661Y-145047242D01*
X155790303Y-144835010D01*
X156183629Y-144442370D01*
X156396757Y-143929100D01*
X156396759Y-143926661D01*
X163602758Y-143926661D01*
X163814990Y-144440303D01*
X164207630Y-144833629D01*
X164720900Y-145046757D01*
X165276661Y-145047242D01*
X165790303Y-144835010D01*
X166183629Y-144442370D01*
X166396757Y-143929100D01*
X166396759Y-143926661D01*
X173602758Y-143926661D01*
X173814990Y-144440303D01*
X174207630Y-144833629D01*
X174720900Y-145046757D01*
X175276661Y-145047242D01*
X175790303Y-144835010D01*
X176183629Y-144442370D01*
X176396757Y-143929100D01*
X176396759Y-143926661D01*
X183602758Y-143926661D01*
X183814990Y-144440303D01*
X184207630Y-144833629D01*
X184720900Y-145046757D01*
X185276661Y-145047242D01*
X185790303Y-144835010D01*
X186183629Y-144442370D01*
X186396757Y-143929100D01*
X186396759Y-143926661D01*
X193602758Y-143926661D01*
X193814990Y-144440303D01*
X194207630Y-144833629D01*
X194720900Y-145046757D01*
X195276661Y-145047242D01*
X195790303Y-144835010D01*
X196183629Y-144442370D01*
X196396757Y-143929100D01*
X196396759Y-143926661D01*
X203602758Y-143926661D01*
X203814990Y-144440303D01*
X204207630Y-144833629D01*
X204720900Y-145046757D01*
X205276661Y-145047242D01*
X205790303Y-144835010D01*
X206183629Y-144442370D01*
X206396757Y-143929100D01*
X206396759Y-143926661D01*
X213602758Y-143926661D01*
X213814990Y-144440303D01*
X214207630Y-144833629D01*
X214720900Y-145046757D01*
X215276661Y-145047242D01*
X215790303Y-144835010D01*
X216183629Y-144442370D01*
X216396757Y-143929100D01*
X216397242Y-143373339D01*
X216185010Y-142859697D01*
X215792370Y-142466371D01*
X215279100Y-142253243D01*
X214723339Y-142252758D01*
X214209697Y-142464990D01*
X213816371Y-142857630D01*
X213603243Y-143370900D01*
X213602758Y-143926661D01*
X206396759Y-143926661D01*
X206397242Y-143373339D01*
X206185010Y-142859697D01*
X205792370Y-142466371D01*
X205279100Y-142253243D01*
X204723339Y-142252758D01*
X204209697Y-142464990D01*
X203816371Y-142857630D01*
X203603243Y-143370900D01*
X203602758Y-143926661D01*
X196396759Y-143926661D01*
X196397242Y-143373339D01*
X196185010Y-142859697D01*
X195792370Y-142466371D01*
X195279100Y-142253243D01*
X194723339Y-142252758D01*
X194209697Y-142464990D01*
X193816371Y-142857630D01*
X193603243Y-143370900D01*
X193602758Y-143926661D01*
X186396759Y-143926661D01*
X186397242Y-143373339D01*
X186185010Y-142859697D01*
X185792370Y-142466371D01*
X185279100Y-142253243D01*
X184723339Y-142252758D01*
X184209697Y-142464990D01*
X183816371Y-142857630D01*
X183603243Y-143370900D01*
X183602758Y-143926661D01*
X176396759Y-143926661D01*
X176397242Y-143373339D01*
X176185010Y-142859697D01*
X175792370Y-142466371D01*
X175279100Y-142253243D01*
X174723339Y-142252758D01*
X174209697Y-142464990D01*
X173816371Y-142857630D01*
X173603243Y-143370900D01*
X173602758Y-143926661D01*
X166396759Y-143926661D01*
X166397242Y-143373339D01*
X166185010Y-142859697D01*
X165792370Y-142466371D01*
X165279100Y-142253243D01*
X164723339Y-142252758D01*
X164209697Y-142464990D01*
X163816371Y-142857630D01*
X163603243Y-143370900D01*
X163602758Y-143926661D01*
X156396759Y-143926661D01*
X156397242Y-143373339D01*
X156185010Y-142859697D01*
X155792370Y-142466371D01*
X155279100Y-142253243D01*
X154723339Y-142252758D01*
X154209697Y-142464990D01*
X153816371Y-142857630D01*
X153603243Y-143370900D01*
X153602758Y-143926661D01*
X115856456Y-143926661D01*
X115728117Y-143616057D01*
X115695000Y-143582882D01*
X115695000Y-138798709D01*
X133187857Y-138798709D01*
X133489418Y-139528543D01*
X134047320Y-140087419D01*
X134776627Y-140390254D01*
X135566309Y-140390943D01*
X136296143Y-140089382D01*
X136855019Y-139531480D01*
X137157854Y-138802173D01*
X137157857Y-138798709D01*
X145187857Y-138798709D01*
X145489418Y-139528543D01*
X146047320Y-140087419D01*
X146776627Y-140390254D01*
X147566309Y-140390943D01*
X148296143Y-140089382D01*
X148855019Y-139531480D01*
X149157854Y-138802173D01*
X149158543Y-138012491D01*
X148856982Y-137282657D01*
X148299080Y-136723781D01*
X148065190Y-136626661D01*
X153602758Y-136626661D01*
X153814990Y-137140303D01*
X154207630Y-137533629D01*
X154720900Y-137746757D01*
X155276661Y-137747242D01*
X155790303Y-137535010D01*
X156183629Y-137142370D01*
X156396757Y-136629100D01*
X156396759Y-136626661D01*
X163602758Y-136626661D01*
X163814990Y-137140303D01*
X164207630Y-137533629D01*
X164720900Y-137746757D01*
X165276661Y-137747242D01*
X165790303Y-137535010D01*
X166183629Y-137142370D01*
X166396757Y-136629100D01*
X166396759Y-136626661D01*
X173602758Y-136626661D01*
X173814990Y-137140303D01*
X174207630Y-137533629D01*
X174720900Y-137746757D01*
X175276661Y-137747242D01*
X175790303Y-137535010D01*
X176183629Y-137142370D01*
X176396757Y-136629100D01*
X176396759Y-136626661D01*
X183602758Y-136626661D01*
X183814990Y-137140303D01*
X184207630Y-137533629D01*
X184720900Y-137746757D01*
X185276661Y-137747242D01*
X185790303Y-137535010D01*
X186183629Y-137142370D01*
X186396757Y-136629100D01*
X186396759Y-136626661D01*
X193602758Y-136626661D01*
X193814990Y-137140303D01*
X194207630Y-137533629D01*
X194720900Y-137746757D01*
X195276661Y-137747242D01*
X195790303Y-137535010D01*
X196183629Y-137142370D01*
X196396757Y-136629100D01*
X196396759Y-136626661D01*
X203602758Y-136626661D01*
X203814990Y-137140303D01*
X204207630Y-137533629D01*
X204720900Y-137746757D01*
X205276661Y-137747242D01*
X205790303Y-137535010D01*
X206183629Y-137142370D01*
X206396757Y-136629100D01*
X206396759Y-136626661D01*
X213602758Y-136626661D01*
X213814990Y-137140303D01*
X214207630Y-137533629D01*
X214720900Y-137746757D01*
X215276661Y-137747242D01*
X215790303Y-137535010D01*
X216183629Y-137142370D01*
X216396757Y-136629100D01*
X216397242Y-136073339D01*
X216185010Y-135559697D01*
X215792370Y-135166371D01*
X215279100Y-134953243D01*
X214723339Y-134952758D01*
X214209697Y-135164990D01*
X213816371Y-135557630D01*
X213603243Y-136070900D01*
X213602758Y-136626661D01*
X206396759Y-136626661D01*
X206397242Y-136073339D01*
X206185010Y-135559697D01*
X205792370Y-135166371D01*
X205279100Y-134953243D01*
X204723339Y-134952758D01*
X204209697Y-135164990D01*
X203816371Y-135557630D01*
X203603243Y-136070900D01*
X203602758Y-136626661D01*
X196396759Y-136626661D01*
X196397242Y-136073339D01*
X196185010Y-135559697D01*
X195792370Y-135166371D01*
X195279100Y-134953243D01*
X194723339Y-134952758D01*
X194209697Y-135164990D01*
X193816371Y-135557630D01*
X193603243Y-136070900D01*
X193602758Y-136626661D01*
X186396759Y-136626661D01*
X186397242Y-136073339D01*
X186185010Y-135559697D01*
X185792370Y-135166371D01*
X185279100Y-134953243D01*
X184723339Y-134952758D01*
X184209697Y-135164990D01*
X183816371Y-135557630D01*
X183603243Y-136070900D01*
X183602758Y-136626661D01*
X176396759Y-136626661D01*
X176397242Y-136073339D01*
X176185010Y-135559697D01*
X175792370Y-135166371D01*
X175279100Y-134953243D01*
X174723339Y-134952758D01*
X174209697Y-135164990D01*
X173816371Y-135557630D01*
X173603243Y-136070900D01*
X173602758Y-136626661D01*
X166396759Y-136626661D01*
X166397242Y-136073339D01*
X166185010Y-135559697D01*
X165792370Y-135166371D01*
X165279100Y-134953243D01*
X164723339Y-134952758D01*
X164209697Y-135164990D01*
X163816371Y-135557630D01*
X163603243Y-136070900D01*
X163602758Y-136626661D01*
X156396759Y-136626661D01*
X156397242Y-136073339D01*
X156185010Y-135559697D01*
X155792370Y-135166371D01*
X155279100Y-134953243D01*
X154723339Y-134952758D01*
X154209697Y-135164990D01*
X153816371Y-135557630D01*
X153603243Y-136070900D01*
X153602758Y-136626661D01*
X148065190Y-136626661D01*
X147569773Y-136420946D01*
X146780091Y-136420257D01*
X146050257Y-136721818D01*
X145491381Y-137279720D01*
X145188546Y-138009027D01*
X145187857Y-138798709D01*
X137157857Y-138798709D01*
X137158543Y-138012491D01*
X136856982Y-137282657D01*
X136299080Y-136723781D01*
X135569773Y-136420946D01*
X134780091Y-136420257D01*
X134050257Y-136721818D01*
X133491381Y-137279720D01*
X133188546Y-138009027D01*
X133187857Y-138798709D01*
X115695000Y-138798709D01*
X115695000Y-137722463D01*
X115727192Y-137690327D01*
X115869838Y-137346799D01*
X115870162Y-136974833D01*
X115760805Y-136710167D01*
X120984838Y-136710167D01*
X121126883Y-137053943D01*
X121389673Y-137317192D01*
X121733201Y-137459838D01*
X122105167Y-137460162D01*
X122448943Y-137318117D01*
X122712192Y-137055327D01*
X122837884Y-136752628D01*
X123762756Y-135827757D01*
X123850549Y-135696365D01*
X123938342Y-135564974D01*
X124000000Y-135255000D01*
X124000000Y-130662441D01*
X124124838Y-130361799D01*
X124125162Y-129989833D01*
X123983117Y-129646057D01*
X123720327Y-129382808D01*
X123376799Y-129240162D01*
X123004833Y-129239838D01*
X122661057Y-129381883D01*
X122397808Y-129644673D01*
X122255162Y-129988201D01*
X122254838Y-130360167D01*
X122380000Y-130663083D01*
X122380000Y-134919487D01*
X121691917Y-135607570D01*
X121391057Y-135731883D01*
X121127808Y-135994673D01*
X120985162Y-136338201D01*
X120984838Y-136710167D01*
X115760805Y-136710167D01*
X115728117Y-136631057D01*
X115465327Y-136367808D01*
X115121799Y-136225162D01*
X114749833Y-136224838D01*
X114406057Y-136366883D01*
X114142808Y-136629673D01*
X114000162Y-136973201D01*
X113999838Y-137345167D01*
X104013635Y-137345167D01*
X119011680Y-122347122D01*
X119057167Y-122347162D01*
X119400943Y-122205117D01*
X119664192Y-121942327D01*
X119806838Y-121598799D01*
X119807162Y-121226833D01*
X119665117Y-120883057D01*
X119402327Y-120619808D01*
X119058799Y-120477162D01*
X118849822Y-120476980D01*
X119011680Y-120315122D01*
X119057167Y-120315162D01*
X119400943Y-120173117D01*
X119664192Y-119910327D01*
X119806838Y-119566799D01*
X119807162Y-119194833D01*
X119665117Y-118851057D01*
X119402327Y-118587808D01*
X119058799Y-118445162D01*
X118686833Y-118444838D01*
X118343057Y-118586883D01*
X118079808Y-118849673D01*
X117937162Y-119193201D01*
X117937121Y-119240077D01*
X101285198Y-135892000D01*
X99568000Y-135892000D01*
X99277161Y-135949852D01*
X99030599Y-136114599D01*
X97280000Y-137865198D01*
X97280000Y-135569802D01*
X114439680Y-118410122D01*
X114485167Y-118410162D01*
X114828943Y-118268117D01*
X115092192Y-118005327D01*
X115234838Y-117661799D01*
X115234879Y-117614923D01*
X120329803Y-112520000D01*
X129539487Y-112520000D01*
X118516918Y-123542570D01*
X118216057Y-123666883D01*
X117952808Y-123929673D01*
X117810162Y-124273201D01*
X117809838Y-124645167D01*
X117951883Y-124988943D01*
X118181369Y-125218829D01*
X116302599Y-127097599D01*
X116137852Y-127344161D01*
X116080000Y-127635000D01*
X116080000Y-134692537D01*
X116047808Y-134724673D01*
X115905162Y-135068201D01*
X115904838Y-135440167D01*
X116046883Y-135783943D01*
X116309673Y-136047192D01*
X116653201Y-136189838D01*
X117025167Y-136190162D01*
X117368943Y-136048117D01*
X117632192Y-135785327D01*
X117774838Y-135441799D01*
X117775162Y-135069833D01*
X117633117Y-134726057D01*
X117600000Y-134692882D01*
X117600000Y-128290285D01*
X128989760Y-128290285D01*
X129200169Y-128799515D01*
X129589436Y-129189461D01*
X130098298Y-129400759D01*
X130649285Y-129401240D01*
X131158515Y-129190831D01*
X131548461Y-128801564D01*
X131759759Y-128292702D01*
X131759761Y-128290285D01*
X133869760Y-128290285D01*
X134080169Y-128799515D01*
X134469436Y-129189461D01*
X134978298Y-129400759D01*
X135529285Y-129401240D01*
X136038515Y-129190831D01*
X136428461Y-128801564D01*
X136639759Y-128292702D01*
X136640240Y-127741715D01*
X136429831Y-127232485D01*
X136040564Y-126842539D01*
X135531702Y-126631241D01*
X134980715Y-126630760D01*
X134471485Y-126841169D01*
X134081539Y-127230436D01*
X133870241Y-127739298D01*
X133869760Y-128290285D01*
X131759761Y-128290285D01*
X131760240Y-127741715D01*
X131549831Y-127232485D01*
X131160564Y-126842539D01*
X130651702Y-126631241D01*
X130100715Y-126630760D01*
X129591485Y-126841169D01*
X129201539Y-127230436D01*
X128990241Y-127739298D01*
X128989760Y-128290285D01*
X117600000Y-128290285D01*
X117600000Y-127949802D01*
X120396635Y-125153167D01*
X136224838Y-125153167D01*
X136366883Y-125496943D01*
X136629673Y-125760192D01*
X136908000Y-125875764D01*
X136908000Y-133470400D01*
X136965852Y-133761239D01*
X137130599Y-134007801D01*
X138520547Y-135397749D01*
X138508442Y-135426900D01*
X138507958Y-135981865D01*
X138719887Y-136494772D01*
X139111964Y-136887534D01*
X139624500Y-137100358D01*
X140179465Y-137100842D01*
X140692372Y-136888913D01*
X141085134Y-136496836D01*
X141173154Y-136284862D01*
X141259887Y-136494772D01*
X141651964Y-136887534D01*
X142164500Y-137100358D01*
X142719465Y-137100842D01*
X143232372Y-136888913D01*
X143625134Y-136496836D01*
X143837958Y-135984300D01*
X143838442Y-135429335D01*
X143626513Y-134916428D01*
X143416029Y-134705576D01*
X143625134Y-134496836D01*
X143837958Y-133984300D01*
X143838442Y-133429335D01*
X143626513Y-132916428D01*
X143234436Y-132523666D01*
X142721900Y-132310842D01*
X142166935Y-132310358D01*
X141654028Y-132522287D01*
X141261266Y-132914364D01*
X141173246Y-133126338D01*
X141086513Y-132916428D01*
X140694436Y-132523666D01*
X140181900Y-132310842D01*
X139626935Y-132310358D01*
X139114028Y-132522287D01*
X138721266Y-132914364D01*
X138564441Y-133292039D01*
X138428000Y-133155598D01*
X138428000Y-125915167D01*
X139399838Y-125915167D01*
X139541883Y-126258943D01*
X139804673Y-126522192D01*
X140148201Y-126664838D01*
X140520167Y-126665162D01*
X140823083Y-126540000D01*
X141605000Y-126540000D01*
X141914974Y-126478342D01*
X142177756Y-126302756D01*
X142812757Y-125667756D01*
X142988343Y-125404973D01*
X143050000Y-125095000D01*
X143050000Y-122933795D01*
X160289716Y-122933795D01*
X160538106Y-123534943D01*
X160997637Y-123995278D01*
X161598352Y-124244716D01*
X162248795Y-124245284D01*
X162849943Y-123996894D01*
X163310278Y-123537363D01*
X163559716Y-122936648D01*
X163559718Y-122933795D01*
X166789716Y-122933795D01*
X167038106Y-123534943D01*
X167497637Y-123995278D01*
X168098352Y-124244716D01*
X168748795Y-124245284D01*
X169349943Y-123996894D01*
X169420298Y-123926661D01*
X178602758Y-123926661D01*
X178814990Y-124440303D01*
X179207630Y-124833629D01*
X179720900Y-125046757D01*
X180276661Y-125047242D01*
X180790303Y-124835010D01*
X181183629Y-124442370D01*
X181396757Y-123929100D01*
X181397242Y-123373339D01*
X181215627Y-122933795D01*
X190134716Y-122933795D01*
X190383106Y-123534943D01*
X190842637Y-123995278D01*
X191443352Y-124244716D01*
X192093795Y-124245284D01*
X192694943Y-123996894D01*
X193155278Y-123537363D01*
X193404716Y-122936648D01*
X193404718Y-122933795D01*
X196634716Y-122933795D01*
X196883106Y-123534943D01*
X197342637Y-123995278D01*
X197943352Y-124244716D01*
X198593795Y-124245284D01*
X199194943Y-123996894D01*
X199265298Y-123926661D01*
X208602758Y-123926661D01*
X208814990Y-124440303D01*
X209207630Y-124833629D01*
X209720900Y-125046757D01*
X210276661Y-125047242D01*
X210790303Y-124835010D01*
X211183629Y-124442370D01*
X211396757Y-123929100D01*
X211397242Y-123373339D01*
X211185010Y-122859697D01*
X210792370Y-122466371D01*
X210279100Y-122253243D01*
X209723339Y-122252758D01*
X209209697Y-122464990D01*
X208816371Y-122857630D01*
X208603243Y-123370900D01*
X208602758Y-123926661D01*
X199265298Y-123926661D01*
X199655278Y-123537363D01*
X199904716Y-122936648D01*
X199905284Y-122286205D01*
X199656894Y-121685057D01*
X199197363Y-121224722D01*
X198596648Y-120975284D01*
X197946205Y-120974716D01*
X197345057Y-121223106D01*
X196884722Y-121682637D01*
X196635284Y-122283352D01*
X196634716Y-122933795D01*
X193404718Y-122933795D01*
X193405284Y-122286205D01*
X193156894Y-121685057D01*
X192697363Y-121224722D01*
X192096648Y-120975284D01*
X191446205Y-120974716D01*
X190845057Y-121223106D01*
X190384722Y-121682637D01*
X190135284Y-122283352D01*
X190134716Y-122933795D01*
X181215627Y-122933795D01*
X181185010Y-122859697D01*
X180792370Y-122466371D01*
X180279100Y-122253243D01*
X179723339Y-122252758D01*
X179209697Y-122464990D01*
X178816371Y-122857630D01*
X178603243Y-123370900D01*
X178602758Y-123926661D01*
X169420298Y-123926661D01*
X169810278Y-123537363D01*
X170059716Y-122936648D01*
X170060284Y-122286205D01*
X169811894Y-121685057D01*
X169352363Y-121224722D01*
X168751648Y-120975284D01*
X168101205Y-120974716D01*
X167500057Y-121223106D01*
X167039722Y-121682637D01*
X166790284Y-122283352D01*
X166789716Y-122933795D01*
X163559718Y-122933795D01*
X163560284Y-122286205D01*
X163311894Y-121685057D01*
X162852363Y-121224722D01*
X162251648Y-120975284D01*
X161601205Y-120974716D01*
X161000057Y-121223106D01*
X160539722Y-121682637D01*
X160290284Y-122283352D01*
X160289716Y-122933795D01*
X143050000Y-122933795D01*
X143050000Y-119867441D01*
X143174838Y-119566799D01*
X143175162Y-119194833D01*
X143033117Y-118851057D01*
X142770327Y-118587808D01*
X142426799Y-118445162D01*
X142054833Y-118444838D01*
X141711057Y-118586883D01*
X141447808Y-118849673D01*
X141305162Y-119193201D01*
X141304838Y-119565167D01*
X141430000Y-119868083D01*
X141430000Y-124759487D01*
X141269488Y-124920000D01*
X140822441Y-124920000D01*
X140521799Y-124795162D01*
X140149833Y-124794838D01*
X139806057Y-124936883D01*
X139542808Y-125199673D01*
X139400162Y-125543201D01*
X139399838Y-125915167D01*
X138428000Y-125915167D01*
X138428000Y-125476000D01*
X138370148Y-125185161D01*
X138205401Y-124938599D01*
X138095122Y-124828320D01*
X138095162Y-124782833D01*
X137953117Y-124439057D01*
X137690327Y-124175808D01*
X137346799Y-124033162D01*
X136974833Y-124032838D01*
X136631057Y-124174883D01*
X136367808Y-124437673D01*
X136225162Y-124781201D01*
X136224838Y-125153167D01*
X120396635Y-125153167D01*
X127116007Y-118433795D01*
X160289716Y-118433795D01*
X160538106Y-119034943D01*
X160997637Y-119495278D01*
X161598352Y-119744716D01*
X162248795Y-119745284D01*
X162849943Y-119496894D01*
X163310278Y-119037363D01*
X163559716Y-118436648D01*
X163559718Y-118433795D01*
X166789716Y-118433795D01*
X167038106Y-119034943D01*
X167497637Y-119495278D01*
X168098352Y-119744716D01*
X168748795Y-119745284D01*
X169349943Y-119496894D01*
X169810278Y-119037363D01*
X170059716Y-118436648D01*
X170059718Y-118433795D01*
X190134716Y-118433795D01*
X190383106Y-119034943D01*
X190842637Y-119495278D01*
X191443352Y-119744716D01*
X192093795Y-119745284D01*
X192694943Y-119496894D01*
X193155278Y-119037363D01*
X193404716Y-118436648D01*
X193404718Y-118433795D01*
X196634716Y-118433795D01*
X196883106Y-119034943D01*
X197342637Y-119495278D01*
X197943352Y-119744716D01*
X198593795Y-119745284D01*
X199194943Y-119496894D01*
X199655278Y-119037363D01*
X199904716Y-118436648D01*
X199905284Y-117786205D01*
X199656894Y-117185057D01*
X199197363Y-116724722D01*
X198596648Y-116475284D01*
X197946205Y-116474716D01*
X197345057Y-116723106D01*
X196884722Y-117182637D01*
X196635284Y-117783352D01*
X196634716Y-118433795D01*
X193404718Y-118433795D01*
X193405284Y-117786205D01*
X193156894Y-117185057D01*
X192697363Y-116724722D01*
X192096648Y-116475284D01*
X191446205Y-116474716D01*
X190845057Y-116723106D01*
X190384722Y-117182637D01*
X190135284Y-117783352D01*
X190134716Y-118433795D01*
X170059718Y-118433795D01*
X170060284Y-117786205D01*
X169811894Y-117185057D01*
X169352363Y-116724722D01*
X169116206Y-116626661D01*
X178602758Y-116626661D01*
X178814990Y-117140303D01*
X179207630Y-117533629D01*
X179720900Y-117746757D01*
X180276661Y-117747242D01*
X180790303Y-117535010D01*
X181183629Y-117142370D01*
X181396757Y-116629100D01*
X181397242Y-116073339D01*
X181185010Y-115559697D01*
X180792370Y-115166371D01*
X180279100Y-114953243D01*
X179723339Y-114952758D01*
X179209697Y-115164990D01*
X178816371Y-115557630D01*
X178603243Y-116070900D01*
X178602758Y-116626661D01*
X169116206Y-116626661D01*
X168751648Y-116475284D01*
X168101205Y-116474716D01*
X167500057Y-116723106D01*
X167039722Y-117182637D01*
X166790284Y-117783352D01*
X166789716Y-118433795D01*
X163559718Y-118433795D01*
X163560284Y-117786205D01*
X163311894Y-117185057D01*
X162852363Y-116724722D01*
X162251648Y-116475284D01*
X161601205Y-116474716D01*
X161000057Y-116723106D01*
X160539722Y-117182637D01*
X160290284Y-117783352D01*
X160289716Y-118433795D01*
X127116007Y-118433795D01*
X131124802Y-114425000D01*
X133422537Y-114425000D01*
X133454673Y-114457192D01*
X133798201Y-114599838D01*
X134170167Y-114600162D01*
X134513943Y-114458117D01*
X134777192Y-114195327D01*
X134919838Y-113851799D01*
X134919848Y-113840000D01*
X139212559Y-113840000D01*
X139513201Y-113964838D01*
X139885167Y-113965162D01*
X140228943Y-113823117D01*
X140492192Y-113560327D01*
X140634838Y-113216799D01*
X140635162Y-112844833D01*
X140500944Y-112520000D01*
X146122537Y-112520000D01*
X146154673Y-112552192D01*
X146498201Y-112694838D01*
X146870167Y-112695162D01*
X147213943Y-112553117D01*
X147247118Y-112520000D01*
X168347537Y-112520000D01*
X168379673Y-112552192D01*
X168723201Y-112694838D01*
X169095167Y-112695162D01*
X169438943Y-112553117D01*
X169702192Y-112290327D01*
X169844838Y-111946799D01*
X169844910Y-111864712D01*
X173054878Y-115074680D01*
X173054838Y-115120167D01*
X173196883Y-115463943D01*
X173459673Y-115727192D01*
X173803201Y-115869838D01*
X174175167Y-115870162D01*
X174518943Y-115728117D01*
X174782192Y-115465327D01*
X174924838Y-115121799D01*
X174925162Y-114749833D01*
X174783117Y-114406057D01*
X174520327Y-114142808D01*
X174176799Y-114000162D01*
X174129923Y-114000121D01*
X172649802Y-112520000D01*
X198827537Y-112520000D01*
X198859673Y-112552192D01*
X199203201Y-112694838D01*
X199575167Y-112695162D01*
X199918943Y-112553117D01*
X200148829Y-112323631D01*
X203534878Y-115709680D01*
X203534838Y-115755167D01*
X203676883Y-116098943D01*
X203939673Y-116362192D01*
X204283201Y-116504838D01*
X204655167Y-116505162D01*
X204998943Y-116363117D01*
X205262192Y-116100327D01*
X205404838Y-115756799D01*
X205405162Y-115384833D01*
X205263117Y-115041057D01*
X205000327Y-114777808D01*
X204656799Y-114635162D01*
X204609923Y-114635121D01*
X199927401Y-109952599D01*
X199680839Y-109787852D01*
X199538053Y-109759450D01*
X199547192Y-109750327D01*
X199689838Y-109406799D01*
X199689892Y-109345000D01*
X199710198Y-109345000D01*
X225124878Y-134759680D01*
X225124838Y-134805167D01*
X225266883Y-135148943D01*
X225529673Y-135412192D01*
X225873201Y-135554838D01*
X226245167Y-135555162D01*
X226588943Y-135413117D01*
X226694954Y-135307290D01*
X226799673Y-135412192D01*
X227143201Y-135554838D01*
X227515167Y-135555162D01*
X227858943Y-135413117D01*
X227964954Y-135307290D01*
X228069673Y-135412192D01*
X228413201Y-135554838D01*
X228785167Y-135555162D01*
X229128943Y-135413117D01*
X229392192Y-135150327D01*
X229534838Y-134806799D01*
X229535162Y-134434833D01*
X229393117Y-134091057D01*
X229130327Y-133827808D01*
X228786799Y-133685162D01*
X228739923Y-133685121D01*
X217219834Y-122165032D01*
X233898720Y-122165032D01*
X234144223Y-122759194D01*
X234598415Y-123214179D01*
X235192148Y-123460719D01*
X235835032Y-123461280D01*
X236429194Y-123215777D01*
X236884179Y-122761585D01*
X237130719Y-122167852D01*
X237131280Y-121524968D01*
X236885777Y-120930806D01*
X236431585Y-120475821D01*
X235837852Y-120229281D01*
X235194968Y-120228720D01*
X234600806Y-120474223D01*
X234145821Y-120928415D01*
X233899281Y-121522148D01*
X233898720Y-122165032D01*
X217219834Y-122165032D01*
X213485000Y-118430198D01*
X213485000Y-114935000D01*
X213427148Y-114644161D01*
X213397749Y-114600162D01*
X213262402Y-114397599D01*
X211384803Y-112520000D01*
X223205198Y-112520000D01*
X224489878Y-113804680D01*
X224489838Y-113850167D01*
X224631883Y-114193943D01*
X224894673Y-114457192D01*
X225238201Y-114599838D01*
X225610167Y-114600162D01*
X225953943Y-114458117D01*
X226059954Y-114352290D01*
X226164673Y-114457192D01*
X226508201Y-114599838D01*
X226880167Y-114600162D01*
X227223943Y-114458117D01*
X227487192Y-114195327D01*
X227629838Y-113851799D01*
X227630162Y-113479833D01*
X227488117Y-113136057D01*
X227225327Y-112872808D01*
X226881799Y-112730162D01*
X226834923Y-112730121D01*
X224692401Y-110587599D01*
X224445839Y-110422852D01*
X224155000Y-110365000D01*
X210747463Y-110365000D01*
X210715327Y-110332808D01*
X210371799Y-110190162D01*
X209999833Y-110189838D01*
X209656057Y-110331883D01*
X209426171Y-110561368D01*
X207945122Y-109080320D01*
X207945162Y-109034833D01*
X207803117Y-108691057D01*
X207540327Y-108427808D01*
X207196799Y-108285162D01*
X206824833Y-108284838D01*
X206481057Y-108426883D01*
X206251171Y-108656369D01*
X205007401Y-107412599D01*
X204760839Y-107247852D01*
X204470000Y-107190000D01*
X200589802Y-107190000D01*
X200799680Y-106980122D01*
X200845167Y-106980162D01*
X201188943Y-106838117D01*
X201452192Y-106575327D01*
X201594838Y-106231799D01*
X201595162Y-105859833D01*
X201453117Y-105516057D01*
X201190327Y-105252808D01*
X200846799Y-105110162D01*
X200474833Y-105109838D01*
X200131057Y-105251883D01*
X199867808Y-105514673D01*
X199725162Y-105858201D01*
X199725121Y-105905077D01*
X199250320Y-106379878D01*
X199204833Y-106379838D01*
X198861057Y-106521883D01*
X198597808Y-106784673D01*
X198455162Y-107128201D01*
X198455108Y-107190000D01*
X124387463Y-107190000D01*
X124355327Y-107157808D01*
X124011799Y-107015162D01*
X123639833Y-107014838D01*
X123296057Y-107156883D01*
X123032808Y-107419673D01*
X122908378Y-107719332D01*
X122741799Y-107650162D01*
X122369833Y-107649838D01*
X122026057Y-107791883D01*
X121762808Y-108054673D01*
X121638378Y-108354332D01*
X121471799Y-108285162D01*
X121099833Y-108284838D01*
X120756057Y-108426883D01*
X120492808Y-108689673D01*
X120350162Y-109033201D01*
X120350108Y-109095000D01*
X116519802Y-109095000D01*
X115144400Y-107719598D01*
X115234838Y-107501799D01*
X115235162Y-107129833D01*
X115093117Y-106786057D01*
X114830327Y-106522808D01*
X114486799Y-106380162D01*
X114114833Y-106379838D01*
X113771057Y-106521883D01*
X113665046Y-106627710D01*
X113560327Y-106522808D01*
X113216799Y-106380162D01*
X112844833Y-106379838D01*
X112501057Y-106521883D01*
X112237808Y-106784673D01*
X112095162Y-107128201D01*
X112094838Y-107500167D01*
X112236883Y-107843943D01*
X112270000Y-107877118D01*
X112270000Y-107950000D01*
X112327852Y-108240839D01*
X112492599Y-108487401D01*
X115032599Y-111027401D01*
X115279160Y-111192148D01*
X115325241Y-111201314D01*
X115570000Y-111250000D01*
X118180198Y-111250000D01*
X112890320Y-116539878D01*
X112844833Y-116539838D01*
X112501057Y-116681883D01*
X112395046Y-116787710D01*
X112290327Y-116682808D01*
X111946799Y-116540162D01*
X111574833Y-116539838D01*
X111271917Y-116665000D01*
X110790153Y-116665000D01*
X110790162Y-116654833D01*
X110648117Y-116311057D01*
X110385327Y-116047808D01*
X110041799Y-115905162D01*
X109994923Y-115905121D01*
X109757401Y-115667599D01*
X109510839Y-115502852D01*
X109220000Y-115445000D01*
X97082463Y-115445000D01*
X97050327Y-115412808D01*
X96706799Y-115270162D01*
X96645000Y-115270108D01*
X96645000Y-111310167D01*
X110824838Y-111310167D01*
X110966883Y-111653943D01*
X111229673Y-111917192D01*
X111573201Y-112059838D01*
X111620077Y-112059879D01*
X112185600Y-112625402D01*
X112095162Y-112843201D01*
X112094838Y-113215167D01*
X112236883Y-113558943D01*
X112499673Y-113822192D01*
X112843201Y-113964838D01*
X113215167Y-113965162D01*
X113558943Y-113823117D01*
X113822192Y-113560327D01*
X113964838Y-113216799D01*
X113965162Y-112844833D01*
X113823117Y-112501057D01*
X113790000Y-112467882D01*
X113790000Y-112395000D01*
X113732148Y-112104161D01*
X113732148Y-112104160D01*
X113567401Y-111857599D01*
X112695122Y-110985320D01*
X112695162Y-110939833D01*
X112553117Y-110596057D01*
X112290327Y-110332808D01*
X111946799Y-110190162D01*
X111574833Y-110189838D01*
X111231057Y-110331883D01*
X110967808Y-110594673D01*
X110825162Y-110938201D01*
X110824838Y-111310167D01*
X96645000Y-111310167D01*
X96645000Y-110804802D01*
X101914803Y-105535000D01*
X125167537Y-105535000D01*
X125199673Y-105567192D01*
X125543201Y-105709838D01*
X125915167Y-105710162D01*
X126258943Y-105568117D01*
X126522192Y-105305327D01*
X126664838Y-104961799D01*
X126665162Y-104589833D01*
X126582593Y-104390000D01*
X135452799Y-104390000D01*
X135693212Y-104489828D01*
X136085069Y-104490170D01*
X136327500Y-104390000D01*
X136793420Y-104390000D01*
X138439208Y-106035787D01*
X138439210Y-106035790D01*
X138726325Y-106227633D01*
X138747269Y-106231799D01*
X139065000Y-106295001D01*
X139065005Y-106295000D01*
X140969995Y-106295000D01*
X140970000Y-106295001D01*
X141287731Y-106231799D01*
X141308675Y-106227633D01*
X141595790Y-106035790D01*
X143241579Y-104390000D01*
X174822799Y-104390000D01*
X175063212Y-104489828D01*
X175455069Y-104490170D01*
X175697500Y-104390000D01*
X200857799Y-104390000D01*
X201098212Y-104489828D01*
X201490069Y-104490170D01*
X201732500Y-104390000D01*
X204032799Y-104390000D01*
X204273212Y-104489828D01*
X204665069Y-104490170D01*
X204907500Y-104390000D01*
X214827799Y-104390000D01*
X215068212Y-104489828D01*
X215460069Y-104490170D01*
X215702500Y-104390000D01*
X226059995Y-104390000D01*
X226060000Y-104390001D01*
X226060005Y-104390000D01*
X235147799Y-104390000D01*
X235268567Y-104440147D01*
X239780000Y-108951579D01*
X239780000Y-125363421D01*
X237127529Y-128015891D01*
X236885777Y-127430806D01*
X236431585Y-126975821D01*
X236227304Y-126890996D01*
X236372623Y-126830951D01*
X236799453Y-126404866D01*
X237030736Y-125847874D01*
X237031262Y-125244772D01*
X236800951Y-124687377D01*
X236374866Y-124260547D01*
X235817874Y-124029264D01*
X235214772Y-124028738D01*
X234657377Y-124259049D01*
X234230547Y-124685134D01*
X234228526Y-124690000D01*
X226094802Y-124690000D01*
X224692401Y-123287599D01*
X224445839Y-123122852D01*
X224155000Y-123065000D01*
X222812463Y-123065000D01*
X222780327Y-123032808D01*
X222436799Y-122890162D01*
X222064833Y-122889838D01*
X221721057Y-123031883D01*
X221457808Y-123294673D01*
X221315162Y-123638201D01*
X221314838Y-124010167D01*
X221456883Y-124353943D01*
X221719673Y-124617192D01*
X222063201Y-124759838D01*
X222435167Y-124760162D01*
X222778943Y-124618117D01*
X222812118Y-124585000D01*
X223840198Y-124585000D01*
X225242599Y-125987401D01*
X225489161Y-126152148D01*
X225780000Y-126210000D01*
X234149459Y-126210000D01*
X234229049Y-126402623D01*
X234655134Y-126829453D01*
X234802790Y-126890765D01*
X234600806Y-126974223D01*
X234145821Y-127428415D01*
X233899281Y-128022148D01*
X233898720Y-128665032D01*
X234144223Y-129259194D01*
X234598415Y-129714179D01*
X235106127Y-129925000D01*
X227767201Y-129925000D01*
X227526788Y-129825172D01*
X227134931Y-129824830D01*
X226772771Y-129974471D01*
X226495445Y-130251314D01*
X226345172Y-130613212D01*
X226344830Y-131005069D01*
X226494471Y-131367229D01*
X226771314Y-131644555D01*
X227133212Y-131794828D01*
X227525069Y-131795170D01*
X227767500Y-131695000D01*
X235584995Y-131695000D01*
X235585000Y-131695001D01*
X235867484Y-131638810D01*
X235923675Y-131627633D01*
X236210790Y-131435790D01*
X238981547Y-128665032D01*
X244198720Y-128665032D01*
X244444223Y-129259194D01*
X244898415Y-129714179D01*
X245492148Y-129960719D01*
X246135032Y-129961280D01*
X246729194Y-129715777D01*
X247184179Y-129261585D01*
X247430719Y-128667852D01*
X247431280Y-128024968D01*
X247185777Y-127430806D01*
X246731585Y-126975821D01*
X246527304Y-126890996D01*
X246672623Y-126830951D01*
X247099453Y-126404866D01*
X247330736Y-125847874D01*
X247331262Y-125244772D01*
X247100951Y-124687377D01*
X246674866Y-124260547D01*
X246117874Y-124029264D01*
X245514772Y-124028738D01*
X244957377Y-124259049D01*
X244530547Y-124685134D01*
X244299264Y-125242126D01*
X244298738Y-125845228D01*
X244529049Y-126402623D01*
X244955134Y-126829453D01*
X245102790Y-126890765D01*
X244900806Y-126974223D01*
X244445821Y-127428415D01*
X244199281Y-128022148D01*
X244198720Y-128665032D01*
X238981547Y-128665032D01*
X241290787Y-126355792D01*
X241290790Y-126355790D01*
X241482633Y-126068675D01*
X241493810Y-126012484D01*
X241550001Y-125730000D01*
X241550000Y-125729995D01*
X241550000Y-122165032D01*
X244198720Y-122165032D01*
X244444223Y-122759194D01*
X244898415Y-123214179D01*
X245492148Y-123460719D01*
X246135032Y-123461280D01*
X246729194Y-123215777D01*
X247184179Y-122761585D01*
X247430719Y-122167852D01*
X247431280Y-121524968D01*
X247185777Y-120930806D01*
X246731585Y-120475821D01*
X246137852Y-120229281D01*
X245494968Y-120228720D01*
X244900806Y-120474223D01*
X244445821Y-120928415D01*
X244199281Y-121522148D01*
X244198720Y-122165032D01*
X241550000Y-122165032D01*
X241550000Y-108585005D01*
X241550001Y-108585000D01*
X241482633Y-108246326D01*
X241482633Y-108246325D01*
X241290790Y-107959210D01*
X241290787Y-107959208D01*
X236519937Y-103188357D01*
X236420529Y-102947771D01*
X236143686Y-102670445D01*
X235781788Y-102520172D01*
X235389931Y-102519830D01*
X235147500Y-102620000D01*
X228196580Y-102620000D01*
X235266642Y-95549937D01*
X235507229Y-95450529D01*
X235784555Y-95173686D01*
X235934828Y-94811788D01*
X235935170Y-94419931D01*
X235825703Y-94155000D01*
X242717559Y-94155000D01*
X243018201Y-94279838D01*
X243390167Y-94280162D01*
X243693083Y-94155000D01*
X251460000Y-94155000D01*
X251769974Y-94093342D01*
X252032756Y-93917756D01*
X252667757Y-93282756D01*
X252843343Y-93019973D01*
X252905000Y-92710000D01*
X252905000Y-65405000D01*
X252892619Y-65342756D01*
X252843343Y-65095027D01*
X252667757Y-64832244D01*
X252032756Y-64197244D01*
X251769974Y-64021658D01*
X251460000Y-63960000D01*
X241600153Y-63960000D01*
X241600162Y-63949833D01*
X241458117Y-63606057D01*
X241195327Y-63342808D01*
X240851799Y-63200162D01*
X240479833Y-63199838D01*
X240136057Y-63341883D01*
X240102882Y-63375000D01*
X237790110Y-63375000D01*
X237790162Y-63314833D01*
X237648117Y-62971057D01*
X237385327Y-62707808D01*
X237041799Y-62565162D01*
X236669833Y-62564838D01*
X236326057Y-62706883D01*
X236292882Y-62740000D01*
X233980110Y-62740000D01*
X233980162Y-62679833D01*
X233838117Y-62336057D01*
X233575327Y-62072808D01*
X233231799Y-61930162D01*
X232859833Y-61929838D01*
X232516057Y-62071883D01*
X232482882Y-62105000D01*
X230170110Y-62105000D01*
X230170162Y-62044833D01*
X230028117Y-61701057D01*
X229765327Y-61437808D01*
X229421799Y-61295162D01*
X229049833Y-61294838D01*
X228706057Y-61436883D01*
X228672882Y-61470000D01*
X226360110Y-61470000D01*
X226360162Y-61409833D01*
X226218117Y-61066057D01*
X225955327Y-60802808D01*
X225611799Y-60660162D01*
X225239833Y-60659838D01*
X224896057Y-60801883D01*
X224862882Y-60835000D01*
X222550110Y-60835000D01*
X222550162Y-60774833D01*
X222466083Y-60571344D01*
X262114501Y-60571344D01*
X262552790Y-61632086D01*
X263363645Y-62444357D01*
X264423620Y-62884498D01*
X265571344Y-62885499D01*
X266632086Y-62447210D01*
X267444357Y-61636355D01*
X267884498Y-60576380D01*
X267885499Y-59428656D01*
X267447210Y-58367914D01*
X266636355Y-57555643D01*
X265576380Y-57115502D01*
X264428656Y-57114501D01*
X263367914Y-57552790D01*
X262555643Y-58363645D01*
X262115502Y-59423620D01*
X262114501Y-60571344D01*
X222466083Y-60571344D01*
X222408117Y-60431057D01*
X222145327Y-60167808D01*
X221801799Y-60025162D01*
X221429833Y-60024838D01*
X221086057Y-60166883D01*
X221052882Y-60200000D01*
X218740110Y-60200000D01*
X218740162Y-60139833D01*
X218598117Y-59796057D01*
X218335327Y-59532808D01*
X217991799Y-59390162D01*
X217619833Y-59389838D01*
X217276057Y-59531883D01*
X217242882Y-59565000D01*
X214930110Y-59565000D01*
X214930162Y-59504833D01*
X214788117Y-59161057D01*
X214525327Y-58897808D01*
X214181799Y-58755162D01*
X213809833Y-58754838D01*
X213466057Y-58896883D01*
X213432882Y-58930000D01*
X211120110Y-58930000D01*
X211120162Y-58869833D01*
X210978117Y-58526057D01*
X210715327Y-58262808D01*
X210371799Y-58120162D01*
X209999833Y-58119838D01*
X209656057Y-58261883D01*
X209622882Y-58295000D01*
X207310110Y-58295000D01*
X207310162Y-58234833D01*
X207168117Y-57891057D01*
X206905327Y-57627808D01*
X206561799Y-57485162D01*
X206189833Y-57484838D01*
X205846057Y-57626883D01*
X205812882Y-57660000D01*
X202879802Y-57660000D01*
X202467401Y-57247599D01*
X202220839Y-57082852D01*
X201930000Y-57025000D01*
X200587463Y-57025000D01*
X200555327Y-56992808D01*
X200211799Y-56850162D01*
X199839833Y-56849838D01*
X199496057Y-56991883D01*
X199232808Y-57254673D01*
X199090162Y-57598201D01*
X199089838Y-57970167D01*
X199231883Y-58313943D01*
X199494673Y-58577192D01*
X199838201Y-58719838D01*
X199920288Y-58719910D01*
X199885320Y-58754878D01*
X199839833Y-58754838D01*
X199496057Y-58896883D01*
X199232808Y-59159673D01*
X199090162Y-59503201D01*
X199089838Y-59875167D01*
X199224056Y-60200000D01*
X178362463Y-60200000D01*
X178330327Y-60167808D01*
X177986799Y-60025162D01*
X177614833Y-60024838D01*
X177290000Y-60159056D01*
X177290000Y-59617463D01*
X177322192Y-59585327D01*
X177464838Y-59241799D01*
X177465162Y-58869833D01*
X177323117Y-58526057D01*
X177060327Y-58262808D01*
X176716799Y-58120162D01*
X176344833Y-58119838D01*
X176001057Y-58261883D01*
X175737808Y-58524673D01*
X175595162Y-58868201D01*
X175594838Y-59240167D01*
X175736883Y-59583943D01*
X175770000Y-59617118D01*
X175770000Y-60960000D01*
X175827852Y-61250839D01*
X175992599Y-61497401D01*
X176627599Y-62132401D01*
X176744612Y-62210586D01*
X176627599Y-62327599D01*
X176462852Y-62574161D01*
X176405000Y-62865000D01*
X176405000Y-66112537D01*
X176372808Y-66144673D01*
X176230162Y-66488201D01*
X176229838Y-66860167D01*
X176371883Y-67203943D01*
X176634673Y-67467192D01*
X176978201Y-67609838D01*
X177350167Y-67610162D01*
X177693943Y-67468117D01*
X177957192Y-67205327D01*
X178099838Y-66861799D01*
X178100162Y-66489833D01*
X177958117Y-66146057D01*
X177925000Y-66112882D01*
X177925000Y-63179802D01*
X178114802Y-62990000D01*
X199224367Y-62990000D01*
X199090162Y-63313201D01*
X199089838Y-63685167D01*
X199231883Y-64028943D01*
X199494673Y-64292192D01*
X199838201Y-64434838D01*
X200210167Y-64435162D01*
X200553943Y-64293117D01*
X200817192Y-64030327D01*
X200959838Y-63686799D01*
X200959879Y-63639923D01*
X201806341Y-62793461D01*
X202001369Y-62988829D01*
X200520320Y-64469878D01*
X200474833Y-64469838D01*
X200131057Y-64611883D01*
X199867808Y-64874673D01*
X199725162Y-65218201D01*
X199724838Y-65590167D01*
X199866883Y-65933943D01*
X200129673Y-66197192D01*
X200473201Y-66339838D01*
X200845167Y-66340162D01*
X201188943Y-66198117D01*
X201452192Y-65935327D01*
X201594838Y-65591799D01*
X201594879Y-65544923D01*
X203076341Y-64063461D01*
X203304673Y-64292192D01*
X203568554Y-64401765D01*
X203676883Y-64663943D01*
X203939673Y-64927192D01*
X204283201Y-65069838D01*
X204655167Y-65070162D01*
X204998943Y-64928117D01*
X205032118Y-64895000D01*
X207979890Y-64895000D01*
X207979838Y-64955167D01*
X208121883Y-65298943D01*
X208384673Y-65562192D01*
X208728201Y-65704838D01*
X209100167Y-65705162D01*
X209403083Y-65580000D01*
X211789847Y-65580000D01*
X211789838Y-65590167D01*
X211931883Y-65933943D01*
X212194673Y-66197192D01*
X212538201Y-66339838D01*
X212910167Y-66340162D01*
X213213083Y-66215000D01*
X215599847Y-66215000D01*
X215599838Y-66225167D01*
X215741883Y-66568943D01*
X216004673Y-66832192D01*
X216348201Y-66974838D01*
X216720167Y-66975162D01*
X217023083Y-66850000D01*
X219409847Y-66850000D01*
X219409838Y-66860167D01*
X219551883Y-67203943D01*
X219814673Y-67467192D01*
X220158201Y-67609838D01*
X220530167Y-67610162D01*
X220833083Y-67485000D01*
X223219847Y-67485000D01*
X223219838Y-67495167D01*
X223361883Y-67838943D01*
X223624673Y-68102192D01*
X223968201Y-68244838D01*
X224340167Y-68245162D01*
X224643083Y-68120000D01*
X227029847Y-68120000D01*
X227029838Y-68130167D01*
X227171883Y-68473943D01*
X227434673Y-68737192D01*
X227778201Y-68879838D01*
X228150167Y-68880162D01*
X228453083Y-68755000D01*
X230839847Y-68755000D01*
X230839838Y-68765167D01*
X230981883Y-69108943D01*
X231244673Y-69372192D01*
X231588201Y-69514838D01*
X231960167Y-69515162D01*
X232263083Y-69390000D01*
X234649847Y-69390000D01*
X234649838Y-69400167D01*
X234791883Y-69743943D01*
X235054673Y-70007192D01*
X235398201Y-70149838D01*
X235770167Y-70150162D01*
X236073083Y-70025000D01*
X238459847Y-70025000D01*
X238459838Y-70035167D01*
X238601883Y-70378943D01*
X238864673Y-70642192D01*
X239208201Y-70784838D01*
X239580167Y-70785162D01*
X239883083Y-70660000D01*
X242269847Y-70660000D01*
X242269838Y-70670167D01*
X242411883Y-71013943D01*
X242674673Y-71277192D01*
X243018201Y-71419838D01*
X243390167Y-71420162D01*
X243693083Y-71295000D01*
X245409488Y-71295000D01*
X245551987Y-71437500D01*
X245409488Y-71580000D01*
X243057441Y-71580000D01*
X242756799Y-71455162D01*
X242384833Y-71454838D01*
X242081917Y-71580000D01*
X223372441Y-71580000D01*
X223071799Y-71455162D01*
X222699833Y-71454838D01*
X222396917Y-71580000D01*
X201481394Y-71580000D01*
X201594838Y-71306799D01*
X201595162Y-70934833D01*
X201453117Y-70591057D01*
X201190327Y-70327808D01*
X200846799Y-70185162D01*
X200474833Y-70184838D01*
X200131057Y-70326883D01*
X200097882Y-70360000D01*
X141532463Y-70360000D01*
X141500327Y-70327808D01*
X141156799Y-70185162D01*
X140784833Y-70184838D01*
X140441057Y-70326883D01*
X140177808Y-70589673D01*
X140053378Y-70889332D01*
X139886799Y-70820162D01*
X139514833Y-70819838D01*
X139171057Y-70961883D01*
X138907808Y-71224673D01*
X138765162Y-71568201D01*
X138765152Y-71580000D01*
X136076394Y-71580000D01*
X136189838Y-71306799D01*
X136190162Y-70934833D01*
X136048117Y-70591057D01*
X135785327Y-70327808D01*
X135441799Y-70185162D01*
X135394923Y-70185121D01*
X135157401Y-69947599D01*
X134910839Y-69782852D01*
X134620000Y-69725000D01*
X127949802Y-69725000D01*
X126030122Y-67805320D01*
X126030162Y-67759833D01*
X125888117Y-67416057D01*
X125625327Y-67152808D01*
X125281799Y-67010162D01*
X124909833Y-67009838D01*
X124566057Y-67151883D01*
X124460046Y-67257710D01*
X124355327Y-67152808D01*
X124011799Y-67010162D01*
X123639833Y-67009838D01*
X123296057Y-67151883D01*
X123032808Y-67414673D01*
X122890162Y-67758201D01*
X122889838Y-68130167D01*
X123031883Y-68473943D01*
X123294673Y-68737192D01*
X123638201Y-68879838D01*
X123685077Y-68879879D01*
X126385198Y-71580000D01*
X114787441Y-71580000D01*
X114486799Y-71455162D01*
X114114833Y-71454838D01*
X113811917Y-71580000D01*
X95550153Y-71580000D01*
X95550162Y-71569833D01*
X95408117Y-71226057D01*
X95375000Y-71192882D01*
X95375000Y-68507463D01*
X95407192Y-68475327D01*
X95549838Y-68131799D01*
X95550162Y-67759833D01*
X95408117Y-67416057D01*
X95145327Y-67152808D01*
X94801799Y-67010162D01*
X94429833Y-67009838D01*
X94086057Y-67151883D01*
X93822808Y-67414673D01*
X93680162Y-67758201D01*
X93679838Y-68130167D01*
X93821883Y-68473943D01*
X93855000Y-68507118D01*
X93855000Y-71192537D01*
X93822808Y-71224673D01*
X93680162Y-71568201D01*
X93680152Y-71580000D01*
X86360000Y-71580000D01*
X86050027Y-71641657D01*
X85787244Y-71817243D01*
X83677244Y-73927244D01*
X83501658Y-74190026D01*
X83440000Y-74500000D01*
X83440000Y-83795112D01*
X83310000Y-83848827D01*
X83310000Y-81280000D01*
X83252148Y-80989161D01*
X83087401Y-80742599D01*
X68628989Y-66284187D01*
X87464752Y-66284187D01*
X87682757Y-66811800D01*
X88086077Y-67215824D01*
X88613309Y-67434750D01*
X89184187Y-67435248D01*
X89711800Y-67217243D01*
X90115824Y-66813923D01*
X90334750Y-66286691D01*
X90335248Y-65715813D01*
X90117243Y-65188200D01*
X89853317Y-64923813D01*
X90059699Y-64838327D01*
X90238327Y-64659698D01*
X90335000Y-64426309D01*
X90335000Y-63785750D01*
X90176250Y-63627000D01*
X89027000Y-63627000D01*
X89027000Y-63647000D01*
X88773000Y-63647000D01*
X88773000Y-63627000D01*
X87623750Y-63627000D01*
X87465000Y-63785750D01*
X87465000Y-64426309D01*
X87561673Y-64659698D01*
X87740301Y-64838327D01*
X87946835Y-64923876D01*
X87684176Y-65186077D01*
X87465250Y-65713309D01*
X87464752Y-66284187D01*
X68628989Y-66284187D01*
X68245122Y-65900320D01*
X68245162Y-65854833D01*
X68103117Y-65511057D01*
X67840327Y-65247808D01*
X67496799Y-65105162D01*
X67124833Y-65104838D01*
X66781057Y-65246883D01*
X66517808Y-65509673D01*
X66375162Y-65853201D01*
X66374838Y-66225167D01*
X66480310Y-66480430D01*
X66226799Y-66375162D01*
X65854833Y-66374838D01*
X65511057Y-66516883D01*
X65247808Y-66779673D01*
X65105162Y-67123201D01*
X65104838Y-67495167D01*
X65210310Y-67750430D01*
X64956799Y-67645162D01*
X64584833Y-67644838D01*
X64241057Y-67786883D01*
X63977808Y-68049673D01*
X63835162Y-68393201D01*
X63834838Y-68765167D01*
X63940310Y-69020430D01*
X63686799Y-68915162D01*
X63314833Y-68914838D01*
X62971057Y-69056883D01*
X62707808Y-69319673D01*
X62565162Y-69663201D01*
X62564838Y-70035167D01*
X62634432Y-70203597D01*
X62336057Y-70326883D01*
X62072808Y-70589673D01*
X61930162Y-70933201D01*
X61929838Y-71305167D01*
X62071883Y-71648943D01*
X62334673Y-71912192D01*
X62678201Y-72054838D01*
X62725077Y-72054879D01*
X63570198Y-72900000D01*
X60887463Y-72900000D01*
X60855327Y-72867808D01*
X60511799Y-72725162D01*
X60139833Y-72724838D01*
X59796057Y-72866883D01*
X59532808Y-73129673D01*
X59390162Y-73473201D01*
X59389838Y-73845167D01*
X59495310Y-74100430D01*
X59241799Y-73995162D01*
X58869833Y-73994838D01*
X58526057Y-74136883D01*
X58262808Y-74399673D01*
X58120162Y-74743201D01*
X58119838Y-75115167D01*
X58254056Y-75440000D01*
X57712463Y-75440000D01*
X57680327Y-75407808D01*
X57336799Y-75265162D01*
X56964833Y-75264838D01*
X56621057Y-75406883D01*
X56357808Y-75669673D01*
X56215162Y-76013201D01*
X56214838Y-76385167D01*
X56356883Y-76728943D01*
X56619673Y-76992192D01*
X56963201Y-77134838D01*
X57335167Y-77135162D01*
X57678943Y-76993117D01*
X57712118Y-76960000D01*
X59762537Y-76960000D01*
X59794673Y-76992192D01*
X60138201Y-77134838D01*
X60510167Y-77135162D01*
X60853943Y-76993117D01*
X61117192Y-76730327D01*
X61259838Y-76386799D01*
X61260162Y-76014833D01*
X61125944Y-75690000D01*
X61667537Y-75690000D01*
X61699673Y-75722192D01*
X62043201Y-75864838D01*
X62415167Y-75865162D01*
X62758943Y-75723117D01*
X63022192Y-75460327D01*
X63164838Y-75116799D01*
X63165162Y-74744833D01*
X63030944Y-74420000D01*
X63572537Y-74420000D01*
X63604673Y-74452192D01*
X63948201Y-74594838D01*
X64320167Y-74595162D01*
X64663943Y-74453117D01*
X64769954Y-74347290D01*
X64874673Y-74452192D01*
X65218201Y-74594838D01*
X65590167Y-74595162D01*
X65933943Y-74453117D01*
X66197192Y-74190327D01*
X66339838Y-73846799D01*
X66339910Y-73764712D01*
X67185000Y-74609802D01*
X67185000Y-76835000D01*
X67242852Y-77125839D01*
X67407599Y-77372401D01*
X79885000Y-89849802D01*
X79885000Y-108020198D01*
X69533917Y-97669115D01*
X69720900Y-97746757D01*
X70276661Y-97747242D01*
X70790303Y-97535010D01*
X71183629Y-97142370D01*
X71396757Y-96629100D01*
X71397242Y-96073339D01*
X71185010Y-95559697D01*
X70792370Y-95166371D01*
X70391350Y-94999853D01*
X70790303Y-94835010D01*
X71183629Y-94442370D01*
X71396757Y-93929100D01*
X71397242Y-93373339D01*
X71185010Y-92859697D01*
X70792370Y-92466371D01*
X70279100Y-92253243D01*
X69723339Y-92252758D01*
X69209697Y-92464990D01*
X68816371Y-92857630D01*
X68603243Y-93370900D01*
X68602758Y-93926661D01*
X68814990Y-94440303D01*
X69207630Y-94833629D01*
X69608650Y-95000147D01*
X69209697Y-95164990D01*
X68816371Y-95557630D01*
X68603243Y-96070900D01*
X68602758Y-96626661D01*
X68681124Y-96816322D01*
X56514871Y-84650069D01*
X63149830Y-84650069D01*
X63250000Y-84892500D01*
X63250000Y-88462799D01*
X63150172Y-88703212D01*
X63149830Y-89095069D01*
X63299471Y-89457229D01*
X63576314Y-89734555D01*
X63938212Y-89884828D01*
X64330069Y-89885170D01*
X64692229Y-89735529D01*
X64969555Y-89458686D01*
X65119828Y-89096788D01*
X65120170Y-88704931D01*
X65020000Y-88462500D01*
X65020000Y-84892201D01*
X65119828Y-84651788D01*
X65120170Y-84259931D01*
X64982467Y-83926661D01*
X68602758Y-83926661D01*
X68814990Y-84440303D01*
X69207630Y-84833629D01*
X69608650Y-85000147D01*
X69209697Y-85164990D01*
X68816371Y-85557630D01*
X68603243Y-86070900D01*
X68602758Y-86626661D01*
X68814990Y-87140303D01*
X69207630Y-87533629D01*
X69720900Y-87746757D01*
X70276661Y-87747242D01*
X70790303Y-87535010D01*
X71183629Y-87142370D01*
X71396757Y-86629100D01*
X71397242Y-86073339D01*
X71185010Y-85559697D01*
X70792370Y-85166371D01*
X70391350Y-84999853D01*
X70790303Y-84835010D01*
X71183629Y-84442370D01*
X71396757Y-83929100D01*
X71397242Y-83373339D01*
X71185010Y-82859697D01*
X70792370Y-82466371D01*
X70279100Y-82253243D01*
X69723339Y-82252758D01*
X69209697Y-82464990D01*
X68816371Y-82857630D01*
X68603243Y-83370900D01*
X68602758Y-83926661D01*
X64982467Y-83926661D01*
X64970529Y-83897771D01*
X64693686Y-83620445D01*
X64331788Y-83470172D01*
X63939931Y-83469830D01*
X63577771Y-83619471D01*
X63300445Y-83896314D01*
X63150172Y-84258212D01*
X63149830Y-84650069D01*
X56514871Y-84650069D01*
X53465000Y-81600198D01*
X53465000Y-67237463D01*
X53497192Y-67205327D01*
X53639838Y-66861799D01*
X53640162Y-66489833D01*
X53498117Y-66146057D01*
X53235327Y-65882808D01*
X52891799Y-65740162D01*
X52519833Y-65739838D01*
X52176057Y-65881883D01*
X51912808Y-66144673D01*
X51770162Y-66488201D01*
X51769838Y-66860167D01*
X25710000Y-66860167D01*
X25710000Y-63050167D01*
X80344838Y-63050167D01*
X80486883Y-63393943D01*
X80749673Y-63657192D01*
X81093201Y-63799838D01*
X81465167Y-63800162D01*
X81808943Y-63658117D01*
X82072192Y-63395327D01*
X82214838Y-63051799D01*
X82214879Y-63004923D01*
X82646111Y-62573691D01*
X87465000Y-62573691D01*
X87465000Y-63214250D01*
X87623750Y-63373000D01*
X88773000Y-63373000D01*
X88773000Y-62223750D01*
X89027000Y-62223750D01*
X89027000Y-63373000D01*
X90176250Y-63373000D01*
X90335000Y-63214250D01*
X90335000Y-62573691D01*
X90238327Y-62340302D01*
X90059699Y-62161673D01*
X89826310Y-62065000D01*
X89185750Y-62065000D01*
X89027000Y-62223750D01*
X88773000Y-62223750D01*
X88614250Y-62065000D01*
X87973690Y-62065000D01*
X87740301Y-62161673D01*
X87561673Y-62340302D01*
X87465000Y-62573691D01*
X82646111Y-62573691D01*
X83324680Y-61895122D01*
X83370167Y-61895162D01*
X83713943Y-61753117D01*
X83977192Y-61490327D01*
X84119838Y-61146799D01*
X84120162Y-60774833D01*
X83978117Y-60431057D01*
X83715327Y-60167808D01*
X83371799Y-60025162D01*
X82999833Y-60024838D01*
X82656057Y-60166883D01*
X82392808Y-60429673D01*
X82250162Y-60773201D01*
X82250121Y-60820077D01*
X81140320Y-61929878D01*
X81094833Y-61929838D01*
X80751057Y-62071883D01*
X80487808Y-62334673D01*
X80345162Y-62678201D01*
X80344838Y-63050167D01*
X25710000Y-63050167D01*
X25710000Y-60571344D01*
X32114501Y-60571344D01*
X32552790Y-61632086D01*
X33363645Y-62444357D01*
X34423620Y-62884498D01*
X35571344Y-62885499D01*
X36632086Y-62447210D01*
X37444357Y-61636355D01*
X37884498Y-60576380D01*
X37885499Y-59428656D01*
X37545241Y-58605167D01*
X96854838Y-58605167D01*
X96996883Y-58948943D01*
X97259673Y-59212192D01*
X97603201Y-59354838D01*
X97975167Y-59355162D01*
X98318943Y-59213117D01*
X98352118Y-59180000D01*
X109540198Y-59180000D01*
X111635000Y-61274802D01*
X111635000Y-62058407D01*
X111207219Y-62344241D01*
X111125000Y-62467290D01*
X111042781Y-62344241D01*
X110512514Y-61989928D01*
X109887022Y-61865510D01*
X109822978Y-61865510D01*
X109197486Y-61989928D01*
X108667219Y-62344241D01*
X108585000Y-62467290D01*
X108502781Y-62344241D01*
X107972514Y-61989928D01*
X107347022Y-61865510D01*
X107282978Y-61865510D01*
X106657486Y-61989928D01*
X106337923Y-62203453D01*
X106238580Y-62049069D01*
X106026380Y-61904079D01*
X105774490Y-61853070D01*
X103775510Y-61853070D01*
X103540193Y-61897348D01*
X103324069Y-62036420D01*
X103179079Y-62248620D01*
X103128070Y-62500510D01*
X103128070Y-64499490D01*
X103172348Y-64734807D01*
X103311420Y-64950931D01*
X103523620Y-65095921D01*
X103775510Y-65146930D01*
X105774490Y-65146930D01*
X106009807Y-65102652D01*
X106225931Y-64963580D01*
X106339390Y-64797527D01*
X106657486Y-65010072D01*
X107282978Y-65134490D01*
X107347022Y-65134490D01*
X107972514Y-65010072D01*
X108502781Y-64655759D01*
X108585000Y-64532710D01*
X108667219Y-64655759D01*
X109197486Y-65010072D01*
X109822978Y-65134490D01*
X109887022Y-65134490D01*
X110512514Y-65010072D01*
X111042781Y-64655759D01*
X111125000Y-64532710D01*
X111207219Y-64655759D01*
X111737486Y-65010072D01*
X112362978Y-65134490D01*
X112427022Y-65134490D01*
X113052514Y-65010072D01*
X113582781Y-64655759D01*
X113937094Y-64125492D01*
X114061512Y-63500000D01*
X113937094Y-62874508D01*
X113582781Y-62344241D01*
X113155000Y-62058407D01*
X113155000Y-60960000D01*
X113097148Y-60669161D01*
X113097148Y-60669160D01*
X112932401Y-60422599D01*
X111749969Y-59240167D01*
X123524838Y-59240167D01*
X123666883Y-59583943D01*
X123929673Y-59847192D01*
X124273201Y-59989838D01*
X124645167Y-59990162D01*
X124988943Y-59848117D01*
X125022118Y-59815000D01*
X155647537Y-59815000D01*
X155679673Y-59847192D01*
X156023201Y-59989838D01*
X156395167Y-59990162D01*
X156738943Y-59848117D01*
X157002192Y-59585327D01*
X157144838Y-59241799D01*
X157145162Y-58869833D01*
X157003117Y-58526057D01*
X156740327Y-58262808D01*
X156396799Y-58120162D01*
X156024833Y-58119838D01*
X155681057Y-58261883D01*
X155647882Y-58295000D01*
X125022463Y-58295000D01*
X124990327Y-58262808D01*
X124646799Y-58120162D01*
X124274833Y-58119838D01*
X123931057Y-58261883D01*
X123667808Y-58524673D01*
X123525162Y-58868201D01*
X123524838Y-59240167D01*
X111749969Y-59240167D01*
X110392401Y-57882599D01*
X110145839Y-57717852D01*
X109855000Y-57660000D01*
X98352463Y-57660000D01*
X98320327Y-57627808D01*
X97976799Y-57485162D01*
X97604833Y-57484838D01*
X97261057Y-57626883D01*
X96997808Y-57889673D01*
X96855162Y-58233201D01*
X96854838Y-58605167D01*
X37545241Y-58605167D01*
X37447210Y-58367914D01*
X36636355Y-57555643D01*
X35576380Y-57115502D01*
X34428656Y-57114501D01*
X33367914Y-57552790D01*
X32555643Y-58363645D01*
X32115502Y-59423620D01*
X32114501Y-60571344D01*
X25710000Y-60571344D01*
X25710000Y-60069931D01*
X26430010Y-56450195D01*
X26501235Y-56343599D01*
X72514699Y-56343599D01*
X72778281Y-56981515D01*
X73265918Y-57470004D01*
X73903373Y-57734699D01*
X74593599Y-57735301D01*
X75231515Y-57471719D01*
X75720004Y-56984082D01*
X75984699Y-56346627D01*
X75985301Y-55656401D01*
X75721719Y-55018485D01*
X75688457Y-54985165D01*
X75794089Y-54985257D01*
X76340086Y-54759656D01*
X76758188Y-54342283D01*
X76984742Y-53796681D01*
X76984744Y-53794089D01*
X78514743Y-53794089D01*
X78740344Y-54340086D01*
X79157717Y-54758188D01*
X79703319Y-54984742D01*
X79811132Y-54984836D01*
X79779996Y-55015918D01*
X79515301Y-55653373D01*
X79514699Y-56343599D01*
X79778281Y-56981515D01*
X80265918Y-57470004D01*
X80903373Y-57734699D01*
X81593599Y-57735301D01*
X82231515Y-57471719D01*
X82720004Y-56984082D01*
X82984699Y-56346627D01*
X82985301Y-55656401D01*
X82721719Y-55018485D01*
X82234082Y-54529996D01*
X81596627Y-54265301D01*
X81290265Y-54265034D01*
X81292355Y-54260000D01*
X213200000Y-54260000D01*
X213278182Y-54244448D01*
X212978485Y-54368281D01*
X212489996Y-54855918D01*
X212225301Y-55493373D01*
X212224699Y-56183599D01*
X212488281Y-56821515D01*
X212975918Y-57310004D01*
X213613373Y-57574699D01*
X214303599Y-57575301D01*
X214941515Y-57311719D01*
X215430004Y-56824082D01*
X215694699Y-56186627D01*
X215695301Y-55496401D01*
X215431719Y-54858485D01*
X215398457Y-54825165D01*
X215504089Y-54825257D01*
X216050086Y-54599656D01*
X216468188Y-54182283D01*
X216694742Y-53636681D01*
X216695257Y-53045911D01*
X216606045Y-52830000D01*
X218255198Y-52830000D01*
X218296631Y-52871433D01*
X218225258Y-53043319D01*
X218224743Y-53634089D01*
X218450344Y-54180086D01*
X218867717Y-54598188D01*
X219413319Y-54824742D01*
X219521132Y-54824836D01*
X219489996Y-54855918D01*
X219225301Y-55493373D01*
X219224699Y-56183599D01*
X219488281Y-56821515D01*
X219975918Y-57310004D01*
X220613373Y-57574699D01*
X221303599Y-57575301D01*
X221941515Y-57311719D01*
X222430004Y-56824082D01*
X222694699Y-56186627D01*
X222695301Y-55496401D01*
X222431719Y-54858485D01*
X221944082Y-54369996D01*
X221306627Y-54105301D01*
X221000265Y-54105034D01*
X221194742Y-53636681D01*
X221195257Y-53045911D01*
X220969656Y-52499914D01*
X220552283Y-52081812D01*
X220006681Y-51855258D01*
X219429557Y-51854755D01*
X219107401Y-51532599D01*
X218860839Y-51367852D01*
X218570000Y-51310000D01*
X214630000Y-51310000D01*
X214339160Y-51367852D01*
X214092599Y-51532599D01*
X212885198Y-52740000D01*
X81292747Y-52740000D01*
X81259656Y-52659914D01*
X80842283Y-52241812D01*
X80296681Y-52015258D01*
X79705911Y-52014743D01*
X79159914Y-52240344D01*
X78741812Y-52657717D01*
X78515258Y-53203319D01*
X78514743Y-53794089D01*
X76984744Y-53794089D01*
X76985257Y-53205911D01*
X76759656Y-52659914D01*
X76342283Y-52241812D01*
X75796681Y-52015258D01*
X75205911Y-52014743D01*
X74659914Y-52240344D01*
X74241812Y-52657717D01*
X74015258Y-53203319D01*
X74014743Y-53794089D01*
X74209304Y-54264963D01*
X73906401Y-54264699D01*
X73268485Y-54528281D01*
X72779996Y-55015918D01*
X72515301Y-55653373D01*
X72514699Y-56343599D01*
X26501235Y-56343599D01*
X28440814Y-53440813D01*
X31450193Y-51430011D01*
X35069931Y-50710000D01*
X264930069Y-50710000D01*
X268549805Y-51430010D01*
M02*
