G04 #@! TF.FileFunction,Paste,Bot*
%FSLAX46Y46*%
G04 Gerber Fmt 4.6, Leading zero omitted, Abs format (unit mm)*
G04 Created by KiCad (PCBNEW 4.0.5) date 04/10/17 22:24:21*
%MOMM*%
%LPD*%
G01*
G04 APERTURE LIST*
%ADD10C,0.100000*%
%ADD11R,2.000000X0.600000*%
%ADD12R,1.500000X0.600000*%
%ADD13R,3.800000X2.000000*%
%ADD14R,1.500000X2.000000*%
%ADD15R,0.600000X1.500000*%
%ADD16R,0.600000X2.000000*%
%ADD17R,0.600000X1.550000*%
%ADD18R,1.400000X0.300000*%
%ADD19R,2.000000X1.700000*%
%ADD20R,1.700000X2.000000*%
%ADD21R,1.500000X1.300000*%
%ADD22R,1.900000X0.800000*%
%ADD23R,0.800000X1.900000*%
%ADD24R,3.500000X2.000000*%
%ADD25R,7.000000X7.000000*%
%ADD26R,0.900000X1.200000*%
%ADD27R,1.200000X0.900000*%
%ADD28R,3.200000X1.500000*%
%ADD29R,1.250000X1.500000*%
%ADD30R,1.500000X1.250000*%
%ADD31R,1.500000X3.200000*%
%ADD32R,1.300000X1.500000*%
%ADD33R,1.000000X3.000000*%
G04 APERTURE END LIST*
D10*
D11*
X54865000Y-63500000D03*
X54865000Y-64770000D03*
X54865000Y-66040000D03*
X54865000Y-67310000D03*
X54865000Y-68580000D03*
X54865000Y-69850000D03*
X54865000Y-71120000D03*
X54865000Y-72390000D03*
X54865000Y-73660000D03*
X54865000Y-74930000D03*
X54865000Y-76200000D03*
X54865000Y-77470000D03*
X54865000Y-78740000D03*
X54865000Y-80010000D03*
X45465000Y-80010000D03*
X45465000Y-78740000D03*
X45465000Y-77470000D03*
X45465000Y-76200000D03*
X45465000Y-74930000D03*
X45465000Y-73660000D03*
X45465000Y-72390000D03*
X45465000Y-71120000D03*
X45465000Y-69850000D03*
X45465000Y-68580000D03*
X45465000Y-67310000D03*
X45465000Y-66040000D03*
X45465000Y-64770000D03*
X45465000Y-63500000D03*
D12*
X71753200Y-144043400D03*
X71753200Y-142773400D03*
X71753200Y-141503400D03*
X71753200Y-140233400D03*
X71753200Y-138963400D03*
X71753200Y-137693400D03*
X71753200Y-136423400D03*
X71753200Y-135153400D03*
X81053200Y-135153400D03*
X81053200Y-136423400D03*
X81053200Y-137693400D03*
X81053200Y-138963400D03*
X81053200Y-140233400D03*
X81053200Y-141503400D03*
X81053200Y-142773400D03*
X81053200Y-144043400D03*
D13*
X141224000Y-147422000D03*
D14*
X141224000Y-141122000D03*
X143524000Y-141122000D03*
X138924000Y-141122000D03*
D15*
X135890000Y-62070000D03*
X137160000Y-62070000D03*
X138430000Y-62070000D03*
X139700000Y-62070000D03*
X140970000Y-62070000D03*
X142240000Y-62070000D03*
X143510000Y-62070000D03*
X144780000Y-62070000D03*
X144780000Y-67470000D03*
X143510000Y-67470000D03*
X142240000Y-67470000D03*
X140970000Y-67470000D03*
X139700000Y-67470000D03*
X138430000Y-67470000D03*
X137160000Y-67470000D03*
X135890000Y-67470000D03*
X89535000Y-110015000D03*
X88265000Y-110015000D03*
X86995000Y-110015000D03*
X85725000Y-110015000D03*
X84455000Y-110015000D03*
X83185000Y-110015000D03*
X81915000Y-110015000D03*
X80645000Y-110015000D03*
X80645000Y-104615000D03*
X81915000Y-104615000D03*
X83185000Y-104615000D03*
X84455000Y-104615000D03*
X85725000Y-104615000D03*
X86995000Y-104615000D03*
X88265000Y-104615000D03*
X89535000Y-104615000D03*
X226060000Y-137000000D03*
X227330000Y-137000000D03*
X228600000Y-137000000D03*
X229870000Y-137000000D03*
X231140000Y-137000000D03*
X232410000Y-137000000D03*
X233680000Y-137000000D03*
X234950000Y-137000000D03*
X234950000Y-142400000D03*
X233680000Y-142400000D03*
X232410000Y-142400000D03*
X231140000Y-142400000D03*
X229870000Y-142400000D03*
X228600000Y-142400000D03*
X227330000Y-142400000D03*
X226060000Y-142400000D03*
D12*
X191295000Y-57785000D03*
X191295000Y-59055000D03*
X191295000Y-60325000D03*
X191295000Y-61595000D03*
X191295000Y-62865000D03*
X191295000Y-64135000D03*
X191295000Y-65405000D03*
X191295000Y-66675000D03*
X185895000Y-66675000D03*
X185895000Y-65405000D03*
X185895000Y-64135000D03*
X185895000Y-62865000D03*
X185895000Y-61595000D03*
X185895000Y-60325000D03*
X185895000Y-59055000D03*
X185895000Y-57785000D03*
D16*
X109220000Y-105155000D03*
X110490000Y-105155000D03*
X111760000Y-105155000D03*
X113030000Y-105155000D03*
X114300000Y-105155000D03*
X115570000Y-105155000D03*
X116840000Y-105155000D03*
X118110000Y-105155000D03*
X119380000Y-105155000D03*
X119380000Y-114555000D03*
X118110000Y-114555000D03*
X116840000Y-114555000D03*
X115570000Y-114555000D03*
X114300000Y-114555000D03*
X113030000Y-114555000D03*
X111760000Y-114555000D03*
X110490000Y-114555000D03*
X109220000Y-114555000D03*
X120015000Y-56260000D03*
X121285000Y-56260000D03*
X122555000Y-56260000D03*
X123825000Y-56260000D03*
X125095000Y-56260000D03*
X126365000Y-56260000D03*
X127635000Y-56260000D03*
X128905000Y-56260000D03*
X130175000Y-56260000D03*
X130175000Y-65660000D03*
X128905000Y-65660000D03*
X127635000Y-65660000D03*
X126365000Y-65660000D03*
X125095000Y-65660000D03*
X123825000Y-65660000D03*
X122555000Y-65660000D03*
X121285000Y-65660000D03*
X120015000Y-65660000D03*
D17*
X36195000Y-102710000D03*
X37465000Y-102710000D03*
X38735000Y-102710000D03*
X40005000Y-102710000D03*
X40005000Y-108110000D03*
X38735000Y-108110000D03*
X37465000Y-108110000D03*
X36195000Y-108110000D03*
X50165000Y-134780000D03*
X48895000Y-134780000D03*
X47625000Y-134780000D03*
X46355000Y-134780000D03*
X46355000Y-129380000D03*
X47625000Y-129380000D03*
X48895000Y-129380000D03*
X50165000Y-129380000D03*
D18*
X74635000Y-63230000D03*
X74635000Y-62730000D03*
X74635000Y-62230000D03*
X74635000Y-61730000D03*
X74635000Y-61230000D03*
X79035000Y-61230000D03*
X79035000Y-61730000D03*
X79035000Y-62230000D03*
X79035000Y-62730000D03*
X79035000Y-63230000D03*
D15*
X227965000Y-126570000D03*
X226695000Y-126570000D03*
X225425000Y-126570000D03*
X224155000Y-126570000D03*
X222885000Y-126570000D03*
X221615000Y-126570000D03*
X220345000Y-126570000D03*
X219075000Y-126570000D03*
X219075000Y-117270000D03*
X220345000Y-117270000D03*
X221615000Y-117270000D03*
X222885000Y-117270000D03*
X224155000Y-117270000D03*
X225425000Y-117270000D03*
X226695000Y-117270000D03*
X227965000Y-117270000D03*
D19*
X233775000Y-90805000D03*
X229775000Y-90805000D03*
X215170000Y-133985000D03*
X219170000Y-133985000D03*
X232505000Y-93980000D03*
X228505000Y-93980000D03*
D20*
X238125000Y-101060000D03*
X238125000Y-97060000D03*
D19*
X205010000Y-133985000D03*
X209010000Y-133985000D03*
X213455000Y-90805000D03*
X209455000Y-90805000D03*
X212185000Y-93980000D03*
X208185000Y-93980000D03*
D20*
X217805000Y-101060000D03*
X217805000Y-97060000D03*
D19*
X195485000Y-133985000D03*
X199485000Y-133985000D03*
D20*
X198755000Y-93885000D03*
X198755000Y-97885000D03*
X203200000Y-80740000D03*
X203200000Y-76740000D03*
X205105000Y-92805000D03*
X205105000Y-88805000D03*
D19*
X185325000Y-133985000D03*
X189325000Y-133985000D03*
D20*
X168910000Y-93885000D03*
X168910000Y-97885000D03*
X173355000Y-81375000D03*
X173355000Y-77375000D03*
X175260000Y-92805000D03*
X175260000Y-88805000D03*
D19*
X175165000Y-133985000D03*
X179165000Y-133985000D03*
X165640000Y-133985000D03*
X169640000Y-133985000D03*
D20*
X133350000Y-80740000D03*
X133350000Y-76740000D03*
X135255000Y-92805000D03*
X135255000Y-88805000D03*
X99060000Y-93885000D03*
X99060000Y-97885000D03*
X67310000Y-106140000D03*
X67310000Y-102140000D03*
X67310000Y-85820000D03*
X67310000Y-81820000D03*
D19*
X155480000Y-133985000D03*
X159480000Y-133985000D03*
D20*
X103505000Y-80740000D03*
X103505000Y-76740000D03*
X105410000Y-92805000D03*
X105410000Y-88805000D03*
X67310000Y-95980000D03*
X67310000Y-91980000D03*
X64135000Y-77375000D03*
X64135000Y-81375000D03*
D19*
X180245000Y-118745000D03*
X184245000Y-118745000D03*
X135795000Y-99060000D03*
X139795000Y-99060000D03*
X138335000Y-78740000D03*
X142335000Y-78740000D03*
X210090000Y-118745000D03*
X214090000Y-118745000D03*
X58515000Y-111760000D03*
X54515000Y-111760000D03*
D20*
X51435000Y-112300000D03*
X51435000Y-116300000D03*
D21*
X36750000Y-111125000D03*
X39450000Y-111125000D03*
X46910000Y-125730000D03*
X49610000Y-125730000D03*
X46910000Y-123825000D03*
X49610000Y-123825000D03*
X46910000Y-121920000D03*
X49610000Y-121920000D03*
D19*
X43085000Y-141605000D03*
X47085000Y-141605000D03*
X43085000Y-144145000D03*
X47085000Y-144145000D03*
D21*
X36115000Y-75565000D03*
X38815000Y-75565000D03*
X36115000Y-78105000D03*
X38815000Y-78105000D03*
D22*
X211860000Y-139380000D03*
X211860000Y-137480000D03*
X214860000Y-138430000D03*
D23*
X221935000Y-64540000D03*
X223835000Y-64540000D03*
X222885000Y-67540000D03*
X238440000Y-94210000D03*
X236540000Y-94210000D03*
X237490000Y-91210000D03*
X225745000Y-65175000D03*
X227645000Y-65175000D03*
X226695000Y-68175000D03*
D22*
X201700000Y-139380000D03*
X201700000Y-137480000D03*
X204700000Y-138430000D03*
X232815000Y-98105000D03*
X232815000Y-96205000D03*
X235815000Y-97155000D03*
D23*
X229555000Y-65810000D03*
X231455000Y-65810000D03*
X230505000Y-68810000D03*
X218120000Y-94210000D03*
X216220000Y-94210000D03*
X217170000Y-91210000D03*
D22*
X191540000Y-139380000D03*
X191540000Y-137480000D03*
X194540000Y-138430000D03*
X212495000Y-98105000D03*
X212495000Y-96205000D03*
X215495000Y-97155000D03*
D23*
X233365000Y-66445000D03*
X235265000Y-66445000D03*
X234315000Y-69445000D03*
D22*
X202160000Y-89855000D03*
X202160000Y-91755000D03*
X199160000Y-90805000D03*
X181380000Y-139380000D03*
X181380000Y-137480000D03*
X184380000Y-138430000D03*
D23*
X200980000Y-84225000D03*
X202880000Y-84225000D03*
X201930000Y-87225000D03*
X237175000Y-67080000D03*
X239075000Y-67080000D03*
X238125000Y-70080000D03*
D22*
X171855000Y-139380000D03*
X171855000Y-137480000D03*
X174855000Y-138430000D03*
X172315000Y-89855000D03*
X172315000Y-91755000D03*
X169315000Y-90805000D03*
D23*
X240985000Y-67715000D03*
X242885000Y-67715000D03*
X241935000Y-70715000D03*
X171135000Y-84225000D03*
X173035000Y-84225000D03*
X172085000Y-87225000D03*
D22*
X161695000Y-139380000D03*
X161695000Y-137480000D03*
X164695000Y-138430000D03*
D23*
X218125000Y-63905000D03*
X220025000Y-63905000D03*
X219075000Y-66905000D03*
X131130000Y-84225000D03*
X133030000Y-84225000D03*
X132080000Y-87225000D03*
D22*
X73255000Y-110810000D03*
X73255000Y-112710000D03*
X70255000Y-111760000D03*
X73255000Y-90490000D03*
X73255000Y-92390000D03*
X70255000Y-91440000D03*
X151535000Y-139380000D03*
X151535000Y-137480000D03*
X154535000Y-138430000D03*
D23*
X206695000Y-62000000D03*
X208595000Y-62000000D03*
X207645000Y-65000000D03*
D22*
X102465000Y-89855000D03*
X102465000Y-91755000D03*
X99465000Y-90805000D03*
X73255000Y-100650000D03*
X73255000Y-102550000D03*
X70255000Y-101600000D03*
X73255000Y-80330000D03*
X73255000Y-82230000D03*
X70255000Y-81280000D03*
D23*
X214315000Y-63270000D03*
X216215000Y-63270000D03*
X215265000Y-66270000D03*
X101285000Y-84225000D03*
X103185000Y-84225000D03*
X102235000Y-87225000D03*
X210505000Y-62635000D03*
X212405000Y-62635000D03*
X211455000Y-65635000D03*
D22*
X176300000Y-126045000D03*
X176300000Y-124145000D03*
X179300000Y-125095000D03*
X206780000Y-126045000D03*
X206780000Y-124145000D03*
X209780000Y-125095000D03*
D24*
X57040000Y-96135000D03*
X57040000Y-100715000D03*
D25*
X49640000Y-98435000D03*
D23*
X48580000Y-105180000D03*
X50480000Y-105180000D03*
X49530000Y-108180000D03*
D26*
X48005000Y-88900000D03*
X44705000Y-88900000D03*
X46100000Y-104775000D03*
X42800000Y-104775000D03*
D27*
X50800000Y-138050000D03*
X50800000Y-141350000D03*
D28*
X144812000Y-114808000D03*
X148812000Y-114808000D03*
D29*
X116187220Y-128046160D03*
X116187220Y-130546160D03*
D30*
X135235000Y-130556000D03*
X132735000Y-130556000D03*
X129520000Y-130556000D03*
X127020000Y-130556000D03*
D31*
X118488460Y-127951480D03*
X118488460Y-131951480D03*
D30*
X144546000Y-117348000D03*
X147046000Y-117348000D03*
D31*
X135128000Y-146780000D03*
X135128000Y-142780000D03*
X146304000Y-133572000D03*
X146304000Y-129572000D03*
D30*
X57805000Y-80010000D03*
X60305000Y-80010000D03*
X41255000Y-80645000D03*
X38755000Y-80645000D03*
X32365000Y-67310000D03*
X29865000Y-67310000D03*
X58440000Y-71120000D03*
X60940000Y-71120000D03*
X58440000Y-63500000D03*
X60940000Y-63500000D03*
X37445000Y-67310000D03*
X34945000Y-67310000D03*
D29*
X41275000Y-78085000D03*
X41275000Y-75585000D03*
X31115000Y-76220000D03*
X31115000Y-78720000D03*
D30*
X28595000Y-81915000D03*
X31095000Y-81915000D03*
X76815000Y-65405000D03*
X74315000Y-65405000D03*
D28*
X80105000Y-59055000D03*
X76105000Y-59055000D03*
D31*
X79375000Y-66580000D03*
X79375000Y-70580000D03*
D29*
X71755000Y-60940000D03*
X71755000Y-58440000D03*
D31*
X69215000Y-60420000D03*
X69215000Y-56420000D03*
D29*
X85090000Y-67965000D03*
X85090000Y-70465000D03*
D30*
X87610000Y-60325000D03*
X85110000Y-60325000D03*
X47605000Y-137795000D03*
X45105000Y-137795000D03*
D29*
X48895000Y-112415000D03*
X48895000Y-114915000D03*
D32*
X99695000Y-118030000D03*
X99695000Y-120730000D03*
X102870000Y-120730000D03*
X102870000Y-118030000D03*
D21*
X87710000Y-55245000D03*
X85010000Y-55245000D03*
X158670000Y-115570000D03*
X161370000Y-115570000D03*
X188515000Y-115570000D03*
X191215000Y-115570000D03*
X248365000Y-118745000D03*
X245665000Y-118745000D03*
X250270000Y-125095000D03*
X247570000Y-125095000D03*
D32*
X232410000Y-130255000D03*
X232410000Y-127555000D03*
X240030000Y-130255000D03*
X240030000Y-127555000D03*
D21*
X237570000Y-130810000D03*
X234870000Y-130810000D03*
X111650000Y-146000000D03*
X114350000Y-146000000D03*
X93806000Y-145288000D03*
X91106000Y-145288000D03*
X93806000Y-143256000D03*
X91106000Y-143256000D03*
X108665000Y-146050000D03*
X105965000Y-146050000D03*
D32*
X116840000Y-142922000D03*
X116840000Y-145622000D03*
D21*
X129366000Y-119380000D03*
X126666000Y-119380000D03*
X129366000Y-121412000D03*
X126666000Y-121412000D03*
D32*
X28575000Y-76120000D03*
X28575000Y-78820000D03*
D21*
X90250000Y-70485000D03*
X87550000Y-70485000D03*
X90885000Y-57785000D03*
X88185000Y-57785000D03*
D32*
X53340000Y-104695000D03*
X53340000Y-107395000D03*
X204470000Y-125810000D03*
X204470000Y-123110000D03*
X173990000Y-125810000D03*
X173990000Y-123110000D03*
D21*
X198200000Y-59690000D03*
X195500000Y-59690000D03*
X180260000Y-60325000D03*
X182960000Y-60325000D03*
D32*
X75565000Y-80565000D03*
X75565000Y-83265000D03*
X75565000Y-100885000D03*
X75565000Y-103585000D03*
D21*
X198200000Y-57785000D03*
X195500000Y-57785000D03*
D32*
X151130000Y-141525000D03*
X151130000Y-144225000D03*
X75565000Y-90725000D03*
X75565000Y-93425000D03*
X75565000Y-111045000D03*
X75565000Y-113745000D03*
D21*
X180260000Y-58420000D03*
X182960000Y-58420000D03*
D32*
X161290000Y-141525000D03*
X161290000Y-144225000D03*
D21*
X198200000Y-55880000D03*
X195500000Y-55880000D03*
D32*
X171450000Y-141525000D03*
X171450000Y-144225000D03*
D21*
X198200000Y-65405000D03*
X195500000Y-65405000D03*
D32*
X180975000Y-141525000D03*
X180975000Y-144225000D03*
D21*
X198200000Y-67310000D03*
X195500000Y-67310000D03*
D32*
X191135000Y-141525000D03*
X191135000Y-144225000D03*
D21*
X198200000Y-61595000D03*
X195500000Y-61595000D03*
D32*
X201295000Y-141525000D03*
X201295000Y-144225000D03*
D21*
X180260000Y-67310000D03*
X182960000Y-67310000D03*
X198200000Y-63500000D03*
X195500000Y-63500000D03*
D32*
X211455000Y-141525000D03*
X211455000Y-144225000D03*
D30*
X38755000Y-100330000D03*
X41255000Y-100330000D03*
D33*
X99287360Y-124288660D03*
X101287360Y-124288660D03*
X103287360Y-124288660D03*
X105287360Y-124288660D03*
X107287360Y-124288660D03*
X109287360Y-124288660D03*
X111287360Y-124288660D03*
X113287360Y-124288660D03*
X113287360Y-141288660D03*
X111287360Y-141288660D03*
X109287360Y-141288660D03*
X107287360Y-141288660D03*
X105287360Y-141288660D03*
X103287360Y-141288660D03*
X101287360Y-141288660D03*
X99287360Y-141288660D03*
D15*
X142240000Y-123096000D03*
X140970000Y-123096000D03*
X139700000Y-123096000D03*
X138430000Y-123096000D03*
X137160000Y-123096000D03*
X135890000Y-123096000D03*
X134620000Y-123096000D03*
X133350000Y-123096000D03*
X133350000Y-117696000D03*
X134620000Y-117696000D03*
X135890000Y-117696000D03*
X137160000Y-117696000D03*
X138430000Y-117696000D03*
X139700000Y-117696000D03*
X140970000Y-117696000D03*
X142240000Y-117696000D03*
D20*
X128905000Y-93885000D03*
X128905000Y-97885000D03*
D22*
X132310000Y-89855000D03*
X132310000Y-91755000D03*
X129310000Y-90805000D03*
D30*
X95865000Y-57785000D03*
X93365000Y-57785000D03*
X95905000Y-69215000D03*
X98405000Y-69215000D03*
D29*
X93345000Y-68600000D03*
X93345000Y-71100000D03*
D30*
X90150000Y-68580000D03*
X87650000Y-68580000D03*
D15*
X99695000Y-66200000D03*
X98425000Y-66200000D03*
X97155000Y-66200000D03*
X95885000Y-66200000D03*
X94615000Y-66200000D03*
X93345000Y-66200000D03*
X92075000Y-66200000D03*
X90805000Y-66200000D03*
X90805000Y-60800000D03*
X92075000Y-60800000D03*
X93345000Y-60800000D03*
X94615000Y-60800000D03*
X95885000Y-60800000D03*
X97155000Y-60800000D03*
X98425000Y-60800000D03*
X99695000Y-60800000D03*
M02*
