G04 #@! TF.FileFunction,Soldermask,Top*
%FSLAX46Y46*%
G04 Gerber Fmt 4.6, Leading zero omitted, Abs format (unit mm)*
G04 Created by KiCad (PCBNEW 4.0.5) date 04/20/17 21:33:19*
%MOMM*%
%LPD*%
G01*
G04 APERTURE LIST*
%ADD10C,0.100000*%
%ADD11C,1.900000*%
%ADD12C,2.700000*%
%ADD13C,18.200000*%
%ADD14C,2.900000*%
%ADD15C,2.600000*%
%ADD16C,2.100000*%
%ADD17C,2.400000*%
%ADD18C,1.924000*%
%ADD19R,3.900000X3.900000*%
%ADD20C,1.920000*%
%ADD21C,3.100000*%
%ADD22R,2.000000X2.000000*%
%ADD23C,2.000000*%
%ADD24O,2.150000X3.150000*%
%ADD25C,2.150000*%
%ADD26O,3.150000X2.150000*%
%ADD27O,2.398980X2.398980*%
%ADD28R,2.398980X2.398980*%
%ADD29C,2.362000*%
%ADD30C,2.162000*%
%ADD31C,4.900000*%
G04 APERTURE END LIST*
D10*
X75944500Y-53500000D02*
G75*
G03X75944500Y-53500000I-444500J0D01*
G01*
X80444500Y-53500000D02*
G75*
G03X80444500Y-53500000I-444500J0D01*
G01*
X81885000Y-56000000D02*
G75*
G03X81885000Y-56000000I-635000J0D01*
G01*
X74885000Y-56000000D02*
G75*
G03X74885000Y-56000000I-635000J0D01*
G01*
X215654500Y-53340000D02*
G75*
G03X215654500Y-53340000I-444500J0D01*
G01*
X220154500Y-53340000D02*
G75*
G03X220154500Y-53340000I-444500J0D01*
G01*
X221595000Y-55840000D02*
G75*
G03X221595000Y-55840000I-635000J0D01*
G01*
X214595000Y-55840000D02*
G75*
G03X214595000Y-55840000I-635000J0D01*
G01*
D11*
X33020000Y-69215000D03*
X37900000Y-69215000D03*
D12*
X65850800Y-138250800D03*
X65850800Y-141350800D03*
X86650800Y-138250800D03*
X86650800Y-141350800D03*
D13*
X76250800Y-139750800D03*
D14*
X164000000Y-82000000D03*
X165750000Y-85500000D03*
X165750000Y-90000000D03*
X165750000Y-94500000D03*
X164000000Y-98000000D03*
X160000000Y-99000000D03*
X156000000Y-98000000D03*
X154250000Y-94500000D03*
X154250000Y-90000000D03*
X154250000Y-85500000D03*
X156000000Y-82000000D03*
X160000000Y-81000000D03*
X124000000Y-82000000D03*
X125750000Y-85500000D03*
X125750000Y-90000000D03*
X125750000Y-94500000D03*
X124000000Y-98000000D03*
X120000000Y-99000000D03*
X116000000Y-98000000D03*
X114250000Y-94500000D03*
X114250000Y-90000000D03*
X114250000Y-85500000D03*
X116000000Y-82000000D03*
X120000000Y-81000000D03*
X94000000Y-82000000D03*
X95750000Y-85500000D03*
X95750000Y-90000000D03*
X95750000Y-94500000D03*
X94000000Y-98000000D03*
X90000000Y-99000000D03*
X86000000Y-98000000D03*
X84250000Y-94500000D03*
X84250000Y-90000000D03*
X84250000Y-85500000D03*
X86000000Y-82000000D03*
X90000000Y-81000000D03*
D15*
X81250000Y-56000000D03*
X74250000Y-56000000D03*
D16*
X80000000Y-53500000D03*
X75500000Y-53500000D03*
D17*
X161925000Y-122610000D03*
X161925000Y-118110000D03*
X168425000Y-122610000D03*
X168425000Y-118110000D03*
D18*
X140000000Y-96350000D03*
X140000000Y-103650000D03*
X140000000Y-76350000D03*
X140000000Y-83650000D03*
X210000000Y-116350000D03*
X210000000Y-123650000D03*
X180000000Y-116350000D03*
X180000000Y-123650000D03*
X70000000Y-106350000D03*
X70000000Y-113650000D03*
X70000000Y-96350000D03*
X70000000Y-103650000D03*
X70000000Y-86350000D03*
X70000000Y-93650000D03*
X70000000Y-76350000D03*
X70000000Y-83650000D03*
X215000000Y-136350000D03*
X215000000Y-143650000D03*
X205000000Y-136350000D03*
X205000000Y-143650000D03*
X195000000Y-136350000D03*
X195000000Y-143650000D03*
X185000000Y-136350000D03*
X185000000Y-143650000D03*
X175000000Y-136350000D03*
X175000000Y-143650000D03*
X165000000Y-136350000D03*
X165000000Y-143650000D03*
X155000000Y-136350000D03*
X155000000Y-143650000D03*
D19*
X39370000Y-123190000D03*
X33370000Y-123190000D03*
X36370000Y-127890000D03*
D20*
X139903200Y-133705600D03*
X142443200Y-133705600D03*
X142443200Y-135705600D03*
X139903200Y-135705600D03*
D21*
X135173200Y-138405600D03*
X147173200Y-138405600D03*
D22*
X57785000Y-125730000D03*
D23*
X57785000Y-123230000D03*
D22*
X44450000Y-121920000D03*
D23*
X44450000Y-119420000D03*
D22*
X39370000Y-113665000D03*
D23*
X36870000Y-113665000D03*
D22*
X36195000Y-97790000D03*
D23*
X38695000Y-97790000D03*
D22*
X52705000Y-88900000D03*
D23*
X55205000Y-88900000D03*
D11*
X135255000Y-128016000D03*
X130375000Y-128016000D03*
D24*
X235000000Y-87750000D03*
D25*
X237125000Y-86680587D02*
X237625000Y-87546613D01*
X238680587Y-85125000D02*
X239546613Y-85625000D01*
D26*
X239750000Y-83000000D03*
D25*
X238680587Y-80875000D02*
X239546613Y-80375000D01*
X237125000Y-79319413D02*
X237625000Y-78453387D01*
D24*
X235000000Y-78250000D03*
D25*
X232875000Y-79319413D02*
X232375000Y-78453387D01*
X231319413Y-80875000D02*
X230453387Y-80375000D01*
D26*
X230250000Y-83000000D03*
D25*
X231319413Y-85125000D02*
X230453387Y-85625000D01*
D24*
X215000000Y-87750000D03*
D25*
X217125000Y-86680587D02*
X217625000Y-87546613D01*
X218680587Y-85125000D02*
X219546613Y-85625000D01*
D26*
X219750000Y-83000000D03*
D25*
X218680587Y-80875000D02*
X219546613Y-80375000D01*
X217125000Y-79319413D02*
X217625000Y-78453387D01*
D24*
X215000000Y-78250000D03*
D25*
X212875000Y-79319413D02*
X212375000Y-78453387D01*
X211319413Y-80875000D02*
X210453387Y-80375000D01*
D26*
X210250000Y-83000000D03*
D25*
X211319413Y-85125000D02*
X210453387Y-85625000D01*
D14*
X194000000Y-82000000D03*
X195750000Y-85500000D03*
X195750000Y-90000000D03*
X195750000Y-94500000D03*
X194000000Y-98000000D03*
X190000000Y-99000000D03*
X186000000Y-98000000D03*
X184250000Y-94500000D03*
X184250000Y-90000000D03*
X184250000Y-85500000D03*
X186000000Y-82000000D03*
X190000000Y-81000000D03*
D22*
X88900000Y-63500000D03*
D23*
X88900000Y-66000000D03*
D27*
X112395000Y-63500000D03*
D28*
X104775000Y-63500000D03*
D27*
X107315000Y-63500000D03*
X109855000Y-63500000D03*
D18*
X57785000Y-134580000D03*
X57785000Y-129580000D03*
X41235000Y-88900000D03*
X36235000Y-88900000D03*
D29*
X235515000Y-121845000D03*
D30*
X235515000Y-125545000D03*
D29*
X235515000Y-128345000D03*
X245815000Y-128345000D03*
D30*
X245815000Y-125545000D03*
D29*
X245815000Y-121845000D03*
D17*
X191770000Y-122610000D03*
X191770000Y-118110000D03*
X198270000Y-122610000D03*
X198270000Y-118110000D03*
D15*
X220960000Y-55840000D03*
X213960000Y-55840000D03*
D16*
X219710000Y-53340000D03*
X215210000Y-53340000D03*
D31*
X35000000Y-60000000D03*
X35000000Y-140000000D03*
X265000000Y-140000000D03*
X265000000Y-60000000D03*
M02*
