G04 #@! TF.FileFunction,Soldermask,Bot*
%FSLAX46Y46*%
G04 Gerber Fmt 4.6, Leading zero omitted, Abs format (unit mm)*
G04 Created by KiCad (PCBNEW 4.0.5) date 04/20/17 21:33:19*
%MOMM*%
%LPD*%
G01*
G04 APERTURE LIST*
%ADD10C,0.100000*%
%ADD11C,1.900000*%
%ADD12C,2.700000*%
%ADD13R,2.400000X1.000000*%
%ADD14R,1.900000X1.000000*%
%ADD15C,2.900000*%
%ADD16R,4.200000X2.400000*%
%ADD17R,1.900000X2.400000*%
%ADD18R,1.000000X1.900000*%
%ADD19R,1.000000X2.400000*%
%ADD20R,1.000000X1.950000*%
%ADD21R,1.800000X0.700000*%
%ADD22C,2.600000*%
%ADD23C,2.100000*%
%ADD24C,2.400000*%
%ADD25R,2.400000X2.100000*%
%ADD26R,2.100000X2.400000*%
%ADD27R,1.900000X1.700000*%
%ADD28R,2.300000X1.200000*%
%ADD29R,1.200000X2.300000*%
%ADD30R,3.900000X2.400000*%
%ADD31R,7.400000X7.400000*%
%ADD32C,1.924000*%
%ADD33R,3.900000X3.900000*%
%ADD34C,1.920000*%
%ADD35C,3.100000*%
%ADD36R,1.300000X1.600000*%
%ADD37R,1.600000X1.300000*%
%ADD38R,3.600000X1.900000*%
%ADD39R,1.650000X1.900000*%
%ADD40R,1.900000X1.650000*%
%ADD41R,1.900000X3.600000*%
%ADD42R,2.000000X2.000000*%
%ADD43C,2.000000*%
%ADD44R,1.700000X1.900000*%
%ADD45O,2.150000X3.150000*%
%ADD46C,2.150000*%
%ADD47O,3.150000X2.150000*%
%ADD48O,2.398980X2.398980*%
%ADD49R,2.398980X2.398980*%
%ADD50R,1.400000X3.400000*%
%ADD51C,2.362000*%
%ADD52C,2.162000*%
%ADD53C,4.900000*%
G04 APERTURE END LIST*
D10*
X82393000Y-56000000D02*
G75*
G03X82393000Y-56000000I-1143000J0D01*
G01*
X76389000Y-53500000D02*
G75*
G03X76389000Y-53500000I-889000J0D01*
G01*
X80889000Y-53500000D02*
G75*
G03X80889000Y-53500000I-889000J0D01*
G01*
X75393000Y-56000000D02*
G75*
G03X75393000Y-56000000I-1143000J0D01*
G01*
X222103000Y-55840000D02*
G75*
G03X222103000Y-55840000I-1143000J0D01*
G01*
X216099000Y-53340000D02*
G75*
G03X216099000Y-53340000I-889000J0D01*
G01*
X220599000Y-53340000D02*
G75*
G03X220599000Y-53340000I-889000J0D01*
G01*
X215103000Y-55840000D02*
G75*
G03X215103000Y-55840000I-1143000J0D01*
G01*
D11*
X33020000Y-69215000D03*
X37900000Y-69215000D03*
D12*
X65850800Y-138250800D03*
X65850800Y-141350800D03*
X86650800Y-138250800D03*
X86650800Y-141350800D03*
D13*
X54865000Y-63500000D03*
X54865000Y-64770000D03*
X54865000Y-66040000D03*
X54865000Y-67310000D03*
X54865000Y-68580000D03*
X54865000Y-69850000D03*
X54865000Y-71120000D03*
X54865000Y-72390000D03*
X54865000Y-73660000D03*
X54865000Y-74930000D03*
X54865000Y-76200000D03*
X54865000Y-77470000D03*
X54865000Y-78740000D03*
X54865000Y-80010000D03*
X45465000Y-80010000D03*
X45465000Y-78740000D03*
X45465000Y-77470000D03*
X45465000Y-76200000D03*
X45465000Y-74930000D03*
X45465000Y-73660000D03*
X45465000Y-72390000D03*
X45465000Y-71120000D03*
X45465000Y-69850000D03*
X45465000Y-68580000D03*
X45465000Y-67310000D03*
X45465000Y-66040000D03*
X45465000Y-64770000D03*
X45465000Y-63500000D03*
D14*
X71753200Y-144043400D03*
X71753200Y-142773400D03*
X71753200Y-141503400D03*
X71753200Y-140233400D03*
X71753200Y-138963400D03*
X71753200Y-137693400D03*
X71753200Y-136423400D03*
X71753200Y-135153400D03*
X81053200Y-135153400D03*
X81053200Y-136423400D03*
X81053200Y-137693400D03*
X81053200Y-138963400D03*
X81053200Y-140233400D03*
X81053200Y-141503400D03*
X81053200Y-142773400D03*
X81053200Y-144043400D03*
D15*
X164000000Y-82000000D03*
X165750000Y-85500000D03*
X165750000Y-90000000D03*
X165750000Y-94500000D03*
X164000000Y-98000000D03*
X160000000Y-99000000D03*
X156000000Y-98000000D03*
X154250000Y-94500000D03*
X154250000Y-90000000D03*
X154250000Y-85500000D03*
X156000000Y-82000000D03*
X160000000Y-81000000D03*
D16*
X141224000Y-147422000D03*
D17*
X141224000Y-141122000D03*
X143524000Y-141122000D03*
X138924000Y-141122000D03*
D15*
X124000000Y-82000000D03*
X125750000Y-85500000D03*
X125750000Y-90000000D03*
X125750000Y-94500000D03*
X124000000Y-98000000D03*
X120000000Y-99000000D03*
X116000000Y-98000000D03*
X114250000Y-94500000D03*
X114250000Y-90000000D03*
X114250000Y-85500000D03*
X116000000Y-82000000D03*
X120000000Y-81000000D03*
X94000000Y-82000000D03*
X95750000Y-85500000D03*
X95750000Y-90000000D03*
X95750000Y-94500000D03*
X94000000Y-98000000D03*
X90000000Y-99000000D03*
X86000000Y-98000000D03*
X84250000Y-94500000D03*
X84250000Y-90000000D03*
X84250000Y-85500000D03*
X86000000Y-82000000D03*
X90000000Y-81000000D03*
D18*
X135890000Y-62070000D03*
X137160000Y-62070000D03*
X138430000Y-62070000D03*
X139700000Y-62070000D03*
X140970000Y-62070000D03*
X142240000Y-62070000D03*
X143510000Y-62070000D03*
X144780000Y-62070000D03*
X144780000Y-67470000D03*
X143510000Y-67470000D03*
X142240000Y-67470000D03*
X140970000Y-67470000D03*
X139700000Y-67470000D03*
X138430000Y-67470000D03*
X137160000Y-67470000D03*
X135890000Y-67470000D03*
X89535000Y-110015000D03*
X88265000Y-110015000D03*
X86995000Y-110015000D03*
X85725000Y-110015000D03*
X84455000Y-110015000D03*
X83185000Y-110015000D03*
X81915000Y-110015000D03*
X80645000Y-110015000D03*
X80645000Y-104615000D03*
X81915000Y-104615000D03*
X83185000Y-104615000D03*
X84455000Y-104615000D03*
X85725000Y-104615000D03*
X86995000Y-104615000D03*
X88265000Y-104615000D03*
X89535000Y-104615000D03*
X226060000Y-137000000D03*
X227330000Y-137000000D03*
X228600000Y-137000000D03*
X229870000Y-137000000D03*
X231140000Y-137000000D03*
X232410000Y-137000000D03*
X233680000Y-137000000D03*
X234950000Y-137000000D03*
X234950000Y-142400000D03*
X233680000Y-142400000D03*
X232410000Y-142400000D03*
X231140000Y-142400000D03*
X229870000Y-142400000D03*
X228600000Y-142400000D03*
X227330000Y-142400000D03*
X226060000Y-142400000D03*
D14*
X191295000Y-57785000D03*
X191295000Y-59055000D03*
X191295000Y-60325000D03*
X191295000Y-61595000D03*
X191295000Y-62865000D03*
X191295000Y-64135000D03*
X191295000Y-65405000D03*
X191295000Y-66675000D03*
X185895000Y-66675000D03*
X185895000Y-65405000D03*
X185895000Y-64135000D03*
X185895000Y-62865000D03*
X185895000Y-61595000D03*
X185895000Y-60325000D03*
X185895000Y-59055000D03*
X185895000Y-57785000D03*
D19*
X109220000Y-105155000D03*
X110490000Y-105155000D03*
X111760000Y-105155000D03*
X113030000Y-105155000D03*
X114300000Y-105155000D03*
X115570000Y-105155000D03*
X116840000Y-105155000D03*
X118110000Y-105155000D03*
X119380000Y-105155000D03*
X119380000Y-114555000D03*
X118110000Y-114555000D03*
X116840000Y-114555000D03*
X115570000Y-114555000D03*
X114300000Y-114555000D03*
X113030000Y-114555000D03*
X111760000Y-114555000D03*
X110490000Y-114555000D03*
X109220000Y-114555000D03*
X120015000Y-56260000D03*
X121285000Y-56260000D03*
X122555000Y-56260000D03*
X123825000Y-56260000D03*
X125095000Y-56260000D03*
X126365000Y-56260000D03*
X127635000Y-56260000D03*
X128905000Y-56260000D03*
X130175000Y-56260000D03*
X130175000Y-65660000D03*
X128905000Y-65660000D03*
X127635000Y-65660000D03*
X126365000Y-65660000D03*
X125095000Y-65660000D03*
X123825000Y-65660000D03*
X122555000Y-65660000D03*
X121285000Y-65660000D03*
X120015000Y-65660000D03*
D20*
X36195000Y-102710000D03*
X37465000Y-102710000D03*
X38735000Y-102710000D03*
X40005000Y-102710000D03*
X40005000Y-108110000D03*
X38735000Y-108110000D03*
X37465000Y-108110000D03*
X36195000Y-108110000D03*
X50165000Y-134780000D03*
X48895000Y-134780000D03*
X47625000Y-134780000D03*
X46355000Y-134780000D03*
X46355000Y-129380000D03*
X47625000Y-129380000D03*
X48895000Y-129380000D03*
X50165000Y-129380000D03*
D21*
X74635000Y-63230000D03*
X74635000Y-62730000D03*
X74635000Y-62230000D03*
X74635000Y-61730000D03*
X74635000Y-61230000D03*
X79035000Y-61230000D03*
X79035000Y-61730000D03*
X79035000Y-62230000D03*
X79035000Y-62730000D03*
X79035000Y-63230000D03*
D18*
X227965000Y-126570000D03*
X226695000Y-126570000D03*
X225425000Y-126570000D03*
X224155000Y-126570000D03*
X222885000Y-126570000D03*
X221615000Y-126570000D03*
X220345000Y-126570000D03*
X219075000Y-126570000D03*
X219075000Y-117270000D03*
X220345000Y-117270000D03*
X221615000Y-117270000D03*
X222885000Y-117270000D03*
X224155000Y-117270000D03*
X225425000Y-117270000D03*
X226695000Y-117270000D03*
X227965000Y-117270000D03*
D22*
X81250000Y-56000000D03*
X74250000Y-56000000D03*
D23*
X80000000Y-53500000D03*
X75500000Y-53500000D03*
D24*
X161925000Y-122610000D03*
X161925000Y-118110000D03*
X168425000Y-122610000D03*
X168425000Y-118110000D03*
D25*
X233775000Y-90805000D03*
X229775000Y-90805000D03*
X215170000Y-133985000D03*
X219170000Y-133985000D03*
X232505000Y-93980000D03*
X228505000Y-93980000D03*
D26*
X238125000Y-101060000D03*
X238125000Y-97060000D03*
D25*
X205010000Y-133985000D03*
X209010000Y-133985000D03*
X213455000Y-90805000D03*
X209455000Y-90805000D03*
X212185000Y-93980000D03*
X208185000Y-93980000D03*
D26*
X217805000Y-101060000D03*
X217805000Y-97060000D03*
D25*
X195485000Y-133985000D03*
X199485000Y-133985000D03*
D26*
X198755000Y-93885000D03*
X198755000Y-97885000D03*
X203200000Y-80740000D03*
X203200000Y-76740000D03*
X205105000Y-92805000D03*
X205105000Y-88805000D03*
D25*
X185325000Y-133985000D03*
X189325000Y-133985000D03*
D26*
X168910000Y-93885000D03*
X168910000Y-97885000D03*
X173355000Y-81375000D03*
X173355000Y-77375000D03*
X175260000Y-92805000D03*
X175260000Y-88805000D03*
D25*
X175165000Y-133985000D03*
X179165000Y-133985000D03*
X165640000Y-133985000D03*
X169640000Y-133985000D03*
D26*
X133350000Y-80740000D03*
X133350000Y-76740000D03*
X135255000Y-92805000D03*
X135255000Y-88805000D03*
X99060000Y-93885000D03*
X99060000Y-97885000D03*
X67310000Y-106140000D03*
X67310000Y-102140000D03*
X67310000Y-85820000D03*
X67310000Y-81820000D03*
D25*
X155480000Y-133985000D03*
X159480000Y-133985000D03*
D26*
X103505000Y-80740000D03*
X103505000Y-76740000D03*
X105410000Y-92805000D03*
X105410000Y-88805000D03*
X67310000Y-95980000D03*
X67310000Y-91980000D03*
X64135000Y-77375000D03*
X64135000Y-81375000D03*
D25*
X180245000Y-118745000D03*
X184245000Y-118745000D03*
X135795000Y-99060000D03*
X139795000Y-99060000D03*
X138335000Y-78740000D03*
X142335000Y-78740000D03*
X210090000Y-118745000D03*
X214090000Y-118745000D03*
X58515000Y-111760000D03*
X54515000Y-111760000D03*
D26*
X51435000Y-112300000D03*
X51435000Y-116300000D03*
D27*
X36750000Y-111125000D03*
X39450000Y-111125000D03*
X46910000Y-125730000D03*
X49610000Y-125730000D03*
X46910000Y-123825000D03*
X49610000Y-123825000D03*
X46910000Y-121920000D03*
X49610000Y-121920000D03*
D25*
X43085000Y-141605000D03*
X47085000Y-141605000D03*
X43085000Y-144145000D03*
X47085000Y-144145000D03*
D27*
X36115000Y-75565000D03*
X38815000Y-75565000D03*
X36115000Y-78105000D03*
X38815000Y-78105000D03*
D28*
X211860000Y-139380000D03*
X211860000Y-137480000D03*
X214860000Y-138430000D03*
D29*
X221935000Y-64540000D03*
X223835000Y-64540000D03*
X222885000Y-67540000D03*
X238440000Y-94210000D03*
X236540000Y-94210000D03*
X237490000Y-91210000D03*
X225745000Y-65175000D03*
X227645000Y-65175000D03*
X226695000Y-68175000D03*
D28*
X201700000Y-139380000D03*
X201700000Y-137480000D03*
X204700000Y-138430000D03*
X232815000Y-98105000D03*
X232815000Y-96205000D03*
X235815000Y-97155000D03*
D29*
X229555000Y-65810000D03*
X231455000Y-65810000D03*
X230505000Y-68810000D03*
X218120000Y-94210000D03*
X216220000Y-94210000D03*
X217170000Y-91210000D03*
D28*
X191540000Y-139380000D03*
X191540000Y-137480000D03*
X194540000Y-138430000D03*
X212495000Y-98105000D03*
X212495000Y-96205000D03*
X215495000Y-97155000D03*
D29*
X233365000Y-66445000D03*
X235265000Y-66445000D03*
X234315000Y-69445000D03*
D28*
X202160000Y-89855000D03*
X202160000Y-91755000D03*
X199160000Y-90805000D03*
X181380000Y-139380000D03*
X181380000Y-137480000D03*
X184380000Y-138430000D03*
D29*
X200980000Y-84225000D03*
X202880000Y-84225000D03*
X201930000Y-87225000D03*
X237175000Y-67080000D03*
X239075000Y-67080000D03*
X238125000Y-70080000D03*
D28*
X171855000Y-139380000D03*
X171855000Y-137480000D03*
X174855000Y-138430000D03*
X172315000Y-89855000D03*
X172315000Y-91755000D03*
X169315000Y-90805000D03*
D29*
X240985000Y-67715000D03*
X242885000Y-67715000D03*
X241935000Y-70715000D03*
X171135000Y-84225000D03*
X173035000Y-84225000D03*
X172085000Y-87225000D03*
D28*
X161695000Y-139380000D03*
X161695000Y-137480000D03*
X164695000Y-138430000D03*
D29*
X218125000Y-63905000D03*
X220025000Y-63905000D03*
X219075000Y-66905000D03*
X131130000Y-84225000D03*
X133030000Y-84225000D03*
X132080000Y-87225000D03*
D28*
X73255000Y-110810000D03*
X73255000Y-112710000D03*
X70255000Y-111760000D03*
X73255000Y-90490000D03*
X73255000Y-92390000D03*
X70255000Y-91440000D03*
X151535000Y-139380000D03*
X151535000Y-137480000D03*
X154535000Y-138430000D03*
D29*
X206695000Y-62000000D03*
X208595000Y-62000000D03*
X207645000Y-65000000D03*
D28*
X102465000Y-89855000D03*
X102465000Y-91755000D03*
X99465000Y-90805000D03*
X73255000Y-100650000D03*
X73255000Y-102550000D03*
X70255000Y-101600000D03*
X73255000Y-80330000D03*
X73255000Y-82230000D03*
X70255000Y-81280000D03*
D29*
X214315000Y-63270000D03*
X216215000Y-63270000D03*
X215265000Y-66270000D03*
X101285000Y-84225000D03*
X103185000Y-84225000D03*
X102235000Y-87225000D03*
X210505000Y-62635000D03*
X212405000Y-62635000D03*
X211455000Y-65635000D03*
D28*
X176300000Y-126045000D03*
X176300000Y-124145000D03*
X179300000Y-125095000D03*
X206780000Y-126045000D03*
X206780000Y-124145000D03*
X209780000Y-125095000D03*
D30*
X57040000Y-96135000D03*
X57040000Y-100715000D03*
D31*
X49640000Y-98435000D03*
D29*
X48580000Y-105180000D03*
X50480000Y-105180000D03*
X49530000Y-108180000D03*
D32*
X140000000Y-96350000D03*
X140000000Y-103650000D03*
X140000000Y-76350000D03*
X140000000Y-83650000D03*
X210000000Y-116350000D03*
X210000000Y-123650000D03*
X180000000Y-116350000D03*
X180000000Y-123650000D03*
X70000000Y-106350000D03*
X70000000Y-113650000D03*
X70000000Y-96350000D03*
X70000000Y-103650000D03*
X70000000Y-86350000D03*
X70000000Y-93650000D03*
X70000000Y-76350000D03*
X70000000Y-83650000D03*
X215000000Y-136350000D03*
X215000000Y-143650000D03*
X205000000Y-136350000D03*
X205000000Y-143650000D03*
X195000000Y-136350000D03*
X195000000Y-143650000D03*
X185000000Y-136350000D03*
X185000000Y-143650000D03*
X175000000Y-136350000D03*
X175000000Y-143650000D03*
X165000000Y-136350000D03*
X165000000Y-143650000D03*
X155000000Y-136350000D03*
X155000000Y-143650000D03*
D33*
X39370000Y-123190000D03*
X33370000Y-123190000D03*
X36370000Y-127890000D03*
D34*
X139903200Y-133705600D03*
X142443200Y-133705600D03*
X142443200Y-135705600D03*
X139903200Y-135705600D03*
D35*
X135173200Y-138405600D03*
X147173200Y-138405600D03*
D36*
X48005000Y-88900000D03*
X44705000Y-88900000D03*
X46100000Y-104775000D03*
X42800000Y-104775000D03*
D37*
X50800000Y-138050000D03*
X50800000Y-141350000D03*
D38*
X142145000Y-113030000D03*
X146145000Y-113030000D03*
D39*
X116187220Y-128046160D03*
X116187220Y-130546160D03*
D40*
X135235000Y-130556000D03*
X132735000Y-130556000D03*
X129520000Y-130556000D03*
X127020000Y-130556000D03*
D41*
X118488460Y-127951480D03*
X118488460Y-131951480D03*
D40*
X142260000Y-115570000D03*
X144760000Y-115570000D03*
D41*
X135128000Y-146780000D03*
X135128000Y-142780000D03*
X146304000Y-133572000D03*
X146304000Y-129572000D03*
D40*
X52050000Y-82550000D03*
X49550000Y-82550000D03*
X41255000Y-80645000D03*
X38755000Y-80645000D03*
X32365000Y-67310000D03*
X29865000Y-67310000D03*
X58440000Y-71120000D03*
X60940000Y-71120000D03*
X58440000Y-63500000D03*
X60940000Y-63500000D03*
X37445000Y-67310000D03*
X34945000Y-67310000D03*
D39*
X41275000Y-78085000D03*
X41275000Y-75585000D03*
X31115000Y-76220000D03*
X31115000Y-78720000D03*
D40*
X28595000Y-81915000D03*
X31095000Y-81915000D03*
X76815000Y-65405000D03*
X74315000Y-65405000D03*
D38*
X80105000Y-59055000D03*
X76105000Y-59055000D03*
D41*
X79375000Y-66580000D03*
X79375000Y-70580000D03*
D39*
X71755000Y-60940000D03*
X71755000Y-58440000D03*
D41*
X69215000Y-60420000D03*
X69215000Y-56420000D03*
D39*
X85090000Y-67965000D03*
X85090000Y-70465000D03*
D40*
X87610000Y-60325000D03*
X85110000Y-60325000D03*
D42*
X57785000Y-125730000D03*
D43*
X57785000Y-123230000D03*
D40*
X47605000Y-137795000D03*
X45105000Y-137795000D03*
D42*
X44450000Y-121920000D03*
D43*
X44450000Y-119420000D03*
D42*
X39370000Y-113665000D03*
D43*
X36870000Y-113665000D03*
D42*
X36195000Y-97790000D03*
D43*
X38695000Y-97790000D03*
D42*
X52705000Y-88900000D03*
D43*
X55205000Y-88900000D03*
D39*
X48895000Y-112415000D03*
X48895000Y-114915000D03*
D44*
X99695000Y-120730000D03*
X99695000Y-118030000D03*
X102870000Y-120730000D03*
X102870000Y-118030000D03*
D27*
X87710000Y-55245000D03*
X85010000Y-55245000D03*
X158670000Y-115570000D03*
X161370000Y-115570000D03*
X188515000Y-115570000D03*
X191215000Y-115570000D03*
X248365000Y-118745000D03*
X245665000Y-118745000D03*
X250270000Y-125095000D03*
X247570000Y-125095000D03*
D44*
X232410000Y-130255000D03*
X232410000Y-127555000D03*
X240030000Y-130255000D03*
X240030000Y-127555000D03*
D27*
X237570000Y-130810000D03*
X234870000Y-130810000D03*
X114380000Y-146050000D03*
X111680000Y-146050000D03*
X93806000Y-145288000D03*
X91106000Y-145288000D03*
X93806000Y-143256000D03*
X91106000Y-143256000D03*
X119460000Y-139065000D03*
X116760000Y-139065000D03*
X119460000Y-137160000D03*
X116760000Y-137160000D03*
X129366000Y-119380000D03*
X126666000Y-119380000D03*
X129366000Y-121412000D03*
X126666000Y-121412000D03*
D44*
X28575000Y-76120000D03*
X28575000Y-78820000D03*
D27*
X90250000Y-70485000D03*
X87550000Y-70485000D03*
X90885000Y-57785000D03*
X88185000Y-57785000D03*
D44*
X53340000Y-104695000D03*
X53340000Y-107395000D03*
X204470000Y-125810000D03*
X204470000Y-123110000D03*
X173990000Y-125810000D03*
X173990000Y-123110000D03*
D27*
X198200000Y-59690000D03*
X195500000Y-59690000D03*
X180260000Y-60325000D03*
X182960000Y-60325000D03*
D44*
X75565000Y-80565000D03*
X75565000Y-83265000D03*
X75565000Y-100885000D03*
X75565000Y-103585000D03*
D27*
X198200000Y-57785000D03*
X195500000Y-57785000D03*
D44*
X151130000Y-141525000D03*
X151130000Y-144225000D03*
X75565000Y-90725000D03*
X75565000Y-93425000D03*
X75565000Y-111045000D03*
X75565000Y-113745000D03*
D27*
X180260000Y-58420000D03*
X182960000Y-58420000D03*
D44*
X161290000Y-141525000D03*
X161290000Y-144225000D03*
D27*
X198200000Y-55880000D03*
X195500000Y-55880000D03*
D44*
X171450000Y-141525000D03*
X171450000Y-144225000D03*
D27*
X198200000Y-65405000D03*
X195500000Y-65405000D03*
D44*
X180975000Y-141525000D03*
X180975000Y-144225000D03*
D27*
X198200000Y-67310000D03*
X195500000Y-67310000D03*
D44*
X191135000Y-141525000D03*
X191135000Y-144225000D03*
D27*
X198200000Y-61595000D03*
X195500000Y-61595000D03*
D44*
X201295000Y-141525000D03*
X201295000Y-144225000D03*
D27*
X180260000Y-67310000D03*
X182960000Y-67310000D03*
X198200000Y-63500000D03*
X195500000Y-63500000D03*
D44*
X211455000Y-141525000D03*
X211455000Y-144225000D03*
D11*
X135255000Y-128016000D03*
X130375000Y-128016000D03*
D40*
X38755000Y-100330000D03*
X41255000Y-100330000D03*
D18*
X142240000Y-123096000D03*
X140970000Y-123096000D03*
X139700000Y-123096000D03*
X138430000Y-123096000D03*
X137160000Y-123096000D03*
X135890000Y-123096000D03*
X134620000Y-123096000D03*
X133350000Y-123096000D03*
X133350000Y-117696000D03*
X134620000Y-117696000D03*
X135890000Y-117696000D03*
X137160000Y-117696000D03*
X138430000Y-117696000D03*
X139700000Y-117696000D03*
X140970000Y-117696000D03*
X142240000Y-117696000D03*
D45*
X235000000Y-87750000D03*
D46*
X237125000Y-86680587D02*
X237625000Y-87546613D01*
X238680587Y-85125000D02*
X239546613Y-85625000D01*
D47*
X239750000Y-83000000D03*
D46*
X238680587Y-80875000D02*
X239546613Y-80375000D01*
X237125000Y-79319413D02*
X237625000Y-78453387D01*
D45*
X235000000Y-78250000D03*
D46*
X232875000Y-79319413D02*
X232375000Y-78453387D01*
X231319413Y-80875000D02*
X230453387Y-80375000D01*
D47*
X230250000Y-83000000D03*
D46*
X231319413Y-85125000D02*
X230453387Y-85625000D01*
D45*
X215000000Y-87750000D03*
D46*
X217125000Y-86680587D02*
X217625000Y-87546613D01*
X218680587Y-85125000D02*
X219546613Y-85625000D01*
D47*
X219750000Y-83000000D03*
D46*
X218680587Y-80875000D02*
X219546613Y-80375000D01*
X217125000Y-79319413D02*
X217625000Y-78453387D01*
D45*
X215000000Y-78250000D03*
D46*
X212875000Y-79319413D02*
X212375000Y-78453387D01*
X211319413Y-80875000D02*
X210453387Y-80375000D01*
D47*
X210250000Y-83000000D03*
D46*
X211319413Y-85125000D02*
X210453387Y-85625000D01*
D15*
X194000000Y-82000000D03*
X195750000Y-85500000D03*
X195750000Y-90000000D03*
X195750000Y-94500000D03*
X194000000Y-98000000D03*
X190000000Y-99000000D03*
X186000000Y-98000000D03*
X184250000Y-94500000D03*
X184250000Y-90000000D03*
X184250000Y-85500000D03*
X186000000Y-82000000D03*
X190000000Y-81000000D03*
D26*
X128905000Y-93885000D03*
X128905000Y-97885000D03*
D28*
X132310000Y-89855000D03*
X132310000Y-91755000D03*
X129310000Y-90805000D03*
D40*
X95865000Y-57785000D03*
X93365000Y-57785000D03*
D42*
X88900000Y-63500000D03*
D43*
X88900000Y-66000000D03*
D40*
X95905000Y-69215000D03*
X98405000Y-69215000D03*
D39*
X93345000Y-68600000D03*
X93345000Y-71100000D03*
D40*
X90150000Y-68580000D03*
X87650000Y-68580000D03*
D48*
X112395000Y-63500000D03*
D49*
X104775000Y-63500000D03*
D48*
X107315000Y-63500000D03*
X109855000Y-63500000D03*
D32*
X57785000Y-134580000D03*
X57785000Y-129580000D03*
X41235000Y-88900000D03*
X36235000Y-88900000D03*
D18*
X99695000Y-66200000D03*
X98425000Y-66200000D03*
X97155000Y-66200000D03*
X95885000Y-66200000D03*
X94615000Y-66200000D03*
X93345000Y-66200000D03*
X92075000Y-66200000D03*
X90805000Y-66200000D03*
X90805000Y-60800000D03*
X92075000Y-60800000D03*
X93345000Y-60800000D03*
X94615000Y-60800000D03*
X95885000Y-60800000D03*
X97155000Y-60800000D03*
X98425000Y-60800000D03*
X99695000Y-60800000D03*
D37*
X124460000Y-143255000D03*
X124460000Y-139955000D03*
D28*
X131040000Y-145100000D03*
X131040000Y-147000000D03*
X128040000Y-146050000D03*
D44*
X128905000Y-111840000D03*
X128905000Y-109140000D03*
D50*
X99287360Y-124288660D03*
X101287360Y-124288660D03*
X103287360Y-124288660D03*
X105287360Y-124288660D03*
X107287360Y-124288660D03*
X109287360Y-124288660D03*
X111287360Y-124288660D03*
X113287360Y-124288660D03*
X113287360Y-141288660D03*
X111287360Y-141288660D03*
X109287360Y-141288660D03*
X107287360Y-141288660D03*
X105287360Y-141288660D03*
X103287360Y-141288660D03*
X101287360Y-141288660D03*
X99287360Y-141288660D03*
D28*
X131215000Y-108900000D03*
X131215000Y-107000000D03*
X134215000Y-107950000D03*
X134215000Y-110810000D03*
X134215000Y-112710000D03*
X131215000Y-111760000D03*
D44*
X136525000Y-107870000D03*
X136525000Y-110570000D03*
X130810000Y-142955000D03*
X130810000Y-140255000D03*
D51*
X235515000Y-121845000D03*
D52*
X235515000Y-125545000D03*
D51*
X235515000Y-128345000D03*
X245815000Y-128345000D03*
D52*
X245815000Y-125545000D03*
D51*
X245815000Y-121845000D03*
D24*
X191770000Y-122610000D03*
X191770000Y-118110000D03*
X198270000Y-122610000D03*
X198270000Y-118110000D03*
D22*
X220960000Y-55840000D03*
X213960000Y-55840000D03*
D23*
X219710000Y-53340000D03*
X215210000Y-53340000D03*
D53*
X35000000Y-60000000D03*
X35000000Y-140000000D03*
X265000000Y-140000000D03*
X265000000Y-60000000D03*
M02*
