G04 #@! TF.FileFunction,Legend,Top*
%FSLAX46Y46*%
G04 Gerber Fmt 4.6, Leading zero omitted, Abs format (unit mm)*
G04 Created by KiCad (PCBNEW 4.0.5) date 04/11/17 00:20:58*
%MOMM*%
%LPD*%
G01*
G04 APERTURE LIST*
%ADD10C,0.100000*%
%ADD11C,0.200000*%
%ADD12C,0.300000*%
%ADD13C,0.120000*%
%ADD14C,0.150000*%
%ADD15C,0.010000*%
G04 APERTURE END LIST*
D10*
D11*
X104323094Y-59459762D02*
X104418332Y-59507381D01*
X104608808Y-59507381D01*
X104704047Y-59459762D01*
X104751666Y-59364524D01*
X104751666Y-59316905D01*
X104704047Y-59221667D01*
X104608808Y-59174048D01*
X104465951Y-59174048D01*
X104370713Y-59126429D01*
X104323094Y-59031190D01*
X104323094Y-58983571D01*
X104370713Y-58888333D01*
X104465951Y-58840714D01*
X104608808Y-58840714D01*
X104704047Y-58888333D01*
X105180237Y-58840714D02*
X105180237Y-59840714D01*
X105180237Y-58888333D02*
X105275475Y-58840714D01*
X105465952Y-58840714D01*
X105561190Y-58888333D01*
X105608809Y-58935952D01*
X105656428Y-59031190D01*
X105656428Y-59316905D01*
X105608809Y-59412143D01*
X105561190Y-59459762D01*
X105465952Y-59507381D01*
X105275475Y-59507381D01*
X105180237Y-59459762D01*
X106465952Y-59459762D02*
X106370714Y-59507381D01*
X106180237Y-59507381D01*
X106084999Y-59459762D01*
X106037380Y-59364524D01*
X106037380Y-58983571D01*
X106084999Y-58888333D01*
X106180237Y-58840714D01*
X106370714Y-58840714D01*
X106465952Y-58888333D01*
X106513571Y-58983571D01*
X106513571Y-59078810D01*
X106037380Y-59174048D01*
X107370714Y-59507381D02*
X107370714Y-58983571D01*
X107323095Y-58888333D01*
X107227857Y-58840714D01*
X107037380Y-58840714D01*
X106942142Y-58888333D01*
X107370714Y-59459762D02*
X107275476Y-59507381D01*
X107037380Y-59507381D01*
X106942142Y-59459762D01*
X106894523Y-59364524D01*
X106894523Y-59269286D01*
X106942142Y-59174048D01*
X107037380Y-59126429D01*
X107275476Y-59126429D01*
X107370714Y-59078810D01*
X107846904Y-59507381D02*
X107846904Y-58507381D01*
X107942142Y-59126429D02*
X108227857Y-59507381D01*
X108227857Y-58840714D02*
X107846904Y-59221667D01*
X109037381Y-59459762D02*
X108942143Y-59507381D01*
X108751666Y-59507381D01*
X108656428Y-59459762D01*
X108608809Y-59364524D01*
X108608809Y-58983571D01*
X108656428Y-58888333D01*
X108751666Y-58840714D01*
X108942143Y-58840714D01*
X109037381Y-58888333D01*
X109085000Y-58983571D01*
X109085000Y-59078810D01*
X108608809Y-59174048D01*
X109513571Y-59507381D02*
X109513571Y-58840714D01*
X109513571Y-59031190D02*
X109561190Y-58935952D01*
X109608809Y-58888333D01*
X109704047Y-58840714D01*
X109799286Y-58840714D01*
X111037381Y-59507381D02*
X110942143Y-59459762D01*
X110894524Y-59412143D01*
X110846905Y-59316905D01*
X110846905Y-59031190D01*
X110894524Y-58935952D01*
X110942143Y-58888333D01*
X111037381Y-58840714D01*
X111180239Y-58840714D01*
X111275477Y-58888333D01*
X111323096Y-58935952D01*
X111370715Y-59031190D01*
X111370715Y-59316905D01*
X111323096Y-59412143D01*
X111275477Y-59459762D01*
X111180239Y-59507381D01*
X111037381Y-59507381D01*
X112227858Y-58840714D02*
X112227858Y-59507381D01*
X111799286Y-58840714D02*
X111799286Y-59364524D01*
X111846905Y-59459762D01*
X111942143Y-59507381D01*
X112085001Y-59507381D01*
X112180239Y-59459762D01*
X112227858Y-59412143D01*
X112561191Y-58840714D02*
X112942143Y-58840714D01*
X112704048Y-58507381D02*
X112704048Y-59364524D01*
X112751667Y-59459762D01*
X112846905Y-59507381D01*
X112942143Y-59507381D01*
D12*
X111589286Y-70528571D02*
X111089286Y-69814286D01*
X110732143Y-70528571D02*
X110732143Y-69028571D01*
X111303571Y-69028571D01*
X111446429Y-69100000D01*
X111517857Y-69171429D01*
X111589286Y-69314286D01*
X111589286Y-69528571D01*
X111517857Y-69671429D01*
X111446429Y-69742857D01*
X111303571Y-69814286D01*
X110732143Y-69814286D01*
X106509286Y-70528571D02*
X105795000Y-70528571D01*
X105795000Y-69028571D01*
X111823572Y-68052143D02*
X112966429Y-68052143D01*
X109283572Y-68052143D02*
X110426429Y-68052143D01*
X109855000Y-68623571D02*
X109855000Y-67480714D01*
X106743572Y-68052143D02*
X107886429Y-68052143D01*
X104203572Y-68052143D02*
X105346429Y-68052143D01*
X104775000Y-68623571D02*
X104775000Y-67480714D01*
X268752143Y-89537855D02*
X268752143Y-90037855D01*
X267966429Y-90252141D02*
X267966429Y-89537855D01*
X269466429Y-89537855D01*
X269466429Y-90252141D01*
X267966429Y-90894998D02*
X268966429Y-90894998D01*
X269466429Y-90894998D02*
X269395000Y-90823569D01*
X269323571Y-90894998D01*
X269395000Y-90966426D01*
X269466429Y-90894998D01*
X269323571Y-90894998D01*
X268966429Y-92252141D02*
X267752143Y-92252141D01*
X267609286Y-92180712D01*
X267537857Y-92109284D01*
X267466429Y-91966427D01*
X267466429Y-91752141D01*
X267537857Y-91609284D01*
X268037857Y-92252141D02*
X267966429Y-92109284D01*
X267966429Y-91823570D01*
X268037857Y-91680712D01*
X268109286Y-91609284D01*
X268252143Y-91537855D01*
X268680714Y-91537855D01*
X268823571Y-91609284D01*
X268895000Y-91680712D01*
X268966429Y-91823570D01*
X268966429Y-92109284D01*
X268895000Y-92252141D01*
X268966429Y-92752141D02*
X268966429Y-93323570D01*
X269466429Y-92966427D02*
X268180714Y-92966427D01*
X268037857Y-93037855D01*
X267966429Y-93180713D01*
X267966429Y-93323570D01*
X268966429Y-93680713D02*
X267966429Y-94037856D01*
X268966429Y-94394998D02*
X267966429Y-94037856D01*
X267609286Y-93894998D01*
X267537857Y-93823570D01*
X267466429Y-93680713D01*
X268537857Y-94966427D02*
X268537857Y-96109284D01*
X269466429Y-96609284D02*
X269466429Y-97466427D01*
X267966429Y-97037856D02*
X269466429Y-97037856D01*
X268966429Y-97823570D02*
X267966429Y-98109284D01*
X268680714Y-98394998D01*
X267966429Y-98680713D01*
X268966429Y-98966427D01*
X267966429Y-99752142D02*
X268037857Y-99609284D01*
X268109286Y-99537856D01*
X268252143Y-99466427D01*
X268680714Y-99466427D01*
X268823571Y-99537856D01*
X268895000Y-99609284D01*
X268966429Y-99752142D01*
X268966429Y-99966427D01*
X268895000Y-100109284D01*
X268823571Y-100180713D01*
X268680714Y-100252142D01*
X268252143Y-100252142D01*
X268109286Y-100180713D01*
X268037857Y-100109284D01*
X267966429Y-99966427D01*
X267966429Y-99752142D01*
X267966429Y-102037856D02*
X269466429Y-102037856D01*
X267966429Y-102894999D01*
X269466429Y-102894999D01*
X267966429Y-103609285D02*
X268966429Y-103609285D01*
X269466429Y-103609285D02*
X269395000Y-103537856D01*
X269323571Y-103609285D01*
X269395000Y-103680713D01*
X269466429Y-103609285D01*
X269323571Y-103609285D01*
X267966429Y-104180714D02*
X268966429Y-104966428D01*
X268966429Y-104180714D02*
X267966429Y-104966428D01*
X267966429Y-105537857D02*
X268966429Y-105537857D01*
X269466429Y-105537857D02*
X269395000Y-105466428D01*
X269323571Y-105537857D01*
X269395000Y-105609285D01*
X269466429Y-105537857D01*
X269323571Y-105537857D01*
X268037857Y-106823571D02*
X267966429Y-106680714D01*
X267966429Y-106395000D01*
X268037857Y-106252143D01*
X268180714Y-106180714D01*
X268752143Y-106180714D01*
X268895000Y-106252143D01*
X268966429Y-106395000D01*
X268966429Y-106680714D01*
X268895000Y-106823571D01*
X268752143Y-106895000D01*
X268609286Y-106895000D01*
X268466429Y-106180714D01*
X268537857Y-107537857D02*
X268537857Y-108680714D01*
X268037857Y-109323571D02*
X267966429Y-109537857D01*
X267966429Y-109895000D01*
X268037857Y-110037857D01*
X268109286Y-110109286D01*
X268252143Y-110180714D01*
X268395000Y-110180714D01*
X268537857Y-110109286D01*
X268609286Y-110037857D01*
X268680714Y-109895000D01*
X268752143Y-109609286D01*
X268823571Y-109466428D01*
X268895000Y-109395000D01*
X269037857Y-109323571D01*
X269180714Y-109323571D01*
X269323571Y-109395000D01*
X269395000Y-109466428D01*
X269466429Y-109609286D01*
X269466429Y-109966428D01*
X269395000Y-110180714D01*
X267966429Y-110823571D02*
X268966429Y-110823571D01*
X269466429Y-110823571D02*
X269395000Y-110752142D01*
X269323571Y-110823571D01*
X269395000Y-110894999D01*
X269466429Y-110823571D01*
X269323571Y-110823571D01*
X267966429Y-111395000D02*
X268966429Y-112180714D01*
X268966429Y-111395000D02*
X267966429Y-112180714D01*
X265416429Y-69895000D02*
X266916429Y-69895000D01*
X265416429Y-70752143D01*
X266916429Y-70752143D01*
X265416429Y-71466429D02*
X266416429Y-71466429D01*
X266916429Y-71466429D02*
X266845000Y-71395000D01*
X266773571Y-71466429D01*
X266845000Y-71537857D01*
X266916429Y-71466429D01*
X266773571Y-71466429D01*
X265416429Y-72037858D02*
X266416429Y-72823572D01*
X266416429Y-72037858D02*
X265416429Y-72823572D01*
X265416429Y-73395001D02*
X266416429Y-73395001D01*
X266916429Y-73395001D02*
X266845000Y-73323572D01*
X266773571Y-73395001D01*
X266845000Y-73466429D01*
X266916429Y-73395001D01*
X266773571Y-73395001D01*
X265487857Y-74680715D02*
X265416429Y-74537858D01*
X265416429Y-74252144D01*
X265487857Y-74109287D01*
X265630714Y-74037858D01*
X266202143Y-74037858D01*
X266345000Y-74109287D01*
X266416429Y-74252144D01*
X266416429Y-74537858D01*
X266345000Y-74680715D01*
X266202143Y-74752144D01*
X266059286Y-74752144D01*
X265916429Y-74037858D01*
X266916429Y-76323572D02*
X266916429Y-77180715D01*
X265416429Y-76752144D02*
X266916429Y-76752144D01*
X266416429Y-78323572D02*
X265416429Y-78323572D01*
X266416429Y-77680715D02*
X265630714Y-77680715D01*
X265487857Y-77752143D01*
X265416429Y-77895001D01*
X265416429Y-78109286D01*
X265487857Y-78252143D01*
X265559286Y-78323572D01*
X265416429Y-79037858D02*
X266916429Y-79037858D01*
X266345000Y-79037858D02*
X266416429Y-79180715D01*
X266416429Y-79466429D01*
X266345000Y-79609286D01*
X266273571Y-79680715D01*
X266130714Y-79752144D01*
X265702143Y-79752144D01*
X265559286Y-79680715D01*
X265487857Y-79609286D01*
X265416429Y-79466429D01*
X265416429Y-79180715D01*
X265487857Y-79037858D01*
X265487857Y-80966429D02*
X265416429Y-80823572D01*
X265416429Y-80537858D01*
X265487857Y-80395001D01*
X265630714Y-80323572D01*
X266202143Y-80323572D01*
X266345000Y-80395001D01*
X266416429Y-80537858D01*
X266416429Y-80823572D01*
X266345000Y-80966429D01*
X266202143Y-81037858D01*
X266059286Y-81037858D01*
X265916429Y-80323572D01*
X265416429Y-82823572D02*
X266916429Y-82823572D01*
X266416429Y-83537858D02*
X265416429Y-83537858D01*
X266273571Y-83537858D02*
X266345000Y-83609286D01*
X266416429Y-83752144D01*
X266416429Y-83966429D01*
X266345000Y-84109286D01*
X266202143Y-84180715D01*
X265416429Y-84180715D01*
X266416429Y-84680715D02*
X266416429Y-85252144D01*
X266916429Y-84895001D02*
X265630714Y-84895001D01*
X265487857Y-84966429D01*
X265416429Y-85109287D01*
X265416429Y-85252144D01*
X265487857Y-86323572D02*
X265416429Y-86180715D01*
X265416429Y-85895001D01*
X265487857Y-85752144D01*
X265630714Y-85680715D01*
X266202143Y-85680715D01*
X266345000Y-85752144D01*
X266416429Y-85895001D01*
X266416429Y-86180715D01*
X266345000Y-86323572D01*
X266202143Y-86395001D01*
X266059286Y-86395001D01*
X265916429Y-85680715D01*
X265416429Y-87037858D02*
X266416429Y-87037858D01*
X266130714Y-87037858D02*
X266273571Y-87109286D01*
X266345000Y-87180715D01*
X266416429Y-87323572D01*
X266416429Y-87466429D01*
X266416429Y-87966429D02*
X265416429Y-87966429D01*
X266273571Y-87966429D02*
X266345000Y-88037857D01*
X266416429Y-88180715D01*
X266416429Y-88395000D01*
X266345000Y-88537857D01*
X266202143Y-88609286D01*
X265416429Y-88609286D01*
X265487857Y-89895000D02*
X265416429Y-89752143D01*
X265416429Y-89466429D01*
X265487857Y-89323572D01*
X265630714Y-89252143D01*
X266202143Y-89252143D01*
X266345000Y-89323572D01*
X266416429Y-89466429D01*
X266416429Y-89752143D01*
X266345000Y-89895000D01*
X266202143Y-89966429D01*
X266059286Y-89966429D01*
X265916429Y-89252143D01*
X266416429Y-90395000D02*
X266416429Y-90966429D01*
X266916429Y-90609286D02*
X265630714Y-90609286D01*
X265487857Y-90680714D01*
X265416429Y-90823572D01*
X265416429Y-90966429D01*
X265416429Y-93466429D02*
X266130714Y-92966429D01*
X265416429Y-92609286D02*
X266916429Y-92609286D01*
X266916429Y-93180714D01*
X266845000Y-93323572D01*
X266773571Y-93395000D01*
X266630714Y-93466429D01*
X266416429Y-93466429D01*
X266273571Y-93395000D01*
X266202143Y-93323572D01*
X266130714Y-93180714D01*
X266130714Y-92609286D01*
X265416429Y-94752143D02*
X266202143Y-94752143D01*
X266345000Y-94680714D01*
X266416429Y-94537857D01*
X266416429Y-94252143D01*
X266345000Y-94109286D01*
X265487857Y-94752143D02*
X265416429Y-94609286D01*
X265416429Y-94252143D01*
X265487857Y-94109286D01*
X265630714Y-94037857D01*
X265773571Y-94037857D01*
X265916429Y-94109286D01*
X265987857Y-94252143D01*
X265987857Y-94609286D01*
X266059286Y-94752143D01*
X265416429Y-96109286D02*
X266916429Y-96109286D01*
X265487857Y-96109286D02*
X265416429Y-95966429D01*
X265416429Y-95680715D01*
X265487857Y-95537857D01*
X265559286Y-95466429D01*
X265702143Y-95395000D01*
X266130714Y-95395000D01*
X266273571Y-95466429D01*
X266345000Y-95537857D01*
X266416429Y-95680715D01*
X266416429Y-95966429D01*
X266345000Y-96109286D01*
X265416429Y-96823572D02*
X266416429Y-96823572D01*
X266916429Y-96823572D02*
X266845000Y-96752143D01*
X266773571Y-96823572D01*
X266845000Y-96895000D01*
X266916429Y-96823572D01*
X266773571Y-96823572D01*
X265416429Y-97752144D02*
X265487857Y-97609286D01*
X265559286Y-97537858D01*
X265702143Y-97466429D01*
X266130714Y-97466429D01*
X266273571Y-97537858D01*
X266345000Y-97609286D01*
X266416429Y-97752144D01*
X266416429Y-97966429D01*
X266345000Y-98109286D01*
X266273571Y-98180715D01*
X266130714Y-98252144D01*
X265702143Y-98252144D01*
X265559286Y-98180715D01*
X265487857Y-98109286D01*
X265416429Y-97966429D01*
X265416429Y-97752144D01*
X265845000Y-99966429D02*
X265845000Y-100680715D01*
X265416429Y-99823572D02*
X266916429Y-100323572D01*
X265416429Y-100823572D01*
X265416429Y-101537858D02*
X265487857Y-101395000D01*
X265630714Y-101323572D01*
X266916429Y-101323572D01*
X265416429Y-102752143D02*
X266202143Y-102752143D01*
X266345000Y-102680714D01*
X266416429Y-102537857D01*
X266416429Y-102252143D01*
X266345000Y-102109286D01*
X265487857Y-102752143D02*
X265416429Y-102609286D01*
X265416429Y-102252143D01*
X265487857Y-102109286D01*
X265630714Y-102037857D01*
X265773571Y-102037857D01*
X265916429Y-102109286D01*
X265987857Y-102252143D01*
X265987857Y-102609286D01*
X266059286Y-102752143D01*
X265416429Y-103466429D02*
X266416429Y-103466429D01*
X266273571Y-103466429D02*
X266345000Y-103537857D01*
X266416429Y-103680715D01*
X266416429Y-103895000D01*
X266345000Y-104037857D01*
X266202143Y-104109286D01*
X265416429Y-104109286D01*
X266202143Y-104109286D02*
X266345000Y-104180715D01*
X266416429Y-104323572D01*
X266416429Y-104537857D01*
X266345000Y-104680715D01*
X266202143Y-104752143D01*
X265416429Y-104752143D01*
X265559286Y-107466429D02*
X265487857Y-107395000D01*
X265416429Y-107180714D01*
X265416429Y-107037857D01*
X265487857Y-106823572D01*
X265630714Y-106680714D01*
X265773571Y-106609286D01*
X266059286Y-106537857D01*
X266273571Y-106537857D01*
X266559286Y-106609286D01*
X266702143Y-106680714D01*
X266845000Y-106823572D01*
X266916429Y-107037857D01*
X266916429Y-107180714D01*
X266845000Y-107395000D01*
X266773571Y-107466429D01*
X265416429Y-108323572D02*
X265487857Y-108180714D01*
X265630714Y-108109286D01*
X266916429Y-108109286D01*
X265416429Y-109109286D02*
X265487857Y-108966428D01*
X265559286Y-108895000D01*
X265702143Y-108823571D01*
X266130714Y-108823571D01*
X266273571Y-108895000D01*
X266345000Y-108966428D01*
X266416429Y-109109286D01*
X266416429Y-109323571D01*
X266345000Y-109466428D01*
X266273571Y-109537857D01*
X266130714Y-109609286D01*
X265702143Y-109609286D01*
X265559286Y-109537857D01*
X265487857Y-109466428D01*
X265416429Y-109323571D01*
X265416429Y-109109286D01*
X265487857Y-110895000D02*
X265416429Y-110752143D01*
X265416429Y-110466429D01*
X265487857Y-110323571D01*
X265559286Y-110252143D01*
X265702143Y-110180714D01*
X266130714Y-110180714D01*
X266273571Y-110252143D01*
X266345000Y-110323571D01*
X266416429Y-110466429D01*
X266416429Y-110752143D01*
X266345000Y-110895000D01*
X265416429Y-111537857D02*
X266916429Y-111537857D01*
X265987857Y-111680714D02*
X265416429Y-112109285D01*
X266416429Y-112109285D02*
X265845000Y-111537857D01*
X262866429Y-75609286D02*
X264366429Y-75609286D01*
X264366429Y-75966429D01*
X264295000Y-76180714D01*
X264152143Y-76323572D01*
X264009286Y-76395000D01*
X263723571Y-76466429D01*
X263509286Y-76466429D01*
X263223571Y-76395000D01*
X263080714Y-76323572D01*
X262937857Y-76180714D01*
X262866429Y-75966429D01*
X262866429Y-75609286D01*
X262937857Y-77680714D02*
X262866429Y-77537857D01*
X262866429Y-77252143D01*
X262937857Y-77109286D01*
X263080714Y-77037857D01*
X263652143Y-77037857D01*
X263795000Y-77109286D01*
X263866429Y-77252143D01*
X263866429Y-77537857D01*
X263795000Y-77680714D01*
X263652143Y-77752143D01*
X263509286Y-77752143D01*
X263366429Y-77037857D01*
X262937857Y-78323571D02*
X262866429Y-78466428D01*
X262866429Y-78752143D01*
X262937857Y-78895000D01*
X263080714Y-78966428D01*
X263152143Y-78966428D01*
X263295000Y-78895000D01*
X263366429Y-78752143D01*
X263366429Y-78537857D01*
X263437857Y-78395000D01*
X263580714Y-78323571D01*
X263652143Y-78323571D01*
X263795000Y-78395000D01*
X263866429Y-78537857D01*
X263866429Y-78752143D01*
X263795000Y-78895000D01*
X262866429Y-79609286D02*
X263866429Y-79609286D01*
X264366429Y-79609286D02*
X264295000Y-79537857D01*
X264223571Y-79609286D01*
X264295000Y-79680714D01*
X264366429Y-79609286D01*
X264223571Y-79609286D01*
X263866429Y-80966429D02*
X262652143Y-80966429D01*
X262509286Y-80895000D01*
X262437857Y-80823572D01*
X262366429Y-80680715D01*
X262366429Y-80466429D01*
X262437857Y-80323572D01*
X262937857Y-80966429D02*
X262866429Y-80823572D01*
X262866429Y-80537858D01*
X262937857Y-80395000D01*
X263009286Y-80323572D01*
X263152143Y-80252143D01*
X263580714Y-80252143D01*
X263723571Y-80323572D01*
X263795000Y-80395000D01*
X263866429Y-80537858D01*
X263866429Y-80823572D01*
X263795000Y-80966429D01*
X263866429Y-81680715D02*
X262866429Y-81680715D01*
X263723571Y-81680715D02*
X263795000Y-81752143D01*
X263866429Y-81895001D01*
X263866429Y-82109286D01*
X263795000Y-82252143D01*
X263652143Y-82323572D01*
X262866429Y-82323572D01*
X262937857Y-83609286D02*
X262866429Y-83466429D01*
X262866429Y-83180715D01*
X262937857Y-83037858D01*
X263080714Y-82966429D01*
X263652143Y-82966429D01*
X263795000Y-83037858D01*
X263866429Y-83180715D01*
X263866429Y-83466429D01*
X263795000Y-83609286D01*
X263652143Y-83680715D01*
X263509286Y-83680715D01*
X263366429Y-82966429D01*
X262866429Y-84966429D02*
X264366429Y-84966429D01*
X262937857Y-84966429D02*
X262866429Y-84823572D01*
X262866429Y-84537858D01*
X262937857Y-84395000D01*
X263009286Y-84323572D01*
X263152143Y-84252143D01*
X263580714Y-84252143D01*
X263723571Y-84323572D01*
X263795000Y-84395000D01*
X263866429Y-84537858D01*
X263866429Y-84823572D01*
X263795000Y-84966429D01*
X262866429Y-86823572D02*
X264366429Y-86823572D01*
X263795000Y-86823572D02*
X263866429Y-86966429D01*
X263866429Y-87252143D01*
X263795000Y-87395000D01*
X263723571Y-87466429D01*
X263580714Y-87537858D01*
X263152143Y-87537858D01*
X263009286Y-87466429D01*
X262937857Y-87395000D01*
X262866429Y-87252143D01*
X262866429Y-86966429D01*
X262937857Y-86823572D01*
X263866429Y-88037858D02*
X262866429Y-88395001D01*
X263866429Y-88752143D02*
X262866429Y-88395001D01*
X262509286Y-88252143D01*
X262437857Y-88180715D01*
X262366429Y-88037858D01*
X263295000Y-90395000D02*
X263295000Y-91109286D01*
X262866429Y-90252143D02*
X264366429Y-90752143D01*
X262866429Y-91252143D01*
X263866429Y-92395000D02*
X262866429Y-92395000D01*
X263866429Y-91752143D02*
X263080714Y-91752143D01*
X262937857Y-91823571D01*
X262866429Y-91966429D01*
X262866429Y-92180714D01*
X262937857Y-92323571D01*
X263009286Y-92395000D01*
X262937857Y-93037857D02*
X262866429Y-93180714D01*
X262866429Y-93466429D01*
X262937857Y-93609286D01*
X263080714Y-93680714D01*
X263152143Y-93680714D01*
X263295000Y-93609286D01*
X263366429Y-93466429D01*
X263366429Y-93252143D01*
X263437857Y-93109286D01*
X263580714Y-93037857D01*
X263652143Y-93037857D01*
X263795000Y-93109286D01*
X263866429Y-93252143D01*
X263866429Y-93466429D01*
X263795000Y-93609286D01*
X263866429Y-94109286D02*
X263866429Y-94680715D01*
X264366429Y-94323572D02*
X263080714Y-94323572D01*
X262937857Y-94395000D01*
X262866429Y-94537858D01*
X262866429Y-94680715D01*
X262866429Y-95180715D02*
X263866429Y-95180715D01*
X264366429Y-95180715D02*
X264295000Y-95109286D01*
X264223571Y-95180715D01*
X264295000Y-95252143D01*
X264366429Y-95180715D01*
X264223571Y-95180715D01*
X263866429Y-95895001D02*
X262866429Y-95895001D01*
X263723571Y-95895001D02*
X263795000Y-95966429D01*
X263866429Y-96109287D01*
X263866429Y-96323572D01*
X263795000Y-96466429D01*
X263652143Y-96537858D01*
X262866429Y-96537858D01*
X262866429Y-99252144D02*
X263580714Y-98752144D01*
X262866429Y-98395001D02*
X264366429Y-98395001D01*
X264366429Y-98966429D01*
X264295000Y-99109287D01*
X264223571Y-99180715D01*
X264080714Y-99252144D01*
X263866429Y-99252144D01*
X263723571Y-99180715D01*
X263652143Y-99109287D01*
X263580714Y-98966429D01*
X263580714Y-98395001D01*
X263009286Y-99895001D02*
X262937857Y-99966429D01*
X262866429Y-99895001D01*
X262937857Y-99823572D01*
X263009286Y-99895001D01*
X262866429Y-99895001D01*
X262866429Y-102466430D02*
X262866429Y-101752144D01*
X264366429Y-101752144D01*
X262937857Y-103537858D02*
X262866429Y-103395001D01*
X262866429Y-103109287D01*
X262937857Y-102966430D01*
X263080714Y-102895001D01*
X263652143Y-102895001D01*
X263795000Y-102966430D01*
X263866429Y-103109287D01*
X263866429Y-103395001D01*
X263795000Y-103537858D01*
X263652143Y-103609287D01*
X263509286Y-103609287D01*
X263366429Y-102895001D01*
X263866429Y-104109287D02*
X262866429Y-104466430D01*
X263866429Y-104823572D02*
X262866429Y-104466430D01*
X262509286Y-104323572D01*
X262437857Y-104252144D01*
X262366429Y-104109287D01*
X262866429Y-106037858D02*
X264366429Y-106037858D01*
X262937857Y-106037858D02*
X262866429Y-105895001D01*
X262866429Y-105609287D01*
X262937857Y-105466429D01*
X263009286Y-105395001D01*
X263152143Y-105323572D01*
X263580714Y-105323572D01*
X263723571Y-105395001D01*
X263795000Y-105466429D01*
X263866429Y-105609287D01*
X263866429Y-105895001D01*
X263795000Y-106037858D01*
X262937857Y-107323572D02*
X262866429Y-107180715D01*
X262866429Y-106895001D01*
X262937857Y-106752144D01*
X263080714Y-106680715D01*
X263652143Y-106680715D01*
X263795000Y-106752144D01*
X263866429Y-106895001D01*
X263866429Y-107180715D01*
X263795000Y-107323572D01*
X263652143Y-107395001D01*
X263509286Y-107395001D01*
X263366429Y-106680715D01*
X262937857Y-108680715D02*
X262866429Y-108537858D01*
X262866429Y-108252144D01*
X262937857Y-108109286D01*
X263009286Y-108037858D01*
X263152143Y-107966429D01*
X263580714Y-107966429D01*
X263723571Y-108037858D01*
X263795000Y-108109286D01*
X263866429Y-108252144D01*
X263866429Y-108537858D01*
X263795000Y-108680715D01*
X262866429Y-109323572D02*
X264366429Y-109323572D01*
X263437857Y-109466429D02*
X262866429Y-109895000D01*
X263866429Y-109895000D02*
X263295000Y-109323572D01*
X262937857Y-111109286D02*
X262866429Y-110966429D01*
X262866429Y-110680715D01*
X262937857Y-110537858D01*
X263080714Y-110466429D01*
X263652143Y-110466429D01*
X263795000Y-110537858D01*
X263866429Y-110680715D01*
X263866429Y-110966429D01*
X263795000Y-111109286D01*
X263652143Y-111180715D01*
X263509286Y-111180715D01*
X263366429Y-110466429D01*
X262866429Y-111823572D02*
X263866429Y-111823572D01*
X263580714Y-111823572D02*
X263723571Y-111895000D01*
X263795000Y-111966429D01*
X263866429Y-112109286D01*
X263866429Y-112252143D01*
X260316429Y-83537854D02*
X261816429Y-83537854D01*
X260316429Y-84180711D02*
X261102143Y-84180711D01*
X261245000Y-84109282D01*
X261316429Y-83966425D01*
X261316429Y-83752140D01*
X261245000Y-83609282D01*
X261173571Y-83537854D01*
X261316429Y-84680711D02*
X261316429Y-85252140D01*
X261816429Y-84894997D02*
X260530714Y-84894997D01*
X260387857Y-84966425D01*
X260316429Y-85109283D01*
X260316429Y-85252140D01*
X261316429Y-85537854D02*
X261316429Y-86109283D01*
X261816429Y-85752140D02*
X260530714Y-85752140D01*
X260387857Y-85823568D01*
X260316429Y-85966426D01*
X260316429Y-86109283D01*
X261316429Y-86609283D02*
X259816429Y-86609283D01*
X261245000Y-86609283D02*
X261316429Y-86752140D01*
X261316429Y-87037854D01*
X261245000Y-87180711D01*
X261173571Y-87252140D01*
X261030714Y-87323569D01*
X260602143Y-87323569D01*
X260459286Y-87252140D01*
X260387857Y-87180711D01*
X260316429Y-87037854D01*
X260316429Y-86752140D01*
X260387857Y-86609283D01*
X260459286Y-87966426D02*
X260387857Y-88037854D01*
X260316429Y-87966426D01*
X260387857Y-87894997D01*
X260459286Y-87966426D01*
X260316429Y-87966426D01*
X261245000Y-87966426D02*
X261173571Y-88037854D01*
X261102143Y-87966426D01*
X261173571Y-87894997D01*
X261245000Y-87966426D01*
X261102143Y-87966426D01*
X261887857Y-89752140D02*
X259959286Y-88466426D01*
X261887857Y-91323569D02*
X259959286Y-90037855D01*
X261316429Y-91680713D02*
X260316429Y-91966427D01*
X261030714Y-92252141D01*
X260316429Y-92537856D01*
X261316429Y-92823570D01*
X261316429Y-93252142D02*
X260316429Y-93537856D01*
X261030714Y-93823570D01*
X260316429Y-94109285D01*
X261316429Y-94394999D01*
X261316429Y-94823571D02*
X260316429Y-95109285D01*
X261030714Y-95394999D01*
X260316429Y-95680714D01*
X261316429Y-95966428D01*
X260459286Y-96537857D02*
X260387857Y-96609285D01*
X260316429Y-96537857D01*
X260387857Y-96466428D01*
X260459286Y-96537857D01*
X260316429Y-96537857D01*
X260316429Y-97252143D02*
X261316429Y-97252143D01*
X261030714Y-97252143D02*
X261173571Y-97323571D01*
X261245000Y-97395000D01*
X261316429Y-97537857D01*
X261316429Y-97680714D01*
X260387857Y-98752142D02*
X260316429Y-98609285D01*
X260316429Y-98323571D01*
X260387857Y-98180714D01*
X260530714Y-98109285D01*
X261102143Y-98109285D01*
X261245000Y-98180714D01*
X261316429Y-98323571D01*
X261316429Y-98609285D01*
X261245000Y-98752142D01*
X261102143Y-98823571D01*
X260959286Y-98823571D01*
X260816429Y-98109285D01*
X261316429Y-99466428D02*
X260316429Y-99466428D01*
X261173571Y-99466428D02*
X261245000Y-99537856D01*
X261316429Y-99680714D01*
X261316429Y-99894999D01*
X261245000Y-100037856D01*
X261102143Y-100109285D01*
X260316429Y-100109285D01*
X260316429Y-100823571D02*
X261816429Y-100823571D01*
X260887857Y-100966428D02*
X260316429Y-101394999D01*
X261316429Y-101394999D02*
X260745000Y-100823571D01*
X260316429Y-102037857D02*
X261316429Y-102037857D01*
X261816429Y-102037857D02*
X261745000Y-101966428D01*
X261673571Y-102037857D01*
X261745000Y-102109285D01*
X261816429Y-102037857D01*
X261673571Y-102037857D01*
X261316429Y-102752143D02*
X260316429Y-102752143D01*
X261173571Y-102752143D02*
X261245000Y-102823571D01*
X261316429Y-102966429D01*
X261316429Y-103180714D01*
X261245000Y-103323571D01*
X261102143Y-103395000D01*
X260316429Y-103395000D01*
X261316429Y-104752143D02*
X260316429Y-104752143D01*
X261887857Y-104395000D02*
X260816429Y-104037857D01*
X260816429Y-104966429D01*
X261673571Y-105466428D02*
X261745000Y-105537857D01*
X261816429Y-105680714D01*
X261816429Y-106037857D01*
X261745000Y-106180714D01*
X261673571Y-106252143D01*
X261530714Y-106323571D01*
X261387857Y-106323571D01*
X261173571Y-106252143D01*
X260316429Y-105395000D01*
X260316429Y-106323571D01*
X260459286Y-106966428D02*
X260387857Y-107037856D01*
X260316429Y-106966428D01*
X260387857Y-106894999D01*
X260459286Y-106966428D01*
X260316429Y-106966428D01*
X261316429Y-107680714D02*
X260316429Y-107680714D01*
X261173571Y-107680714D02*
X261245000Y-107752142D01*
X261316429Y-107895000D01*
X261316429Y-108109285D01*
X261245000Y-108252142D01*
X261102143Y-108323571D01*
X260316429Y-108323571D01*
X260387857Y-109609285D02*
X260316429Y-109466428D01*
X260316429Y-109180714D01*
X260387857Y-109037857D01*
X260530714Y-108966428D01*
X261102143Y-108966428D01*
X261245000Y-109037857D01*
X261316429Y-109180714D01*
X261316429Y-109466428D01*
X261245000Y-109609285D01*
X261102143Y-109680714D01*
X260959286Y-109680714D01*
X260816429Y-108966428D01*
X261316429Y-110109285D02*
X261316429Y-110680714D01*
X261816429Y-110323571D02*
X260530714Y-110323571D01*
X260387857Y-110394999D01*
X260316429Y-110537857D01*
X260316429Y-110680714D01*
X261887857Y-112252142D02*
X259959286Y-110966428D01*
X258195000Y-70395000D02*
X258195000Y-71109286D01*
X257766429Y-70252143D02*
X259266429Y-70752143D01*
X257766429Y-71252143D01*
X257766429Y-71966429D02*
X257837857Y-71823571D01*
X257980714Y-71752143D01*
X259266429Y-71752143D01*
X257766429Y-72752143D02*
X257837857Y-72609285D01*
X257980714Y-72537857D01*
X259266429Y-72537857D01*
X257766429Y-75109285D02*
X259266429Y-75109285D01*
X257837857Y-75109285D02*
X257766429Y-74966428D01*
X257766429Y-74680714D01*
X257837857Y-74537856D01*
X257909286Y-74466428D01*
X258052143Y-74394999D01*
X258480714Y-74394999D01*
X258623571Y-74466428D01*
X258695000Y-74537856D01*
X258766429Y-74680714D01*
X258766429Y-74966428D01*
X258695000Y-75109285D01*
X257766429Y-76037857D02*
X257837857Y-75894999D01*
X257909286Y-75823571D01*
X258052143Y-75752142D01*
X258480714Y-75752142D01*
X258623571Y-75823571D01*
X258695000Y-75894999D01*
X258766429Y-76037857D01*
X258766429Y-76252142D01*
X258695000Y-76394999D01*
X258623571Y-76466428D01*
X258480714Y-76537857D01*
X258052143Y-76537857D01*
X257909286Y-76466428D01*
X257837857Y-76394999D01*
X257766429Y-76252142D01*
X257766429Y-76037857D01*
X257837857Y-77823571D02*
X257766429Y-77680714D01*
X257766429Y-77395000D01*
X257837857Y-77252142D01*
X257909286Y-77180714D01*
X258052143Y-77109285D01*
X258480714Y-77109285D01*
X258623571Y-77180714D01*
X258695000Y-77252142D01*
X258766429Y-77395000D01*
X258766429Y-77680714D01*
X258695000Y-77823571D01*
X258766429Y-79109285D02*
X257766429Y-79109285D01*
X258766429Y-78466428D02*
X257980714Y-78466428D01*
X257837857Y-78537856D01*
X257766429Y-78680714D01*
X257766429Y-78894999D01*
X257837857Y-79037856D01*
X257909286Y-79109285D01*
X257766429Y-79823571D02*
X258766429Y-79823571D01*
X258623571Y-79823571D02*
X258695000Y-79894999D01*
X258766429Y-80037857D01*
X258766429Y-80252142D01*
X258695000Y-80394999D01*
X258552143Y-80466428D01*
X257766429Y-80466428D01*
X258552143Y-80466428D02*
X258695000Y-80537857D01*
X258766429Y-80680714D01*
X258766429Y-80894999D01*
X258695000Y-81037857D01*
X258552143Y-81109285D01*
X257766429Y-81109285D01*
X257837857Y-82394999D02*
X257766429Y-82252142D01*
X257766429Y-81966428D01*
X257837857Y-81823571D01*
X257980714Y-81752142D01*
X258552143Y-81752142D01*
X258695000Y-81823571D01*
X258766429Y-81966428D01*
X258766429Y-82252142D01*
X258695000Y-82394999D01*
X258552143Y-82466428D01*
X258409286Y-82466428D01*
X258266429Y-81752142D01*
X258766429Y-83109285D02*
X257766429Y-83109285D01*
X258623571Y-83109285D02*
X258695000Y-83180713D01*
X258766429Y-83323571D01*
X258766429Y-83537856D01*
X258695000Y-83680713D01*
X258552143Y-83752142D01*
X257766429Y-83752142D01*
X258766429Y-84252142D02*
X258766429Y-84823571D01*
X259266429Y-84466428D02*
X257980714Y-84466428D01*
X257837857Y-84537856D01*
X257766429Y-84680714D01*
X257766429Y-84823571D01*
X257837857Y-85252142D02*
X257766429Y-85394999D01*
X257766429Y-85680714D01*
X257837857Y-85823571D01*
X257980714Y-85894999D01*
X258052143Y-85894999D01*
X258195000Y-85823571D01*
X258266429Y-85680714D01*
X258266429Y-85466428D01*
X258337857Y-85323571D01*
X258480714Y-85252142D01*
X258552143Y-85252142D01*
X258695000Y-85323571D01*
X258766429Y-85466428D01*
X258766429Y-85680714D01*
X258695000Y-85823571D01*
X257766429Y-87680714D02*
X259266429Y-87680714D01*
X257766429Y-88323571D02*
X258552143Y-88323571D01*
X258695000Y-88252142D01*
X258766429Y-88109285D01*
X258766429Y-87895000D01*
X258695000Y-87752142D01*
X258623571Y-87680714D01*
X257766429Y-89680714D02*
X258552143Y-89680714D01*
X258695000Y-89609285D01*
X258766429Y-89466428D01*
X258766429Y-89180714D01*
X258695000Y-89037857D01*
X257837857Y-89680714D02*
X257766429Y-89537857D01*
X257766429Y-89180714D01*
X257837857Y-89037857D01*
X257980714Y-88966428D01*
X258123571Y-88966428D01*
X258266429Y-89037857D01*
X258337857Y-89180714D01*
X258337857Y-89537857D01*
X258409286Y-89680714D01*
X257766429Y-90395000D02*
X258766429Y-90395000D01*
X258480714Y-90395000D02*
X258623571Y-90466428D01*
X258695000Y-90537857D01*
X258766429Y-90680714D01*
X258766429Y-90823571D01*
X257766429Y-91966428D02*
X259266429Y-91966428D01*
X257837857Y-91966428D02*
X257766429Y-91823571D01*
X257766429Y-91537857D01*
X257837857Y-91394999D01*
X257909286Y-91323571D01*
X258052143Y-91252142D01*
X258480714Y-91252142D01*
X258623571Y-91323571D01*
X258695000Y-91394999D01*
X258766429Y-91537857D01*
X258766429Y-91823571D01*
X258695000Y-91966428D01*
X258766429Y-92537857D02*
X257766429Y-92823571D01*
X258480714Y-93109285D01*
X257766429Y-93395000D01*
X258766429Y-93680714D01*
X257766429Y-94895000D02*
X258552143Y-94895000D01*
X258695000Y-94823571D01*
X258766429Y-94680714D01*
X258766429Y-94395000D01*
X258695000Y-94252143D01*
X257837857Y-94895000D02*
X257766429Y-94752143D01*
X257766429Y-94395000D01*
X257837857Y-94252143D01*
X257980714Y-94180714D01*
X258123571Y-94180714D01*
X258266429Y-94252143D01*
X258337857Y-94395000D01*
X258337857Y-94752143D01*
X258409286Y-94895000D01*
X257766429Y-95609286D02*
X258766429Y-95609286D01*
X258480714Y-95609286D02*
X258623571Y-95680714D01*
X258695000Y-95752143D01*
X258766429Y-95895000D01*
X258766429Y-96037857D01*
X257837857Y-97109285D02*
X257766429Y-96966428D01*
X257766429Y-96680714D01*
X257837857Y-96537857D01*
X257980714Y-96466428D01*
X258552143Y-96466428D01*
X258695000Y-96537857D01*
X258766429Y-96680714D01*
X258766429Y-96966428D01*
X258695000Y-97109285D01*
X258552143Y-97180714D01*
X258409286Y-97180714D01*
X258266429Y-96466428D01*
X257766429Y-99609285D02*
X258552143Y-99609285D01*
X258695000Y-99537856D01*
X258766429Y-99394999D01*
X258766429Y-99109285D01*
X258695000Y-98966428D01*
X257837857Y-99609285D02*
X257766429Y-99466428D01*
X257766429Y-99109285D01*
X257837857Y-98966428D01*
X257980714Y-98894999D01*
X258123571Y-98894999D01*
X258266429Y-98966428D01*
X258337857Y-99109285D01*
X258337857Y-99466428D01*
X258409286Y-99609285D01*
X258766429Y-100323571D02*
X257766429Y-100323571D01*
X258623571Y-100323571D02*
X258695000Y-100394999D01*
X258766429Y-100537857D01*
X258766429Y-100752142D01*
X258695000Y-100894999D01*
X258552143Y-100966428D01*
X257766429Y-100966428D01*
X257766429Y-102323571D02*
X259266429Y-102323571D01*
X257837857Y-102323571D02*
X257766429Y-102180714D01*
X257766429Y-101895000D01*
X257837857Y-101752142D01*
X257909286Y-101680714D01*
X258052143Y-101609285D01*
X258480714Y-101609285D01*
X258623571Y-101680714D01*
X258695000Y-101752142D01*
X258766429Y-101895000D01*
X258766429Y-102180714D01*
X258695000Y-102323571D01*
X257837857Y-104109285D02*
X257766429Y-104252142D01*
X257766429Y-104537857D01*
X257837857Y-104680714D01*
X257980714Y-104752142D01*
X258052143Y-104752142D01*
X258195000Y-104680714D01*
X258266429Y-104537857D01*
X258266429Y-104323571D01*
X258337857Y-104180714D01*
X258480714Y-104109285D01*
X258552143Y-104109285D01*
X258695000Y-104180714D01*
X258766429Y-104323571D01*
X258766429Y-104537857D01*
X258695000Y-104680714D01*
X257766429Y-105609286D02*
X257837857Y-105466428D01*
X257909286Y-105395000D01*
X258052143Y-105323571D01*
X258480714Y-105323571D01*
X258623571Y-105395000D01*
X258695000Y-105466428D01*
X258766429Y-105609286D01*
X258766429Y-105823571D01*
X258695000Y-105966428D01*
X258623571Y-106037857D01*
X258480714Y-106109286D01*
X258052143Y-106109286D01*
X257909286Y-106037857D01*
X257837857Y-105966428D01*
X257766429Y-105823571D01*
X257766429Y-105609286D01*
X258766429Y-106537857D02*
X258766429Y-107109286D01*
X257766429Y-106752143D02*
X259052143Y-106752143D01*
X259195000Y-106823571D01*
X259266429Y-106966429D01*
X259266429Y-107109286D01*
X258766429Y-107466429D02*
X257766429Y-107752143D01*
X258480714Y-108037857D01*
X257766429Y-108323572D01*
X258766429Y-108609286D01*
X257766429Y-109823572D02*
X258552143Y-109823572D01*
X258695000Y-109752143D01*
X258766429Y-109609286D01*
X258766429Y-109323572D01*
X258695000Y-109180715D01*
X257837857Y-109823572D02*
X257766429Y-109680715D01*
X257766429Y-109323572D01*
X257837857Y-109180715D01*
X257980714Y-109109286D01*
X258123571Y-109109286D01*
X258266429Y-109180715D01*
X258337857Y-109323572D01*
X258337857Y-109680715D01*
X258409286Y-109823572D01*
X257766429Y-110537858D02*
X258766429Y-110537858D01*
X258480714Y-110537858D02*
X258623571Y-110609286D01*
X258695000Y-110680715D01*
X258766429Y-110823572D01*
X258766429Y-110966429D01*
X257837857Y-112037857D02*
X257766429Y-111895000D01*
X257766429Y-111609286D01*
X257837857Y-111466429D01*
X257980714Y-111395000D01*
X258552143Y-111395000D01*
X258695000Y-111466429D01*
X258766429Y-111609286D01*
X258766429Y-111895000D01*
X258695000Y-112037857D01*
X258552143Y-112109286D01*
X258409286Y-112109286D01*
X258266429Y-111395000D01*
X256216429Y-87395002D02*
X256216429Y-87966431D01*
X255216429Y-87609288D02*
X256502143Y-87609288D01*
X256645000Y-87680716D01*
X256716429Y-87823574D01*
X256716429Y-87966431D01*
X255216429Y-88466431D02*
X256216429Y-88466431D01*
X255930714Y-88466431D02*
X256073571Y-88537859D01*
X256145000Y-88609288D01*
X256216429Y-88752145D01*
X256216429Y-88895002D01*
X255287857Y-89966430D02*
X255216429Y-89823573D01*
X255216429Y-89537859D01*
X255287857Y-89395002D01*
X255430714Y-89323573D01*
X256002143Y-89323573D01*
X256145000Y-89395002D01*
X256216429Y-89537859D01*
X256216429Y-89823573D01*
X256145000Y-89966430D01*
X256002143Y-90037859D01*
X255859286Y-90037859D01*
X255716429Y-89323573D01*
X255287857Y-91252144D02*
X255216429Y-91109287D01*
X255216429Y-90823573D01*
X255287857Y-90680716D01*
X255430714Y-90609287D01*
X256002143Y-90609287D01*
X256145000Y-90680716D01*
X256216429Y-90823573D01*
X256216429Y-91109287D01*
X256145000Y-91252144D01*
X256002143Y-91323573D01*
X255859286Y-91323573D01*
X255716429Y-90609287D01*
X255287857Y-92537858D02*
X255216429Y-92395001D01*
X255216429Y-92109287D01*
X255287857Y-91966430D01*
X255430714Y-91895001D01*
X256002143Y-91895001D01*
X256145000Y-91966430D01*
X256216429Y-92109287D01*
X256216429Y-92395001D01*
X256145000Y-92537858D01*
X256002143Y-92609287D01*
X255859286Y-92609287D01*
X255716429Y-91895001D01*
X255216429Y-93466430D02*
X255287857Y-93323572D01*
X255430714Y-93252144D01*
X256716429Y-93252144D01*
X256216429Y-93895001D02*
X255216429Y-94252144D01*
X256216429Y-94609286D02*
X255216429Y-94252144D01*
X254859286Y-94109286D01*
X254787857Y-94037858D01*
X254716429Y-93895001D01*
X255216429Y-96966429D02*
X256002143Y-96966429D01*
X256145000Y-96895000D01*
X256216429Y-96752143D01*
X256216429Y-96466429D01*
X256145000Y-96323572D01*
X255287857Y-96966429D02*
X255216429Y-96823572D01*
X255216429Y-96466429D01*
X255287857Y-96323572D01*
X255430714Y-96252143D01*
X255573571Y-96252143D01*
X255716429Y-96323572D01*
X255787857Y-96466429D01*
X255787857Y-96823572D01*
X255859286Y-96966429D01*
X256216429Y-97537858D02*
X255216429Y-97895001D01*
X256216429Y-98252143D01*
X255216429Y-99466429D02*
X256002143Y-99466429D01*
X256145000Y-99395000D01*
X256216429Y-99252143D01*
X256216429Y-98966429D01*
X256145000Y-98823572D01*
X255287857Y-99466429D02*
X255216429Y-99323572D01*
X255216429Y-98966429D01*
X255287857Y-98823572D01*
X255430714Y-98752143D01*
X255573571Y-98752143D01*
X255716429Y-98823572D01*
X255787857Y-98966429D01*
X255787857Y-99323572D01*
X255859286Y-99466429D01*
X255216429Y-100180715D02*
X256216429Y-100180715D01*
X256716429Y-100180715D02*
X256645000Y-100109286D01*
X256573571Y-100180715D01*
X256645000Y-100252143D01*
X256716429Y-100180715D01*
X256573571Y-100180715D01*
X255216429Y-101109287D02*
X255287857Y-100966429D01*
X255430714Y-100895001D01*
X256716429Y-100895001D01*
X255216429Y-102323572D02*
X256002143Y-102323572D01*
X256145000Y-102252143D01*
X256216429Y-102109286D01*
X256216429Y-101823572D01*
X256145000Y-101680715D01*
X255287857Y-102323572D02*
X255216429Y-102180715D01*
X255216429Y-101823572D01*
X255287857Y-101680715D01*
X255430714Y-101609286D01*
X255573571Y-101609286D01*
X255716429Y-101680715D01*
X255787857Y-101823572D01*
X255787857Y-102180715D01*
X255859286Y-102323572D01*
X255216429Y-103037858D02*
X256716429Y-103037858D01*
X256145000Y-103037858D02*
X256216429Y-103180715D01*
X256216429Y-103466429D01*
X256145000Y-103609286D01*
X256073571Y-103680715D01*
X255930714Y-103752144D01*
X255502143Y-103752144D01*
X255359286Y-103680715D01*
X255287857Y-103609286D01*
X255216429Y-103466429D01*
X255216429Y-103180715D01*
X255287857Y-103037858D01*
X255216429Y-104609287D02*
X255287857Y-104466429D01*
X255430714Y-104395001D01*
X256716429Y-104395001D01*
X255287857Y-105752143D02*
X255216429Y-105609286D01*
X255216429Y-105323572D01*
X255287857Y-105180715D01*
X255430714Y-105109286D01*
X256002143Y-105109286D01*
X256145000Y-105180715D01*
X256216429Y-105323572D01*
X256216429Y-105609286D01*
X256145000Y-105752143D01*
X256002143Y-105823572D01*
X255859286Y-105823572D01*
X255716429Y-105109286D01*
X256216429Y-107395000D02*
X256216429Y-107966429D01*
X255216429Y-107609286D02*
X256502143Y-107609286D01*
X256645000Y-107680714D01*
X256716429Y-107823572D01*
X256716429Y-107966429D01*
X255216429Y-108466429D02*
X256216429Y-108466429D01*
X255930714Y-108466429D02*
X256073571Y-108537857D01*
X256145000Y-108609286D01*
X256216429Y-108752143D01*
X256216429Y-108895000D01*
X255216429Y-109609286D02*
X255287857Y-109466428D01*
X255359286Y-109395000D01*
X255502143Y-109323571D01*
X255930714Y-109323571D01*
X256073571Y-109395000D01*
X256145000Y-109466428D01*
X256216429Y-109609286D01*
X256216429Y-109823571D01*
X256145000Y-109966428D01*
X256073571Y-110037857D01*
X255930714Y-110109286D01*
X255502143Y-110109286D01*
X255359286Y-110037857D01*
X255287857Y-109966428D01*
X255216429Y-109823571D01*
X255216429Y-109609286D01*
X255216429Y-110752143D02*
X256216429Y-110752143D01*
X256073571Y-110752143D02*
X256145000Y-110823571D01*
X256216429Y-110966429D01*
X256216429Y-111180714D01*
X256145000Y-111323571D01*
X256002143Y-111395000D01*
X255216429Y-111395000D01*
X256002143Y-111395000D02*
X256145000Y-111466429D01*
X256216429Y-111609286D01*
X256216429Y-111823571D01*
X256145000Y-111966429D01*
X256002143Y-112037857D01*
X255216429Y-112037857D01*
X252666429Y-63894995D02*
X254166429Y-63894995D01*
X252666429Y-64537852D02*
X253452143Y-64537852D01*
X253595000Y-64466423D01*
X253666429Y-64323566D01*
X253666429Y-64109281D01*
X253595000Y-63966423D01*
X253523571Y-63894995D01*
X253666429Y-65037852D02*
X253666429Y-65609281D01*
X254166429Y-65252138D02*
X252880714Y-65252138D01*
X252737857Y-65323566D01*
X252666429Y-65466424D01*
X252666429Y-65609281D01*
X253666429Y-65894995D02*
X253666429Y-66466424D01*
X254166429Y-66109281D02*
X252880714Y-66109281D01*
X252737857Y-66180709D01*
X252666429Y-66323567D01*
X252666429Y-66466424D01*
X253666429Y-66966424D02*
X252166429Y-66966424D01*
X253595000Y-66966424D02*
X253666429Y-67109281D01*
X253666429Y-67394995D01*
X253595000Y-67537852D01*
X253523571Y-67609281D01*
X253380714Y-67680710D01*
X252952143Y-67680710D01*
X252809286Y-67609281D01*
X252737857Y-67537852D01*
X252666429Y-67394995D01*
X252666429Y-67109281D01*
X252737857Y-66966424D01*
X252809286Y-68323567D02*
X252737857Y-68394995D01*
X252666429Y-68323567D01*
X252737857Y-68252138D01*
X252809286Y-68323567D01*
X252666429Y-68323567D01*
X253595000Y-68323567D02*
X253523571Y-68394995D01*
X253452143Y-68323567D01*
X253523571Y-68252138D01*
X253595000Y-68323567D01*
X253452143Y-68323567D01*
X254237857Y-70109281D02*
X252309286Y-68823567D01*
X254237857Y-71680710D02*
X252309286Y-70394996D01*
X253666429Y-72037854D02*
X252666429Y-72323568D01*
X253380714Y-72609282D01*
X252666429Y-72894997D01*
X253666429Y-73180711D01*
X253666429Y-73609283D02*
X252666429Y-73894997D01*
X253380714Y-74180711D01*
X252666429Y-74466426D01*
X253666429Y-74752140D01*
X253666429Y-75180712D02*
X252666429Y-75466426D01*
X253380714Y-75752140D01*
X252666429Y-76037855D01*
X253666429Y-76323569D01*
X252809286Y-76894998D02*
X252737857Y-76966426D01*
X252666429Y-76894998D01*
X252737857Y-76823569D01*
X252809286Y-76894998D01*
X252666429Y-76894998D01*
X253666429Y-78252141D02*
X252452143Y-78252141D01*
X252309286Y-78180712D01*
X252237857Y-78109284D01*
X252166429Y-77966427D01*
X252166429Y-77752141D01*
X252237857Y-77609284D01*
X252737857Y-78252141D02*
X252666429Y-78109284D01*
X252666429Y-77823570D01*
X252737857Y-77680712D01*
X252809286Y-77609284D01*
X252952143Y-77537855D01*
X253380714Y-77537855D01*
X253523571Y-77609284D01*
X253595000Y-77680712D01*
X253666429Y-77823570D01*
X253666429Y-78109284D01*
X253595000Y-78252141D01*
X252666429Y-78966427D02*
X253666429Y-78966427D01*
X254166429Y-78966427D02*
X254095000Y-78894998D01*
X254023571Y-78966427D01*
X254095000Y-79037855D01*
X254166429Y-78966427D01*
X254023571Y-78966427D01*
X253666429Y-79466427D02*
X253666429Y-80037856D01*
X254166429Y-79680713D02*
X252880714Y-79680713D01*
X252737857Y-79752141D01*
X252666429Y-79894999D01*
X252666429Y-80037856D01*
X252666429Y-80537856D02*
X254166429Y-80537856D01*
X252666429Y-81180713D02*
X253452143Y-81180713D01*
X253595000Y-81109284D01*
X253666429Y-80966427D01*
X253666429Y-80752142D01*
X253595000Y-80609284D01*
X253523571Y-80537856D01*
X253666429Y-82537856D02*
X252666429Y-82537856D01*
X253666429Y-81894999D02*
X252880714Y-81894999D01*
X252737857Y-81966427D01*
X252666429Y-82109285D01*
X252666429Y-82323570D01*
X252737857Y-82466427D01*
X252809286Y-82537856D01*
X252666429Y-83252142D02*
X254166429Y-83252142D01*
X253595000Y-83252142D02*
X253666429Y-83394999D01*
X253666429Y-83680713D01*
X253595000Y-83823570D01*
X253523571Y-83894999D01*
X253380714Y-83966428D01*
X252952143Y-83966428D01*
X252809286Y-83894999D01*
X252737857Y-83823570D01*
X252666429Y-83680713D01*
X252666429Y-83394999D01*
X252737857Y-83252142D01*
X252809286Y-84609285D02*
X252737857Y-84680713D01*
X252666429Y-84609285D01*
X252737857Y-84537856D01*
X252809286Y-84609285D01*
X252666429Y-84609285D01*
X252737857Y-85966428D02*
X252666429Y-85823571D01*
X252666429Y-85537857D01*
X252737857Y-85394999D01*
X252809286Y-85323571D01*
X252952143Y-85252142D01*
X253380714Y-85252142D01*
X253523571Y-85323571D01*
X253595000Y-85394999D01*
X253666429Y-85537857D01*
X253666429Y-85823571D01*
X253595000Y-85966428D01*
X252666429Y-86823571D02*
X252737857Y-86680713D01*
X252809286Y-86609285D01*
X252952143Y-86537856D01*
X253380714Y-86537856D01*
X253523571Y-86609285D01*
X253595000Y-86680713D01*
X253666429Y-86823571D01*
X253666429Y-87037856D01*
X253595000Y-87180713D01*
X253523571Y-87252142D01*
X253380714Y-87323571D01*
X252952143Y-87323571D01*
X252809286Y-87252142D01*
X252737857Y-87180713D01*
X252666429Y-87037856D01*
X252666429Y-86823571D01*
X252666429Y-87966428D02*
X253666429Y-87966428D01*
X253523571Y-87966428D02*
X253595000Y-88037856D01*
X253666429Y-88180714D01*
X253666429Y-88394999D01*
X253595000Y-88537856D01*
X253452143Y-88609285D01*
X252666429Y-88609285D01*
X253452143Y-88609285D02*
X253595000Y-88680714D01*
X253666429Y-88823571D01*
X253666429Y-89037856D01*
X253595000Y-89180714D01*
X253452143Y-89252142D01*
X252666429Y-89252142D01*
X254237857Y-91037856D02*
X252309286Y-89752142D01*
X252666429Y-92395000D02*
X253380714Y-91895000D01*
X252666429Y-91537857D02*
X254166429Y-91537857D01*
X254166429Y-92109285D01*
X254095000Y-92252143D01*
X254023571Y-92323571D01*
X253880714Y-92395000D01*
X253666429Y-92395000D01*
X253523571Y-92323571D01*
X253452143Y-92252143D01*
X253380714Y-92109285D01*
X253380714Y-91537857D01*
X252737857Y-93609285D02*
X252666429Y-93466428D01*
X252666429Y-93180714D01*
X252737857Y-93037857D01*
X252880714Y-92966428D01*
X253452143Y-92966428D01*
X253595000Y-93037857D01*
X253666429Y-93180714D01*
X253666429Y-93466428D01*
X253595000Y-93609285D01*
X253452143Y-93680714D01*
X253309286Y-93680714D01*
X253166429Y-92966428D01*
X253666429Y-94323571D02*
X252666429Y-94323571D01*
X253523571Y-94323571D02*
X253595000Y-94394999D01*
X253666429Y-94537857D01*
X253666429Y-94752142D01*
X253595000Y-94894999D01*
X253452143Y-94966428D01*
X252666429Y-94966428D01*
X252666429Y-95680714D02*
X254166429Y-95680714D01*
X253237857Y-95823571D02*
X252666429Y-96252142D01*
X253666429Y-96252142D02*
X253095000Y-95680714D01*
X252666429Y-96895000D02*
X253666429Y-96895000D01*
X254166429Y-96895000D02*
X254095000Y-96823571D01*
X254023571Y-96895000D01*
X254095000Y-96966428D01*
X254166429Y-96895000D01*
X254023571Y-96895000D01*
X253666429Y-97609286D02*
X252666429Y-97609286D01*
X253523571Y-97609286D02*
X253595000Y-97680714D01*
X253666429Y-97823572D01*
X253666429Y-98037857D01*
X253595000Y-98180714D01*
X253452143Y-98252143D01*
X252666429Y-98252143D01*
X253666429Y-99609286D02*
X252666429Y-99609286D01*
X254237857Y-99252143D02*
X253166429Y-98895000D01*
X253166429Y-99823572D01*
X254023571Y-100323571D02*
X254095000Y-100395000D01*
X254166429Y-100537857D01*
X254166429Y-100895000D01*
X254095000Y-101037857D01*
X254023571Y-101109286D01*
X253880714Y-101180714D01*
X253737857Y-101180714D01*
X253523571Y-101109286D01*
X252666429Y-100252143D01*
X252666429Y-101180714D01*
X254237857Y-102894999D02*
X252309286Y-101609285D01*
X253523571Y-103609286D02*
X253595000Y-103466428D01*
X253666429Y-103395000D01*
X253809286Y-103323571D01*
X253880714Y-103323571D01*
X254023571Y-103395000D01*
X254095000Y-103466428D01*
X254166429Y-103609286D01*
X254166429Y-103895000D01*
X254095000Y-104037857D01*
X254023571Y-104109286D01*
X253880714Y-104180714D01*
X253809286Y-104180714D01*
X253666429Y-104109286D01*
X253595000Y-104037857D01*
X253523571Y-103895000D01*
X253523571Y-103609286D01*
X253452143Y-103466428D01*
X253380714Y-103395000D01*
X253237857Y-103323571D01*
X252952143Y-103323571D01*
X252809286Y-103395000D01*
X252737857Y-103466428D01*
X252666429Y-103609286D01*
X252666429Y-103895000D01*
X252737857Y-104037857D01*
X252809286Y-104109286D01*
X252952143Y-104180714D01*
X253237857Y-104180714D01*
X253380714Y-104109286D01*
X253452143Y-104037857D01*
X253523571Y-103895000D01*
X254023571Y-104752142D02*
X254095000Y-104823571D01*
X254166429Y-104966428D01*
X254166429Y-105323571D01*
X254095000Y-105466428D01*
X254023571Y-105537857D01*
X253880714Y-105609285D01*
X253737857Y-105609285D01*
X253523571Y-105537857D01*
X252666429Y-104680714D01*
X252666429Y-105609285D01*
X252666429Y-106252142D02*
X254166429Y-106252142D01*
X252666429Y-107109285D01*
X254166429Y-107109285D01*
X252666429Y-107823571D02*
X253666429Y-107823571D01*
X254166429Y-107823571D02*
X254095000Y-107752142D01*
X254023571Y-107823571D01*
X254095000Y-107894999D01*
X254166429Y-107823571D01*
X254023571Y-107823571D01*
X252666429Y-108395000D02*
X253666429Y-109180714D01*
X253666429Y-108395000D02*
X252666429Y-109180714D01*
X254166429Y-110395000D02*
X254166429Y-110109286D01*
X254095000Y-109966429D01*
X254023571Y-109895000D01*
X253809286Y-109752143D01*
X253523571Y-109680714D01*
X252952143Y-109680714D01*
X252809286Y-109752143D01*
X252737857Y-109823571D01*
X252666429Y-109966429D01*
X252666429Y-110252143D01*
X252737857Y-110395000D01*
X252809286Y-110466429D01*
X252952143Y-110537857D01*
X253309286Y-110537857D01*
X253452143Y-110466429D01*
X253523571Y-110395000D01*
X253595000Y-110252143D01*
X253595000Y-109966429D01*
X253523571Y-109823571D01*
X253452143Y-109752143D01*
X253309286Y-109680714D01*
X254237857Y-112252142D02*
X252309286Y-110966428D01*
X250116429Y-86037858D02*
X250116429Y-85323572D01*
X251616429Y-85323572D01*
X250116429Y-86537858D02*
X251116429Y-86537858D01*
X251616429Y-86537858D02*
X251545000Y-86466429D01*
X251473571Y-86537858D01*
X251545000Y-86609286D01*
X251616429Y-86537858D01*
X251473571Y-86537858D01*
X250187857Y-87895001D02*
X250116429Y-87752144D01*
X250116429Y-87466430D01*
X250187857Y-87323572D01*
X250259286Y-87252144D01*
X250402143Y-87180715D01*
X250830714Y-87180715D01*
X250973571Y-87252144D01*
X251045000Y-87323572D01*
X251116429Y-87466430D01*
X251116429Y-87752144D01*
X251045000Y-87895001D01*
X250187857Y-89109286D02*
X250116429Y-88966429D01*
X250116429Y-88680715D01*
X250187857Y-88537858D01*
X250330714Y-88466429D01*
X250902143Y-88466429D01*
X251045000Y-88537858D01*
X251116429Y-88680715D01*
X251116429Y-88966429D01*
X251045000Y-89109286D01*
X250902143Y-89180715D01*
X250759286Y-89180715D01*
X250616429Y-88466429D01*
X251116429Y-89823572D02*
X250116429Y-89823572D01*
X250973571Y-89823572D02*
X251045000Y-89895000D01*
X251116429Y-90037858D01*
X251116429Y-90252143D01*
X251045000Y-90395000D01*
X250902143Y-90466429D01*
X250116429Y-90466429D01*
X250187857Y-91109286D02*
X250116429Y-91252143D01*
X250116429Y-91537858D01*
X250187857Y-91680715D01*
X250330714Y-91752143D01*
X250402143Y-91752143D01*
X250545000Y-91680715D01*
X250616429Y-91537858D01*
X250616429Y-91323572D01*
X250687857Y-91180715D01*
X250830714Y-91109286D01*
X250902143Y-91109286D01*
X251045000Y-91180715D01*
X251116429Y-91323572D01*
X251116429Y-91537858D01*
X251045000Y-91680715D01*
X250187857Y-92966429D02*
X250116429Y-92823572D01*
X250116429Y-92537858D01*
X250187857Y-92395001D01*
X250330714Y-92323572D01*
X250902143Y-92323572D01*
X251045000Y-92395001D01*
X251116429Y-92537858D01*
X251116429Y-92823572D01*
X251045000Y-92966429D01*
X250902143Y-93037858D01*
X250759286Y-93037858D01*
X250616429Y-92323572D01*
X250116429Y-94323572D02*
X251616429Y-94323572D01*
X250187857Y-94323572D02*
X250116429Y-94180715D01*
X250116429Y-93895001D01*
X250187857Y-93752143D01*
X250259286Y-93680715D01*
X250402143Y-93609286D01*
X250830714Y-93609286D01*
X250973571Y-93680715D01*
X251045000Y-93752143D01*
X251116429Y-93895001D01*
X251116429Y-94180715D01*
X251045000Y-94323572D01*
X251116429Y-96823572D02*
X250116429Y-96823572D01*
X251116429Y-96180715D02*
X250330714Y-96180715D01*
X250187857Y-96252143D01*
X250116429Y-96395001D01*
X250116429Y-96609286D01*
X250187857Y-96752143D01*
X250259286Y-96823572D01*
X251116429Y-97537858D02*
X250116429Y-97537858D01*
X250973571Y-97537858D02*
X251045000Y-97609286D01*
X251116429Y-97752144D01*
X251116429Y-97966429D01*
X251045000Y-98109286D01*
X250902143Y-98180715D01*
X250116429Y-98180715D01*
X250116429Y-99537858D02*
X251616429Y-99537858D01*
X250187857Y-99537858D02*
X250116429Y-99395001D01*
X250116429Y-99109287D01*
X250187857Y-98966429D01*
X250259286Y-98895001D01*
X250402143Y-98823572D01*
X250830714Y-98823572D01*
X250973571Y-98895001D01*
X251045000Y-98966429D01*
X251116429Y-99109287D01*
X251116429Y-99395001D01*
X251045000Y-99537858D01*
X250187857Y-100823572D02*
X250116429Y-100680715D01*
X250116429Y-100395001D01*
X250187857Y-100252144D01*
X250330714Y-100180715D01*
X250902143Y-100180715D01*
X251045000Y-100252144D01*
X251116429Y-100395001D01*
X251116429Y-100680715D01*
X251045000Y-100823572D01*
X250902143Y-100895001D01*
X250759286Y-100895001D01*
X250616429Y-100180715D01*
X250116429Y-101537858D02*
X251116429Y-101537858D01*
X250830714Y-101537858D02*
X250973571Y-101609286D01*
X251045000Y-101680715D01*
X251116429Y-101823572D01*
X251116429Y-101966429D01*
X250116429Y-103609286D02*
X251616429Y-103609286D01*
X250545000Y-104109286D01*
X251616429Y-104609286D01*
X250116429Y-104609286D01*
X250116429Y-105323572D02*
X251616429Y-105323572D01*
X251616429Y-105895000D01*
X251545000Y-106037858D01*
X251473571Y-106109286D01*
X251330714Y-106180715D01*
X251116429Y-106180715D01*
X250973571Y-106109286D01*
X250902143Y-106037858D01*
X250830714Y-105895000D01*
X250830714Y-105323572D01*
X250116429Y-107537858D02*
X250116429Y-106823572D01*
X251616429Y-106823572D01*
X251473571Y-109109286D02*
X251545000Y-109180715D01*
X251616429Y-109323572D01*
X251616429Y-109680715D01*
X251545000Y-109823572D01*
X251473571Y-109895001D01*
X251330714Y-109966429D01*
X251187857Y-109966429D01*
X250973571Y-109895001D01*
X250116429Y-109037858D01*
X250116429Y-109966429D01*
X250259286Y-110609286D02*
X250187857Y-110680714D01*
X250116429Y-110609286D01*
X250187857Y-110537857D01*
X250259286Y-110609286D01*
X250116429Y-110609286D01*
X251616429Y-111609286D02*
X251616429Y-111752143D01*
X251545000Y-111895000D01*
X251473571Y-111966429D01*
X251330714Y-112037858D01*
X251045000Y-112109286D01*
X250687857Y-112109286D01*
X250402143Y-112037858D01*
X250259286Y-111966429D01*
X250187857Y-111895000D01*
X250116429Y-111752143D01*
X250116429Y-111609286D01*
X250187857Y-111466429D01*
X250259286Y-111395000D01*
X250402143Y-111323572D01*
X250687857Y-111252143D01*
X251045000Y-111252143D01*
X251330714Y-111323572D01*
X251473571Y-111395000D01*
X251545000Y-111466429D01*
X251616429Y-111609286D01*
X247566429Y-104752144D02*
X248280714Y-104252144D01*
X247566429Y-103895001D02*
X249066429Y-103895001D01*
X249066429Y-104466429D01*
X248995000Y-104609287D01*
X248923571Y-104680715D01*
X248780714Y-104752144D01*
X248566429Y-104752144D01*
X248423571Y-104680715D01*
X248352143Y-104609287D01*
X248280714Y-104466429D01*
X248280714Y-103895001D01*
X248352143Y-105395001D02*
X248352143Y-105895001D01*
X247566429Y-106109287D02*
X247566429Y-105395001D01*
X249066429Y-105395001D01*
X249066429Y-106109287D01*
X249066429Y-106537858D02*
X247566429Y-107037858D01*
X249066429Y-107537858D01*
X247566429Y-109966429D02*
X247566429Y-109109286D01*
X247566429Y-109537858D02*
X249066429Y-109537858D01*
X248852143Y-109395001D01*
X248709286Y-109252143D01*
X248637857Y-109109286D01*
X247709286Y-110609286D02*
X247637857Y-110680714D01*
X247566429Y-110609286D01*
X247637857Y-110537857D01*
X247709286Y-110609286D01*
X247566429Y-110609286D01*
X249066429Y-111609286D02*
X249066429Y-111752143D01*
X248995000Y-111895000D01*
X248923571Y-111966429D01*
X248780714Y-112037858D01*
X248495000Y-112109286D01*
X248137857Y-112109286D01*
X247852143Y-112037858D01*
X247709286Y-111966429D01*
X247637857Y-111895000D01*
X247566429Y-111752143D01*
X247566429Y-111609286D01*
X247637857Y-111466429D01*
X247709286Y-111395000D01*
X247852143Y-111323572D01*
X248137857Y-111252143D01*
X248495000Y-111252143D01*
X248780714Y-111323572D01*
X248923571Y-111395000D01*
X248995000Y-111466429D01*
X249066429Y-111609286D01*
D13*
X32260000Y-66690000D02*
X38660000Y-66690000D01*
X32260000Y-71740000D02*
X38660000Y-71740000D01*
X32260000Y-71740000D02*
G75*
G02X32260000Y-66690000I0J2525000D01*
G01*
X38660000Y-71740000D02*
G75*
G03X38660000Y-66690000I0J2525000D01*
G01*
D14*
X171000000Y-99000000D02*
X171000000Y-81000000D01*
X149000000Y-81000000D02*
X149000000Y-99000000D01*
X164000000Y-106000000D02*
G75*
G03X171000000Y-99000000I0J7000000D01*
G01*
X149000000Y-99000000D02*
G75*
G03X156000000Y-106000000I7000000J0D01*
G01*
X171000000Y-81000000D02*
G75*
G03X164000000Y-74000000I-7000000J0D01*
G01*
X156000000Y-74000000D02*
G75*
G03X149000000Y-81000000I0J-7000000D01*
G01*
X164000000Y-74000000D02*
X156000000Y-74000000D01*
X164000000Y-106000000D02*
X156000000Y-106000000D01*
X131000000Y-99000000D02*
X131000000Y-81000000D01*
X109000000Y-81000000D02*
X109000000Y-99000000D01*
X124000000Y-106000000D02*
G75*
G03X131000000Y-99000000I0J7000000D01*
G01*
X109000000Y-99000000D02*
G75*
G03X116000000Y-106000000I7000000J0D01*
G01*
X131000000Y-81000000D02*
G75*
G03X124000000Y-74000000I-7000000J0D01*
G01*
X116000000Y-74000000D02*
G75*
G03X109000000Y-81000000I0J-7000000D01*
G01*
X124000000Y-74000000D02*
X116000000Y-74000000D01*
X124000000Y-106000000D02*
X116000000Y-106000000D01*
X101000000Y-99000000D02*
X101000000Y-81000000D01*
X79000000Y-81000000D02*
X79000000Y-99000000D01*
X94000000Y-106000000D02*
G75*
G03X101000000Y-99000000I0J7000000D01*
G01*
X79000000Y-99000000D02*
G75*
G03X86000000Y-106000000I7000000J0D01*
G01*
X101000000Y-81000000D02*
G75*
G03X94000000Y-74000000I-7000000J0D01*
G01*
X86000000Y-74000000D02*
G75*
G03X79000000Y-81000000I0J-7000000D01*
G01*
X94000000Y-74000000D02*
X86000000Y-74000000D01*
X94000000Y-106000000D02*
X86000000Y-106000000D01*
D13*
X221450000Y-54500000D02*
X221450000Y-50950000D01*
X221250000Y-50750000D02*
X214250000Y-50750000D01*
X214050000Y-50950000D02*
X214050000Y-54500000D01*
X215750000Y-55700000D02*
X219750000Y-55700000D01*
X81450000Y-54500000D02*
X81450000Y-50950000D01*
X81250000Y-50750000D02*
X74250000Y-50750000D01*
X74050000Y-50950000D02*
X74050000Y-54500000D01*
X75750000Y-55700000D02*
X79750000Y-55700000D01*
X162750000Y-123250000D02*
X167250000Y-123250000D01*
X161500000Y-119250000D02*
X161500000Y-120750000D01*
X167250000Y-116750000D02*
X162750000Y-116750000D01*
X168500000Y-120750000D02*
X168500000Y-119250000D01*
X192750000Y-123250000D02*
X197250000Y-123250000D01*
X191500000Y-119250000D02*
X191500000Y-120750000D01*
X197250000Y-116750000D02*
X192750000Y-116750000D01*
X198500000Y-120750000D02*
X198500000Y-119250000D01*
X29575000Y-104595000D02*
X26025000Y-104595000D01*
X25825000Y-104795000D02*
X25825000Y-111795000D01*
X26025000Y-111995000D02*
X29575000Y-111995000D01*
X30775000Y-110295000D02*
X30775000Y-106295000D01*
D14*
X117917200Y-146576800D02*
X117917200Y-142576800D01*
X131917200Y-142576800D02*
X131917200Y-146576800D01*
X119917200Y-140576800D02*
X129917200Y-140576800D01*
X123917200Y-147576800D02*
X123917200Y-148576800D01*
X123917200Y-148576800D02*
X125917200Y-148576800D01*
X125917200Y-148576800D02*
X125917200Y-147576800D01*
X144500000Y-100000000D02*
G75*
G03X144500000Y-100000000I-4500000J0D01*
G01*
X140000000Y-97714000D02*
X140000000Y-102032000D01*
X140000000Y-102032000D02*
X138984000Y-100762000D01*
X141016000Y-100762000D02*
X140000000Y-102032000D01*
X144500000Y-80000000D02*
G75*
G03X144500000Y-80000000I-4500000J0D01*
G01*
X140000000Y-77714000D02*
X140000000Y-82032000D01*
X140000000Y-82032000D02*
X138984000Y-80762000D01*
X141016000Y-80762000D02*
X140000000Y-82032000D01*
X214500000Y-120000000D02*
G75*
G03X214500000Y-120000000I-4500000J0D01*
G01*
X210000000Y-117714000D02*
X210000000Y-122032000D01*
X210000000Y-122032000D02*
X208984000Y-120762000D01*
X211016000Y-120762000D02*
X210000000Y-122032000D01*
X184500000Y-120000000D02*
G75*
G03X184500000Y-120000000I-4500000J0D01*
G01*
X180000000Y-117714000D02*
X180000000Y-122032000D01*
X180000000Y-122032000D02*
X178984000Y-120762000D01*
X181016000Y-120762000D02*
X180000000Y-122032000D01*
X74500000Y-110000000D02*
G75*
G03X74500000Y-110000000I-4500000J0D01*
G01*
X70000000Y-107714000D02*
X70000000Y-112032000D01*
X70000000Y-112032000D02*
X68984000Y-110762000D01*
X71016000Y-110762000D02*
X70000000Y-112032000D01*
X74500000Y-100000000D02*
G75*
G03X74500000Y-100000000I-4500000J0D01*
G01*
X70000000Y-97714000D02*
X70000000Y-102032000D01*
X70000000Y-102032000D02*
X68984000Y-100762000D01*
X71016000Y-100762000D02*
X70000000Y-102032000D01*
X74500000Y-90000000D02*
G75*
G03X74500000Y-90000000I-4500000J0D01*
G01*
X70000000Y-87714000D02*
X70000000Y-92032000D01*
X70000000Y-92032000D02*
X68984000Y-90762000D01*
X71016000Y-90762000D02*
X70000000Y-92032000D01*
X74500000Y-80000000D02*
G75*
G03X74500000Y-80000000I-4500000J0D01*
G01*
X70000000Y-77714000D02*
X70000000Y-82032000D01*
X70000000Y-82032000D02*
X68984000Y-80762000D01*
X71016000Y-80762000D02*
X70000000Y-82032000D01*
X219500000Y-140000000D02*
G75*
G03X219500000Y-140000000I-4500000J0D01*
G01*
X215000000Y-137714000D02*
X215000000Y-142032000D01*
X215000000Y-142032000D02*
X213984000Y-140762000D01*
X216016000Y-140762000D02*
X215000000Y-142032000D01*
X209500000Y-140000000D02*
G75*
G03X209500000Y-140000000I-4500000J0D01*
G01*
X205000000Y-137714000D02*
X205000000Y-142032000D01*
X205000000Y-142032000D02*
X203984000Y-140762000D01*
X206016000Y-140762000D02*
X205000000Y-142032000D01*
X199500000Y-140000000D02*
G75*
G03X199500000Y-140000000I-4500000J0D01*
G01*
X195000000Y-137714000D02*
X195000000Y-142032000D01*
X195000000Y-142032000D02*
X193984000Y-140762000D01*
X196016000Y-140762000D02*
X195000000Y-142032000D01*
X189500000Y-140000000D02*
G75*
G03X189500000Y-140000000I-4500000J0D01*
G01*
X185000000Y-137714000D02*
X185000000Y-142032000D01*
X185000000Y-142032000D02*
X183984000Y-140762000D01*
X186016000Y-140762000D02*
X185000000Y-142032000D01*
X179500000Y-140000000D02*
G75*
G03X179500000Y-140000000I-4500000J0D01*
G01*
X175000000Y-137714000D02*
X175000000Y-142032000D01*
X175000000Y-142032000D02*
X173984000Y-140762000D01*
X176016000Y-140762000D02*
X175000000Y-142032000D01*
X169500000Y-140000000D02*
G75*
G03X169500000Y-140000000I-4500000J0D01*
G01*
X165000000Y-137714000D02*
X165000000Y-142032000D01*
X165000000Y-142032000D02*
X163984000Y-140762000D01*
X166016000Y-140762000D02*
X165000000Y-142032000D01*
X159500000Y-140000000D02*
G75*
G03X159500000Y-140000000I-4500000J0D01*
G01*
X155000000Y-137714000D02*
X155000000Y-142032000D01*
X155000000Y-142032000D02*
X153984000Y-140762000D01*
X156016000Y-140762000D02*
X155000000Y-142032000D01*
D13*
X34370000Y-127790000D02*
X25570000Y-127790000D01*
X25570000Y-127790000D02*
X25570000Y-118590000D01*
X40270000Y-125090000D02*
X40270000Y-127790000D01*
X40270000Y-127790000D02*
X38370000Y-127790000D01*
X25570000Y-118590000D02*
X40270000Y-118590000D01*
X40270000Y-118590000D02*
X40270000Y-121190000D01*
X135073200Y-140055600D02*
X135073200Y-148695600D01*
X135073200Y-131675600D02*
X135073200Y-136755600D01*
X147273200Y-140055600D02*
X147273200Y-148695600D01*
X147273200Y-131675600D02*
X147273200Y-136755600D01*
X147273200Y-148695600D02*
X135073200Y-148695600D01*
X135073200Y-131675600D02*
X147273200Y-131675600D01*
X56803600Y-122083137D02*
G75*
G03X56805000Y-126877436I981400J-2396863D01*
G01*
X58766400Y-122083137D02*
G75*
G02X58765000Y-126877436I-981400J-2396863D01*
G01*
X58766400Y-122083137D02*
G75*
G03X56805000Y-122082564I-981400J-2396863D01*
G01*
X55235000Y-124480000D02*
X60335000Y-124480000D01*
X55235000Y-124440000D02*
X60335000Y-124440000D01*
X55236000Y-124400000D02*
X60334000Y-124400000D01*
X55237000Y-124360000D02*
X60333000Y-124360000D01*
X55239000Y-124320000D02*
X60331000Y-124320000D01*
X55242000Y-124280000D02*
X60328000Y-124280000D01*
X55246000Y-124240000D02*
X60324000Y-124240000D01*
X55250000Y-124200000D02*
X56805000Y-124200000D01*
X58765000Y-124200000D02*
X60320000Y-124200000D01*
X55254000Y-124160000D02*
X56805000Y-124160000D01*
X58765000Y-124160000D02*
X60316000Y-124160000D01*
X55260000Y-124120000D02*
X56805000Y-124120000D01*
X58765000Y-124120000D02*
X60310000Y-124120000D01*
X55266000Y-124080000D02*
X56805000Y-124080000D01*
X58765000Y-124080000D02*
X60304000Y-124080000D01*
X55272000Y-124040000D02*
X56805000Y-124040000D01*
X58765000Y-124040000D02*
X60298000Y-124040000D01*
X55279000Y-124000000D02*
X56805000Y-124000000D01*
X58765000Y-124000000D02*
X60291000Y-124000000D01*
X55287000Y-123960000D02*
X56805000Y-123960000D01*
X58765000Y-123960000D02*
X60283000Y-123960000D01*
X55296000Y-123920000D02*
X56805000Y-123920000D01*
X58765000Y-123920000D02*
X60274000Y-123920000D01*
X55305000Y-123880000D02*
X56805000Y-123880000D01*
X58765000Y-123880000D02*
X60265000Y-123880000D01*
X55315000Y-123840000D02*
X56805000Y-123840000D01*
X58765000Y-123840000D02*
X60255000Y-123840000D01*
X55325000Y-123800000D02*
X56805000Y-123800000D01*
X58765000Y-123800000D02*
X60245000Y-123800000D01*
X55337000Y-123759000D02*
X56805000Y-123759000D01*
X58765000Y-123759000D02*
X60233000Y-123759000D01*
X55349000Y-123719000D02*
X56805000Y-123719000D01*
X58765000Y-123719000D02*
X60221000Y-123719000D01*
X55361000Y-123679000D02*
X56805000Y-123679000D01*
X58765000Y-123679000D02*
X60209000Y-123679000D01*
X55375000Y-123639000D02*
X56805000Y-123639000D01*
X58765000Y-123639000D02*
X60195000Y-123639000D01*
X55389000Y-123599000D02*
X56805000Y-123599000D01*
X58765000Y-123599000D02*
X60181000Y-123599000D01*
X55403000Y-123559000D02*
X56805000Y-123559000D01*
X58765000Y-123559000D02*
X60167000Y-123559000D01*
X55419000Y-123519000D02*
X56805000Y-123519000D01*
X58765000Y-123519000D02*
X60151000Y-123519000D01*
X55435000Y-123479000D02*
X56805000Y-123479000D01*
X58765000Y-123479000D02*
X60135000Y-123479000D01*
X55452000Y-123439000D02*
X56805000Y-123439000D01*
X58765000Y-123439000D02*
X60118000Y-123439000D01*
X55470000Y-123399000D02*
X56805000Y-123399000D01*
X58765000Y-123399000D02*
X60100000Y-123399000D01*
X55489000Y-123359000D02*
X56805000Y-123359000D01*
X58765000Y-123359000D02*
X60081000Y-123359000D01*
X55509000Y-123319000D02*
X56805000Y-123319000D01*
X58765000Y-123319000D02*
X60061000Y-123319000D01*
X55529000Y-123279000D02*
X56805000Y-123279000D01*
X58765000Y-123279000D02*
X60041000Y-123279000D01*
X55551000Y-123239000D02*
X56805000Y-123239000D01*
X58765000Y-123239000D02*
X60019000Y-123239000D01*
X55573000Y-123199000D02*
X56805000Y-123199000D01*
X58765000Y-123199000D02*
X59997000Y-123199000D01*
X55596000Y-123159000D02*
X56805000Y-123159000D01*
X58765000Y-123159000D02*
X59974000Y-123159000D01*
X55620000Y-123119000D02*
X56805000Y-123119000D01*
X58765000Y-123119000D02*
X59950000Y-123119000D01*
X55645000Y-123079000D02*
X56805000Y-123079000D01*
X58765000Y-123079000D02*
X59925000Y-123079000D01*
X55672000Y-123039000D02*
X56805000Y-123039000D01*
X58765000Y-123039000D02*
X59898000Y-123039000D01*
X55699000Y-122999000D02*
X56805000Y-122999000D01*
X58765000Y-122999000D02*
X59871000Y-122999000D01*
X55727000Y-122959000D02*
X56805000Y-122959000D01*
X58765000Y-122959000D02*
X59843000Y-122959000D01*
X55757000Y-122919000D02*
X56805000Y-122919000D01*
X58765000Y-122919000D02*
X59813000Y-122919000D01*
X55788000Y-122879000D02*
X56805000Y-122879000D01*
X58765000Y-122879000D02*
X59782000Y-122879000D01*
X55820000Y-122839000D02*
X56805000Y-122839000D01*
X58765000Y-122839000D02*
X59750000Y-122839000D01*
X55853000Y-122799000D02*
X56805000Y-122799000D01*
X58765000Y-122799000D02*
X59717000Y-122799000D01*
X55888000Y-122759000D02*
X56805000Y-122759000D01*
X58765000Y-122759000D02*
X59682000Y-122759000D01*
X55924000Y-122719000D02*
X56805000Y-122719000D01*
X58765000Y-122719000D02*
X59646000Y-122719000D01*
X55962000Y-122679000D02*
X56805000Y-122679000D01*
X58765000Y-122679000D02*
X59608000Y-122679000D01*
X56002000Y-122639000D02*
X56805000Y-122639000D01*
X58765000Y-122639000D02*
X59568000Y-122639000D01*
X56043000Y-122599000D02*
X56805000Y-122599000D01*
X58765000Y-122599000D02*
X59527000Y-122599000D01*
X56086000Y-122559000D02*
X56805000Y-122559000D01*
X58765000Y-122559000D02*
X59484000Y-122559000D01*
X56131000Y-122519000D02*
X56805000Y-122519000D01*
X58765000Y-122519000D02*
X59439000Y-122519000D01*
X56179000Y-122479000D02*
X56805000Y-122479000D01*
X58765000Y-122479000D02*
X59391000Y-122479000D01*
X56229000Y-122439000D02*
X56805000Y-122439000D01*
X58765000Y-122439000D02*
X59341000Y-122439000D01*
X56281000Y-122399000D02*
X56805000Y-122399000D01*
X58765000Y-122399000D02*
X59289000Y-122399000D01*
X56337000Y-122359000D02*
X56805000Y-122359000D01*
X58765000Y-122359000D02*
X59233000Y-122359000D01*
X56395000Y-122319000D02*
X56805000Y-122319000D01*
X58765000Y-122319000D02*
X59175000Y-122319000D01*
X56458000Y-122279000D02*
X56805000Y-122279000D01*
X58765000Y-122279000D02*
X59112000Y-122279000D01*
X56524000Y-122239000D02*
X59046000Y-122239000D01*
X56596000Y-122199000D02*
X58974000Y-122199000D01*
X56673000Y-122159000D02*
X58897000Y-122159000D01*
X56757000Y-122119000D02*
X58813000Y-122119000D01*
X56851000Y-122079000D02*
X58719000Y-122079000D01*
X56956000Y-122039000D02*
X58614000Y-122039000D01*
X57078000Y-121999000D02*
X58492000Y-121999000D01*
X57226000Y-121959000D02*
X58344000Y-121959000D01*
X57431000Y-121919000D02*
X58139000Y-121919000D01*
X57785000Y-127930000D02*
X57785000Y-126730000D01*
X57135000Y-127330000D02*
X58435000Y-127330000D01*
X43468600Y-118273137D02*
G75*
G03X43470000Y-123067436I981400J-2396863D01*
G01*
X45431400Y-118273137D02*
G75*
G02X45430000Y-123067436I-981400J-2396863D01*
G01*
X45431400Y-118273137D02*
G75*
G03X43470000Y-118272564I-981400J-2396863D01*
G01*
X41900000Y-120670000D02*
X47000000Y-120670000D01*
X41900000Y-120630000D02*
X47000000Y-120630000D01*
X41901000Y-120590000D02*
X46999000Y-120590000D01*
X41902000Y-120550000D02*
X46998000Y-120550000D01*
X41904000Y-120510000D02*
X46996000Y-120510000D01*
X41907000Y-120470000D02*
X46993000Y-120470000D01*
X41911000Y-120430000D02*
X46989000Y-120430000D01*
X41915000Y-120390000D02*
X43470000Y-120390000D01*
X45430000Y-120390000D02*
X46985000Y-120390000D01*
X41919000Y-120350000D02*
X43470000Y-120350000D01*
X45430000Y-120350000D02*
X46981000Y-120350000D01*
X41925000Y-120310000D02*
X43470000Y-120310000D01*
X45430000Y-120310000D02*
X46975000Y-120310000D01*
X41931000Y-120270000D02*
X43470000Y-120270000D01*
X45430000Y-120270000D02*
X46969000Y-120270000D01*
X41937000Y-120230000D02*
X43470000Y-120230000D01*
X45430000Y-120230000D02*
X46963000Y-120230000D01*
X41944000Y-120190000D02*
X43470000Y-120190000D01*
X45430000Y-120190000D02*
X46956000Y-120190000D01*
X41952000Y-120150000D02*
X43470000Y-120150000D01*
X45430000Y-120150000D02*
X46948000Y-120150000D01*
X41961000Y-120110000D02*
X43470000Y-120110000D01*
X45430000Y-120110000D02*
X46939000Y-120110000D01*
X41970000Y-120070000D02*
X43470000Y-120070000D01*
X45430000Y-120070000D02*
X46930000Y-120070000D01*
X41980000Y-120030000D02*
X43470000Y-120030000D01*
X45430000Y-120030000D02*
X46920000Y-120030000D01*
X41990000Y-119990000D02*
X43470000Y-119990000D01*
X45430000Y-119990000D02*
X46910000Y-119990000D01*
X42002000Y-119949000D02*
X43470000Y-119949000D01*
X45430000Y-119949000D02*
X46898000Y-119949000D01*
X42014000Y-119909000D02*
X43470000Y-119909000D01*
X45430000Y-119909000D02*
X46886000Y-119909000D01*
X42026000Y-119869000D02*
X43470000Y-119869000D01*
X45430000Y-119869000D02*
X46874000Y-119869000D01*
X42040000Y-119829000D02*
X43470000Y-119829000D01*
X45430000Y-119829000D02*
X46860000Y-119829000D01*
X42054000Y-119789000D02*
X43470000Y-119789000D01*
X45430000Y-119789000D02*
X46846000Y-119789000D01*
X42068000Y-119749000D02*
X43470000Y-119749000D01*
X45430000Y-119749000D02*
X46832000Y-119749000D01*
X42084000Y-119709000D02*
X43470000Y-119709000D01*
X45430000Y-119709000D02*
X46816000Y-119709000D01*
X42100000Y-119669000D02*
X43470000Y-119669000D01*
X45430000Y-119669000D02*
X46800000Y-119669000D01*
X42117000Y-119629000D02*
X43470000Y-119629000D01*
X45430000Y-119629000D02*
X46783000Y-119629000D01*
X42135000Y-119589000D02*
X43470000Y-119589000D01*
X45430000Y-119589000D02*
X46765000Y-119589000D01*
X42154000Y-119549000D02*
X43470000Y-119549000D01*
X45430000Y-119549000D02*
X46746000Y-119549000D01*
X42174000Y-119509000D02*
X43470000Y-119509000D01*
X45430000Y-119509000D02*
X46726000Y-119509000D01*
X42194000Y-119469000D02*
X43470000Y-119469000D01*
X45430000Y-119469000D02*
X46706000Y-119469000D01*
X42216000Y-119429000D02*
X43470000Y-119429000D01*
X45430000Y-119429000D02*
X46684000Y-119429000D01*
X42238000Y-119389000D02*
X43470000Y-119389000D01*
X45430000Y-119389000D02*
X46662000Y-119389000D01*
X42261000Y-119349000D02*
X43470000Y-119349000D01*
X45430000Y-119349000D02*
X46639000Y-119349000D01*
X42285000Y-119309000D02*
X43470000Y-119309000D01*
X45430000Y-119309000D02*
X46615000Y-119309000D01*
X42310000Y-119269000D02*
X43470000Y-119269000D01*
X45430000Y-119269000D02*
X46590000Y-119269000D01*
X42337000Y-119229000D02*
X43470000Y-119229000D01*
X45430000Y-119229000D02*
X46563000Y-119229000D01*
X42364000Y-119189000D02*
X43470000Y-119189000D01*
X45430000Y-119189000D02*
X46536000Y-119189000D01*
X42392000Y-119149000D02*
X43470000Y-119149000D01*
X45430000Y-119149000D02*
X46508000Y-119149000D01*
X42422000Y-119109000D02*
X43470000Y-119109000D01*
X45430000Y-119109000D02*
X46478000Y-119109000D01*
X42453000Y-119069000D02*
X43470000Y-119069000D01*
X45430000Y-119069000D02*
X46447000Y-119069000D01*
X42485000Y-119029000D02*
X43470000Y-119029000D01*
X45430000Y-119029000D02*
X46415000Y-119029000D01*
X42518000Y-118989000D02*
X43470000Y-118989000D01*
X45430000Y-118989000D02*
X46382000Y-118989000D01*
X42553000Y-118949000D02*
X43470000Y-118949000D01*
X45430000Y-118949000D02*
X46347000Y-118949000D01*
X42589000Y-118909000D02*
X43470000Y-118909000D01*
X45430000Y-118909000D02*
X46311000Y-118909000D01*
X42627000Y-118869000D02*
X43470000Y-118869000D01*
X45430000Y-118869000D02*
X46273000Y-118869000D01*
X42667000Y-118829000D02*
X43470000Y-118829000D01*
X45430000Y-118829000D02*
X46233000Y-118829000D01*
X42708000Y-118789000D02*
X43470000Y-118789000D01*
X45430000Y-118789000D02*
X46192000Y-118789000D01*
X42751000Y-118749000D02*
X43470000Y-118749000D01*
X45430000Y-118749000D02*
X46149000Y-118749000D01*
X42796000Y-118709000D02*
X43470000Y-118709000D01*
X45430000Y-118709000D02*
X46104000Y-118709000D01*
X42844000Y-118669000D02*
X43470000Y-118669000D01*
X45430000Y-118669000D02*
X46056000Y-118669000D01*
X42894000Y-118629000D02*
X43470000Y-118629000D01*
X45430000Y-118629000D02*
X46006000Y-118629000D01*
X42946000Y-118589000D02*
X43470000Y-118589000D01*
X45430000Y-118589000D02*
X45954000Y-118589000D01*
X43002000Y-118549000D02*
X43470000Y-118549000D01*
X45430000Y-118549000D02*
X45898000Y-118549000D01*
X43060000Y-118509000D02*
X43470000Y-118509000D01*
X45430000Y-118509000D02*
X45840000Y-118509000D01*
X43123000Y-118469000D02*
X43470000Y-118469000D01*
X45430000Y-118469000D02*
X45777000Y-118469000D01*
X43189000Y-118429000D02*
X45711000Y-118429000D01*
X43261000Y-118389000D02*
X45639000Y-118389000D01*
X43338000Y-118349000D02*
X45562000Y-118349000D01*
X43422000Y-118309000D02*
X45478000Y-118309000D01*
X43516000Y-118269000D02*
X45384000Y-118269000D01*
X43621000Y-118229000D02*
X45279000Y-118229000D01*
X43743000Y-118189000D02*
X45157000Y-118189000D01*
X43891000Y-118149000D02*
X45009000Y-118149000D01*
X44096000Y-118109000D02*
X44804000Y-118109000D01*
X44450000Y-124120000D02*
X44450000Y-122920000D01*
X43800000Y-123520000D02*
X45100000Y-123520000D01*
X35723137Y-114646400D02*
G75*
G03X40517436Y-114645000I2396863J981400D01*
G01*
X35723137Y-112683600D02*
G75*
G02X40517436Y-112685000I2396863J-981400D01*
G01*
X35723137Y-112683600D02*
G75*
G03X35722564Y-114645000I2396863J-981400D01*
G01*
X38120000Y-116215000D02*
X38120000Y-111115000D01*
X38080000Y-116215000D02*
X38080000Y-111115000D01*
X38040000Y-116214000D02*
X38040000Y-111116000D01*
X38000000Y-116213000D02*
X38000000Y-111117000D01*
X37960000Y-116211000D02*
X37960000Y-111119000D01*
X37920000Y-116208000D02*
X37920000Y-111122000D01*
X37880000Y-116204000D02*
X37880000Y-111126000D01*
X37840000Y-116200000D02*
X37840000Y-114645000D01*
X37840000Y-112685000D02*
X37840000Y-111130000D01*
X37800000Y-116196000D02*
X37800000Y-114645000D01*
X37800000Y-112685000D02*
X37800000Y-111134000D01*
X37760000Y-116190000D02*
X37760000Y-114645000D01*
X37760000Y-112685000D02*
X37760000Y-111140000D01*
X37720000Y-116184000D02*
X37720000Y-114645000D01*
X37720000Y-112685000D02*
X37720000Y-111146000D01*
X37680000Y-116178000D02*
X37680000Y-114645000D01*
X37680000Y-112685000D02*
X37680000Y-111152000D01*
X37640000Y-116171000D02*
X37640000Y-114645000D01*
X37640000Y-112685000D02*
X37640000Y-111159000D01*
X37600000Y-116163000D02*
X37600000Y-114645000D01*
X37600000Y-112685000D02*
X37600000Y-111167000D01*
X37560000Y-116154000D02*
X37560000Y-114645000D01*
X37560000Y-112685000D02*
X37560000Y-111176000D01*
X37520000Y-116145000D02*
X37520000Y-114645000D01*
X37520000Y-112685000D02*
X37520000Y-111185000D01*
X37480000Y-116135000D02*
X37480000Y-114645000D01*
X37480000Y-112685000D02*
X37480000Y-111195000D01*
X37440000Y-116125000D02*
X37440000Y-114645000D01*
X37440000Y-112685000D02*
X37440000Y-111205000D01*
X37399000Y-116113000D02*
X37399000Y-114645000D01*
X37399000Y-112685000D02*
X37399000Y-111217000D01*
X37359000Y-116101000D02*
X37359000Y-114645000D01*
X37359000Y-112685000D02*
X37359000Y-111229000D01*
X37319000Y-116089000D02*
X37319000Y-114645000D01*
X37319000Y-112685000D02*
X37319000Y-111241000D01*
X37279000Y-116075000D02*
X37279000Y-114645000D01*
X37279000Y-112685000D02*
X37279000Y-111255000D01*
X37239000Y-116061000D02*
X37239000Y-114645000D01*
X37239000Y-112685000D02*
X37239000Y-111269000D01*
X37199000Y-116047000D02*
X37199000Y-114645000D01*
X37199000Y-112685000D02*
X37199000Y-111283000D01*
X37159000Y-116031000D02*
X37159000Y-114645000D01*
X37159000Y-112685000D02*
X37159000Y-111299000D01*
X37119000Y-116015000D02*
X37119000Y-114645000D01*
X37119000Y-112685000D02*
X37119000Y-111315000D01*
X37079000Y-115998000D02*
X37079000Y-114645000D01*
X37079000Y-112685000D02*
X37079000Y-111332000D01*
X37039000Y-115980000D02*
X37039000Y-114645000D01*
X37039000Y-112685000D02*
X37039000Y-111350000D01*
X36999000Y-115961000D02*
X36999000Y-114645000D01*
X36999000Y-112685000D02*
X36999000Y-111369000D01*
X36959000Y-115941000D02*
X36959000Y-114645000D01*
X36959000Y-112685000D02*
X36959000Y-111389000D01*
X36919000Y-115921000D02*
X36919000Y-114645000D01*
X36919000Y-112685000D02*
X36919000Y-111409000D01*
X36879000Y-115899000D02*
X36879000Y-114645000D01*
X36879000Y-112685000D02*
X36879000Y-111431000D01*
X36839000Y-115877000D02*
X36839000Y-114645000D01*
X36839000Y-112685000D02*
X36839000Y-111453000D01*
X36799000Y-115854000D02*
X36799000Y-114645000D01*
X36799000Y-112685000D02*
X36799000Y-111476000D01*
X36759000Y-115830000D02*
X36759000Y-114645000D01*
X36759000Y-112685000D02*
X36759000Y-111500000D01*
X36719000Y-115805000D02*
X36719000Y-114645000D01*
X36719000Y-112685000D02*
X36719000Y-111525000D01*
X36679000Y-115778000D02*
X36679000Y-114645000D01*
X36679000Y-112685000D02*
X36679000Y-111552000D01*
X36639000Y-115751000D02*
X36639000Y-114645000D01*
X36639000Y-112685000D02*
X36639000Y-111579000D01*
X36599000Y-115723000D02*
X36599000Y-114645000D01*
X36599000Y-112685000D02*
X36599000Y-111607000D01*
X36559000Y-115693000D02*
X36559000Y-114645000D01*
X36559000Y-112685000D02*
X36559000Y-111637000D01*
X36519000Y-115662000D02*
X36519000Y-114645000D01*
X36519000Y-112685000D02*
X36519000Y-111668000D01*
X36479000Y-115630000D02*
X36479000Y-114645000D01*
X36479000Y-112685000D02*
X36479000Y-111700000D01*
X36439000Y-115597000D02*
X36439000Y-114645000D01*
X36439000Y-112685000D02*
X36439000Y-111733000D01*
X36399000Y-115562000D02*
X36399000Y-114645000D01*
X36399000Y-112685000D02*
X36399000Y-111768000D01*
X36359000Y-115526000D02*
X36359000Y-114645000D01*
X36359000Y-112685000D02*
X36359000Y-111804000D01*
X36319000Y-115488000D02*
X36319000Y-114645000D01*
X36319000Y-112685000D02*
X36319000Y-111842000D01*
X36279000Y-115448000D02*
X36279000Y-114645000D01*
X36279000Y-112685000D02*
X36279000Y-111882000D01*
X36239000Y-115407000D02*
X36239000Y-114645000D01*
X36239000Y-112685000D02*
X36239000Y-111923000D01*
X36199000Y-115364000D02*
X36199000Y-114645000D01*
X36199000Y-112685000D02*
X36199000Y-111966000D01*
X36159000Y-115319000D02*
X36159000Y-114645000D01*
X36159000Y-112685000D02*
X36159000Y-112011000D01*
X36119000Y-115271000D02*
X36119000Y-114645000D01*
X36119000Y-112685000D02*
X36119000Y-112059000D01*
X36079000Y-115221000D02*
X36079000Y-114645000D01*
X36079000Y-112685000D02*
X36079000Y-112109000D01*
X36039000Y-115169000D02*
X36039000Y-114645000D01*
X36039000Y-112685000D02*
X36039000Y-112161000D01*
X35999000Y-115113000D02*
X35999000Y-114645000D01*
X35999000Y-112685000D02*
X35999000Y-112217000D01*
X35959000Y-115055000D02*
X35959000Y-114645000D01*
X35959000Y-112685000D02*
X35959000Y-112275000D01*
X35919000Y-114992000D02*
X35919000Y-114645000D01*
X35919000Y-112685000D02*
X35919000Y-112338000D01*
X35879000Y-114926000D02*
X35879000Y-112404000D01*
X35839000Y-114854000D02*
X35839000Y-112476000D01*
X35799000Y-114777000D02*
X35799000Y-112553000D01*
X35759000Y-114693000D02*
X35759000Y-112637000D01*
X35719000Y-114599000D02*
X35719000Y-112731000D01*
X35679000Y-114494000D02*
X35679000Y-112836000D01*
X35639000Y-114372000D02*
X35639000Y-112958000D01*
X35599000Y-114224000D02*
X35599000Y-113106000D01*
X35559000Y-114019000D02*
X35559000Y-113311000D01*
X41570000Y-113665000D02*
X40370000Y-113665000D01*
X40970000Y-114315000D02*
X40970000Y-113015000D01*
X40533440Y-96810643D02*
G75*
G03X34356764Y-96810000I-3088440J-979357D01*
G01*
X40533440Y-98769357D02*
G75*
G02X34356764Y-98770000I-3088440J979357D01*
G01*
X40533440Y-98769357D02*
G75*
G03X40533236Y-96810000I-3088440J979357D01*
G01*
X37445000Y-94590000D02*
X37445000Y-100990000D01*
X37485000Y-94590000D02*
X37485000Y-100990000D01*
X37525000Y-94590000D02*
X37525000Y-100990000D01*
X37565000Y-94592000D02*
X37565000Y-100988000D01*
X37605000Y-94593000D02*
X37605000Y-100987000D01*
X37645000Y-94596000D02*
X37645000Y-100984000D01*
X37685000Y-94598000D02*
X37685000Y-100982000D01*
X37725000Y-94602000D02*
X37725000Y-96810000D01*
X37725000Y-98770000D02*
X37725000Y-100978000D01*
X37765000Y-94605000D02*
X37765000Y-96810000D01*
X37765000Y-98770000D02*
X37765000Y-100975000D01*
X37805000Y-94610000D02*
X37805000Y-96810000D01*
X37805000Y-98770000D02*
X37805000Y-100970000D01*
X37845000Y-94614000D02*
X37845000Y-96810000D01*
X37845000Y-98770000D02*
X37845000Y-100966000D01*
X37885000Y-94620000D02*
X37885000Y-96810000D01*
X37885000Y-98770000D02*
X37885000Y-100960000D01*
X37925000Y-94625000D02*
X37925000Y-96810000D01*
X37925000Y-98770000D02*
X37925000Y-100955000D01*
X37965000Y-94632000D02*
X37965000Y-96810000D01*
X37965000Y-98770000D02*
X37965000Y-100948000D01*
X38005000Y-94638000D02*
X38005000Y-96810000D01*
X38005000Y-98770000D02*
X38005000Y-100942000D01*
X38045000Y-94646000D02*
X38045000Y-96810000D01*
X38045000Y-98770000D02*
X38045000Y-100934000D01*
X38085000Y-94653000D02*
X38085000Y-96810000D01*
X38085000Y-98770000D02*
X38085000Y-100927000D01*
X38125000Y-94662000D02*
X38125000Y-96810000D01*
X38125000Y-98770000D02*
X38125000Y-100918000D01*
X38166000Y-94671000D02*
X38166000Y-96810000D01*
X38166000Y-98770000D02*
X38166000Y-100909000D01*
X38206000Y-94680000D02*
X38206000Y-96810000D01*
X38206000Y-98770000D02*
X38206000Y-100900000D01*
X38246000Y-94690000D02*
X38246000Y-96810000D01*
X38246000Y-98770000D02*
X38246000Y-100890000D01*
X38286000Y-94700000D02*
X38286000Y-96810000D01*
X38286000Y-98770000D02*
X38286000Y-100880000D01*
X38326000Y-94711000D02*
X38326000Y-96810000D01*
X38326000Y-98770000D02*
X38326000Y-100869000D01*
X38366000Y-94723000D02*
X38366000Y-96810000D01*
X38366000Y-98770000D02*
X38366000Y-100857000D01*
X38406000Y-94735000D02*
X38406000Y-96810000D01*
X38406000Y-98770000D02*
X38406000Y-100845000D01*
X38446000Y-94748000D02*
X38446000Y-96810000D01*
X38446000Y-98770000D02*
X38446000Y-100832000D01*
X38486000Y-94761000D02*
X38486000Y-96810000D01*
X38486000Y-98770000D02*
X38486000Y-100819000D01*
X38526000Y-94775000D02*
X38526000Y-96810000D01*
X38526000Y-98770000D02*
X38526000Y-100805000D01*
X38566000Y-94789000D02*
X38566000Y-96810000D01*
X38566000Y-98770000D02*
X38566000Y-100791000D01*
X38606000Y-94804000D02*
X38606000Y-96810000D01*
X38606000Y-98770000D02*
X38606000Y-100776000D01*
X38646000Y-94820000D02*
X38646000Y-96810000D01*
X38646000Y-98770000D02*
X38646000Y-100760000D01*
X38686000Y-94836000D02*
X38686000Y-96810000D01*
X38686000Y-98770000D02*
X38686000Y-100744000D01*
X38726000Y-94853000D02*
X38726000Y-96810000D01*
X38726000Y-98770000D02*
X38726000Y-100727000D01*
X38766000Y-94871000D02*
X38766000Y-96810000D01*
X38766000Y-98770000D02*
X38766000Y-100709000D01*
X38806000Y-94889000D02*
X38806000Y-96810000D01*
X38806000Y-98770000D02*
X38806000Y-100691000D01*
X38846000Y-94908000D02*
X38846000Y-96810000D01*
X38846000Y-98770000D02*
X38846000Y-100672000D01*
X38886000Y-94927000D02*
X38886000Y-96810000D01*
X38886000Y-98770000D02*
X38886000Y-100653000D01*
X38926000Y-94947000D02*
X38926000Y-96810000D01*
X38926000Y-98770000D02*
X38926000Y-100633000D01*
X38966000Y-94968000D02*
X38966000Y-96810000D01*
X38966000Y-98770000D02*
X38966000Y-100612000D01*
X39006000Y-94990000D02*
X39006000Y-96810000D01*
X39006000Y-98770000D02*
X39006000Y-100590000D01*
X39046000Y-95012000D02*
X39046000Y-96810000D01*
X39046000Y-98770000D02*
X39046000Y-100568000D01*
X39086000Y-95035000D02*
X39086000Y-96810000D01*
X39086000Y-98770000D02*
X39086000Y-100545000D01*
X39126000Y-95059000D02*
X39126000Y-96810000D01*
X39126000Y-98770000D02*
X39126000Y-100521000D01*
X39166000Y-95084000D02*
X39166000Y-96810000D01*
X39166000Y-98770000D02*
X39166000Y-100496000D01*
X39206000Y-95109000D02*
X39206000Y-96810000D01*
X39206000Y-98770000D02*
X39206000Y-100471000D01*
X39246000Y-95136000D02*
X39246000Y-96810000D01*
X39246000Y-98770000D02*
X39246000Y-100444000D01*
X39286000Y-95163000D02*
X39286000Y-96810000D01*
X39286000Y-98770000D02*
X39286000Y-100417000D01*
X39326000Y-95191000D02*
X39326000Y-96810000D01*
X39326000Y-98770000D02*
X39326000Y-100389000D01*
X39366000Y-95220000D02*
X39366000Y-96810000D01*
X39366000Y-98770000D02*
X39366000Y-100360000D01*
X39406000Y-95250000D02*
X39406000Y-96810000D01*
X39406000Y-98770000D02*
X39406000Y-100330000D01*
X39446000Y-95280000D02*
X39446000Y-96810000D01*
X39446000Y-98770000D02*
X39446000Y-100300000D01*
X39486000Y-95312000D02*
X39486000Y-96810000D01*
X39486000Y-98770000D02*
X39486000Y-100268000D01*
X39526000Y-95345000D02*
X39526000Y-96810000D01*
X39526000Y-98770000D02*
X39526000Y-100235000D01*
X39566000Y-95379000D02*
X39566000Y-96810000D01*
X39566000Y-98770000D02*
X39566000Y-100201000D01*
X39606000Y-95415000D02*
X39606000Y-96810000D01*
X39606000Y-98770000D02*
X39606000Y-100165000D01*
X39646000Y-95451000D02*
X39646000Y-96810000D01*
X39646000Y-98770000D02*
X39646000Y-100129000D01*
X39686000Y-95489000D02*
X39686000Y-100091000D01*
X39726000Y-95528000D02*
X39726000Y-100052000D01*
X39766000Y-95568000D02*
X39766000Y-100012000D01*
X39806000Y-95610000D02*
X39806000Y-99970000D01*
X39846000Y-95653000D02*
X39846000Y-99927000D01*
X39886000Y-95698000D02*
X39886000Y-99882000D01*
X39926000Y-95745000D02*
X39926000Y-99835000D01*
X39966000Y-95793000D02*
X39966000Y-99787000D01*
X40006000Y-95844000D02*
X40006000Y-99736000D01*
X40046000Y-95896000D02*
X40046000Y-99684000D01*
X40086000Y-95951000D02*
X40086000Y-99629000D01*
X40126000Y-96009000D02*
X40126000Y-99571000D01*
X40166000Y-96069000D02*
X40166000Y-99511000D01*
X40206000Y-96132000D02*
X40206000Y-99448000D01*
X40246000Y-96199000D02*
X40246000Y-99381000D01*
X40286000Y-96270000D02*
X40286000Y-99310000D01*
X40326000Y-96345000D02*
X40326000Y-99235000D01*
X40366000Y-96426000D02*
X40366000Y-99154000D01*
X40406000Y-96512000D02*
X40406000Y-99068000D01*
X40446000Y-96606000D02*
X40446000Y-98974000D01*
X40486000Y-96709000D02*
X40486000Y-98871000D01*
X40526000Y-96824000D02*
X40526000Y-98756000D01*
X40566000Y-96956000D02*
X40566000Y-98624000D01*
X40606000Y-97114000D02*
X40606000Y-98466000D01*
X40646000Y-97322000D02*
X40646000Y-98258000D01*
X33995000Y-97790000D02*
X35195000Y-97790000D01*
X34595000Y-97140000D02*
X34595000Y-98440000D01*
X57043440Y-87920643D02*
G75*
G03X50866764Y-87920000I-3088440J-979357D01*
G01*
X57043440Y-89879357D02*
G75*
G02X50866764Y-89880000I-3088440J979357D01*
G01*
X57043440Y-89879357D02*
G75*
G03X57043236Y-87920000I-3088440J979357D01*
G01*
X53955000Y-85700000D02*
X53955000Y-92100000D01*
X53995000Y-85700000D02*
X53995000Y-92100000D01*
X54035000Y-85700000D02*
X54035000Y-92100000D01*
X54075000Y-85702000D02*
X54075000Y-92098000D01*
X54115000Y-85703000D02*
X54115000Y-92097000D01*
X54155000Y-85706000D02*
X54155000Y-92094000D01*
X54195000Y-85708000D02*
X54195000Y-92092000D01*
X54235000Y-85712000D02*
X54235000Y-87920000D01*
X54235000Y-89880000D02*
X54235000Y-92088000D01*
X54275000Y-85715000D02*
X54275000Y-87920000D01*
X54275000Y-89880000D02*
X54275000Y-92085000D01*
X54315000Y-85720000D02*
X54315000Y-87920000D01*
X54315000Y-89880000D02*
X54315000Y-92080000D01*
X54355000Y-85724000D02*
X54355000Y-87920000D01*
X54355000Y-89880000D02*
X54355000Y-92076000D01*
X54395000Y-85730000D02*
X54395000Y-87920000D01*
X54395000Y-89880000D02*
X54395000Y-92070000D01*
X54435000Y-85735000D02*
X54435000Y-87920000D01*
X54435000Y-89880000D02*
X54435000Y-92065000D01*
X54475000Y-85742000D02*
X54475000Y-87920000D01*
X54475000Y-89880000D02*
X54475000Y-92058000D01*
X54515000Y-85748000D02*
X54515000Y-87920000D01*
X54515000Y-89880000D02*
X54515000Y-92052000D01*
X54555000Y-85756000D02*
X54555000Y-87920000D01*
X54555000Y-89880000D02*
X54555000Y-92044000D01*
X54595000Y-85763000D02*
X54595000Y-87920000D01*
X54595000Y-89880000D02*
X54595000Y-92037000D01*
X54635000Y-85772000D02*
X54635000Y-87920000D01*
X54635000Y-89880000D02*
X54635000Y-92028000D01*
X54676000Y-85781000D02*
X54676000Y-87920000D01*
X54676000Y-89880000D02*
X54676000Y-92019000D01*
X54716000Y-85790000D02*
X54716000Y-87920000D01*
X54716000Y-89880000D02*
X54716000Y-92010000D01*
X54756000Y-85800000D02*
X54756000Y-87920000D01*
X54756000Y-89880000D02*
X54756000Y-92000000D01*
X54796000Y-85810000D02*
X54796000Y-87920000D01*
X54796000Y-89880000D02*
X54796000Y-91990000D01*
X54836000Y-85821000D02*
X54836000Y-87920000D01*
X54836000Y-89880000D02*
X54836000Y-91979000D01*
X54876000Y-85833000D02*
X54876000Y-87920000D01*
X54876000Y-89880000D02*
X54876000Y-91967000D01*
X54916000Y-85845000D02*
X54916000Y-87920000D01*
X54916000Y-89880000D02*
X54916000Y-91955000D01*
X54956000Y-85858000D02*
X54956000Y-87920000D01*
X54956000Y-89880000D02*
X54956000Y-91942000D01*
X54996000Y-85871000D02*
X54996000Y-87920000D01*
X54996000Y-89880000D02*
X54996000Y-91929000D01*
X55036000Y-85885000D02*
X55036000Y-87920000D01*
X55036000Y-89880000D02*
X55036000Y-91915000D01*
X55076000Y-85899000D02*
X55076000Y-87920000D01*
X55076000Y-89880000D02*
X55076000Y-91901000D01*
X55116000Y-85914000D02*
X55116000Y-87920000D01*
X55116000Y-89880000D02*
X55116000Y-91886000D01*
X55156000Y-85930000D02*
X55156000Y-87920000D01*
X55156000Y-89880000D02*
X55156000Y-91870000D01*
X55196000Y-85946000D02*
X55196000Y-87920000D01*
X55196000Y-89880000D02*
X55196000Y-91854000D01*
X55236000Y-85963000D02*
X55236000Y-87920000D01*
X55236000Y-89880000D02*
X55236000Y-91837000D01*
X55276000Y-85981000D02*
X55276000Y-87920000D01*
X55276000Y-89880000D02*
X55276000Y-91819000D01*
X55316000Y-85999000D02*
X55316000Y-87920000D01*
X55316000Y-89880000D02*
X55316000Y-91801000D01*
X55356000Y-86018000D02*
X55356000Y-87920000D01*
X55356000Y-89880000D02*
X55356000Y-91782000D01*
X55396000Y-86037000D02*
X55396000Y-87920000D01*
X55396000Y-89880000D02*
X55396000Y-91763000D01*
X55436000Y-86057000D02*
X55436000Y-87920000D01*
X55436000Y-89880000D02*
X55436000Y-91743000D01*
X55476000Y-86078000D02*
X55476000Y-87920000D01*
X55476000Y-89880000D02*
X55476000Y-91722000D01*
X55516000Y-86100000D02*
X55516000Y-87920000D01*
X55516000Y-89880000D02*
X55516000Y-91700000D01*
X55556000Y-86122000D02*
X55556000Y-87920000D01*
X55556000Y-89880000D02*
X55556000Y-91678000D01*
X55596000Y-86145000D02*
X55596000Y-87920000D01*
X55596000Y-89880000D02*
X55596000Y-91655000D01*
X55636000Y-86169000D02*
X55636000Y-87920000D01*
X55636000Y-89880000D02*
X55636000Y-91631000D01*
X55676000Y-86194000D02*
X55676000Y-87920000D01*
X55676000Y-89880000D02*
X55676000Y-91606000D01*
X55716000Y-86219000D02*
X55716000Y-87920000D01*
X55716000Y-89880000D02*
X55716000Y-91581000D01*
X55756000Y-86246000D02*
X55756000Y-87920000D01*
X55756000Y-89880000D02*
X55756000Y-91554000D01*
X55796000Y-86273000D02*
X55796000Y-87920000D01*
X55796000Y-89880000D02*
X55796000Y-91527000D01*
X55836000Y-86301000D02*
X55836000Y-87920000D01*
X55836000Y-89880000D02*
X55836000Y-91499000D01*
X55876000Y-86330000D02*
X55876000Y-87920000D01*
X55876000Y-89880000D02*
X55876000Y-91470000D01*
X55916000Y-86360000D02*
X55916000Y-87920000D01*
X55916000Y-89880000D02*
X55916000Y-91440000D01*
X55956000Y-86390000D02*
X55956000Y-87920000D01*
X55956000Y-89880000D02*
X55956000Y-91410000D01*
X55996000Y-86422000D02*
X55996000Y-87920000D01*
X55996000Y-89880000D02*
X55996000Y-91378000D01*
X56036000Y-86455000D02*
X56036000Y-87920000D01*
X56036000Y-89880000D02*
X56036000Y-91345000D01*
X56076000Y-86489000D02*
X56076000Y-87920000D01*
X56076000Y-89880000D02*
X56076000Y-91311000D01*
X56116000Y-86525000D02*
X56116000Y-87920000D01*
X56116000Y-89880000D02*
X56116000Y-91275000D01*
X56156000Y-86561000D02*
X56156000Y-87920000D01*
X56156000Y-89880000D02*
X56156000Y-91239000D01*
X56196000Y-86599000D02*
X56196000Y-91201000D01*
X56236000Y-86638000D02*
X56236000Y-91162000D01*
X56276000Y-86678000D02*
X56276000Y-91122000D01*
X56316000Y-86720000D02*
X56316000Y-91080000D01*
X56356000Y-86763000D02*
X56356000Y-91037000D01*
X56396000Y-86808000D02*
X56396000Y-90992000D01*
X56436000Y-86855000D02*
X56436000Y-90945000D01*
X56476000Y-86903000D02*
X56476000Y-90897000D01*
X56516000Y-86954000D02*
X56516000Y-90846000D01*
X56556000Y-87006000D02*
X56556000Y-90794000D01*
X56596000Y-87061000D02*
X56596000Y-90739000D01*
X56636000Y-87119000D02*
X56636000Y-90681000D01*
X56676000Y-87179000D02*
X56676000Y-90621000D01*
X56716000Y-87242000D02*
X56716000Y-90558000D01*
X56756000Y-87309000D02*
X56756000Y-90491000D01*
X56796000Y-87380000D02*
X56796000Y-90420000D01*
X56836000Y-87455000D02*
X56836000Y-90345000D01*
X56876000Y-87536000D02*
X56876000Y-90264000D01*
X56916000Y-87622000D02*
X56916000Y-90178000D01*
X56956000Y-87716000D02*
X56956000Y-90084000D01*
X56996000Y-87819000D02*
X56996000Y-89981000D01*
X57036000Y-87934000D02*
X57036000Y-89866000D01*
X57076000Y-88066000D02*
X57076000Y-89734000D01*
X57116000Y-88224000D02*
X57116000Y-89576000D01*
X57156000Y-88432000D02*
X57156000Y-89368000D01*
X50505000Y-88900000D02*
X51705000Y-88900000D01*
X51105000Y-88250000D02*
X51105000Y-89550000D01*
X136015000Y-130541000D02*
X129615000Y-130541000D01*
X136015000Y-125491000D02*
X129615000Y-125491000D01*
X136015000Y-125491000D02*
G75*
G02X136015000Y-130541000I0J-2525000D01*
G01*
X129615000Y-125491000D02*
G75*
G03X129615000Y-130541000I0J-2525000D01*
G01*
D14*
X242112000Y-83000000D02*
G75*
G03X242112000Y-83000000I-7112000J0D01*
G01*
X222112000Y-83000000D02*
G75*
G03X222112000Y-83000000I-7112000J0D01*
G01*
X201000000Y-99000000D02*
X201000000Y-81000000D01*
X179000000Y-81000000D02*
X179000000Y-99000000D01*
X194000000Y-106000000D02*
G75*
G03X201000000Y-99000000I0J7000000D01*
G01*
X179000000Y-99000000D02*
G75*
G03X186000000Y-106000000I7000000J0D01*
G01*
X201000000Y-81000000D02*
G75*
G03X194000000Y-74000000I-7000000J0D01*
G01*
X186000000Y-74000000D02*
G75*
G03X179000000Y-81000000I0J-7000000D01*
G01*
X194000000Y-74000000D02*
X186000000Y-74000000D01*
X194000000Y-106000000D02*
X186000000Y-106000000D01*
D13*
X89879357Y-67838440D02*
G75*
G03X89880000Y-61661764I-979357J3088440D01*
G01*
X87920643Y-67838440D02*
G75*
G02X87920000Y-61661764I979357J3088440D01*
G01*
X87920643Y-67838440D02*
G75*
G03X89880000Y-67838236I979357J3088440D01*
G01*
X92100000Y-64750000D02*
X85700000Y-64750000D01*
X92100000Y-64790000D02*
X85700000Y-64790000D01*
X92100000Y-64830000D02*
X85700000Y-64830000D01*
X92098000Y-64870000D02*
X85702000Y-64870000D01*
X92097000Y-64910000D02*
X85703000Y-64910000D01*
X92094000Y-64950000D02*
X85706000Y-64950000D01*
X92092000Y-64990000D02*
X85708000Y-64990000D01*
X92088000Y-65030000D02*
X89880000Y-65030000D01*
X87920000Y-65030000D02*
X85712000Y-65030000D01*
X92085000Y-65070000D02*
X89880000Y-65070000D01*
X87920000Y-65070000D02*
X85715000Y-65070000D01*
X92080000Y-65110000D02*
X89880000Y-65110000D01*
X87920000Y-65110000D02*
X85720000Y-65110000D01*
X92076000Y-65150000D02*
X89880000Y-65150000D01*
X87920000Y-65150000D02*
X85724000Y-65150000D01*
X92070000Y-65190000D02*
X89880000Y-65190000D01*
X87920000Y-65190000D02*
X85730000Y-65190000D01*
X92065000Y-65230000D02*
X89880000Y-65230000D01*
X87920000Y-65230000D02*
X85735000Y-65230000D01*
X92058000Y-65270000D02*
X89880000Y-65270000D01*
X87920000Y-65270000D02*
X85742000Y-65270000D01*
X92052000Y-65310000D02*
X89880000Y-65310000D01*
X87920000Y-65310000D02*
X85748000Y-65310000D01*
X92044000Y-65350000D02*
X89880000Y-65350000D01*
X87920000Y-65350000D02*
X85756000Y-65350000D01*
X92037000Y-65390000D02*
X89880000Y-65390000D01*
X87920000Y-65390000D02*
X85763000Y-65390000D01*
X92028000Y-65430000D02*
X89880000Y-65430000D01*
X87920000Y-65430000D02*
X85772000Y-65430000D01*
X92019000Y-65471000D02*
X89880000Y-65471000D01*
X87920000Y-65471000D02*
X85781000Y-65471000D01*
X92010000Y-65511000D02*
X89880000Y-65511000D01*
X87920000Y-65511000D02*
X85790000Y-65511000D01*
X92000000Y-65551000D02*
X89880000Y-65551000D01*
X87920000Y-65551000D02*
X85800000Y-65551000D01*
X91990000Y-65591000D02*
X89880000Y-65591000D01*
X87920000Y-65591000D02*
X85810000Y-65591000D01*
X91979000Y-65631000D02*
X89880000Y-65631000D01*
X87920000Y-65631000D02*
X85821000Y-65631000D01*
X91967000Y-65671000D02*
X89880000Y-65671000D01*
X87920000Y-65671000D02*
X85833000Y-65671000D01*
X91955000Y-65711000D02*
X89880000Y-65711000D01*
X87920000Y-65711000D02*
X85845000Y-65711000D01*
X91942000Y-65751000D02*
X89880000Y-65751000D01*
X87920000Y-65751000D02*
X85858000Y-65751000D01*
X91929000Y-65791000D02*
X89880000Y-65791000D01*
X87920000Y-65791000D02*
X85871000Y-65791000D01*
X91915000Y-65831000D02*
X89880000Y-65831000D01*
X87920000Y-65831000D02*
X85885000Y-65831000D01*
X91901000Y-65871000D02*
X89880000Y-65871000D01*
X87920000Y-65871000D02*
X85899000Y-65871000D01*
X91886000Y-65911000D02*
X89880000Y-65911000D01*
X87920000Y-65911000D02*
X85914000Y-65911000D01*
X91870000Y-65951000D02*
X89880000Y-65951000D01*
X87920000Y-65951000D02*
X85930000Y-65951000D01*
X91854000Y-65991000D02*
X89880000Y-65991000D01*
X87920000Y-65991000D02*
X85946000Y-65991000D01*
X91837000Y-66031000D02*
X89880000Y-66031000D01*
X87920000Y-66031000D02*
X85963000Y-66031000D01*
X91819000Y-66071000D02*
X89880000Y-66071000D01*
X87920000Y-66071000D02*
X85981000Y-66071000D01*
X91801000Y-66111000D02*
X89880000Y-66111000D01*
X87920000Y-66111000D02*
X85999000Y-66111000D01*
X91782000Y-66151000D02*
X89880000Y-66151000D01*
X87920000Y-66151000D02*
X86018000Y-66151000D01*
X91763000Y-66191000D02*
X89880000Y-66191000D01*
X87920000Y-66191000D02*
X86037000Y-66191000D01*
X91743000Y-66231000D02*
X89880000Y-66231000D01*
X87920000Y-66231000D02*
X86057000Y-66231000D01*
X91722000Y-66271000D02*
X89880000Y-66271000D01*
X87920000Y-66271000D02*
X86078000Y-66271000D01*
X91700000Y-66311000D02*
X89880000Y-66311000D01*
X87920000Y-66311000D02*
X86100000Y-66311000D01*
X91678000Y-66351000D02*
X89880000Y-66351000D01*
X87920000Y-66351000D02*
X86122000Y-66351000D01*
X91655000Y-66391000D02*
X89880000Y-66391000D01*
X87920000Y-66391000D02*
X86145000Y-66391000D01*
X91631000Y-66431000D02*
X89880000Y-66431000D01*
X87920000Y-66431000D02*
X86169000Y-66431000D01*
X91606000Y-66471000D02*
X89880000Y-66471000D01*
X87920000Y-66471000D02*
X86194000Y-66471000D01*
X91581000Y-66511000D02*
X89880000Y-66511000D01*
X87920000Y-66511000D02*
X86219000Y-66511000D01*
X91554000Y-66551000D02*
X89880000Y-66551000D01*
X87920000Y-66551000D02*
X86246000Y-66551000D01*
X91527000Y-66591000D02*
X89880000Y-66591000D01*
X87920000Y-66591000D02*
X86273000Y-66591000D01*
X91499000Y-66631000D02*
X89880000Y-66631000D01*
X87920000Y-66631000D02*
X86301000Y-66631000D01*
X91470000Y-66671000D02*
X89880000Y-66671000D01*
X87920000Y-66671000D02*
X86330000Y-66671000D01*
X91440000Y-66711000D02*
X89880000Y-66711000D01*
X87920000Y-66711000D02*
X86360000Y-66711000D01*
X91410000Y-66751000D02*
X89880000Y-66751000D01*
X87920000Y-66751000D02*
X86390000Y-66751000D01*
X91378000Y-66791000D02*
X89880000Y-66791000D01*
X87920000Y-66791000D02*
X86422000Y-66791000D01*
X91345000Y-66831000D02*
X89880000Y-66831000D01*
X87920000Y-66831000D02*
X86455000Y-66831000D01*
X91311000Y-66871000D02*
X89880000Y-66871000D01*
X87920000Y-66871000D02*
X86489000Y-66871000D01*
X91275000Y-66911000D02*
X89880000Y-66911000D01*
X87920000Y-66911000D02*
X86525000Y-66911000D01*
X91239000Y-66951000D02*
X89880000Y-66951000D01*
X87920000Y-66951000D02*
X86561000Y-66951000D01*
X91201000Y-66991000D02*
X86599000Y-66991000D01*
X91162000Y-67031000D02*
X86638000Y-67031000D01*
X91122000Y-67071000D02*
X86678000Y-67071000D01*
X91080000Y-67111000D02*
X86720000Y-67111000D01*
X91037000Y-67151000D02*
X86763000Y-67151000D01*
X90992000Y-67191000D02*
X86808000Y-67191000D01*
X90945000Y-67231000D02*
X86855000Y-67231000D01*
X90897000Y-67271000D02*
X86903000Y-67271000D01*
X90846000Y-67311000D02*
X86954000Y-67311000D01*
X90794000Y-67351000D02*
X87006000Y-67351000D01*
X90739000Y-67391000D02*
X87061000Y-67391000D01*
X90681000Y-67431000D02*
X87119000Y-67431000D01*
X90621000Y-67471000D02*
X87179000Y-67471000D01*
X90558000Y-67511000D02*
X87242000Y-67511000D01*
X90491000Y-67551000D02*
X87309000Y-67551000D01*
X90420000Y-67591000D02*
X87380000Y-67591000D01*
X90345000Y-67631000D02*
X87455000Y-67631000D01*
X90264000Y-67671000D02*
X87536000Y-67671000D01*
X90178000Y-67711000D02*
X87622000Y-67711000D01*
X90084000Y-67751000D02*
X87716000Y-67751000D01*
X89981000Y-67791000D02*
X87819000Y-67791000D01*
X89866000Y-67831000D02*
X87934000Y-67831000D01*
X89734000Y-67871000D02*
X88066000Y-67871000D01*
X89576000Y-67911000D02*
X88224000Y-67911000D01*
X89368000Y-67951000D02*
X88432000Y-67951000D01*
X88900000Y-61300000D02*
X88900000Y-62500000D01*
X89550000Y-61900000D02*
X88250000Y-61900000D01*
D14*
X113885980Y-60401200D02*
X103284020Y-60401200D01*
X103284020Y-60799980D02*
X113885980Y-60799980D01*
X103284020Y-66100960D02*
X113885980Y-66100960D01*
X113885980Y-66598800D02*
X103284020Y-66598800D01*
X111081820Y-66100960D02*
X111081820Y-66598800D01*
X108585000Y-66100960D02*
X108585000Y-66598800D01*
X103487220Y-66598800D02*
X103487220Y-66100960D01*
X113685320Y-66100960D02*
X113685320Y-66598800D01*
X106088180Y-66598800D02*
X106088180Y-66100960D01*
X113883440Y-66598800D02*
X113883440Y-60401200D01*
X103289100Y-60401200D02*
X103289100Y-66598800D01*
X62285000Y-132080000D02*
G75*
G03X62285000Y-132080000I-4500000J0D01*
G01*
X43085000Y-88900000D02*
G75*
G03X43085000Y-88900000I-4350000J0D01*
G01*
D15*
G36*
X250738494Y-117048166D02*
X250645796Y-117234084D01*
X250475115Y-117398180D01*
X250411893Y-117443372D01*
X250329166Y-117492604D01*
X250239313Y-117524547D01*
X250119392Y-117542822D01*
X249946463Y-117551048D01*
X249718165Y-117552855D01*
X249405307Y-117544697D01*
X249170402Y-117516341D01*
X248995153Y-117461962D01*
X248861262Y-117375737D01*
X248750431Y-117251841D01*
X248743869Y-117242737D01*
X248676744Y-117120634D01*
X248643533Y-116973600D01*
X248635345Y-116786604D01*
X248635345Y-116482613D01*
X248340238Y-116482485D01*
X248175883Y-116479656D01*
X248079477Y-116462418D01*
X248021657Y-116417370D01*
X247973059Y-116331114D01*
X247963131Y-116310399D01*
X247916602Y-116213462D01*
X247887214Y-116138407D01*
X247884676Y-116082598D01*
X247918698Y-116043397D01*
X247998988Y-116018168D01*
X248135257Y-116004272D01*
X248337213Y-115999073D01*
X248614566Y-115999934D01*
X248977024Y-116004216D01*
X249085440Y-116005553D01*
X249459163Y-116010371D01*
X249703631Y-116014687D01*
X249703631Y-116482357D01*
X249496123Y-116484985D01*
X249360355Y-116496667D01*
X249270808Y-116523097D01*
X249201961Y-116569969D01*
X249168382Y-116601793D01*
X249070131Y-116731892D01*
X249062134Y-116847079D01*
X249143270Y-116965934D01*
X249146264Y-116968947D01*
X249208970Y-117017305D01*
X249294192Y-117046722D01*
X249425436Y-117061560D01*
X249626207Y-117066181D01*
X249670686Y-117066265D01*
X249947361Y-117055098D01*
X250139158Y-117018747D01*
X250256243Y-116952941D01*
X250308785Y-116853407D01*
X250314080Y-116795881D01*
X250289233Y-116659351D01*
X250207419Y-116565702D01*
X250057730Y-116509330D01*
X249829257Y-116484633D01*
X249703631Y-116482357D01*
X249703631Y-116014687D01*
X249748413Y-116015478D01*
X249966030Y-116022078D01*
X250124854Y-116031377D01*
X250237726Y-116044577D01*
X250317487Y-116062885D01*
X250376977Y-116087503D01*
X250429037Y-116119637D01*
X250448627Y-116133415D01*
X250633672Y-116316188D01*
X250738588Y-116547276D01*
X250767837Y-116814590D01*
X250738494Y-117048166D01*
X250738494Y-117048166D01*
G37*
X250738494Y-117048166D02*
X250645796Y-117234084D01*
X250475115Y-117398180D01*
X250411893Y-117443372D01*
X250329166Y-117492604D01*
X250239313Y-117524547D01*
X250119392Y-117542822D01*
X249946463Y-117551048D01*
X249718165Y-117552855D01*
X249405307Y-117544697D01*
X249170402Y-117516341D01*
X248995153Y-117461962D01*
X248861262Y-117375737D01*
X248750431Y-117251841D01*
X248743869Y-117242737D01*
X248676744Y-117120634D01*
X248643533Y-116973600D01*
X248635345Y-116786604D01*
X248635345Y-116482613D01*
X248340238Y-116482485D01*
X248175883Y-116479656D01*
X248079477Y-116462418D01*
X248021657Y-116417370D01*
X247973059Y-116331114D01*
X247963131Y-116310399D01*
X247916602Y-116213462D01*
X247887214Y-116138407D01*
X247884676Y-116082598D01*
X247918698Y-116043397D01*
X247998988Y-116018168D01*
X248135257Y-116004272D01*
X248337213Y-115999073D01*
X248614566Y-115999934D01*
X248977024Y-116004216D01*
X249085440Y-116005553D01*
X249459163Y-116010371D01*
X249703631Y-116014687D01*
X249703631Y-116482357D01*
X249496123Y-116484985D01*
X249360355Y-116496667D01*
X249270808Y-116523097D01*
X249201961Y-116569969D01*
X249168382Y-116601793D01*
X249070131Y-116731892D01*
X249062134Y-116847079D01*
X249143270Y-116965934D01*
X249146264Y-116968947D01*
X249208970Y-117017305D01*
X249294192Y-117046722D01*
X249425436Y-117061560D01*
X249626207Y-117066181D01*
X249670686Y-117066265D01*
X249947361Y-117055098D01*
X250139158Y-117018747D01*
X250256243Y-116952941D01*
X250308785Y-116853407D01*
X250314080Y-116795881D01*
X250289233Y-116659351D01*
X250207419Y-116565702D01*
X250057730Y-116509330D01*
X249829257Y-116484633D01*
X249703631Y-116482357D01*
X249703631Y-116014687D01*
X249748413Y-116015478D01*
X249966030Y-116022078D01*
X250124854Y-116031377D01*
X250237726Y-116044577D01*
X250317487Y-116062885D01*
X250376977Y-116087503D01*
X250429037Y-116119637D01*
X250448627Y-116133415D01*
X250633672Y-116316188D01*
X250738588Y-116547276D01*
X250767837Y-116814590D01*
X250738494Y-117048166D01*
G36*
X250712135Y-120790716D02*
X250621810Y-120946872D01*
X250532155Y-121055441D01*
X250438224Y-121134845D01*
X250323354Y-121189546D01*
X250170886Y-121224010D01*
X249964156Y-121242701D01*
X249686504Y-121250081D01*
X249486914Y-121250939D01*
X248752234Y-121250939D01*
X248659528Y-121044138D01*
X248566821Y-120837338D01*
X249371508Y-120813008D01*
X249672034Y-120802955D01*
X249890165Y-120792409D01*
X250040814Y-120779343D01*
X250138893Y-120761729D01*
X250199312Y-120737539D01*
X250236984Y-120704746D01*
X250245138Y-120694225D01*
X250308822Y-120534813D01*
X250283622Y-120373679D01*
X250216762Y-120277759D01*
X250169384Y-120238741D01*
X250107213Y-120211733D01*
X250012961Y-120194568D01*
X249869343Y-120185082D01*
X249659069Y-120181107D01*
X249439930Y-120180441D01*
X249165001Y-120180310D01*
X248970398Y-120175603D01*
X248839149Y-120159846D01*
X248754282Y-120126567D01*
X248698823Y-120069293D01*
X248655799Y-119981553D01*
X248611093Y-119864362D01*
X248562429Y-119736368D01*
X249426090Y-119751604D01*
X249737435Y-119757739D01*
X249967517Y-119764918D01*
X250132386Y-119775205D01*
X250248091Y-119790670D01*
X250330684Y-119813379D01*
X250396212Y-119845399D01*
X250454026Y-119884003D01*
X250638717Y-120070253D01*
X250745519Y-120297521D01*
X250771102Y-120544709D01*
X250712135Y-120790716D01*
X250712135Y-120790716D01*
G37*
X250712135Y-120790716D02*
X250621810Y-120946872D01*
X250532155Y-121055441D01*
X250438224Y-121134845D01*
X250323354Y-121189546D01*
X250170886Y-121224010D01*
X249964156Y-121242701D01*
X249686504Y-121250081D01*
X249486914Y-121250939D01*
X248752234Y-121250939D01*
X248659528Y-121044138D01*
X248566821Y-120837338D01*
X249371508Y-120813008D01*
X249672034Y-120802955D01*
X249890165Y-120792409D01*
X250040814Y-120779343D01*
X250138893Y-120761729D01*
X250199312Y-120737539D01*
X250236984Y-120704746D01*
X250245138Y-120694225D01*
X250308822Y-120534813D01*
X250283622Y-120373679D01*
X250216762Y-120277759D01*
X250169384Y-120238741D01*
X250107213Y-120211733D01*
X250012961Y-120194568D01*
X249869343Y-120185082D01*
X249659069Y-120181107D01*
X249439930Y-120180441D01*
X249165001Y-120180310D01*
X248970398Y-120175603D01*
X248839149Y-120159846D01*
X248754282Y-120126567D01*
X248698823Y-120069293D01*
X248655799Y-119981553D01*
X248611093Y-119864362D01*
X248562429Y-119736368D01*
X249426090Y-119751604D01*
X249737435Y-119757739D01*
X249967517Y-119764918D01*
X250132386Y-119775205D01*
X250248091Y-119790670D01*
X250330684Y-119813379D01*
X250396212Y-119845399D01*
X250454026Y-119884003D01*
X250638717Y-120070253D01*
X250745519Y-120297521D01*
X250771102Y-120544709D01*
X250712135Y-120790716D01*
G36*
X250731642Y-115175368D02*
X250611720Y-115403436D01*
X250418722Y-115571752D01*
X250294645Y-115631541D01*
X250108347Y-115678066D01*
X249872955Y-115701882D01*
X249616048Y-115704140D01*
X249365201Y-115685992D01*
X249147991Y-115648589D01*
X248991995Y-115593084D01*
X248965129Y-115576025D01*
X248764585Y-115373970D01*
X248644471Y-115133978D01*
X248609320Y-114873566D01*
X248663663Y-114610247D01*
X248696244Y-114536967D01*
X248796647Y-114394261D01*
X248929775Y-114269014D01*
X248946659Y-114257177D01*
X249028031Y-114209065D01*
X249115016Y-114177262D01*
X249229525Y-114158474D01*
X249393470Y-114149408D01*
X249628760Y-114146771D01*
X249681513Y-114146725D01*
X249698301Y-114146846D01*
X249698301Y-114633315D01*
X249476239Y-114636146D01*
X249328877Y-114647288D01*
X249233692Y-114670709D01*
X249168163Y-114710381D01*
X249146264Y-114730633D01*
X249063047Y-114847060D01*
X249066842Y-114960098D01*
X249139027Y-115074391D01*
X249216089Y-115142559D01*
X249328571Y-115182930D01*
X249505945Y-115205602D01*
X249526633Y-115207157D01*
X249848089Y-115211027D01*
X250086833Y-115170583D01*
X250241400Y-115086374D01*
X250310322Y-114958947D01*
X250314080Y-114913460D01*
X250295179Y-114794019D01*
X250229694Y-114712317D01*
X250104456Y-114662363D01*
X249906296Y-114638166D01*
X249698301Y-114633315D01*
X249698301Y-114146846D01*
X249932235Y-114148537D01*
X250107418Y-114156147D01*
X250228809Y-114172814D01*
X250318153Y-114201799D01*
X250397197Y-114246360D01*
X250411893Y-114256207D01*
X250609989Y-114421720D01*
X250724986Y-114602070D01*
X250770635Y-114821635D01*
X250772865Y-114896195D01*
X250731642Y-115175368D01*
X250731642Y-115175368D01*
G37*
X250731642Y-115175368D02*
X250611720Y-115403436D01*
X250418722Y-115571752D01*
X250294645Y-115631541D01*
X250108347Y-115678066D01*
X249872955Y-115701882D01*
X249616048Y-115704140D01*
X249365201Y-115685992D01*
X249147991Y-115648589D01*
X248991995Y-115593084D01*
X248965129Y-115576025D01*
X248764585Y-115373970D01*
X248644471Y-115133978D01*
X248609320Y-114873566D01*
X248663663Y-114610247D01*
X248696244Y-114536967D01*
X248796647Y-114394261D01*
X248929775Y-114269014D01*
X248946659Y-114257177D01*
X249028031Y-114209065D01*
X249115016Y-114177262D01*
X249229525Y-114158474D01*
X249393470Y-114149408D01*
X249628760Y-114146771D01*
X249681513Y-114146725D01*
X249698301Y-114146846D01*
X249698301Y-114633315D01*
X249476239Y-114636146D01*
X249328877Y-114647288D01*
X249233692Y-114670709D01*
X249168163Y-114710381D01*
X249146264Y-114730633D01*
X249063047Y-114847060D01*
X249066842Y-114960098D01*
X249139027Y-115074391D01*
X249216089Y-115142559D01*
X249328571Y-115182930D01*
X249505945Y-115205602D01*
X249526633Y-115207157D01*
X249848089Y-115211027D01*
X250086833Y-115170583D01*
X250241400Y-115086374D01*
X250310322Y-114958947D01*
X250314080Y-114913460D01*
X250295179Y-114794019D01*
X250229694Y-114712317D01*
X250104456Y-114662363D01*
X249906296Y-114638166D01*
X249698301Y-114633315D01*
X249698301Y-114146846D01*
X249932235Y-114148537D01*
X250107418Y-114156147D01*
X250228809Y-114172814D01*
X250318153Y-114201799D01*
X250397197Y-114246360D01*
X250411893Y-114256207D01*
X250609989Y-114421720D01*
X250724986Y-114602070D01*
X250770635Y-114821635D01*
X250772865Y-114896195D01*
X250731642Y-115175368D01*
G36*
X250700539Y-118954253D02*
X250571481Y-119146097D01*
X250385085Y-119294352D01*
X250147891Y-119382916D01*
X249973309Y-119400828D01*
X249900456Y-119398794D01*
X249844676Y-119381760D01*
X249794702Y-119334936D01*
X249739267Y-119243527D01*
X249667104Y-119092742D01*
X249566945Y-118867787D01*
X249566442Y-118866648D01*
X249471604Y-118659585D01*
X249387391Y-118489788D01*
X249322867Y-118374612D01*
X249287100Y-118331410D01*
X249286812Y-118331399D01*
X249208926Y-118369475D01*
X249123076Y-118458516D01*
X249061231Y-118560737D01*
X249048946Y-118612526D01*
X249091436Y-118753816D01*
X249197848Y-118875488D01*
X249314844Y-118934855D01*
X249401095Y-118991967D01*
X249499319Y-119103839D01*
X249584173Y-119235346D01*
X249630319Y-119351368D01*
X249632854Y-119375629D01*
X249591132Y-119402938D01*
X249484481Y-119404584D01*
X249340679Y-119384514D01*
X249187499Y-119346678D01*
X249052717Y-119295023D01*
X249047484Y-119292414D01*
X248830443Y-119136969D01*
X248682815Y-118935507D01*
X248610356Y-118706712D01*
X248618823Y-118469267D01*
X248713973Y-118241854D01*
X248720663Y-118231743D01*
X248882789Y-118052850D01*
X249094318Y-117935220D01*
X249372457Y-117870123D01*
X249450602Y-117861387D01*
X249819451Y-117845914D01*
X249991459Y-117864463D01*
X249991459Y-118331399D01*
X249884162Y-118337466D01*
X249852848Y-118370649D01*
X249876275Y-118453377D01*
X249931652Y-118583779D01*
X250001068Y-118729543D01*
X250002906Y-118733166D01*
X250067892Y-118856717D01*
X250111260Y-118906303D01*
X250156725Y-118894075D01*
X250216464Y-118842588D01*
X250302915Y-118711601D01*
X250309267Y-118570538D01*
X250246351Y-118444005D01*
X250124997Y-118356608D01*
X249991459Y-118331399D01*
X249991459Y-117864463D01*
X250114565Y-117877740D01*
X250348618Y-117959391D01*
X250512587Y-118073061D01*
X250678284Y-118278225D01*
X250760481Y-118504214D01*
X250765719Y-118734925D01*
X250700539Y-118954253D01*
X250700539Y-118954253D01*
G37*
X250700539Y-118954253D02*
X250571481Y-119146097D01*
X250385085Y-119294352D01*
X250147891Y-119382916D01*
X249973309Y-119400828D01*
X249900456Y-119398794D01*
X249844676Y-119381760D01*
X249794702Y-119334936D01*
X249739267Y-119243527D01*
X249667104Y-119092742D01*
X249566945Y-118867787D01*
X249566442Y-118866648D01*
X249471604Y-118659585D01*
X249387391Y-118489788D01*
X249322867Y-118374612D01*
X249287100Y-118331410D01*
X249286812Y-118331399D01*
X249208926Y-118369475D01*
X249123076Y-118458516D01*
X249061231Y-118560737D01*
X249048946Y-118612526D01*
X249091436Y-118753816D01*
X249197848Y-118875488D01*
X249314844Y-118934855D01*
X249401095Y-118991967D01*
X249499319Y-119103839D01*
X249584173Y-119235346D01*
X249630319Y-119351368D01*
X249632854Y-119375629D01*
X249591132Y-119402938D01*
X249484481Y-119404584D01*
X249340679Y-119384514D01*
X249187499Y-119346678D01*
X249052717Y-119295023D01*
X249047484Y-119292414D01*
X248830443Y-119136969D01*
X248682815Y-118935507D01*
X248610356Y-118706712D01*
X248618823Y-118469267D01*
X248713973Y-118241854D01*
X248720663Y-118231743D01*
X248882789Y-118052850D01*
X249094318Y-117935220D01*
X249372457Y-117870123D01*
X249450602Y-117861387D01*
X249819451Y-117845914D01*
X249991459Y-117864463D01*
X249991459Y-118331399D01*
X249884162Y-118337466D01*
X249852848Y-118370649D01*
X249876275Y-118453377D01*
X249931652Y-118583779D01*
X250001068Y-118729543D01*
X250002906Y-118733166D01*
X250067892Y-118856717D01*
X250111260Y-118906303D01*
X250156725Y-118894075D01*
X250216464Y-118842588D01*
X250302915Y-118711601D01*
X250309267Y-118570538D01*
X250246351Y-118444005D01*
X250124997Y-118356608D01*
X249991459Y-118331399D01*
X249991459Y-117864463D01*
X250114565Y-117877740D01*
X250348618Y-117959391D01*
X250512587Y-118073061D01*
X250678284Y-118278225D01*
X250760481Y-118504214D01*
X250765719Y-118734925D01*
X250700539Y-118954253D01*
G36*
X250968571Y-123002663D02*
X250769687Y-123016923D01*
X250652489Y-123033302D01*
X250601368Y-123055998D01*
X250600714Y-123089212D01*
X250606817Y-123099981D01*
X250651003Y-123243233D01*
X250648423Y-123429575D01*
X250603001Y-123619024D01*
X250544241Y-123737517D01*
X250450369Y-123859009D01*
X250344135Y-123947823D01*
X250209150Y-124008792D01*
X250029024Y-124046750D01*
X249787367Y-124066532D01*
X249467789Y-124072970D01*
X249406484Y-124073086D01*
X248717853Y-124073161D01*
X248664434Y-123919923D01*
X248628092Y-123811087D01*
X248611172Y-123751374D01*
X248611015Y-123749617D01*
X248656900Y-123743736D01*
X248783461Y-123738732D01*
X248974059Y-123734984D01*
X249212052Y-123732873D01*
X249356748Y-123732548D01*
X249642045Y-123731871D01*
X249846520Y-123728386D01*
X249986666Y-123719912D01*
X250078977Y-123704266D01*
X250139947Y-123679269D01*
X250186069Y-123642738D01*
X250208280Y-123619929D01*
X250297786Y-123463249D01*
X250304489Y-123292274D01*
X250228792Y-123137150D01*
X250201461Y-123108463D01*
X250150071Y-123066387D01*
X250089114Y-123037201D01*
X250000975Y-123018571D01*
X249868039Y-123008161D01*
X249672691Y-123003637D01*
X249403348Y-123002663D01*
X248717853Y-123002663D01*
X248664434Y-122849425D01*
X248628092Y-122740589D01*
X248611172Y-122680876D01*
X248611015Y-122679119D01*
X248657586Y-122674625D01*
X248788949Y-122670575D01*
X248992578Y-122667130D01*
X249255946Y-122664453D01*
X249566529Y-122662706D01*
X249911799Y-122662051D01*
X249927157Y-122662050D01*
X251243299Y-122662050D01*
X251376711Y-122978334D01*
X250968571Y-123002663D01*
X250968571Y-123002663D01*
G37*
X250968571Y-123002663D02*
X250769687Y-123016923D01*
X250652489Y-123033302D01*
X250601368Y-123055998D01*
X250600714Y-123089212D01*
X250606817Y-123099981D01*
X250651003Y-123243233D01*
X250648423Y-123429575D01*
X250603001Y-123619024D01*
X250544241Y-123737517D01*
X250450369Y-123859009D01*
X250344135Y-123947823D01*
X250209150Y-124008792D01*
X250029024Y-124046750D01*
X249787367Y-124066532D01*
X249467789Y-124072970D01*
X249406484Y-124073086D01*
X248717853Y-124073161D01*
X248664434Y-123919923D01*
X248628092Y-123811087D01*
X248611172Y-123751374D01*
X248611015Y-123749617D01*
X248656900Y-123743736D01*
X248783461Y-123738732D01*
X248974059Y-123734984D01*
X249212052Y-123732873D01*
X249356748Y-123732548D01*
X249642045Y-123731871D01*
X249846520Y-123728386D01*
X249986666Y-123719912D01*
X250078977Y-123704266D01*
X250139947Y-123679269D01*
X250186069Y-123642738D01*
X250208280Y-123619929D01*
X250297786Y-123463249D01*
X250304489Y-123292274D01*
X250228792Y-123137150D01*
X250201461Y-123108463D01*
X250150071Y-123066387D01*
X250089114Y-123037201D01*
X250000975Y-123018571D01*
X249868039Y-123008161D01*
X249672691Y-123003637D01*
X249403348Y-123002663D01*
X248717853Y-123002663D01*
X248664434Y-122849425D01*
X248628092Y-122740589D01*
X248611172Y-122680876D01*
X248611015Y-122679119D01*
X248657586Y-122674625D01*
X248788949Y-122670575D01*
X248992578Y-122667130D01*
X249255946Y-122664453D01*
X249566529Y-122662706D01*
X249911799Y-122662051D01*
X249927157Y-122662050D01*
X251243299Y-122662050D01*
X251376711Y-122978334D01*
X250968571Y-123002663D01*
G36*
X250634399Y-125228241D02*
X250563597Y-125418905D01*
X250562236Y-125421086D01*
X250475450Y-125539006D01*
X250374027Y-125626060D01*
X250241855Y-125687286D01*
X250062818Y-125727723D01*
X249820805Y-125752409D01*
X249499701Y-125766382D01*
X249453952Y-125767607D01*
X248764131Y-125785200D01*
X248687573Y-125637152D01*
X248635837Y-125530030D01*
X248611322Y-125465351D01*
X248611015Y-125462359D01*
X248656249Y-125451166D01*
X248778264Y-125442275D01*
X248956532Y-125436806D01*
X249100884Y-125435613D01*
X249334729Y-125435586D01*
X249481581Y-125424896D01*
X249551624Y-125387633D01*
X249555042Y-125307888D01*
X249502017Y-125169749D01*
X249404546Y-124961188D01*
X249323591Y-124807829D01*
X249253356Y-124728952D01*
X249176806Y-124705764D01*
X249173018Y-124705728D01*
X249041148Y-124743993D01*
X248969909Y-124857283D01*
X248959590Y-125030664D01*
X248961380Y-125155550D01*
X248925411Y-125221399D01*
X248839015Y-125262464D01*
X248728946Y-125286099D01*
X248666492Y-125252039D01*
X248657554Y-125239214D01*
X248621657Y-125118472D01*
X248616574Y-124949388D01*
X248640369Y-124775261D01*
X248683853Y-124651876D01*
X248828691Y-124481287D01*
X249030306Y-124384319D01*
X249187820Y-124365115D01*
X249329896Y-124379770D01*
X249445873Y-124432801D01*
X249548879Y-124537806D01*
X249652046Y-124708386D01*
X249768504Y-124958138D01*
X249775086Y-124973353D01*
X249879019Y-125198329D01*
X249964257Y-125337157D01*
X250040853Y-125396662D01*
X250118861Y-125383672D01*
X250208336Y-125305012D01*
X250228927Y-125281490D01*
X250308764Y-125123933D01*
X250305403Y-124960677D01*
X250227126Y-124818495D01*
X250082219Y-124724160D01*
X250053776Y-124715395D01*
X249915826Y-124630038D01*
X249849380Y-124521729D01*
X249783529Y-124365115D01*
X249953903Y-124365115D01*
X250201546Y-124412756D01*
X250428693Y-124554159D01*
X250504682Y-124627742D01*
X250602210Y-124795009D01*
X250646360Y-125007726D01*
X250634399Y-125228241D01*
X250634399Y-125228241D01*
G37*
X250634399Y-125228241D02*
X250563597Y-125418905D01*
X250562236Y-125421086D01*
X250475450Y-125539006D01*
X250374027Y-125626060D01*
X250241855Y-125687286D01*
X250062818Y-125727723D01*
X249820805Y-125752409D01*
X249499701Y-125766382D01*
X249453952Y-125767607D01*
X248764131Y-125785200D01*
X248687573Y-125637152D01*
X248635837Y-125530030D01*
X248611322Y-125465351D01*
X248611015Y-125462359D01*
X248656249Y-125451166D01*
X248778264Y-125442275D01*
X248956532Y-125436806D01*
X249100884Y-125435613D01*
X249334729Y-125435586D01*
X249481581Y-125424896D01*
X249551624Y-125387633D01*
X249555042Y-125307888D01*
X249502017Y-125169749D01*
X249404546Y-124961188D01*
X249323591Y-124807829D01*
X249253356Y-124728952D01*
X249176806Y-124705764D01*
X249173018Y-124705728D01*
X249041148Y-124743993D01*
X248969909Y-124857283D01*
X248959590Y-125030664D01*
X248961380Y-125155550D01*
X248925411Y-125221399D01*
X248839015Y-125262464D01*
X248728946Y-125286099D01*
X248666492Y-125252039D01*
X248657554Y-125239214D01*
X248621657Y-125118472D01*
X248616574Y-124949388D01*
X248640369Y-124775261D01*
X248683853Y-124651876D01*
X248828691Y-124481287D01*
X249030306Y-124384319D01*
X249187820Y-124365115D01*
X249329896Y-124379770D01*
X249445873Y-124432801D01*
X249548879Y-124537806D01*
X249652046Y-124708386D01*
X249768504Y-124958138D01*
X249775086Y-124973353D01*
X249879019Y-125198329D01*
X249964257Y-125337157D01*
X250040853Y-125396662D01*
X250118861Y-125383672D01*
X250208336Y-125305012D01*
X250228927Y-125281490D01*
X250308764Y-125123933D01*
X250305403Y-124960677D01*
X250227126Y-124818495D01*
X250082219Y-124724160D01*
X250053776Y-124715395D01*
X249915826Y-124630038D01*
X249849380Y-124521729D01*
X249783529Y-124365115D01*
X249953903Y-124365115D01*
X250201546Y-124412756D01*
X250428693Y-124554159D01*
X250504682Y-124627742D01*
X250602210Y-124795009D01*
X250646360Y-125007726D01*
X250634399Y-125228241D01*
G36*
X250638466Y-126871572D02*
X250556901Y-127092609D01*
X250412634Y-127271683D01*
X250311080Y-127341720D01*
X250124732Y-127418071D01*
X249989990Y-127416485D01*
X249899369Y-127336347D01*
X249883960Y-127306696D01*
X249835916Y-127178674D01*
X249848224Y-127113294D01*
X249928902Y-127091148D01*
X249973467Y-127090020D01*
X250137419Y-127049477D01*
X250252109Y-126943802D01*
X250307503Y-126796924D01*
X250293565Y-126632773D01*
X250221173Y-126499337D01*
X250179880Y-126454269D01*
X250129784Y-126422323D01*
X250054058Y-126400744D01*
X249935872Y-126386773D01*
X249758400Y-126377655D01*
X249504814Y-126370631D01*
X249424521Y-126368812D01*
X249149842Y-126362178D01*
X248956519Y-126354636D01*
X248828612Y-126343325D01*
X248750178Y-126325385D01*
X248705275Y-126297955D01*
X248677962Y-126258177D01*
X248665895Y-126232710D01*
X248624633Y-126124556D01*
X248611015Y-126060890D01*
X248656495Y-126039854D01*
X248793994Y-126027013D01*
X249025098Y-126022300D01*
X249351396Y-126025644D01*
X249401724Y-126026686D01*
X249699419Y-126034035D01*
X249916795Y-126042726D01*
X250070847Y-126055092D01*
X250178570Y-126073470D01*
X250256958Y-126100195D01*
X250323006Y-126137602D01*
X250351309Y-126157170D01*
X250476533Y-126269366D01*
X250573937Y-126394850D01*
X250582439Y-126410213D01*
X250649567Y-126635223D01*
X250638466Y-126871572D01*
X250638466Y-126871572D01*
G37*
X250638466Y-126871572D02*
X250556901Y-127092609D01*
X250412634Y-127271683D01*
X250311080Y-127341720D01*
X250124732Y-127418071D01*
X249989990Y-127416485D01*
X249899369Y-127336347D01*
X249883960Y-127306696D01*
X249835916Y-127178674D01*
X249848224Y-127113294D01*
X249928902Y-127091148D01*
X249973467Y-127090020D01*
X250137419Y-127049477D01*
X250252109Y-126943802D01*
X250307503Y-126796924D01*
X250293565Y-126632773D01*
X250221173Y-126499337D01*
X250179880Y-126454269D01*
X250129784Y-126422323D01*
X250054058Y-126400744D01*
X249935872Y-126386773D01*
X249758400Y-126377655D01*
X249504814Y-126370631D01*
X249424521Y-126368812D01*
X249149842Y-126362178D01*
X248956519Y-126354636D01*
X248828612Y-126343325D01*
X248750178Y-126325385D01*
X248705275Y-126297955D01*
X248677962Y-126258177D01*
X248665895Y-126232710D01*
X248624633Y-126124556D01*
X248611015Y-126060890D01*
X248656495Y-126039854D01*
X248793994Y-126027013D01*
X249025098Y-126022300D01*
X249351396Y-126025644D01*
X249401724Y-126026686D01*
X249699419Y-126034035D01*
X249916795Y-126042726D01*
X250070847Y-126055092D01*
X250178570Y-126073470D01*
X250256958Y-126100195D01*
X250323006Y-126137602D01*
X250351309Y-126157170D01*
X250476533Y-126269366D01*
X250573937Y-126394850D01*
X250582439Y-126410213D01*
X250649567Y-126635223D01*
X250638466Y-126871572D01*
G36*
X250250907Y-129084857D02*
X249887231Y-129084239D01*
X249607468Y-129081847D01*
X249398216Y-129076671D01*
X249246074Y-129067704D01*
X249137641Y-129053936D01*
X249059515Y-129034361D01*
X248998293Y-129007968D01*
X248963348Y-128987984D01*
X248773843Y-128822483D01*
X248655058Y-128612648D01*
X248612436Y-128380486D01*
X248651417Y-128148008D01*
X248721468Y-128009572D01*
X248842647Y-127864242D01*
X248990646Y-127765195D01*
X249184466Y-127705435D01*
X249443108Y-127677969D01*
X249632854Y-127674079D01*
X249646490Y-127674603D01*
X249646490Y-128014541D01*
X249428904Y-128016617D01*
X249284866Y-128026130D01*
X249190636Y-128048008D01*
X249122477Y-128087176D01*
X249071064Y-128133976D01*
X248971825Y-128291146D01*
X248963347Y-128459900D01*
X249046201Y-128619393D01*
X249057428Y-128631807D01*
X249115829Y-128684791D01*
X249185314Y-128718014D01*
X249288730Y-128736000D01*
X249448927Y-128743275D01*
X249626035Y-128744426D01*
X249848533Y-128741932D01*
X249996963Y-128731608D01*
X250094511Y-128709191D01*
X250164363Y-128670418D01*
X250201461Y-128638626D01*
X250295025Y-128490939D01*
X250306275Y-128320846D01*
X250234810Y-128158492D01*
X250208280Y-128127160D01*
X250149364Y-128073822D01*
X250079163Y-128040531D01*
X249974582Y-128022656D01*
X249812521Y-128015566D01*
X249646490Y-128014541D01*
X249646490Y-127674603D01*
X249938421Y-127685840D01*
X250168007Y-127725787D01*
X250340613Y-127800913D01*
X250475240Y-127918214D01*
X250544241Y-128009572D01*
X250618786Y-128175627D01*
X250653387Y-128368092D01*
X250644125Y-128546999D01*
X250606762Y-128647108D01*
X250596128Y-128686393D01*
X250635775Y-128712461D01*
X250742019Y-128730658D01*
X250903855Y-128744426D01*
X251084098Y-128759499D01*
X251192542Y-128780436D01*
X251254554Y-128818532D01*
X251295501Y-128885085D01*
X251313634Y-128926897D01*
X251379880Y-129085039D01*
X250250907Y-129084857D01*
X250250907Y-129084857D01*
G37*
X250250907Y-129084857D02*
X249887231Y-129084239D01*
X249607468Y-129081847D01*
X249398216Y-129076671D01*
X249246074Y-129067704D01*
X249137641Y-129053936D01*
X249059515Y-129034361D01*
X248998293Y-129007968D01*
X248963348Y-128987984D01*
X248773843Y-128822483D01*
X248655058Y-128612648D01*
X248612436Y-128380486D01*
X248651417Y-128148008D01*
X248721468Y-128009572D01*
X248842647Y-127864242D01*
X248990646Y-127765195D01*
X249184466Y-127705435D01*
X249443108Y-127677969D01*
X249632854Y-127674079D01*
X249646490Y-127674603D01*
X249646490Y-128014541D01*
X249428904Y-128016617D01*
X249284866Y-128026130D01*
X249190636Y-128048008D01*
X249122477Y-128087176D01*
X249071064Y-128133976D01*
X248971825Y-128291146D01*
X248963347Y-128459900D01*
X249046201Y-128619393D01*
X249057428Y-128631807D01*
X249115829Y-128684791D01*
X249185314Y-128718014D01*
X249288730Y-128736000D01*
X249448927Y-128743275D01*
X249626035Y-128744426D01*
X249848533Y-128741932D01*
X249996963Y-128731608D01*
X250094511Y-128709191D01*
X250164363Y-128670418D01*
X250201461Y-128638626D01*
X250295025Y-128490939D01*
X250306275Y-128320846D01*
X250234810Y-128158492D01*
X250208280Y-128127160D01*
X250149364Y-128073822D01*
X250079163Y-128040531D01*
X249974582Y-128022656D01*
X249812521Y-128015566D01*
X249646490Y-128014541D01*
X249646490Y-127674603D01*
X249938421Y-127685840D01*
X250168007Y-127725787D01*
X250340613Y-127800913D01*
X250475240Y-127918214D01*
X250544241Y-128009572D01*
X250618786Y-128175627D01*
X250653387Y-128368092D01*
X250644125Y-128546999D01*
X250606762Y-128647108D01*
X250596128Y-128686393D01*
X250635775Y-128712461D01*
X250742019Y-128730658D01*
X250903855Y-128744426D01*
X251084098Y-128759499D01*
X251192542Y-128780436D01*
X251254554Y-128818532D01*
X251295501Y-128885085D01*
X251313634Y-128926897D01*
X251379880Y-129085039D01*
X250250907Y-129084857D01*
G36*
X250608600Y-131061873D02*
X250480578Y-131069299D01*
X250286015Y-131075118D01*
X250040298Y-131078859D01*
X249782574Y-131080058D01*
X248910455Y-131080058D01*
X248756472Y-130926075D01*
X248661588Y-130819963D01*
X248623155Y-130726816D01*
X248625587Y-130599504D01*
X248631777Y-130548968D01*
X248649790Y-130391017D01*
X248660112Y-130260371D01*
X248661065Y-130228525D01*
X248654829Y-130121166D01*
X248639176Y-129967619D01*
X248631777Y-129908083D01*
X248620332Y-129761857D01*
X248645192Y-129663589D01*
X248721942Y-129566150D01*
X248756472Y-129530976D01*
X248910455Y-129376993D01*
X250541754Y-129376993D01*
X250598224Y-129500930D01*
X250640050Y-129607650D01*
X250654693Y-129670087D01*
X250608417Y-129686096D01*
X250479116Y-129701058D01*
X250281086Y-129713978D01*
X250028620Y-129723857D01*
X249815325Y-129728622D01*
X248975958Y-129741935D01*
X248959536Y-129858080D01*
X248971018Y-129963716D01*
X249008195Y-130015477D01*
X249077702Y-130029945D01*
X249225760Y-130042298D01*
X249433609Y-130051552D01*
X249682488Y-130056728D01*
X249810565Y-130057474D01*
X250547855Y-130058219D01*
X250601274Y-130211457D01*
X250637594Y-130319916D01*
X250654532Y-130378913D01*
X250654693Y-130380614D01*
X250608651Y-130386533D01*
X250480982Y-130393039D01*
X250287368Y-130399586D01*
X250043493Y-130405627D01*
X249815325Y-130409848D01*
X248975958Y-130423161D01*
X248975958Y-130715115D01*
X249741725Y-130728513D01*
X250507492Y-130741910D01*
X250581092Y-130884238D01*
X250631634Y-130989322D01*
X250654569Y-131051517D01*
X250654693Y-131053312D01*
X250608600Y-131061873D01*
X250608600Y-131061873D01*
G37*
X250608600Y-131061873D02*
X250480578Y-131069299D01*
X250286015Y-131075118D01*
X250040298Y-131078859D01*
X249782574Y-131080058D01*
X248910455Y-131080058D01*
X248756472Y-130926075D01*
X248661588Y-130819963D01*
X248623155Y-130726816D01*
X248625587Y-130599504D01*
X248631777Y-130548968D01*
X248649790Y-130391017D01*
X248660112Y-130260371D01*
X248661065Y-130228525D01*
X248654829Y-130121166D01*
X248639176Y-129967619D01*
X248631777Y-129908083D01*
X248620332Y-129761857D01*
X248645192Y-129663589D01*
X248721942Y-129566150D01*
X248756472Y-129530976D01*
X248910455Y-129376993D01*
X250541754Y-129376993D01*
X250598224Y-129500930D01*
X250640050Y-129607650D01*
X250654693Y-129670087D01*
X250608417Y-129686096D01*
X250479116Y-129701058D01*
X250281086Y-129713978D01*
X250028620Y-129723857D01*
X249815325Y-129728622D01*
X248975958Y-129741935D01*
X248959536Y-129858080D01*
X248971018Y-129963716D01*
X249008195Y-130015477D01*
X249077702Y-130029945D01*
X249225760Y-130042298D01*
X249433609Y-130051552D01*
X249682488Y-130056728D01*
X249810565Y-130057474D01*
X250547855Y-130058219D01*
X250601274Y-130211457D01*
X250637594Y-130319916D01*
X250654532Y-130378913D01*
X250654693Y-130380614D01*
X250608651Y-130386533D01*
X250480982Y-130393039D01*
X250287368Y-130399586D01*
X250043493Y-130405627D01*
X249815325Y-130409848D01*
X248975958Y-130423161D01*
X248975958Y-130715115D01*
X249741725Y-130728513D01*
X250507492Y-130741910D01*
X250581092Y-130884238D01*
X250631634Y-130989322D01*
X250654569Y-131051517D01*
X250654693Y-131053312D01*
X250608600Y-131061873D01*
G36*
X250616406Y-132285678D02*
X250552677Y-132425782D01*
X250475457Y-132535750D01*
X250389113Y-132616324D01*
X250277728Y-132671954D01*
X250125384Y-132707089D01*
X249916165Y-132726179D01*
X249634154Y-132733672D01*
X249448445Y-132734464D01*
X248723954Y-132734464D01*
X248667485Y-132610527D01*
X248626213Y-132512910D01*
X248611015Y-132464550D01*
X248656238Y-132455298D01*
X248778176Y-132447958D01*
X248956228Y-132443464D01*
X249097605Y-132442510D01*
X249301854Y-132438410D01*
X249463887Y-132427354D01*
X249563109Y-132411211D01*
X249584195Y-132398387D01*
X249562662Y-132312186D01*
X249507434Y-132176862D01*
X249432564Y-132020170D01*
X249352108Y-131869863D01*
X249280120Y-131753693D01*
X249230654Y-131699413D01*
X249230119Y-131699198D01*
X249138572Y-131703867D01*
X249051180Y-131745732D01*
X248980198Y-131819235D01*
X248956457Y-131926516D01*
X248959223Y-132018202D01*
X248961259Y-132148058D01*
X248930836Y-132216221D01*
X248850457Y-132257159D01*
X248835300Y-132262321D01*
X248720669Y-132280067D01*
X248651066Y-132232609D01*
X248617895Y-132108907D01*
X248611760Y-131975281D01*
X248657237Y-131734817D01*
X248722183Y-131610338D01*
X248874754Y-131456605D01*
X249062029Y-131375073D01*
X249259915Y-131367756D01*
X249444315Y-131436669D01*
X249559866Y-131540328D01*
X249624558Y-131643823D01*
X249706458Y-131806492D01*
X249789514Y-131996054D01*
X249802205Y-132027650D01*
X249894092Y-132235869D01*
X249975077Y-132355898D01*
X250055587Y-132394501D01*
X250146050Y-132358440D01*
X250216762Y-132296533D01*
X250303830Y-132150213D01*
X250310360Y-131989217D01*
X250243265Y-131841573D01*
X250109456Y-131735310D01*
X250074933Y-131721362D01*
X249947958Y-131640160D01*
X249853691Y-131521608D01*
X249776332Y-131372012D01*
X249995693Y-131372012D01*
X250129720Y-131380817D01*
X250235356Y-131418570D01*
X250348061Y-131502279D01*
X250434873Y-131582636D01*
X250557796Y-131707591D01*
X250623829Y-131804677D01*
X250650316Y-131908954D01*
X250654693Y-132026989D01*
X250616406Y-132285678D01*
X250616406Y-132285678D01*
G37*
X250616406Y-132285678D02*
X250552677Y-132425782D01*
X250475457Y-132535750D01*
X250389113Y-132616324D01*
X250277728Y-132671954D01*
X250125384Y-132707089D01*
X249916165Y-132726179D01*
X249634154Y-132733672D01*
X249448445Y-132734464D01*
X248723954Y-132734464D01*
X248667485Y-132610527D01*
X248626213Y-132512910D01*
X248611015Y-132464550D01*
X248656238Y-132455298D01*
X248778176Y-132447958D01*
X248956228Y-132443464D01*
X249097605Y-132442510D01*
X249301854Y-132438410D01*
X249463887Y-132427354D01*
X249563109Y-132411211D01*
X249584195Y-132398387D01*
X249562662Y-132312186D01*
X249507434Y-132176862D01*
X249432564Y-132020170D01*
X249352108Y-131869863D01*
X249280120Y-131753693D01*
X249230654Y-131699413D01*
X249230119Y-131699198D01*
X249138572Y-131703867D01*
X249051180Y-131745732D01*
X248980198Y-131819235D01*
X248956457Y-131926516D01*
X248959223Y-132018202D01*
X248961259Y-132148058D01*
X248930836Y-132216221D01*
X248850457Y-132257159D01*
X248835300Y-132262321D01*
X248720669Y-132280067D01*
X248651066Y-132232609D01*
X248617895Y-132108907D01*
X248611760Y-131975281D01*
X248657237Y-131734817D01*
X248722183Y-131610338D01*
X248874754Y-131456605D01*
X249062029Y-131375073D01*
X249259915Y-131367756D01*
X249444315Y-131436669D01*
X249559866Y-131540328D01*
X249624558Y-131643823D01*
X249706458Y-131806492D01*
X249789514Y-131996054D01*
X249802205Y-132027650D01*
X249894092Y-132235869D01*
X249975077Y-132355898D01*
X250055587Y-132394501D01*
X250146050Y-132358440D01*
X250216762Y-132296533D01*
X250303830Y-132150213D01*
X250310360Y-131989217D01*
X250243265Y-131841573D01*
X250109456Y-131735310D01*
X250074933Y-131721362D01*
X249947958Y-131640160D01*
X249853691Y-131521608D01*
X249776332Y-131372012D01*
X249995693Y-131372012D01*
X250129720Y-131380817D01*
X250235356Y-131418570D01*
X250348061Y-131502279D01*
X250434873Y-131582636D01*
X250557796Y-131707591D01*
X250623829Y-131804677D01*
X250650316Y-131908954D01*
X250654693Y-132026989D01*
X250616406Y-132285678D01*
G36*
X250608303Y-133987816D02*
X250582884Y-134045976D01*
X250472941Y-134184795D01*
X250313970Y-134303505D01*
X250144323Y-134376921D01*
X250060687Y-134388870D01*
X249943922Y-134348809D01*
X249882138Y-134260935D01*
X249844727Y-134166718D01*
X249837833Y-134123577D01*
X249887862Y-134102571D01*
X249996731Y-134061090D01*
X250045924Y-134042892D01*
X250216087Y-133940848D01*
X250300962Y-133793103D01*
X250298352Y-133603655D01*
X250295009Y-133589623D01*
X250247055Y-133488481D01*
X250153568Y-133414124D01*
X250003061Y-133363338D01*
X249784049Y-133332908D01*
X249485044Y-133319618D01*
X249325944Y-133318372D01*
X249075145Y-133317754D01*
X248904175Y-133313705D01*
X248795546Y-133302933D01*
X248731770Y-133282147D01*
X248695357Y-133248055D01*
X248668821Y-133197365D01*
X248667485Y-133194435D01*
X248626213Y-133096818D01*
X248611015Y-133048458D01*
X248656963Y-133041027D01*
X248783966Y-133034666D01*
X248975765Y-133029832D01*
X249216098Y-133026985D01*
X249391976Y-133026418D01*
X249732312Y-133029313D01*
X249990505Y-133040637D01*
X250181626Y-133064346D01*
X250320747Y-133104397D01*
X250422940Y-133164747D01*
X250503276Y-133249353D01*
X250559345Y-133332899D01*
X250633968Y-133533791D01*
X250650798Y-133767596D01*
X250608303Y-133987816D01*
X250608303Y-133987816D01*
G37*
X250608303Y-133987816D02*
X250582884Y-134045976D01*
X250472941Y-134184795D01*
X250313970Y-134303505D01*
X250144323Y-134376921D01*
X250060687Y-134388870D01*
X249943922Y-134348809D01*
X249882138Y-134260935D01*
X249844727Y-134166718D01*
X249837833Y-134123577D01*
X249887862Y-134102571D01*
X249996731Y-134061090D01*
X250045924Y-134042892D01*
X250216087Y-133940848D01*
X250300962Y-133793103D01*
X250298352Y-133603655D01*
X250295009Y-133589623D01*
X250247055Y-133488481D01*
X250153568Y-133414124D01*
X250003061Y-133363338D01*
X249784049Y-133332908D01*
X249485044Y-133319618D01*
X249325944Y-133318372D01*
X249075145Y-133317754D01*
X248904175Y-133313705D01*
X248795546Y-133302933D01*
X248731770Y-133282147D01*
X248695357Y-133248055D01*
X248668821Y-133197365D01*
X248667485Y-133194435D01*
X248626213Y-133096818D01*
X248611015Y-133048458D01*
X248656963Y-133041027D01*
X248783966Y-133034666D01*
X248975765Y-133029832D01*
X249216098Y-133026985D01*
X249391976Y-133026418D01*
X249732312Y-133029313D01*
X249990505Y-133040637D01*
X250181626Y-133064346D01*
X250320747Y-133104397D01*
X250422940Y-133164747D01*
X250503276Y-133249353D01*
X250559345Y-133332899D01*
X250633968Y-133533791D01*
X250650798Y-133767596D01*
X250608303Y-133987816D01*
G36*
X250580767Y-135667399D02*
X250454943Y-135859917D01*
X250342304Y-135952774D01*
X250137908Y-136026340D01*
X249976170Y-136032183D01*
X249759906Y-136018947D01*
X249541602Y-135520192D01*
X249430070Y-135277685D01*
X249340350Y-135119229D01*
X249262639Y-135036836D01*
X249187133Y-135022518D01*
X249104029Y-135068287D01*
X249048946Y-135118755D01*
X248960611Y-135265605D01*
X248954421Y-135425328D01*
X249023265Y-135572020D01*
X249160028Y-135679781D01*
X249208320Y-135699055D01*
X249359152Y-135791376D01*
X249423433Y-135897588D01*
X249478424Y-136043276D01*
X249269943Y-136043276D01*
X249128074Y-136030396D01*
X249008437Y-135979943D01*
X248871073Y-135874197D01*
X248853223Y-135858480D01*
X248731014Y-135740855D01*
X248665430Y-135639746D01*
X248635258Y-135513250D01*
X248625377Y-135408384D01*
X248622915Y-135220811D01*
X248654108Y-135087284D01*
X248700421Y-135003983D01*
X248802265Y-134873063D01*
X248912409Y-134782439D01*
X249050931Y-134725087D01*
X249237910Y-134693980D01*
X249493423Y-134682094D01*
X249623106Y-134681145D01*
X249778579Y-134684371D01*
X249778579Y-134978166D01*
X249695173Y-134981573D01*
X249681513Y-134990066D01*
X249700069Y-135046110D01*
X249749178Y-135166718D01*
X249818998Y-135327913D01*
X249834005Y-135361622D01*
X249937596Y-135565339D01*
X250028641Y-135677579D01*
X250113919Y-135702247D01*
X250200206Y-135643245D01*
X250238333Y-135594518D01*
X250314583Y-135418694D01*
X250301986Y-135254127D01*
X250208914Y-135116354D01*
X250043744Y-135020913D01*
X249912643Y-134990314D01*
X249778579Y-134978166D01*
X249778579Y-134684371D01*
X249926081Y-134687432D01*
X250150244Y-134710599D01*
X250313474Y-134756490D01*
X250433648Y-134830954D01*
X250528645Y-134939836D01*
X250559345Y-134987305D01*
X250639297Y-135202938D01*
X250644328Y-135439021D01*
X250580767Y-135667399D01*
X250580767Y-135667399D01*
G37*
X250580767Y-135667399D02*
X250454943Y-135859917D01*
X250342304Y-135952774D01*
X250137908Y-136026340D01*
X249976170Y-136032183D01*
X249759906Y-136018947D01*
X249541602Y-135520192D01*
X249430070Y-135277685D01*
X249340350Y-135119229D01*
X249262639Y-135036836D01*
X249187133Y-135022518D01*
X249104029Y-135068287D01*
X249048946Y-135118755D01*
X248960611Y-135265605D01*
X248954421Y-135425328D01*
X249023265Y-135572020D01*
X249160028Y-135679781D01*
X249208320Y-135699055D01*
X249359152Y-135791376D01*
X249423433Y-135897588D01*
X249478424Y-136043276D01*
X249269943Y-136043276D01*
X249128074Y-136030396D01*
X249008437Y-135979943D01*
X248871073Y-135874197D01*
X248853223Y-135858480D01*
X248731014Y-135740855D01*
X248665430Y-135639746D01*
X248635258Y-135513250D01*
X248625377Y-135408384D01*
X248622915Y-135220811D01*
X248654108Y-135087284D01*
X248700421Y-135003983D01*
X248802265Y-134873063D01*
X248912409Y-134782439D01*
X249050931Y-134725087D01*
X249237910Y-134693980D01*
X249493423Y-134682094D01*
X249623106Y-134681145D01*
X249778579Y-134684371D01*
X249778579Y-134978166D01*
X249695173Y-134981573D01*
X249681513Y-134990066D01*
X249700069Y-135046110D01*
X249749178Y-135166718D01*
X249818998Y-135327913D01*
X249834005Y-135361622D01*
X249937596Y-135565339D01*
X250028641Y-135677579D01*
X250113919Y-135702247D01*
X250200206Y-135643245D01*
X250238333Y-135594518D01*
X250314583Y-135418694D01*
X250301986Y-135254127D01*
X250208914Y-135116354D01*
X250043744Y-135020913D01*
X249912643Y-134990314D01*
X249778579Y-134978166D01*
X249778579Y-134684371D01*
X249926081Y-134687432D01*
X250150244Y-134710599D01*
X250313474Y-134756490D01*
X250433648Y-134830954D01*
X250528645Y-134939836D01*
X250559345Y-134987305D01*
X250639297Y-135202938D01*
X250644328Y-135439021D01*
X250580767Y-135667399D01*
G36*
X266420003Y-125443357D02*
X266418561Y-125706677D01*
X266414658Y-125897246D01*
X266407063Y-126027345D01*
X266394550Y-126109257D01*
X266375889Y-126155266D01*
X266349852Y-126177653D01*
X266315212Y-126188702D01*
X266310728Y-126189776D01*
X266229811Y-126206559D01*
X266070158Y-126237625D01*
X265848762Y-126279742D01*
X265582615Y-126329679D01*
X265288710Y-126384203D01*
X265278388Y-126386107D01*
X264990364Y-126440723D01*
X264735885Y-126491822D01*
X264530215Y-126536106D01*
X264388615Y-126570279D01*
X264326350Y-126591043D01*
X264325247Y-126592033D01*
X264294841Y-126653199D01*
X264244172Y-126779310D01*
X264184178Y-126943131D01*
X264183858Y-126944043D01*
X264106296Y-127150388D01*
X264007493Y-127393660D01*
X263908152Y-127622969D01*
X263903240Y-127633822D01*
X263733724Y-128007317D01*
X264298505Y-128834365D01*
X264470680Y-129088077D01*
X264624605Y-129317902D01*
X264751526Y-129510525D01*
X264842691Y-129652632D01*
X264889345Y-129730907D01*
X264892805Y-129738340D01*
X264877400Y-129795224D01*
X264803073Y-129901469D01*
X264666319Y-130061219D01*
X264463632Y-130278616D01*
X264247992Y-130500548D01*
X264035497Y-130714491D01*
X263841590Y-130905969D01*
X263678246Y-131063455D01*
X263557439Y-131175422D01*
X263491145Y-131230343D01*
X263487732Y-131232386D01*
X263442239Y-131238458D01*
X263367944Y-131215584D01*
X263254814Y-131158115D01*
X263092815Y-131060399D01*
X262871914Y-130916784D01*
X262587540Y-130725333D01*
X262337241Y-130555423D01*
X262112750Y-130403538D01*
X261927100Y-130278455D01*
X261793325Y-130188949D01*
X261724458Y-130143800D01*
X261719782Y-130140958D01*
X261653799Y-130146470D01*
X261525552Y-130188255D01*
X261359280Y-130257997D01*
X261306181Y-130282854D01*
X261069623Y-130391311D01*
X260801211Y-130507020D01*
X260568965Y-130601015D01*
X260396593Y-130668745D01*
X260265597Y-130722543D01*
X260197133Y-130753631D01*
X260191858Y-130757496D01*
X260183120Y-130814671D01*
X260159177Y-130949448D01*
X260123438Y-131143906D01*
X260079311Y-131380125D01*
X260030205Y-131640184D01*
X259979528Y-131906163D01*
X259930687Y-132160143D01*
X259887091Y-132384201D01*
X259852149Y-132560420D01*
X259829268Y-132670877D01*
X259822799Y-132697970D01*
X259806833Y-132725956D01*
X259770773Y-132747081D01*
X259702448Y-132762297D01*
X259589685Y-132772553D01*
X259420314Y-132778800D01*
X259182162Y-132781988D01*
X258863058Y-132783067D01*
X258732259Y-132783123D01*
X257668489Y-132783123D01*
X257618067Y-132527663D01*
X257590727Y-132385537D01*
X257550818Y-132173450D01*
X257503155Y-131917193D01*
X257452554Y-131642558D01*
X257438656Y-131566648D01*
X257389383Y-131313221D01*
X257340930Y-131092447D01*
X257297785Y-130922857D01*
X257264437Y-130822980D01*
X257254498Y-130806343D01*
X257184109Y-130765489D01*
X257047717Y-130706913D01*
X256872195Y-130641955D01*
X256834387Y-130629071D01*
X256599970Y-130543934D01*
X256335476Y-130438256D01*
X256097959Y-130334840D01*
X256096856Y-130334330D01*
X255724267Y-130162112D01*
X254891107Y-130728524D01*
X254057947Y-131294935D01*
X253329500Y-130567702D01*
X253112698Y-130347748D01*
X252921586Y-130147132D01*
X252766364Y-129977122D01*
X252657236Y-129848985D01*
X252604405Y-129773989D01*
X252601053Y-129763231D01*
X252627451Y-129700067D01*
X252700840Y-129571180D01*
X252812516Y-129390649D01*
X252953776Y-129172554D01*
X253111973Y-128936754D01*
X253273336Y-128697436D01*
X253413748Y-128484059D01*
X253524569Y-128310175D01*
X253597162Y-128189334D01*
X253622892Y-128135263D01*
X253601120Y-128069294D01*
X253543749Y-127944198D01*
X253462700Y-127785780D01*
X253453691Y-127768987D01*
X253346700Y-127555652D01*
X253294228Y-127409364D01*
X253293670Y-127318380D01*
X253342420Y-127270959D01*
X253343103Y-127270683D01*
X253400836Y-127246980D01*
X253537885Y-127190449D01*
X253743643Y-127105474D01*
X254007502Y-126996438D01*
X254318856Y-126867724D01*
X254667096Y-126723715D01*
X255004256Y-126584251D01*
X255376334Y-126430980D01*
X255721013Y-126290251D01*
X256027729Y-126166282D01*
X256285915Y-126063291D01*
X256485006Y-125985496D01*
X256614435Y-125937114D01*
X256662739Y-125922204D01*
X256718150Y-125959594D01*
X256806462Y-126057398D01*
X256903826Y-126187815D01*
X257211747Y-126559223D01*
X257564696Y-126849530D01*
X257955239Y-127055256D01*
X258375943Y-127172923D01*
X258819371Y-127199051D01*
X259024042Y-127180060D01*
X259448677Y-127076583D01*
X259823664Y-126898373D01*
X260145304Y-126656482D01*
X260409899Y-126361963D01*
X260613750Y-126025871D01*
X260753158Y-125659258D01*
X260824426Y-125273177D01*
X260823855Y-124878681D01*
X260747746Y-124486825D01*
X260592401Y-124108660D01*
X260354121Y-123755240D01*
X260219361Y-123607727D01*
X259873321Y-123324816D01*
X259495174Y-123127832D01*
X259095945Y-123015464D01*
X258686655Y-122986401D01*
X258278328Y-123039331D01*
X257881987Y-123172943D01*
X257508655Y-123385925D01*
X257169355Y-123676966D01*
X256903826Y-124002186D01*
X256802329Y-124137652D01*
X256714975Y-124233349D01*
X256662657Y-124267797D01*
X256605602Y-124249760D01*
X256469302Y-124198462D01*
X256264322Y-124118124D01*
X256001228Y-124012964D01*
X255690584Y-123887204D01*
X255342957Y-123745063D01*
X255004174Y-123605365D01*
X254631778Y-123451241D01*
X254286693Y-123308482D01*
X253979523Y-123181471D01*
X253720875Y-123074589D01*
X253521353Y-122992220D01*
X253391565Y-122938747D01*
X253343103Y-122918933D01*
X253293871Y-122872124D01*
X253294015Y-122781583D01*
X253346123Y-122635658D01*
X253452784Y-122422698D01*
X253453691Y-122421014D01*
X253536464Y-122260670D01*
X253596758Y-122131052D01*
X253622654Y-122057963D01*
X253622892Y-122054737D01*
X253596626Y-121999716D01*
X253523584Y-121878243D01*
X253412405Y-121703871D01*
X253271727Y-121490150D01*
X253111973Y-121253247D01*
X252950221Y-121012055D01*
X252809550Y-120794674D01*
X252698665Y-120615184D01*
X252626270Y-120487664D01*
X252601053Y-120426770D01*
X252634197Y-120370697D01*
X252726827Y-120257960D01*
X252868743Y-120099823D01*
X253049745Y-119907551D01*
X253259631Y-119692409D01*
X253329751Y-119622048D01*
X254058448Y-118894566D01*
X254871100Y-119448295D01*
X255120658Y-119616577D01*
X255344634Y-119764271D01*
X255530051Y-119883090D01*
X255663935Y-119964750D01*
X255733310Y-120000964D01*
X255738245Y-120002025D01*
X255803636Y-119982933D01*
X255935175Y-119931582D01*
X256110819Y-119856860D01*
X256228409Y-119804412D01*
X256453539Y-119706346D01*
X256680985Y-119613993D01*
X256873161Y-119542394D01*
X256931705Y-119522944D01*
X257088044Y-119467686D01*
X257208842Y-119413669D01*
X257254498Y-119383999D01*
X257282439Y-119318524D01*
X257322049Y-119175624D01*
X257368838Y-118973839D01*
X257418317Y-118731712D01*
X257438656Y-118623353D01*
X257489219Y-118348189D01*
X257538178Y-118084254D01*
X257580719Y-117857341D01*
X257612025Y-117693239D01*
X257618067Y-117662338D01*
X257668489Y-117406878D01*
X258732259Y-117406878D01*
X259082050Y-117407452D01*
X259346700Y-117409807D01*
X259538378Y-117414893D01*
X259669256Y-117423661D01*
X259751507Y-117437062D01*
X259797302Y-117456046D01*
X259818812Y-117481562D01*
X259822799Y-117492031D01*
X259836944Y-117555174D01*
X259865166Y-117694675D01*
X259904057Y-117892611D01*
X259950208Y-118131065D01*
X260000212Y-118392114D01*
X260050659Y-118657839D01*
X260098142Y-118910319D01*
X260139252Y-119131635D01*
X260170581Y-119303866D01*
X260188722Y-119409092D01*
X260191858Y-119432505D01*
X260233827Y-119453716D01*
X260345630Y-119500668D01*
X260506112Y-119564581D01*
X260568965Y-119588986D01*
X260811797Y-119687420D01*
X261080082Y-119803334D01*
X261306181Y-119907147D01*
X261479065Y-119983535D01*
X261621123Y-120034356D01*
X261708122Y-120051321D01*
X261719782Y-120048616D01*
X261774830Y-120012761D01*
X261897261Y-119930892D01*
X262074038Y-119811795D01*
X262292123Y-119664258D01*
X262538480Y-119497069D01*
X262587109Y-119464010D01*
X262875227Y-119270020D01*
X263094623Y-119127421D01*
X263255398Y-119030527D01*
X263367654Y-118973654D01*
X263441490Y-118951116D01*
X263487010Y-118957228D01*
X263487300Y-118957384D01*
X263547090Y-119005489D01*
X263662681Y-119111889D01*
X263822091Y-119265052D01*
X264013335Y-119453445D01*
X264224432Y-119665535D01*
X264247992Y-119689453D01*
X264506828Y-119956738D01*
X264696883Y-120163008D01*
X264821663Y-120312408D01*
X264884673Y-120409080D01*
X264892805Y-120451661D01*
X264857328Y-120513804D01*
X264775377Y-120642763D01*
X264655708Y-120825222D01*
X264507074Y-121047867D01*
X264338228Y-121297384D01*
X264298505Y-121355636D01*
X263733724Y-122182684D01*
X263903240Y-122556179D01*
X264002029Y-122783316D01*
X264101383Y-123027128D01*
X264180599Y-123236725D01*
X264183858Y-123245958D01*
X264243871Y-123409905D01*
X264294618Y-123536285D01*
X264325159Y-123597863D01*
X264325247Y-123597968D01*
X264380452Y-123617507D01*
X264516221Y-123650721D01*
X264717291Y-123694313D01*
X264968401Y-123744984D01*
X265254287Y-123799439D01*
X265278388Y-123803894D01*
X265572941Y-123858518D01*
X265840316Y-123908664D01*
X266063520Y-123951102D01*
X266225561Y-123982598D01*
X266309447Y-123999923D01*
X266310728Y-124000225D01*
X266346412Y-124010768D01*
X266373354Y-124031269D01*
X266392782Y-124074011D01*
X266405925Y-124151276D01*
X266414011Y-124275348D01*
X266418268Y-124458509D01*
X266419925Y-124713042D01*
X266420210Y-125051231D01*
X266420210Y-125095000D01*
X266420003Y-125443357D01*
X266420003Y-125443357D01*
G37*
X266420003Y-125443357D02*
X266418561Y-125706677D01*
X266414658Y-125897246D01*
X266407063Y-126027345D01*
X266394550Y-126109257D01*
X266375889Y-126155266D01*
X266349852Y-126177653D01*
X266315212Y-126188702D01*
X266310728Y-126189776D01*
X266229811Y-126206559D01*
X266070158Y-126237625D01*
X265848762Y-126279742D01*
X265582615Y-126329679D01*
X265288710Y-126384203D01*
X265278388Y-126386107D01*
X264990364Y-126440723D01*
X264735885Y-126491822D01*
X264530215Y-126536106D01*
X264388615Y-126570279D01*
X264326350Y-126591043D01*
X264325247Y-126592033D01*
X264294841Y-126653199D01*
X264244172Y-126779310D01*
X264184178Y-126943131D01*
X264183858Y-126944043D01*
X264106296Y-127150388D01*
X264007493Y-127393660D01*
X263908152Y-127622969D01*
X263903240Y-127633822D01*
X263733724Y-128007317D01*
X264298505Y-128834365D01*
X264470680Y-129088077D01*
X264624605Y-129317902D01*
X264751526Y-129510525D01*
X264842691Y-129652632D01*
X264889345Y-129730907D01*
X264892805Y-129738340D01*
X264877400Y-129795224D01*
X264803073Y-129901469D01*
X264666319Y-130061219D01*
X264463632Y-130278616D01*
X264247992Y-130500548D01*
X264035497Y-130714491D01*
X263841590Y-130905969D01*
X263678246Y-131063455D01*
X263557439Y-131175422D01*
X263491145Y-131230343D01*
X263487732Y-131232386D01*
X263442239Y-131238458D01*
X263367944Y-131215584D01*
X263254814Y-131158115D01*
X263092815Y-131060399D01*
X262871914Y-130916784D01*
X262587540Y-130725333D01*
X262337241Y-130555423D01*
X262112750Y-130403538D01*
X261927100Y-130278455D01*
X261793325Y-130188949D01*
X261724458Y-130143800D01*
X261719782Y-130140958D01*
X261653799Y-130146470D01*
X261525552Y-130188255D01*
X261359280Y-130257997D01*
X261306181Y-130282854D01*
X261069623Y-130391311D01*
X260801211Y-130507020D01*
X260568965Y-130601015D01*
X260396593Y-130668745D01*
X260265597Y-130722543D01*
X260197133Y-130753631D01*
X260191858Y-130757496D01*
X260183120Y-130814671D01*
X260159177Y-130949448D01*
X260123438Y-131143906D01*
X260079311Y-131380125D01*
X260030205Y-131640184D01*
X259979528Y-131906163D01*
X259930687Y-132160143D01*
X259887091Y-132384201D01*
X259852149Y-132560420D01*
X259829268Y-132670877D01*
X259822799Y-132697970D01*
X259806833Y-132725956D01*
X259770773Y-132747081D01*
X259702448Y-132762297D01*
X259589685Y-132772553D01*
X259420314Y-132778800D01*
X259182162Y-132781988D01*
X258863058Y-132783067D01*
X258732259Y-132783123D01*
X257668489Y-132783123D01*
X257618067Y-132527663D01*
X257590727Y-132385537D01*
X257550818Y-132173450D01*
X257503155Y-131917193D01*
X257452554Y-131642558D01*
X257438656Y-131566648D01*
X257389383Y-131313221D01*
X257340930Y-131092447D01*
X257297785Y-130922857D01*
X257264437Y-130822980D01*
X257254498Y-130806343D01*
X257184109Y-130765489D01*
X257047717Y-130706913D01*
X256872195Y-130641955D01*
X256834387Y-130629071D01*
X256599970Y-130543934D01*
X256335476Y-130438256D01*
X256097959Y-130334840D01*
X256096856Y-130334330D01*
X255724267Y-130162112D01*
X254891107Y-130728524D01*
X254057947Y-131294935D01*
X253329500Y-130567702D01*
X253112698Y-130347748D01*
X252921586Y-130147132D01*
X252766364Y-129977122D01*
X252657236Y-129848985D01*
X252604405Y-129773989D01*
X252601053Y-129763231D01*
X252627451Y-129700067D01*
X252700840Y-129571180D01*
X252812516Y-129390649D01*
X252953776Y-129172554D01*
X253111973Y-128936754D01*
X253273336Y-128697436D01*
X253413748Y-128484059D01*
X253524569Y-128310175D01*
X253597162Y-128189334D01*
X253622892Y-128135263D01*
X253601120Y-128069294D01*
X253543749Y-127944198D01*
X253462700Y-127785780D01*
X253453691Y-127768987D01*
X253346700Y-127555652D01*
X253294228Y-127409364D01*
X253293670Y-127318380D01*
X253342420Y-127270959D01*
X253343103Y-127270683D01*
X253400836Y-127246980D01*
X253537885Y-127190449D01*
X253743643Y-127105474D01*
X254007502Y-126996438D01*
X254318856Y-126867724D01*
X254667096Y-126723715D01*
X255004256Y-126584251D01*
X255376334Y-126430980D01*
X255721013Y-126290251D01*
X256027729Y-126166282D01*
X256285915Y-126063291D01*
X256485006Y-125985496D01*
X256614435Y-125937114D01*
X256662739Y-125922204D01*
X256718150Y-125959594D01*
X256806462Y-126057398D01*
X256903826Y-126187815D01*
X257211747Y-126559223D01*
X257564696Y-126849530D01*
X257955239Y-127055256D01*
X258375943Y-127172923D01*
X258819371Y-127199051D01*
X259024042Y-127180060D01*
X259448677Y-127076583D01*
X259823664Y-126898373D01*
X260145304Y-126656482D01*
X260409899Y-126361963D01*
X260613750Y-126025871D01*
X260753158Y-125659258D01*
X260824426Y-125273177D01*
X260823855Y-124878681D01*
X260747746Y-124486825D01*
X260592401Y-124108660D01*
X260354121Y-123755240D01*
X260219361Y-123607727D01*
X259873321Y-123324816D01*
X259495174Y-123127832D01*
X259095945Y-123015464D01*
X258686655Y-122986401D01*
X258278328Y-123039331D01*
X257881987Y-123172943D01*
X257508655Y-123385925D01*
X257169355Y-123676966D01*
X256903826Y-124002186D01*
X256802329Y-124137652D01*
X256714975Y-124233349D01*
X256662657Y-124267797D01*
X256605602Y-124249760D01*
X256469302Y-124198462D01*
X256264322Y-124118124D01*
X256001228Y-124012964D01*
X255690584Y-123887204D01*
X255342957Y-123745063D01*
X255004174Y-123605365D01*
X254631778Y-123451241D01*
X254286693Y-123308482D01*
X253979523Y-123181471D01*
X253720875Y-123074589D01*
X253521353Y-122992220D01*
X253391565Y-122938747D01*
X253343103Y-122918933D01*
X253293871Y-122872124D01*
X253294015Y-122781583D01*
X253346123Y-122635658D01*
X253452784Y-122422698D01*
X253453691Y-122421014D01*
X253536464Y-122260670D01*
X253596758Y-122131052D01*
X253622654Y-122057963D01*
X253622892Y-122054737D01*
X253596626Y-121999716D01*
X253523584Y-121878243D01*
X253412405Y-121703871D01*
X253271727Y-121490150D01*
X253111973Y-121253247D01*
X252950221Y-121012055D01*
X252809550Y-120794674D01*
X252698665Y-120615184D01*
X252626270Y-120487664D01*
X252601053Y-120426770D01*
X252634197Y-120370697D01*
X252726827Y-120257960D01*
X252868743Y-120099823D01*
X253049745Y-119907551D01*
X253259631Y-119692409D01*
X253329751Y-119622048D01*
X254058448Y-118894566D01*
X254871100Y-119448295D01*
X255120658Y-119616577D01*
X255344634Y-119764271D01*
X255530051Y-119883090D01*
X255663935Y-119964750D01*
X255733310Y-120000964D01*
X255738245Y-120002025D01*
X255803636Y-119982933D01*
X255935175Y-119931582D01*
X256110819Y-119856860D01*
X256228409Y-119804412D01*
X256453539Y-119706346D01*
X256680985Y-119613993D01*
X256873161Y-119542394D01*
X256931705Y-119522944D01*
X257088044Y-119467686D01*
X257208842Y-119413669D01*
X257254498Y-119383999D01*
X257282439Y-119318524D01*
X257322049Y-119175624D01*
X257368838Y-118973839D01*
X257418317Y-118731712D01*
X257438656Y-118623353D01*
X257489219Y-118348189D01*
X257538178Y-118084254D01*
X257580719Y-117857341D01*
X257612025Y-117693239D01*
X257618067Y-117662338D01*
X257668489Y-117406878D01*
X258732259Y-117406878D01*
X259082050Y-117407452D01*
X259346700Y-117409807D01*
X259538378Y-117414893D01*
X259669256Y-117423661D01*
X259751507Y-117437062D01*
X259797302Y-117456046D01*
X259818812Y-117481562D01*
X259822799Y-117492031D01*
X259836944Y-117555174D01*
X259865166Y-117694675D01*
X259904057Y-117892611D01*
X259950208Y-118131065D01*
X260000212Y-118392114D01*
X260050659Y-118657839D01*
X260098142Y-118910319D01*
X260139252Y-119131635D01*
X260170581Y-119303866D01*
X260188722Y-119409092D01*
X260191858Y-119432505D01*
X260233827Y-119453716D01*
X260345630Y-119500668D01*
X260506112Y-119564581D01*
X260568965Y-119588986D01*
X260811797Y-119687420D01*
X261080082Y-119803334D01*
X261306181Y-119907147D01*
X261479065Y-119983535D01*
X261621123Y-120034356D01*
X261708122Y-120051321D01*
X261719782Y-120048616D01*
X261774830Y-120012761D01*
X261897261Y-119930892D01*
X262074038Y-119811795D01*
X262292123Y-119664258D01*
X262538480Y-119497069D01*
X262587109Y-119464010D01*
X262875227Y-119270020D01*
X263094623Y-119127421D01*
X263255398Y-119030527D01*
X263367654Y-118973654D01*
X263441490Y-118951116D01*
X263487010Y-118957228D01*
X263487300Y-118957384D01*
X263547090Y-119005489D01*
X263662681Y-119111889D01*
X263822091Y-119265052D01*
X264013335Y-119453445D01*
X264224432Y-119665535D01*
X264247992Y-119689453D01*
X264506828Y-119956738D01*
X264696883Y-120163008D01*
X264821663Y-120312408D01*
X264884673Y-120409080D01*
X264892805Y-120451661D01*
X264857328Y-120513804D01*
X264775377Y-120642763D01*
X264655708Y-120825222D01*
X264507074Y-121047867D01*
X264338228Y-121297384D01*
X264298505Y-121355636D01*
X263733724Y-122182684D01*
X263903240Y-122556179D01*
X264002029Y-122783316D01*
X264101383Y-123027128D01*
X264180599Y-123236725D01*
X264183858Y-123245958D01*
X264243871Y-123409905D01*
X264294618Y-123536285D01*
X264325159Y-123597863D01*
X264325247Y-123597968D01*
X264380452Y-123617507D01*
X264516221Y-123650721D01*
X264717291Y-123694313D01*
X264968401Y-123744984D01*
X265254287Y-123799439D01*
X265278388Y-123803894D01*
X265572941Y-123858518D01*
X265840316Y-123908664D01*
X266063520Y-123951102D01*
X266225561Y-123982598D01*
X266309447Y-123999923D01*
X266310728Y-124000225D01*
X266346412Y-124010768D01*
X266373354Y-124031269D01*
X266392782Y-124074011D01*
X266405925Y-124151276D01*
X266414011Y-124275348D01*
X266418268Y-124458509D01*
X266419925Y-124713042D01*
X266420210Y-125051231D01*
X266420210Y-125095000D01*
X266420003Y-125443357D01*
D14*
X34983809Y-65666190D02*
X34983809Y-66142381D01*
X34650476Y-65142381D02*
X34983809Y-65666190D01*
X35317143Y-65142381D01*
X35602857Y-65237619D02*
X35650476Y-65190000D01*
X35745714Y-65142381D01*
X35983810Y-65142381D01*
X36079048Y-65190000D01*
X36126667Y-65237619D01*
X36174286Y-65332857D01*
X36174286Y-65428095D01*
X36126667Y-65570952D01*
X35555238Y-66142381D01*
X36174286Y-66142381D01*
X75465086Y-129679371D02*
X75607943Y-129726990D01*
X75655562Y-129774610D01*
X75703181Y-129869848D01*
X75703181Y-130012705D01*
X75655562Y-130107943D01*
X75607943Y-130155562D01*
X75512705Y-130203181D01*
X75131752Y-130203181D01*
X75131752Y-129203181D01*
X75465086Y-129203181D01*
X75560324Y-129250800D01*
X75607943Y-129298419D01*
X75655562Y-129393657D01*
X75655562Y-129488895D01*
X75607943Y-129584133D01*
X75560324Y-129631752D01*
X75465086Y-129679371D01*
X75131752Y-129679371D01*
X75988895Y-129203181D02*
X76560324Y-129203181D01*
X76274609Y-130203181D02*
X76274609Y-129203181D01*
X77417467Y-130203181D02*
X76846038Y-130203181D01*
X77131752Y-130203181D02*
X77131752Y-129203181D01*
X77036514Y-129346038D01*
X76941276Y-129441276D01*
X76846038Y-129488895D01*
X75869848Y-150322229D02*
X76631753Y-150322229D01*
X63869848Y-139822229D02*
X64631753Y-139822229D01*
X64250801Y-140203181D02*
X64250801Y-139441276D01*
X87869848Y-139822229D02*
X88631753Y-139822229D01*
X88250801Y-140203181D02*
X88250801Y-139441276D01*
X159190476Y-71452381D02*
X159523809Y-72452381D01*
X159857143Y-71452381D01*
X160095238Y-71452381D02*
X160714286Y-71452381D01*
X160380952Y-71833333D01*
X160523810Y-71833333D01*
X160619048Y-71880952D01*
X160666667Y-71928571D01*
X160714286Y-72023810D01*
X160714286Y-72261905D01*
X160666667Y-72357143D01*
X160619048Y-72404762D01*
X160523810Y-72452381D01*
X160238095Y-72452381D01*
X160142857Y-72404762D01*
X160095238Y-72357143D01*
X119190476Y-71452381D02*
X119523809Y-72452381D01*
X119857143Y-71452381D01*
X120142857Y-71547619D02*
X120190476Y-71500000D01*
X120285714Y-71452381D01*
X120523810Y-71452381D01*
X120619048Y-71500000D01*
X120666667Y-71547619D01*
X120714286Y-71642857D01*
X120714286Y-71738095D01*
X120666667Y-71880952D01*
X120095238Y-72452381D01*
X120714286Y-72452381D01*
X89190476Y-71452381D02*
X89523809Y-72452381D01*
X89857143Y-71452381D01*
X90714286Y-72452381D02*
X90142857Y-72452381D01*
X90428571Y-72452381D02*
X90428571Y-71452381D01*
X90333333Y-71595238D01*
X90238095Y-71690476D01*
X90142857Y-71738095D01*
X238666667Y-131904762D02*
X238809524Y-131952381D01*
X239047620Y-131952381D01*
X239142858Y-131904762D01*
X239190477Y-131857143D01*
X239238096Y-131761905D01*
X239238096Y-131666667D01*
X239190477Y-131571429D01*
X239142858Y-131523810D01*
X239047620Y-131476190D01*
X238857143Y-131428571D01*
X238761905Y-131380952D01*
X238714286Y-131333333D01*
X238666667Y-131238095D01*
X238666667Y-131142857D01*
X238714286Y-131047619D01*
X238761905Y-131000000D01*
X238857143Y-130952381D01*
X239095239Y-130952381D01*
X239238096Y-131000000D01*
X239571429Y-130952381D02*
X239809524Y-131952381D01*
X240000001Y-131238095D01*
X240190477Y-131952381D01*
X240428572Y-130952381D01*
X240714286Y-130952381D02*
X241380953Y-130952381D01*
X240952381Y-131952381D01*
X222440476Y-51974762D02*
X222583333Y-52022381D01*
X222821429Y-52022381D01*
X222916667Y-51974762D01*
X222964286Y-51927143D01*
X223011905Y-51831905D01*
X223011905Y-51736667D01*
X222964286Y-51641429D01*
X222916667Y-51593810D01*
X222821429Y-51546190D01*
X222630952Y-51498571D01*
X222535714Y-51450952D01*
X222488095Y-51403333D01*
X222440476Y-51308095D01*
X222440476Y-51212857D01*
X222488095Y-51117619D01*
X222535714Y-51070000D01*
X222630952Y-51022381D01*
X222869048Y-51022381D01*
X223011905Y-51070000D01*
X223345238Y-51022381D02*
X223583333Y-52022381D01*
X223773810Y-51308095D01*
X223964286Y-52022381D01*
X224202381Y-51022381D01*
X225011905Y-51022381D02*
X224821428Y-51022381D01*
X224726190Y-51070000D01*
X224678571Y-51117619D01*
X224583333Y-51260476D01*
X224535714Y-51450952D01*
X224535714Y-51831905D01*
X224583333Y-51927143D01*
X224630952Y-51974762D01*
X224726190Y-52022381D01*
X224916667Y-52022381D01*
X225011905Y-51974762D01*
X225059524Y-51927143D01*
X225107143Y-51831905D01*
X225107143Y-51593810D01*
X225059524Y-51498571D01*
X225011905Y-51450952D01*
X224916667Y-51403333D01*
X224726190Y-51403333D01*
X224630952Y-51450952D01*
X224583333Y-51498571D01*
X224535714Y-51593810D01*
X82740476Y-51974762D02*
X82883333Y-52022381D01*
X83121429Y-52022381D01*
X83216667Y-51974762D01*
X83264286Y-51927143D01*
X83311905Y-51831905D01*
X83311905Y-51736667D01*
X83264286Y-51641429D01*
X83216667Y-51593810D01*
X83121429Y-51546190D01*
X82930952Y-51498571D01*
X82835714Y-51450952D01*
X82788095Y-51403333D01*
X82740476Y-51308095D01*
X82740476Y-51212857D01*
X82788095Y-51117619D01*
X82835714Y-51070000D01*
X82930952Y-51022381D01*
X83169048Y-51022381D01*
X83311905Y-51070000D01*
X83645238Y-51022381D02*
X83883333Y-52022381D01*
X84073810Y-51308095D01*
X84264286Y-52022381D01*
X84502381Y-51022381D01*
X85359524Y-51022381D02*
X84883333Y-51022381D01*
X84835714Y-51498571D01*
X84883333Y-51450952D01*
X84978571Y-51403333D01*
X85216667Y-51403333D01*
X85311905Y-51450952D01*
X85359524Y-51498571D01*
X85407143Y-51593810D01*
X85407143Y-51831905D01*
X85359524Y-51927143D01*
X85311905Y-51974762D01*
X85216667Y-52022381D01*
X84978571Y-52022381D01*
X84883333Y-51974762D01*
X84835714Y-51927143D01*
X163666667Y-116154762D02*
X163809524Y-116202381D01*
X164047620Y-116202381D01*
X164142858Y-116154762D01*
X164190477Y-116107143D01*
X164238096Y-116011905D01*
X164238096Y-115916667D01*
X164190477Y-115821429D01*
X164142858Y-115773810D01*
X164047620Y-115726190D01*
X163857143Y-115678571D01*
X163761905Y-115630952D01*
X163714286Y-115583333D01*
X163666667Y-115488095D01*
X163666667Y-115392857D01*
X163714286Y-115297619D01*
X163761905Y-115250000D01*
X163857143Y-115202381D01*
X164095239Y-115202381D01*
X164238096Y-115250000D01*
X164571429Y-115202381D02*
X164809524Y-116202381D01*
X165000001Y-115488095D01*
X165190477Y-116202381D01*
X165428572Y-115202381D01*
X166238096Y-115535714D02*
X166238096Y-116202381D01*
X166000000Y-115154762D02*
X165761905Y-115869048D01*
X166380953Y-115869048D01*
X193666667Y-116154762D02*
X193809524Y-116202381D01*
X194047620Y-116202381D01*
X194142858Y-116154762D01*
X194190477Y-116107143D01*
X194238096Y-116011905D01*
X194238096Y-115916667D01*
X194190477Y-115821429D01*
X194142858Y-115773810D01*
X194047620Y-115726190D01*
X193857143Y-115678571D01*
X193761905Y-115630952D01*
X193714286Y-115583333D01*
X193666667Y-115488095D01*
X193666667Y-115392857D01*
X193714286Y-115297619D01*
X193761905Y-115250000D01*
X193857143Y-115202381D01*
X194095239Y-115202381D01*
X194238096Y-115250000D01*
X194571429Y-115202381D02*
X194809524Y-116202381D01*
X195000001Y-115488095D01*
X195190477Y-116202381D01*
X195428572Y-115202381D01*
X195714286Y-115202381D02*
X196333334Y-115202381D01*
X196000000Y-115583333D01*
X196142858Y-115583333D01*
X196238096Y-115630952D01*
X196285715Y-115678571D01*
X196333334Y-115773810D01*
X196333334Y-116011905D01*
X196285715Y-116107143D01*
X196238096Y-116154762D01*
X196142858Y-116202381D01*
X195857143Y-116202381D01*
X195761905Y-116154762D01*
X195714286Y-116107143D01*
X27209762Y-102679524D02*
X27257381Y-102536667D01*
X27257381Y-102298571D01*
X27209762Y-102203333D01*
X27162143Y-102155714D01*
X27066905Y-102108095D01*
X26971667Y-102108095D01*
X26876429Y-102155714D01*
X26828810Y-102203333D01*
X26781190Y-102298571D01*
X26733571Y-102489048D01*
X26685952Y-102584286D01*
X26638333Y-102631905D01*
X26543095Y-102679524D01*
X26447857Y-102679524D01*
X26352619Y-102631905D01*
X26305000Y-102584286D01*
X26257381Y-102489048D01*
X26257381Y-102250952D01*
X26305000Y-102108095D01*
X26257381Y-101774762D02*
X27257381Y-101536667D01*
X26543095Y-101346190D01*
X27257381Y-101155714D01*
X26257381Y-100917619D01*
X26352619Y-100584286D02*
X26305000Y-100536667D01*
X26257381Y-100441429D01*
X26257381Y-100203333D01*
X26305000Y-100108095D01*
X26352619Y-100060476D01*
X26447857Y-100012857D01*
X26543095Y-100012857D01*
X26685952Y-100060476D01*
X27257381Y-100631905D01*
X27257381Y-100012857D01*
X123583867Y-139481562D02*
X123726724Y-139529181D01*
X123964820Y-139529181D01*
X124060058Y-139481562D01*
X124107677Y-139433943D01*
X124155296Y-139338705D01*
X124155296Y-139243467D01*
X124107677Y-139148229D01*
X124060058Y-139100610D01*
X123964820Y-139052990D01*
X123774343Y-139005371D01*
X123679105Y-138957752D01*
X123631486Y-138910133D01*
X123583867Y-138814895D01*
X123583867Y-138719657D01*
X123631486Y-138624419D01*
X123679105Y-138576800D01*
X123774343Y-138529181D01*
X124012439Y-138529181D01*
X124155296Y-138576800D01*
X124488629Y-138529181D02*
X124726724Y-139529181D01*
X124917201Y-138814895D01*
X125107677Y-139529181D01*
X125345772Y-138529181D01*
X126250534Y-139529181D02*
X125679105Y-139529181D01*
X125964819Y-139529181D02*
X125964819Y-138529181D01*
X125869581Y-138672038D01*
X125774343Y-138767276D01*
X125679105Y-138814895D01*
X138309524Y-93848381D02*
X138309524Y-92848381D01*
X138880953Y-93848381D01*
X138880953Y-92848381D01*
X139357143Y-93324571D02*
X139690477Y-93324571D01*
X139833334Y-93848381D02*
X139357143Y-93848381D01*
X139357143Y-92848381D01*
X139833334Y-92848381D01*
X140785715Y-93848381D02*
X140214286Y-93848381D01*
X140500000Y-93848381D02*
X140500000Y-92848381D01*
X140404762Y-92991238D01*
X140309524Y-93086476D01*
X140214286Y-93134095D01*
X141690477Y-92848381D02*
X141214286Y-92848381D01*
X141166667Y-93324571D01*
X141214286Y-93276952D01*
X141309524Y-93229333D01*
X141547620Y-93229333D01*
X141642858Y-93276952D01*
X141690477Y-93324571D01*
X141738096Y-93419810D01*
X141738096Y-93657905D01*
X141690477Y-93753143D01*
X141642858Y-93800762D01*
X141547620Y-93848381D01*
X141309524Y-93848381D01*
X141214286Y-93800762D01*
X141166667Y-93753143D01*
X138309524Y-73848381D02*
X138309524Y-72848381D01*
X138880953Y-73848381D01*
X138880953Y-72848381D01*
X139357143Y-73324571D02*
X139690477Y-73324571D01*
X139833334Y-73848381D02*
X139357143Y-73848381D01*
X139357143Y-72848381D01*
X139833334Y-72848381D01*
X140785715Y-73848381D02*
X140214286Y-73848381D01*
X140500000Y-73848381D02*
X140500000Y-72848381D01*
X140404762Y-72991238D01*
X140309524Y-73086476D01*
X140214286Y-73134095D01*
X141642858Y-73181714D02*
X141642858Y-73848381D01*
X141404762Y-72800762D02*
X141166667Y-73515048D01*
X141785715Y-73515048D01*
X208309524Y-113848381D02*
X208309524Y-112848381D01*
X208880953Y-113848381D01*
X208880953Y-112848381D01*
X209357143Y-113324571D02*
X209690477Y-113324571D01*
X209833334Y-113848381D02*
X209357143Y-113848381D01*
X209357143Y-112848381D01*
X209833334Y-112848381D01*
X210785715Y-113848381D02*
X210214286Y-113848381D01*
X210500000Y-113848381D02*
X210500000Y-112848381D01*
X210404762Y-112991238D01*
X210309524Y-113086476D01*
X210214286Y-113134095D01*
X211119048Y-112848381D02*
X211738096Y-112848381D01*
X211404762Y-113229333D01*
X211547620Y-113229333D01*
X211642858Y-113276952D01*
X211690477Y-113324571D01*
X211738096Y-113419810D01*
X211738096Y-113657905D01*
X211690477Y-113753143D01*
X211642858Y-113800762D01*
X211547620Y-113848381D01*
X211261905Y-113848381D01*
X211166667Y-113800762D01*
X211119048Y-113753143D01*
X178309524Y-113848381D02*
X178309524Y-112848381D01*
X178880953Y-113848381D01*
X178880953Y-112848381D01*
X179357143Y-113324571D02*
X179690477Y-113324571D01*
X179833334Y-113848381D02*
X179357143Y-113848381D01*
X179357143Y-112848381D01*
X179833334Y-112848381D01*
X180785715Y-113848381D02*
X180214286Y-113848381D01*
X180500000Y-113848381D02*
X180500000Y-112848381D01*
X180404762Y-112991238D01*
X180309524Y-113086476D01*
X180214286Y-113134095D01*
X181166667Y-112943619D02*
X181214286Y-112896000D01*
X181309524Y-112848381D01*
X181547620Y-112848381D01*
X181642858Y-112896000D01*
X181690477Y-112943619D01*
X181738096Y-113038857D01*
X181738096Y-113134095D01*
X181690477Y-113276952D01*
X181119048Y-113848381D01*
X181738096Y-113848381D01*
X71334524Y-105227381D02*
X71334524Y-104227381D01*
X71905953Y-105227381D01*
X71905953Y-104227381D01*
X72382143Y-104703571D02*
X72715477Y-104703571D01*
X72858334Y-105227381D02*
X72382143Y-105227381D01*
X72382143Y-104227381D01*
X72858334Y-104227381D01*
X73810715Y-105227381D02*
X73239286Y-105227381D01*
X73525000Y-105227381D02*
X73525000Y-104227381D01*
X73429762Y-104370238D01*
X73334524Y-104465476D01*
X73239286Y-104513095D01*
X74763096Y-105227381D02*
X74191667Y-105227381D01*
X74477381Y-105227381D02*
X74477381Y-104227381D01*
X74382143Y-104370238D01*
X74286905Y-104465476D01*
X74191667Y-104513095D01*
X71969524Y-95702381D02*
X71969524Y-94702381D01*
X72540953Y-95702381D01*
X72540953Y-94702381D01*
X73017143Y-95178571D02*
X73350477Y-95178571D01*
X73493334Y-95702381D02*
X73017143Y-95702381D01*
X73017143Y-94702381D01*
X73493334Y-94702381D01*
X74445715Y-95702381D02*
X73874286Y-95702381D01*
X74160000Y-95702381D02*
X74160000Y-94702381D01*
X74064762Y-94845238D01*
X73969524Y-94940476D01*
X73874286Y-94988095D01*
X75064762Y-94702381D02*
X75160001Y-94702381D01*
X75255239Y-94750000D01*
X75302858Y-94797619D01*
X75350477Y-94892857D01*
X75398096Y-95083333D01*
X75398096Y-95321429D01*
X75350477Y-95511905D01*
X75302858Y-95607143D01*
X75255239Y-95654762D01*
X75160001Y-95702381D01*
X75064762Y-95702381D01*
X74969524Y-95654762D01*
X74921905Y-95607143D01*
X74874286Y-95511905D01*
X74826667Y-95321429D01*
X74826667Y-95083333D01*
X74874286Y-94892857D01*
X74921905Y-94797619D01*
X74969524Y-94750000D01*
X75064762Y-94702381D01*
X71810714Y-85542381D02*
X71810714Y-84542381D01*
X72382143Y-85542381D01*
X72382143Y-84542381D01*
X72858333Y-85018571D02*
X73191667Y-85018571D01*
X73334524Y-85542381D02*
X72858333Y-85542381D01*
X72858333Y-84542381D01*
X73334524Y-84542381D01*
X73810714Y-85542381D02*
X74001190Y-85542381D01*
X74096429Y-85494762D01*
X74144048Y-85447143D01*
X74239286Y-85304286D01*
X74286905Y-85113810D01*
X74286905Y-84732857D01*
X74239286Y-84637619D01*
X74191667Y-84590000D01*
X74096429Y-84542381D01*
X73905952Y-84542381D01*
X73810714Y-84590000D01*
X73763095Y-84637619D01*
X73715476Y-84732857D01*
X73715476Y-84970952D01*
X73763095Y-85066190D01*
X73810714Y-85113810D01*
X73905952Y-85161429D01*
X74096429Y-85161429D01*
X74191667Y-85113810D01*
X74239286Y-85066190D01*
X74286905Y-84970952D01*
X71175714Y-75382381D02*
X71175714Y-74382381D01*
X71747143Y-75382381D01*
X71747143Y-74382381D01*
X72223333Y-74858571D02*
X72556667Y-74858571D01*
X72699524Y-75382381D02*
X72223333Y-75382381D01*
X72223333Y-74382381D01*
X72699524Y-74382381D01*
X73270952Y-74810952D02*
X73175714Y-74763333D01*
X73128095Y-74715714D01*
X73080476Y-74620476D01*
X73080476Y-74572857D01*
X73128095Y-74477619D01*
X73175714Y-74430000D01*
X73270952Y-74382381D01*
X73461429Y-74382381D01*
X73556667Y-74430000D01*
X73604286Y-74477619D01*
X73651905Y-74572857D01*
X73651905Y-74620476D01*
X73604286Y-74715714D01*
X73556667Y-74763333D01*
X73461429Y-74810952D01*
X73270952Y-74810952D01*
X73175714Y-74858571D01*
X73128095Y-74906190D01*
X73080476Y-75001429D01*
X73080476Y-75191905D01*
X73128095Y-75287143D01*
X73175714Y-75334762D01*
X73270952Y-75382381D01*
X73461429Y-75382381D01*
X73556667Y-75334762D01*
X73604286Y-75287143D01*
X73651905Y-75191905D01*
X73651905Y-75001429D01*
X73604286Y-74906190D01*
X73556667Y-74858571D01*
X73461429Y-74810952D01*
X213785714Y-133848381D02*
X213785714Y-132848381D01*
X214357143Y-133848381D01*
X214357143Y-132848381D01*
X214833333Y-133324571D02*
X215166667Y-133324571D01*
X215309524Y-133848381D02*
X214833333Y-133848381D01*
X214833333Y-132848381D01*
X215309524Y-132848381D01*
X215642857Y-132848381D02*
X216309524Y-132848381D01*
X215880952Y-133848381D01*
X203785714Y-133848381D02*
X203785714Y-132848381D01*
X204357143Y-133848381D01*
X204357143Y-132848381D01*
X204833333Y-133324571D02*
X205166667Y-133324571D01*
X205309524Y-133848381D02*
X204833333Y-133848381D01*
X204833333Y-132848381D01*
X205309524Y-132848381D01*
X206166667Y-132848381D02*
X205976190Y-132848381D01*
X205880952Y-132896000D01*
X205833333Y-132943619D01*
X205738095Y-133086476D01*
X205690476Y-133276952D01*
X205690476Y-133657905D01*
X205738095Y-133753143D01*
X205785714Y-133800762D01*
X205880952Y-133848381D01*
X206071429Y-133848381D01*
X206166667Y-133800762D01*
X206214286Y-133753143D01*
X206261905Y-133657905D01*
X206261905Y-133419810D01*
X206214286Y-133324571D01*
X206166667Y-133276952D01*
X206071429Y-133229333D01*
X205880952Y-133229333D01*
X205785714Y-133276952D01*
X205738095Y-133324571D01*
X205690476Y-133419810D01*
X193785714Y-133848381D02*
X193785714Y-132848381D01*
X194357143Y-133848381D01*
X194357143Y-132848381D01*
X194833333Y-133324571D02*
X195166667Y-133324571D01*
X195309524Y-133848381D02*
X194833333Y-133848381D01*
X194833333Y-132848381D01*
X195309524Y-132848381D01*
X196214286Y-132848381D02*
X195738095Y-132848381D01*
X195690476Y-133324571D01*
X195738095Y-133276952D01*
X195833333Y-133229333D01*
X196071429Y-133229333D01*
X196166667Y-133276952D01*
X196214286Y-133324571D01*
X196261905Y-133419810D01*
X196261905Y-133657905D01*
X196214286Y-133753143D01*
X196166667Y-133800762D01*
X196071429Y-133848381D01*
X195833333Y-133848381D01*
X195738095Y-133800762D01*
X195690476Y-133753143D01*
X183785714Y-133848381D02*
X183785714Y-132848381D01*
X184357143Y-133848381D01*
X184357143Y-132848381D01*
X184833333Y-133324571D02*
X185166667Y-133324571D01*
X185309524Y-133848381D02*
X184833333Y-133848381D01*
X184833333Y-132848381D01*
X185309524Y-132848381D01*
X186166667Y-133181714D02*
X186166667Y-133848381D01*
X185928571Y-132800762D02*
X185690476Y-133515048D01*
X186309524Y-133515048D01*
X173785714Y-133848381D02*
X173785714Y-132848381D01*
X174357143Y-133848381D01*
X174357143Y-132848381D01*
X174833333Y-133324571D02*
X175166667Y-133324571D01*
X175309524Y-133848381D02*
X174833333Y-133848381D01*
X174833333Y-132848381D01*
X175309524Y-132848381D01*
X175642857Y-132848381D02*
X176261905Y-132848381D01*
X175928571Y-133229333D01*
X176071429Y-133229333D01*
X176166667Y-133276952D01*
X176214286Y-133324571D01*
X176261905Y-133419810D01*
X176261905Y-133657905D01*
X176214286Y-133753143D01*
X176166667Y-133800762D01*
X176071429Y-133848381D01*
X175785714Y-133848381D01*
X175690476Y-133800762D01*
X175642857Y-133753143D01*
X163785714Y-133848381D02*
X163785714Y-132848381D01*
X164357143Y-133848381D01*
X164357143Y-132848381D01*
X164833333Y-133324571D02*
X165166667Y-133324571D01*
X165309524Y-133848381D02*
X164833333Y-133848381D01*
X164833333Y-132848381D01*
X165309524Y-132848381D01*
X165690476Y-132943619D02*
X165738095Y-132896000D01*
X165833333Y-132848381D01*
X166071429Y-132848381D01*
X166166667Y-132896000D01*
X166214286Y-132943619D01*
X166261905Y-133038857D01*
X166261905Y-133134095D01*
X166214286Y-133276952D01*
X165642857Y-133848381D01*
X166261905Y-133848381D01*
X153785714Y-133848381D02*
X153785714Y-132848381D01*
X154357143Y-133848381D01*
X154357143Y-132848381D01*
X154833333Y-133324571D02*
X155166667Y-133324571D01*
X155309524Y-133848381D02*
X154833333Y-133848381D01*
X154833333Y-132848381D01*
X155309524Y-132848381D01*
X156261905Y-133848381D02*
X155690476Y-133848381D01*
X155976190Y-133848381D02*
X155976190Y-132848381D01*
X155880952Y-132991238D01*
X155785714Y-133086476D01*
X155690476Y-133134095D01*
X30586667Y-128392381D02*
X30586667Y-129106667D01*
X30539047Y-129249524D01*
X30443809Y-129344762D01*
X30300952Y-129392381D01*
X30205714Y-129392381D01*
X31015238Y-128487619D02*
X31062857Y-128440000D01*
X31158095Y-128392381D01*
X31396191Y-128392381D01*
X31491429Y-128440000D01*
X31539048Y-128487619D01*
X31586667Y-128582857D01*
X31586667Y-128678095D01*
X31539048Y-128820952D01*
X30967619Y-129392381D01*
X31586667Y-129392381D01*
X140839867Y-144207981D02*
X140839867Y-144922267D01*
X140792247Y-145065124D01*
X140697009Y-145160362D01*
X140554152Y-145207981D01*
X140458914Y-145207981D01*
X141839867Y-145207981D02*
X141268438Y-145207981D01*
X141554152Y-145207981D02*
X141554152Y-144207981D01*
X141458914Y-144350838D01*
X141363676Y-144446076D01*
X141268438Y-144493695D01*
X54582143Y-125122857D02*
X54629762Y-125170476D01*
X54677381Y-125313333D01*
X54677381Y-125408571D01*
X54629762Y-125551429D01*
X54534524Y-125646667D01*
X54439286Y-125694286D01*
X54248810Y-125741905D01*
X54105952Y-125741905D01*
X53915476Y-125694286D01*
X53820238Y-125646667D01*
X53725000Y-125551429D01*
X53677381Y-125408571D01*
X53677381Y-125313333D01*
X53725000Y-125170476D01*
X53772619Y-125122857D01*
X53772619Y-124741905D02*
X53725000Y-124694286D01*
X53677381Y-124599048D01*
X53677381Y-124360952D01*
X53725000Y-124265714D01*
X53772619Y-124218095D01*
X53867857Y-124170476D01*
X53963095Y-124170476D01*
X54105952Y-124218095D01*
X54677381Y-124789524D01*
X54677381Y-124170476D01*
X53677381Y-123837143D02*
X53677381Y-123170476D01*
X54677381Y-123599048D01*
X48252143Y-119737143D02*
X48204524Y-119784762D01*
X48061667Y-119832381D01*
X47966429Y-119832381D01*
X47823571Y-119784762D01*
X47728333Y-119689524D01*
X47680714Y-119594286D01*
X47633095Y-119403810D01*
X47633095Y-119260952D01*
X47680714Y-119070476D01*
X47728333Y-118975238D01*
X47823571Y-118880000D01*
X47966429Y-118832381D01*
X48061667Y-118832381D01*
X48204524Y-118880000D01*
X48252143Y-118927619D01*
X48633095Y-118927619D02*
X48680714Y-118880000D01*
X48775952Y-118832381D01*
X49014048Y-118832381D01*
X49109286Y-118880000D01*
X49156905Y-118927619D01*
X49204524Y-119022857D01*
X49204524Y-119118095D01*
X49156905Y-119260952D01*
X48585476Y-119832381D01*
X49204524Y-119832381D01*
X49680714Y-119832381D02*
X49871190Y-119832381D01*
X49966429Y-119784762D01*
X50014048Y-119737143D01*
X50109286Y-119594286D01*
X50156905Y-119403810D01*
X50156905Y-119022857D01*
X50109286Y-118927619D01*
X50061667Y-118880000D01*
X49966429Y-118832381D01*
X49775952Y-118832381D01*
X49680714Y-118880000D01*
X49633095Y-118927619D01*
X49585476Y-119022857D01*
X49585476Y-119260952D01*
X49633095Y-119356190D01*
X49680714Y-119403810D01*
X49775952Y-119451429D01*
X49966429Y-119451429D01*
X50061667Y-119403810D01*
X50109286Y-119356190D01*
X50156905Y-119260952D01*
X37477143Y-117582143D02*
X37429524Y-117629762D01*
X37286667Y-117677381D01*
X37191429Y-117677381D01*
X37048571Y-117629762D01*
X36953333Y-117534524D01*
X36905714Y-117439286D01*
X36858095Y-117248810D01*
X36858095Y-117105952D01*
X36905714Y-116915476D01*
X36953333Y-116820238D01*
X37048571Y-116725000D01*
X37191429Y-116677381D01*
X37286667Y-116677381D01*
X37429524Y-116725000D01*
X37477143Y-116772619D01*
X37810476Y-116677381D02*
X38429524Y-116677381D01*
X38096190Y-117058333D01*
X38239048Y-117058333D01*
X38334286Y-117105952D01*
X38381905Y-117153571D01*
X38429524Y-117248810D01*
X38429524Y-117486905D01*
X38381905Y-117582143D01*
X38334286Y-117629762D01*
X38239048Y-117677381D01*
X37953333Y-117677381D01*
X37858095Y-117629762D01*
X37810476Y-117582143D01*
X39048571Y-116677381D02*
X39143810Y-116677381D01*
X39239048Y-116725000D01*
X39286667Y-116772619D01*
X39334286Y-116867857D01*
X39381905Y-117058333D01*
X39381905Y-117296429D01*
X39334286Y-117486905D01*
X39286667Y-117582143D01*
X39239048Y-117629762D01*
X39143810Y-117677381D01*
X39048571Y-117677381D01*
X38953333Y-117629762D01*
X38905714Y-117582143D01*
X38858095Y-117486905D01*
X38810476Y-117296429D01*
X38810476Y-117058333D01*
X38858095Y-116867857D01*
X38905714Y-116772619D01*
X38953333Y-116725000D01*
X39048571Y-116677381D01*
X41902143Y-98147143D02*
X41854524Y-98194762D01*
X41711667Y-98242381D01*
X41616429Y-98242381D01*
X41473571Y-98194762D01*
X41378333Y-98099524D01*
X41330714Y-98004286D01*
X41283095Y-97813810D01*
X41283095Y-97670952D01*
X41330714Y-97480476D01*
X41378333Y-97385238D01*
X41473571Y-97290000D01*
X41616429Y-97242381D01*
X41711667Y-97242381D01*
X41854524Y-97290000D01*
X41902143Y-97337619D01*
X42235476Y-97242381D02*
X42854524Y-97242381D01*
X42521190Y-97623333D01*
X42664048Y-97623333D01*
X42759286Y-97670952D01*
X42806905Y-97718571D01*
X42854524Y-97813810D01*
X42854524Y-98051905D01*
X42806905Y-98147143D01*
X42759286Y-98194762D01*
X42664048Y-98242381D01*
X42378333Y-98242381D01*
X42283095Y-98194762D01*
X42235476Y-98147143D01*
X43235476Y-97337619D02*
X43283095Y-97290000D01*
X43378333Y-97242381D01*
X43616429Y-97242381D01*
X43711667Y-97290000D01*
X43759286Y-97337619D01*
X43806905Y-97432857D01*
X43806905Y-97528095D01*
X43759286Y-97670952D01*
X43187857Y-98242381D01*
X43806905Y-98242381D01*
X53312143Y-85047143D02*
X53264524Y-85094762D01*
X53121667Y-85142381D01*
X53026429Y-85142381D01*
X52883571Y-85094762D01*
X52788333Y-84999524D01*
X52740714Y-84904286D01*
X52693095Y-84713810D01*
X52693095Y-84570952D01*
X52740714Y-84380476D01*
X52788333Y-84285238D01*
X52883571Y-84190000D01*
X53026429Y-84142381D01*
X53121667Y-84142381D01*
X53264524Y-84190000D01*
X53312143Y-84237619D01*
X53645476Y-84142381D02*
X54264524Y-84142381D01*
X53931190Y-84523333D01*
X54074048Y-84523333D01*
X54169286Y-84570952D01*
X54216905Y-84618571D01*
X54264524Y-84713810D01*
X54264524Y-84951905D01*
X54216905Y-85047143D01*
X54169286Y-85094762D01*
X54074048Y-85142381D01*
X53788333Y-85142381D01*
X53693095Y-85094762D01*
X53645476Y-85047143D01*
X54597857Y-84142381D02*
X55216905Y-84142381D01*
X54883571Y-84523333D01*
X55026429Y-84523333D01*
X55121667Y-84570952D01*
X55169286Y-84618571D01*
X55216905Y-84713810D01*
X55216905Y-84951905D01*
X55169286Y-85047143D01*
X55121667Y-85094762D01*
X55026429Y-85142381D01*
X54740714Y-85142381D01*
X54645476Y-85094762D01*
X54597857Y-85047143D01*
X132338809Y-131517190D02*
X132338809Y-131993381D01*
X132005476Y-130993381D02*
X132338809Y-131517190D01*
X132672143Y-130993381D01*
X133529286Y-131993381D02*
X132957857Y-131993381D01*
X133243571Y-131993381D02*
X133243571Y-130993381D01*
X133148333Y-131136238D01*
X133053095Y-131231476D01*
X132957857Y-131279095D01*
X232235476Y-74382381D02*
X232568809Y-75382381D01*
X232902143Y-74382381D01*
X233664048Y-74382381D02*
X233473571Y-74382381D01*
X233378333Y-74430000D01*
X233330714Y-74477619D01*
X233235476Y-74620476D01*
X233187857Y-74810952D01*
X233187857Y-75191905D01*
X233235476Y-75287143D01*
X233283095Y-75334762D01*
X233378333Y-75382381D01*
X233568810Y-75382381D01*
X233664048Y-75334762D01*
X233711667Y-75287143D01*
X233759286Y-75191905D01*
X233759286Y-74953810D01*
X233711667Y-74858571D01*
X233664048Y-74810952D01*
X233568810Y-74763333D01*
X233378333Y-74763333D01*
X233283095Y-74810952D01*
X233235476Y-74858571D01*
X233187857Y-74953810D01*
X211915476Y-74382381D02*
X212248809Y-75382381D01*
X212582143Y-74382381D01*
X213391667Y-74382381D02*
X212915476Y-74382381D01*
X212867857Y-74858571D01*
X212915476Y-74810952D01*
X213010714Y-74763333D01*
X213248810Y-74763333D01*
X213344048Y-74810952D01*
X213391667Y-74858571D01*
X213439286Y-74953810D01*
X213439286Y-75191905D01*
X213391667Y-75287143D01*
X213344048Y-75334762D01*
X213248810Y-75382381D01*
X213010714Y-75382381D01*
X212915476Y-75334762D01*
X212867857Y-75287143D01*
X189190476Y-71452381D02*
X189523809Y-72452381D01*
X189857143Y-71452381D01*
X190619048Y-71785714D02*
X190619048Y-72452381D01*
X190380952Y-71404762D02*
X190142857Y-72119048D01*
X190761905Y-72119048D01*
X93467143Y-65392857D02*
X93514762Y-65440476D01*
X93562381Y-65583333D01*
X93562381Y-65678571D01*
X93514762Y-65821429D01*
X93419524Y-65916667D01*
X93324286Y-65964286D01*
X93133810Y-66011905D01*
X92990952Y-66011905D01*
X92800476Y-65964286D01*
X92705238Y-65916667D01*
X92610000Y-65821429D01*
X92562381Y-65678571D01*
X92562381Y-65583333D01*
X92610000Y-65440476D01*
X92657619Y-65392857D01*
X92657619Y-65011905D02*
X92610000Y-64964286D01*
X92562381Y-64869048D01*
X92562381Y-64630952D01*
X92610000Y-64535714D01*
X92657619Y-64488095D01*
X92752857Y-64440476D01*
X92848095Y-64440476D01*
X92990952Y-64488095D01*
X93562381Y-65059524D01*
X93562381Y-64440476D01*
X92562381Y-63583333D02*
X92562381Y-63773810D01*
X92610000Y-63869048D01*
X92657619Y-63916667D01*
X92800476Y-64011905D01*
X92990952Y-64059524D01*
X93371905Y-64059524D01*
X93467143Y-64011905D01*
X93514762Y-63964286D01*
X93562381Y-63869048D01*
X93562381Y-63678571D01*
X93514762Y-63583333D01*
X93467143Y-63535714D01*
X93371905Y-63488095D01*
X93133810Y-63488095D01*
X93038571Y-63535714D01*
X92990952Y-63583333D01*
X92943333Y-63678571D01*
X92943333Y-63869048D01*
X92990952Y-63964286D01*
X93038571Y-64011905D01*
X93133810Y-64059524D01*
X114601667Y-62952381D02*
X114601667Y-63666667D01*
X114554047Y-63809524D01*
X114458809Y-63904762D01*
X114315952Y-63952381D01*
X114220714Y-63952381D01*
X114982619Y-62952381D02*
X115601667Y-62952381D01*
X115268333Y-63333333D01*
X115411191Y-63333333D01*
X115506429Y-63380952D01*
X115554048Y-63428571D01*
X115601667Y-63523810D01*
X115601667Y-63761905D01*
X115554048Y-63857143D01*
X115506429Y-63904762D01*
X115411191Y-63952381D01*
X115125476Y-63952381D01*
X115030238Y-63904762D01*
X114982619Y-63857143D01*
X63333334Y-132532381D02*
X62857143Y-132532381D01*
X62857143Y-131532381D01*
X64190477Y-132532381D02*
X63619048Y-132532381D01*
X63904762Y-132532381D02*
X63904762Y-131532381D01*
X63809524Y-131675238D01*
X63714286Y-131770476D01*
X63619048Y-131818095D01*
X38568334Y-83852381D02*
X38092143Y-83852381D01*
X38092143Y-82852381D01*
X38854048Y-82947619D02*
X38901667Y-82900000D01*
X38996905Y-82852381D01*
X39235001Y-82852381D01*
X39330239Y-82900000D01*
X39377858Y-82947619D01*
X39425477Y-83042857D01*
X39425477Y-83138095D01*
X39377858Y-83280952D01*
X38806429Y-83852381D01*
X39425477Y-83852381D01*
M02*
