M48
INCH,TZ
T1C0.016
T2C0.020
T3C0.030
T4C0.031
T5C0.032
T6C0.039
T7C0.043
T8C0.043
T9C0.047
T10C0.051
T11C0.063
T12C0.091
T13C0.157
T14C0.177
%
G90
G05
T1
X13500Y-30750
X16250Y-32500
X16750Y-25750
X16750Y-26750
X16750Y-27500
X18750Y-57750
X20500Y-33250
X20750Y-26250
X22500Y-28500
X22500Y-30000
X23000Y-24500
X23000Y-28500
X23250Y-29500
X23750Y-29000
X23750Y-30000
X24500Y-29500
X24750Y-28000
X25000Y-27500
X25250Y-29000
X25500Y-27000
X25750Y-29000
X26000Y-26500
X26250Y-57000
X26500Y-26000
X30020Y-55020
X32000Y-24750
X32250Y-26250
X32750Y-24000
X35250Y-21750
X35750Y-43250
X36250Y-43750
X36250Y-46250
X36750Y-45000
X36750Y-45500
X36750Y-46000
X37000Y-45250
X37000Y-45750
X37250Y-26750
X37250Y-28250
X37500Y-50000
X37600Y-56400
X38000Y-27750
X38000Y-45750
X38000Y-57250
X38250Y-28000
X38400Y-56600
X38500Y-23000
X39200Y-54600
X39500Y-51250
X41000Y-46500
X41750Y-50000
X42000Y-41500
X43250Y-46000
X43750Y-44250
X44000Y-43750
X44000Y-46250
X44500Y-42250
X44500Y-44500
X44500Y-46250
X45000Y-28500
X45000Y-40250
X45000Y-42250
X45000Y-46250
X45250Y-54000
X45250Y-56750
X45750Y-28750
X45750Y-40000
X46250Y-53000
X46800Y-47000
X46800Y-47800
X47250Y-29000
X47750Y-43000
X48000Y-53750
X48200Y-25000
X48250Y-42750
X48500Y-51250
X48750Y-26750
X48750Y-42500
X49000Y-23250
X49000Y-29250
X49000Y-54500
X49250Y-26750
X52750Y-28000
X53250Y-28000
X53600Y-25600
X54000Y-49200
X54250Y-45500
X54750Y-45250
X55000Y-28250
X55250Y-49500
X55500Y-28000
X56000Y-25500
X56000Y-47000
X57500Y-43750
X57750Y-44000
X57750Y-46000
X60000Y-57750
X60750Y-28500
X60750Y-40250
X61500Y-23250
X61500Y-28750
X61500Y-40000
X61500Y-45250
X63000Y-29000
X63750Y-57500
X64750Y-29250
X66000Y-43500
X66250Y-43750
X66500Y-44000
X67000Y-28250
X67250Y-43500
X67500Y-43750
X67750Y-44000
X68500Y-45250
X69500Y-23250
X69750Y-26250
X70000Y-24000
X72000Y-22200
X72750Y-28500
X72750Y-40250
X73250Y-28750
X73250Y-40000
X73250Y-45250
X75000Y-29000
X76500Y-29250
X78250Y-43000
X78250Y-43750
X78500Y-42250
X78500Y-44000
X78750Y-22750
X78750Y-23500
X78750Y-24500
X78750Y-25000
X79000Y-25750
X79000Y-28000
X79000Y-41750
X79750Y-24500
X80250Y-24500
X80250Y-25000
X80500Y-25250
X80500Y-45500
X81250Y-23000
X81250Y-31250
X81500Y-43000
X82250Y-25500
X82250Y-39750
X82750Y-23250
X82750Y-43750
X83000Y-29500
X83000Y-44000
X83500Y-39750
X83750Y-25750
X84250Y-23500
X84750Y-29250
X85250Y-26000
X85750Y-23750
X86500Y-29000
X86750Y-26250
X87250Y-24000
X87250Y-28750
X87500Y-48750
X87750Y-28500
X88250Y-26500
X88500Y-37250
X88500Y-57000
X88750Y-24250
X88750Y-44750
X89000Y-36500
X89000Y-53000
X89250Y-44750
X89250Y-50500
X89500Y-53000
X89750Y-26750
X89750Y-29750
X89750Y-45250
X89750Y-58250
X90000Y-53000
X90000Y-55250
X90000Y-57000
X90250Y-24500
X90500Y-58000
X90750Y-29500
X91000Y-57000
X91250Y-27000
X91250Y-54500
X91250Y-57750
X91500Y-57000
X91750Y-24750
X91750Y-52250
X92000Y-57000
X92750Y-27250
X92750Y-29250
X93250Y-25000
X94250Y-27500
X94750Y-25250
X94750Y-29000
X95250Y-28750
X95500Y-28500
X95500Y-51250
X95750Y-27750
X95750Y-36750
X98750Y-47000
X99500Y-49000
T2
X24000Y-43750
X25250Y-44000
X32000Y-45750
X34000Y-44250
X41500Y-40750
X53500Y-40750
X69000Y-40750
X79250Y-40750
X80500Y-40750
X82000Y-39250
X84500Y-37250
X84750Y-40750
X89500Y-51500
X92500Y-37250
X92750Y-40750
T3
X14266Y-35000
X16234Y-35000
X22750Y-51016
X22750Y-52984
X27559Y-30059
X27559Y-32933
X27559Y-33996
X27559Y-36870
X27559Y-37933
X27559Y-40807
X27559Y-41870
X27559Y-44744
X55118Y-30059
X55118Y-32933
X55118Y-37933
X55118Y-40807
X61024Y-53681
X61024Y-56555
X64961Y-53681
X64961Y-56555
X68898Y-53681
X68898Y-56555
X70866Y-45807
X70866Y-48681
X72835Y-53681
X72835Y-56555
X76772Y-53681
X76772Y-56555
X80709Y-53681
X80709Y-56555
X82677Y-45807
X82677Y-48681
X84646Y-53681
X84646Y-56555
T4
X13000Y-27250
X14250Y-38500
X14516Y-44750
X14921Y-27250
X15234Y-38500
X15500Y-44750
X17500Y-47016
X17500Y-48000
X20750Y-35000
X21734Y-35000
X22750Y-48516
X22750Y-49500
X35000Y-25000
X35000Y-25984
X51329Y-50400
X53250Y-50400
T5
X55080Y-52640
X55080Y-53427
X56080Y-52640
X56080Y-53427
T6
X11250Y-41750
X11250Y-43522
X25926Y-54429
X25926Y-55650
X29724Y-21063
X31496Y-21063
X34114Y-54429
X34114Y-55650
X84843Y-21063
X86614Y-21063
X92461Y-49390
X96516Y-49390
T7
X41250Y-25000
X42250Y-25000
X43250Y-25000
X44250Y-25000
T8
X63681Y-46358
X63681Y-48130
X66240Y-46358
X66240Y-48130
X75492Y-46358
X75492Y-48130
X78051Y-46358
X78051Y-48130
T9
X92461Y-47933
X92461Y-50492
X96516Y-47933
X96516Y-50492
T10
X12234Y-41258
X12234Y-44014
X29232Y-22047
X31988Y-22047
X84350Y-22047
X87106Y-22047
T11
X33169Y-33661
X33169Y-35433
X33169Y-37205
X33858Y-32283
X33858Y-38583
X35433Y-31890
X35433Y-38976
X37008Y-32283
X37008Y-38583
X37697Y-33661
X37697Y-35433
X37697Y-37205
X44980Y-33661
X44980Y-35433
X44980Y-37205
X45669Y-32283
X45669Y-38583
X47244Y-31890
X47244Y-38976
X48819Y-32283
X48819Y-38583
X49508Y-33661
X49508Y-35433
X49508Y-37205
X60728Y-33661
X60728Y-35433
X60728Y-37205
X61417Y-32283
X61417Y-38583
X62992Y-31890
X62992Y-38976
X64567Y-32283
X64567Y-38583
X65256Y-33661
X65256Y-35433
X65256Y-37205
X72539Y-33661
X72539Y-35433
X72539Y-37205
X73228Y-32283
X73228Y-38583
X74803Y-31890
X74803Y-38976
X76378Y-32283
X76378Y-38583
X77067Y-33661
X77067Y-35433
X77067Y-37205
X82776Y-32677
X83026Y-31742
X83026Y-33612
X83711Y-31058
X84646Y-30807
X84646Y-34547
X85581Y-31058
X85581Y-34297
X86265Y-31742
X86265Y-33612
X86516Y-32677
X90650Y-32677
X90900Y-31742
X90900Y-33612
X91585Y-31058
X92520Y-30807
X92520Y-34547
X93455Y-31058
X93455Y-34297
X94139Y-31742
X94139Y-33612
X94390Y-32677
T12
X53218Y-54490
X57942Y-54490
T13
X35433Y-35433
X47244Y-35433
X62992Y-35433
X74803Y-35433
T14
X13780Y-23622
X13780Y-55118
X104331Y-23622
X104331Y-55118
T6
X13138Y-48106G85X13138Y-48894
G05
X13925Y-50350G85X14713Y-50350
G05
X15500Y-48106G85X15500Y-48894
G05
T0
M30
